<?xml version="1.0" encoding="utf-8"?>
<svg xmlns="http://www.w3.org/2000/svg" version="1.1" viewBox="0.00 0.00 512.00 512.00">
<path d="M 369.45 236.66&#xA;  A 0.41 0.41 0.0 0 0 369.04 236.25&#xA;  L 143.44 236.25&#xA;  A 0.41 0.41 0.0 0 0 143.03 236.66&#xA;  L 143.03 275.84&#xA;  A 0.41 0.41 0.0 0 0 143.44 276.25&#xA;  L 369.04 276.25&#xA;  A 0.41 0.41 0.0 0 0 369.45 275.84&#xA;  L 369.45 236.66" fill="none" stroke="#bb996f" stroke-linecap="butt" stroke-width="2.00"/>
<path d="M 48.62 0.00&#xA;  L 463.51 0.00&#xA;  C 491.01 2.48 510.41 22.41 512.00 49.88&#xA;  L 512.00 463.99&#xA;  C 509.38 490.62 489.75 510.11 463.12 512.00&#xA;  L 48.51 512.00&#xA;  C 21.80 509.49 2.48 490.87 0.00 464.12&#xA;  L 0.00 46.51&#xA;  C 3.16 20.37 22.44 2.26 48.62 0.00&#xA;  Z&#xA;  M 369.45 236.66&#xA;  A 0.41 0.41 0.0 0 0 369.04 236.25&#xA;  L 143.44 236.25&#xA;  A 0.41 0.41 0.0 0 0 143.03 236.66&#xA;  L 143.03 275.84&#xA;  A 0.41 0.41 0.0 0 0 143.44 276.25&#xA;  L 369.04 276.25&#xA;  A 0.41 0.41 0.0 0 0 369.45 275.84&#xA;  L 369.45 236.66&#xA;  Z" fill="#eeddbb"/>
<rect fill="#885522" height="40.00" rx="0.41" width="226.42" x="143.03" y="236.25"/>
</svg>