<?xml version="1.0" encoding="utf-8"?>
<svg xmlns="http://www.w3.org/2000/svg" version="1.1" viewBox="0.00 0.00 246.00 246.00">
<g fill="none" stroke-linecap="butt" stroke-width="2.00">
<path d="M 51.16 86.14&#xA;  C 42.86 101.45 40.69 119.42 43.05 136.46" stroke="#4d4374"/>
<path d="M 43.05 136.46&#xA;  Q 46.10 156.05 57.04 170.72&#xA;  C 79.69 201.12 119.88 212.69 155.05 197.39" stroke="#2b566d"/>
<path d="M 155.05 197.39&#xA;  C 188.48 182.44 207.51 151.38 204.14 114.46" stroke="#455c5b"/>
<path d="M 204.14 114.46&#xA;  C 203.60 109.92 203.06 105.21 201.81 100.93&#xA;  C 195.52 79.51 180.27 60.97 160.28 50.55" stroke="#7f714d"/>
<path d="M 160.28 50.55&#xA;  Q 136.31 38.31 110.64 42.27&#xA;  C 85.33 46.16 63.03 63.77 51.16 86.14" stroke="#7f576d"/>
<path d="M 160.28 50.55&#xA;  Q 159.24 50.91 159.85 51.92" stroke="#f5bdab"/>
<path d="M 159.85 51.92&#xA;  L 149.36 47.70" stroke="#f0948b"/>
<path d="M 149.36 47.70&#xA;  L 139.20 44.88" stroke="#ee799b"/>
<path d="M 139.20 44.88&#xA;  C 133.42 43.14 127.64 43.26 121.16 43.19&#xA;  Q 115.01 43.14 109.42 44.20&#xA;  C 104.70 45.09 99.64 45.89 95.26 47.92&#xA;  C 92.92 49.01 89.93 49.71 88.58 51.38&#xA;  Q 88.26 51.78 87.80 51.98&#xA;  Q 85.68 52.90 83.60 53.89&#xA;  C 80.16 55.52 77.01 58.16 73.94 60.42&#xA;  A 0.92 0.83 -64.5 0 1 73.55 60.58&#xA;  Q 73.25 60.61 73.01 60.77&#xA;  Q 72.84 60.88 72.87 61.18&#xA;  A 0.17 0.14 -27.1 0 1 72.82 61.29&#xA;  L 68.31 65.79&#xA;  Q 68.00 66.10 67.59 66.28&#xA;  Q 67.07 66.51 66.88 66.75&#xA;  Q 63.88 70.49 60.81 74.16&#xA;  Q 59.03 76.29 57.54 78.50" stroke="#e880b8"/>
<path d="M 57.54 78.50&#xA;  Q 56.09 79.90 55.28 81.56&#xA;  C 54.08 84.00 53.29 85.33 52.37 87.24&#xA;  Q 52.17 87.65 51.67 87.71&#xA;  Q 51.13 87.77 51.14 87.23&#xA;  L 51.16 86.14" stroke="#c38fd2"/>
<path d="M 139.20 44.88&#xA;  Q 133.07 43.97 126.75 43.74&#xA;  C 121.74 43.56 116.98 43.07 114.51 44.52&#xA;  C 112.36 45.78 108.72 45.55 106.25 45.64&#xA;  C 103.46 45.73 101.40 47.58 99.64 48.34&#xA;  Q 94.95 50.35 90.41 52.70&#xA;  Q 90.30 52.75 87.27 54.16&#xA;  Q 85.19 55.13 83.65 56.49" stroke="#e15688"/>
<path d="M 83.65 56.49&#xA;  Q 81.08 58.46 78.03 59.96&#xA;  Q 75.82 61.04 74.49 62.49&#xA;  Q 73.03 64.08 71.60 65.69&#xA;  Q 71.28 66.05 70.87 66.28&#xA;  Q 69.96 66.80 69.48 67.74&#xA;  Q 69.25 68.18 68.84 68.45&#xA;  Q 66.62 69.89 65.06 72.11" stroke="#b74883"/>
<path d="M 65.06 72.11&#xA;  C 63.41 72.90 63.96 74.75 61.95 75.45&#xA;  Q 61.49 75.61 61.25 76.04&#xA;  Q 60.20 77.95 58.38 79.13&#xA;  A 1.04 1.02 -16.0 0 0 57.90 79.98&#xA;  C 57.87 81.29 56.90 82.42 56.52 83.36&#xA;  C 55.52 85.89 53.45 86.89 52.45 89.32&#xA;  Q 52.27 89.77 51.86 90.01&#xA;  Q 51.38 90.31 51.40 90.91&#xA;  Q 51.42 91.41 51.15 91.82&#xA;  L 49.57 94.25" stroke="#9d51aa"/>
<path d="M 49.57 94.25&#xA;  L 51.89 88.75&#xA;  Q 52.11 88.23 52.60 87.96&#xA;  Q 53.40 87.51 53.58 86.50&#xA;  A 1.18 1.16 -13.6 0 1 54.04 85.76&#xA;  C 55.48 84.68 55.23 83.43 56.13 82.14&#xA;  Q 57.31 80.48 57.54 78.50" stroke="#b66cbf"/>
<path d="M 44.40 134.17&#xA;  L 43.05 136.46" stroke="#6f8ed1"/>
<path d="M 204.14 114.46&#xA;  L 204.08 116.13&#xA;  Q 204.06 116.84 203.41 116.55&#xA;  L 202.67 116.22" stroke="#bac199"/>
<path d="M 202.67 116.22&#xA;  L 202.02 111.72" stroke="#bea563"/>
<path d="M 149.36 47.70&#xA;  L 146.77 48.04&#xA;  Q 145.89 48.15 146.69 48.53&#xA;  L 158.38 54.00&#xA;  Q 158.38 54.00 158.38 54.03&#xA;  Q 158.38 54.04 158.38 54.06&#xA;  Q 158.38 54.12 158.33 54.08&#xA;  Q 157.88 53.64 157.24 54.06" stroke="#e96a5a"/>
<path d="M 157.24 54.06&#xA;  Q 146.30 48.89 134.23 47.11&#xA;  Q 124.39 45.66 114.51 47.02&#xA;  Q 109.68 47.69 105.05 48.19" stroke="#923c49"/>
<path d="M 105.05 48.19&#xA;  Q 102.55 48.43 100.37 49.35&#xA;  Q 97.89 50.39 95.90 50.91&#xA;  Q 93.13 51.64 90.65 53.18&#xA;  Q 87.44 55.17 83.65 56.49" stroke="#be4166"/>
<path d="M 159.85 51.92&#xA;  C 163.29 54.12 166.65 56.14 169.83 58.73&#xA;  Q 173.93 62.06 178.04 65.39&#xA;  Q 178.42 65.70 178.56 66.17&#xA;  Q 178.71 66.65 179.22 66.65&#xA;  C 183.21 70.35 186.04 74.46 189.37 78.68&#xA;  Q 191.11 80.87 192.63 83.23&#xA;  A 3.56 2.22 55.9 0 1 192.89 83.66&#xA;  Q 194.99 87.57 196.86 91.58&#xA;  Q 201.36 101.17 202.02 111.72" stroke="#efad6b"/>
<path d="M 202.02 111.72&#xA;  L 200.34 104.07&#xA;  Q 200.24 103.59 199.99 103.16&#xA;  Q 199.36 102.03 199.09 100.02&#xA;  Q 198.79 97.83 196.96 94.91&#xA;  Q 196.22 93.72 195.35 91.33&#xA;  Q 194.64 89.38 193.14 87.86&#xA;  Q 192.80 87.51 192.78 87.02&#xA;  C 192.71 85.41 191.41 85.21 190.70 84.37&#xA;  C 187.70 80.83 185.61 76.58 182.24 73.42&#xA;  Q 180.82 72.10 179.08 69.85&#xA;  Q 177.64 68.00 175.68 66.66&#xA;  Q 175.29 66.40 175.18 65.95&#xA;  Q 174.92 64.94 173.90 64.69&#xA;  Q 173.42 64.57 173.10 64.19&#xA;  C 172.64 63.63 172.44 63.25 171.82 62.85&#xA;  Q 169.33 61.24 167.27 59.10&#xA;  Q 166.20 57.99 163.40 57.32" stroke="#b97c42"/>
<path d="M 47.16 118.90&#xA;  Q 46.80 126.95 47.19 131.74&#xA;  Q 47.25 132.47 48.02 133.08" stroke="#464084"/>
<path d="M 48.34 135.24&#xA;  Q 47.39 139.61 49.18 141.29" stroke="#464084"/>
<path d="M 51.36 148.99&#xA;  L 52.08 152.06&#xA;  Q 52.19 152.55 52.66 152.75&#xA;  Q 53.43 153.09 53.50 153.74&#xA;  Q 53.78 156.05 55.26 157.16&#xA;  A 1.37 1.30 11.8 0 1 55.76 157.88&#xA;  Q 56.23 159.56 57.22 160.90" stroke="#464084"/>
<path d="M 61.43 167.00&#xA;  L 61.42 167.40&#xA;  A 0.63 0.63 0.0 0 0 61.93 168.03&#xA;  Q 62.40 168.13 62.83 168.66&#xA;  Q 64.30 170.45 65.82 172.64" stroke="#464084"/>
<path d="M 68.01 175.30&#xA;  L 78.35 184.55" stroke="#464084"/>
<path d="M 78.35 184.55&#xA;  Q 73.30 182.67 69.97 178.40&#xA;  Q 69.64 177.97 69.07 177.85&#xA;  Q 68.56 177.74 68.26 177.31&#xA;  Q 67.47 176.16 66.39 175.33&#xA;  Q 65.92 174.98 65.64 174.46&#xA;  Q 64.65 172.68 63.02 171.42&#xA;  Q 62.61 171.11 62.49 170.61&#xA;  Q 62.32 169.90 61.47 169.69&#xA;  A 0.40 0.39 -12.7 0 1 61.27 169.57&#xA;  Q 60.28 168.45 59.02 167.73&#xA;  Q 58.58 167.48 58.31 167.06&#xA;  L 53.80 160.09&#xA;  Q 53.51 159.64 53.62 159.11&#xA;  Q 53.83 158.12 52.86 157.90&#xA;  A 0.33 0.33 0.0 0 1 52.62 157.47&#xA;  Q 52.74 157.08 52.45 156.89&#xA;  Q 52.15 156.69 52.29 157.02&#xA;  Q 52.44 157.36 52.59 157.69&#xA;  Q 52.62 157.74 52.58 157.78&#xA;  Q 52.47 157.92 52.33 157.93&#xA;  Q 52.14 157.95 52.08 157.77&#xA;  C 51.15 155.35 50.67 152.87 49.72 150.41&#xA;  Q 47.68 145.12 46.04 139.70&#xA;  Q 45.63 138.34 45.89 135.76&#xA;  Q 46.11 133.60 45.57 127.90&#xA;  Q 45.57 127.88 45.59 127.88&#xA;  Q 45.59 127.88 45.60 127.88&#xA;  Q 45.63 127.87 45.63 127.87&#xA;  L 45.60 133.77&#xA;  Q 45.60 133.94 45.43 133.94&#xA;  L 45.18 133.93&#xA;  Q 44.93 133.93 44.93 133.68&#xA;  Q 44.93 130.99 44.60 128.39&#xA;  Q 44.60 128.38 44.60 128.38&#xA;  Q 44.61 128.38 44.62 128.37&#xA;  Q 44.65 128.37 44.65 128.40&#xA;  L 44.40 134.17" stroke="#5673bc"/>
<path d="M 44.40 134.17&#xA;  Q 43.36 127.86 43.55 126.00&#xA;  Q 44.34 118.29 44.14 115.25&#xA;  Q 43.98 112.86 44.67 110.55&#xA;  Q 45.16 108.92 45.70 107.31&#xA;  Q 46.76 104.15 47.34 100.84&#xA;  C 47.75 98.43 49.19 96.70 49.57 94.25" stroke="#7960c3"/>
<path d="M 90.21 54.25&#xA;  Q 82.45 57.91 75.89 63.47&#xA;  Q 75.51 63.79 75.03 63.90&#xA;  Q 74.63 63.99 74.44 64.18&#xA;  Q 71.71 66.97 69.03 69.28" stroke="#642e44"/>
<path d="M 69.03 69.28&#xA;  Q 67.12 70.08 65.06 72.11" stroke="#7a3c88"/>
<path d="M 78.35 184.55&#xA;  L 80.21 186.10" stroke="#3c6e92"/>
<path d="M 80.21 186.10&#xA;  Q 79.94 186.93 80.76 187.25&#xA;  Q 84.09 188.53 85.95 190.59&#xA;  Q 86.27 190.94 86.71 191.10&#xA;  C 87.82 191.51 88.37 192.63 89.79 192.32" stroke="#5673bc"/>
<path d="M 89.79 192.32&#xA;  L 99.76 196.08" stroke="#3c6e92"/>
<path d="M 99.76 196.08&#xA;  L 107.67 198.31" stroke="#5673bc"/>
<path d="M 107.67 198.31&#xA;  C 117.86 200.97 128.57 200.65 139.32 198.98&#xA;  Q 139.54 198.95 139.63 198.75&#xA;  Q 139.76 198.47 140.01 198.45&#xA;  Q 143.30 198.24 146.50 197.52&#xA;  Q 147.01 197.40 147.55 196.71&#xA;  Q 147.61 196.63 147.51 196.62&#xA;  Q 147.39 196.60 147.27 196.51&#xA;  A 0.08 0.08 0.0 0 1 147.24 196.43&#xA;  Q 147.29 196.25 147.66 195.96" stroke="#3c6e92"/>
<path d="M 147.66 195.96&#xA;  L 151.74 194.78" stroke="#50858d"/>
<path d="M 202.67 116.22&#xA;  L 202.51 128.44" stroke="#849071"/>
<path d="M 202.51 128.44&#xA;  Q 202.81 122.20 202.21 115.99&#xA;  Q 202.17 115.56 201.82 115.45&#xA;  Q 201.50 115.34 201.41 115.01&#xA;  L 200.68 112.49&#xA;  Q 200.53 111.97 200.11 111.64&#xA;  Q 199.72 111.32 199.80 110.80&#xA;  Q 199.88 110.32 199.76 109.84&#xA;  Q 199.36 108.37 198.51 107.27" stroke="#6d6e45"/>
<path d="M 155.05 197.39&#xA;  Q 154.20 197.27 153.92 196.24&#xA;  Q 153.78 195.71 153.33 196.03&#xA;  Q 152.04 196.92 150.49 196.29&#xA;  Q 150.04 196.11 150.51 195.96&#xA;  L 151.85 195.54&#xA;  Q 152.42 195.37 151.85 195.19&#xA;  Q 151.21 194.98 150.59 195.39&#xA;  Q 150.54 195.43 150.48 195.37&#xA;  Q 150.44 195.33 150.35 195.37&#xA;  Q 150.56 195.34 150.72 195.24&#xA;  Q 150.91 195.12 151.14 195.11&#xA;  Q 151.74 195.08 151.74 194.78" stroke="#66a7b9"/>
<path d="M 151.74 194.78&#xA;  Q 152.92 194.58 153.77 194.05" stroke="#6a8a7b"/>
<path d="M 153.77 194.05&#xA;  L 154.73 194.02&#xA;  A 1.23 1.20 19.7 0 0 155.58 193.63&#xA;  Q 157.43 191.65 159.83 190.52&#xA;  A 0.72 0.72 0.0 0 0 160.21 190.07&#xA;  Q 160.35 189.56 160.79 189.67&#xA;  A 2.99 2.29 -62.7 0 0 163.51 188.39&#xA;  C 164.33 187.24 165.55 187.25 166.49 186.66&#xA;  Q 169.08 185.06 170.15 184.66&#xA;  Q 172.39 183.82 173.12 182.08&#xA;  Q 173.25 181.79 173.53 181.65&#xA;  Q 173.83 181.50 173.95 181.19&#xA;  Q 174.03 180.98 173.81 180.99&#xA;  Q 173.66 181.00 173.51 181.02&#xA;  Q 173.02 181.10 173.41 180.80&#xA;  L 174.71 179.81" stroke="#6a8a7b"/>
<path d="M 174.71 179.81&#xA;  Q 175.51 179.86 175.73 179.50&#xA;  C 176.69 177.89 178.90 177.34 180.31 175.75&#xA;  Q 181.73 174.15 182.54 173.35&#xA;  Q 184.11 171.78 185.47 170.04&#xA;  Q 186.90 168.21 188.27 166.17" stroke="#6a8a7b"/>
<path d="M 188.27 166.17&#xA;  L 191.85 162.53&#xA;  Q 191.94 162.43 191.81 162.39&#xA;  Q 191.66 162.34 191.57 162.29&#xA;  Q 191.52 162.26 191.55 162.21&#xA;  L 194.76 154.54" stroke="#567380"/>
<path d="M 157.24 54.06&#xA;  L 163.40 57.32" stroke="#945739"/>
<path d="M 163.40 57.32&#xA;  Q 174.06 65.30 182.63 75.16&#xA;  C 184.14 76.90 185.39 79.33 186.63 80.87&#xA;  Q 190.20 85.29 192.14 89.31" stroke="#624f31"/>
<path d="M 192.14 89.31&#xA;  Q 190.06 89.00 189.79 86.75&#xA;  Q 189.74 86.31 189.32 86.18&#xA;  Q 188.63 85.96 188.67 85.12&#xA;  A 1.06 1.06 0.0 0 0 187.77 84.02&#xA;  L 184.03 83.45&#xA;  Q 183.87 83.42 183.87 83.26&#xA;  Q 183.87 83.10 183.87 82.93&#xA;  Q 183.88 82.54 183.57 82.31&#xA;  Q 182.22 81.28 181.77 79.66&#xA;  Q 181.63 79.14 181.17 78.86&#xA;  C 179.68 77.97 179.88 76.07 178.67 74.62&#xA;  A 1.24 0.19 81.1 0 1 178.39 73.75&#xA;  Q 178.29 73.24 178.50 72.77&#xA;  Q 178.69 72.33 178.21 72.38&#xA;  Q 177.97 72.41 177.73 72.25&#xA;  A 1.42 0.40 31.6 0 1 176.82 71.26&#xA;  Q 177.00 70.53 176.27 70.26&#xA;  Q 175.90 70.13 175.71 69.78&#xA;  Q 174.93 68.36 173.64 68.26&#xA;  Q 172.72 68.18 172.70 68.17&#xA;  Q 172.40 68.01 172.04 68.28&#xA;  Q 171.89 68.39 171.90 68.58&#xA;  Q 171.90 68.71 171.91 68.84&#xA;  Q 171.97 69.35 171.58 69.02&#xA;  C 169.79 67.56 167.43 66.85 165.93 65.25&#xA;  C 164.12 63.31 162.88 61.35 159.76 62.37&#xA;  C 157.51 63.11 154.49 61.37 152.06 61.38&#xA;  Q 149.54 61.39 147.01 61.38&#xA;  Q 146.83 61.38 146.92 61.23&#xA;  Q 147.08 60.97 147.44 60.96&#xA;  A 0.54 0.53 -14.2 0 0 147.90 60.20&#xA;  L 146.82 57.94&#xA;  Q 146.70 57.69 146.44 57.62&#xA;  Q 145.71 57.41 145.22 56.83&#xA;  Q 144.91 56.47 144.44 56.43&#xA;  Q 143.39 56.35 142.34 56.24&#xA;  Q 141.40 56.14 140.69 56.29&#xA;  Q 136.89 57.07 132.99 57.09&#xA;  Q 132.31 57.10 131.88 56.66&#xA;  Q 131.53 56.31 131.05 56.19&#xA;  Q 129.16 55.75 127.44 54.80&#xA;  Q 126.96 54.54 126.42 54.52&#xA;  L 123.78 54.44&#xA;  Q 123.21 54.42 122.96 53.90&#xA;  Q 121.73 51.25 119.00 51.89&#xA;  A 0.92 0.92 0.0 0 1 118.00 51.48&#xA;  Q 117.00 49.84 115.06 49.80&#xA;  Q 114.62 49.79 114.20 49.92&#xA;  L 112.38 50.48&#xA;  Q 112.02 50.59 111.80 50.88&#xA;  L 110.74 52.25&#xA;  Q 110.43 52.65 109.93 52.54&#xA;  Q 108.32 52.16 106.66 52.48&#xA;  Q 106.16 52.58 105.68 52.41&#xA;  Q 103.97 51.85 102.17 52.60&#xA;  Q 101.65 52.82 101.10 52.70&#xA;  Q 99.60 52.37 98.27 53.15&#xA;  A 1.05 1.05 0.0 0 1 97.27 53.19&#xA;  Q 96.27 52.71 95.62 53.42&#xA;  Q 95.27 53.81 94.74 53.86&#xA;  L 90.21 54.25" stroke="#382927"/>
<path d="M 90.21 54.25&#xA;  L 92.88 53.32&#xA;  Q 93.31 53.17 93.66 52.89&#xA;  Q 94.43 52.26 95.36 51.99&#xA;  C 97.70 51.31 99.44 50.21 102.00 49.66&#xA;  Q 103.44 49.35 105.05 48.19" stroke="#692e44"/>
<path d="M 81.91 185.78&#xA;  Q 80.71 185.83 80.38 185.26&#xA;  Q 80.12 184.83 79.84 184.59&#xA;  Q 79.53 184.30 79.68 184.70&#xA;  L 80.21 186.10" stroke="#464084"/>
<path d="M 200.05 126.46&#xA;  Q 200.32 131.58 198.94 136.46" stroke="#3d473a"/>
<path d="M 198.94 136.46&#xA;  Q 197.24 140.94 195.86 145.55&#xA;  C 195.66 146.23 194.86 147.44 194.45 148.07&#xA;  Q 193.98 148.80 193.65 150.05&#xA;  Q 193.30 151.41 192.53 152.60&#xA;  Q 192.26 153.02 192.22 153.51&#xA;  Q 191.86 157.30 189.39 160.10&#xA;  C 188.44 161.19 188.11 162.32 187.64 163.60&#xA;  A 0.42 0.41 10.1 0 1 187.25 163.87&#xA;  Q 187.11 163.87 186.97 163.87&#xA;  Q 186.83 163.87 186.73 163.96&#xA;  Q 185.27 165.26 184.95 166.94&#xA;  A 1.33 1.28 78.7 0 1 184.42 167.77&#xA;  Q 182.58 169.10 182.02 171.22" stroke="#2a303f"/>
<path d="M 182.02 171.22&#xA;  C 180.41 171.37 179.99 172.15 178.68 173.17&#xA;  Q 178.51 173.30 178.56 173.45&#xA;  Q 178.66 173.75 178.90 173.53&#xA;  Q 179.07 173.36 179.28 173.31&#xA;  Q 179.61 173.22 179.48 173.54&#xA;  L 179.27 174.07" stroke="#2a303f"/>
<path d="M 179.27 174.07&#xA;  L 174.71 179.81" stroke="#3d473a"/>
<path d="M 174.71 179.81&#xA;  L 173.78 179.74" stroke="#3d473a"/>
<path d="M 173.78 179.74&#xA;  Q 172.22 179.35 170.93 181.80" stroke="#2a303f"/>
<path d="M 170.93 181.80&#xA;  Q 169.56 182.26 168.65 183.78" stroke="#3d473a"/>
<path d="M 168.65 183.78&#xA;  Q 166.06 183.81 165.52 185.76" stroke="#2a303f"/>
<path d="M 165.52 185.76&#xA;  L 157.16 188.12&#xA;  Q 156.69 188.25 156.42 188.65&#xA;  L 155.91 189.39&#xA;  Q 155.61 189.82 155.08 189.84&#xA;  Q 153.35 189.91 152.71 191.44&#xA;  A 0.73 0.72 -78.0 0 1 152.03 191.89&#xA;  Q 150.47 191.85 149.40 193.04&#xA;  Q 149.10 193.36 148.67 193.44&#xA;  L 144.22 194.25&#xA;  A 0.41 0.40 84.2 0 0 143.89 194.66&#xA;  Q 143.89 194.97 143.62 195.13&#xA;  Q 143.07 195.47 142.88 195.48&#xA;  Q 137.61 195.71 132.34 196.10&#xA;  C 126.25 196.54 120.13 196.07 113.95 196.12&#xA;  C 112.17 196.14 107.91 195.51 106.37 194.65&#xA;  C 104.41 193.55 101.00 193.57 98.77 193.40&#xA;  A 0.63 0.62 76.2 0 1 98.27 193.09&#xA;  L 98.11 192.80&#xA;  Q 97.86 192.36 97.36 192.34&#xA;  Q 94.87 192.24 92.83 190.87&#xA;  Q 92.43 190.60 92.15 190.20&#xA;  C 91.33 189.06 90.49 188.49 88.98 188.25&#xA;  Q 86.81 187.90 84.72 187.22&#xA;  Q 84.48 187.15 84.58 187.37&#xA;  Q 84.63 187.51 84.80 187.57&#xA;  Q 84.90 187.61 84.79 187.62&#xA;  Q 84.64 187.63 84.50 187.63&#xA;  Q 84.39 187.64 84.34 187.53&#xA;  Q 83.49 185.77 81.60 185.74" stroke="#2a303f"/>
<path d="M 81.60 185.74&#xA;  Q 81.76 185.76 81.91 185.78" stroke="#443569"/>
<path d="M 81.91 185.78&#xA;  C 80.64 184.52 78.51 182.24 76.96 181.61&#xA;  Q 76.56 181.45 76.36 180.94&#xA;  Q 76.22 180.59 75.93 180.33&#xA;  Q 75.37 179.83 74.61 179.72&#xA;  Q 74.07 179.64 73.74 179.21&#xA;  Q 71.47 176.28 68.01 175.30" stroke="#2a303f"/>
<path d="M 68.01 175.30&#xA;  L 65.82 172.64" stroke="#443569"/>
<path d="M 65.82 172.64&#xA;  Q 65.97 170.81 64.77 169.94&#xA;  Q 64.42 169.68 64.18 169.31&#xA;  L 61.14 164.64&#xA;  A 0.61 0.60 72.9 0 0 60.64 164.37&#xA;  Q 60.47 164.37 60.31 164.36&#xA;  Q 59.73 164.33 60.47 165.01&#xA;  Q 61.24 165.72 61.43 167.00" stroke="#2a303f"/>
<path d="M 61.43 167.00&#xA;  Q 60.60 167.13 60.21 166.27&#xA;  Q 59.48 164.66 58.51 163.83&#xA;  Q 58.13 163.51 57.97 163.04&#xA;  L 57.22 160.90" stroke="#443569"/>
<path d="M 57.22 160.90&#xA;  Q 56.65 157.83 54.85 156.02&#xA;  Q 54.45 155.62 54.42 155.05&#xA;  Q 54.26 152.27 52.50 150.05&#xA;  A 0.64 0.62 -65.6 0 1 52.38 149.71&#xA;  Q 52.36 149.12 52.40 148.57&#xA;  Q 52.41 148.50 52.40 148.57&#xA;  Q 52.34 148.89 52.25 149.03&#xA;  Q 52.13 149.23 52.09 149.00&#xA;  Q 51.69 146.37 50.44 144.00&#xA;  Q 50.42 143.96 50.39 143.99&#xA;  L 50.10 144.23&#xA;  Q 49.98 144.34 50.07 144.48&#xA;  Q 51.38 146.58 51.36 148.99" stroke="#2a303f"/>
<path d="M 51.36 148.99&#xA;  L 49.18 141.29" stroke="#443569"/>
<path d="M 49.18 141.29&#xA;  L 49.49 141.43&#xA;  Q 49.91 141.62 49.80 141.17&#xA;  L 48.34 135.24" stroke="#2a303f"/>
<path d="M 48.34 135.24&#xA;  Q 47.52 134.74 48.02 133.08" stroke="#443569"/>
<path d="M 48.02 133.08&#xA;  L 47.16 118.90" stroke="#2a303f"/>
<path d="M 47.16 118.90&#xA;  Q 47.65 111.67 49.06 104.48&#xA;  Q 49.11 104.23 49.25 104.04&#xA;  Q 49.40 103.84 49.56 103.64&#xA;  Q 49.87 103.26 49.89 102.77&#xA;  Q 49.93 101.35 50.39 100.00&#xA;  Q 52.12 94.92 54.54 90.15&#xA;  Q 55.63 88.01 56.40 85.78&#xA;  Q 57.43 82.85 61.44 78.04" stroke="#443569"/>
<path d="M 192.14 89.31&#xA;  Q 196.62 97.63 198.51 107.27" stroke="#5d4f30"/>
<path d="M 198.51 107.27&#xA;  Q 200.73 116.68 200.05 126.46" stroke="#43493b"/>
<path d="M 200.05 126.46&#xA;  Q 199.69 118.41 198.42 110.41&#xA;  C 198.28 109.50 197.91 109.02 197.79 108.15&#xA;  Q 196.95 102.02 193.39 97.37&#xA;  A 2.58 2.58 0.0 0 0 191.73 96.38&#xA;  Q 188.03 95.79 184.74 94.04&#xA;  Q 184.24 93.77 184.38 93.22&#xA;  Q 184.58 92.36 183.79 92.25&#xA;  Q 183.23 91.37 182.70 90.47&#xA;  Q 182.65 90.38 182.57 90.45&#xA;  Q 182.52 90.49 182.46 90.51&#xA;  Q 182.24 90.57 182.14 90.25&#xA;  Q 182.05 89.97 181.79 89.79&#xA;  Q 181.69 89.72 181.57 89.75&#xA;  L 181.14 89.86&#xA;  Q 180.78 89.95 180.84 90.31&#xA;  Q 181.02 91.42 182.08 91.94&#xA;  Q 182.42 92.11 182.07 92.24&#xA;  Q 180.74 92.76 180.00 91.85&#xA;  Q 175.41 86.21 171.94 83.29&#xA;  Q 171.56 82.96 171.06 83.04&#xA;  L 169.21 83.34&#xA;  Q 168.72 83.41 168.28 83.18&#xA;  Q 163.62 80.69 159.50 77.37&#xA;  Q 157.40 75.67 151.69 72.99&#xA;  C 150.00 72.20 147.89 72.20 146.03 71.34&#xA;  Q 145.59 71.14 145.12 71.13&#xA;  C 143.47 71.11 142.60 70.27 140.85 70.38&#xA;  Q 140.40 70.41 140.18 70.01&#xA;  C 139.65 69.02 138.73 68.76 137.68 69.05&#xA;  Q 137.20 69.18 136.75 68.88&#xA;  Q 136.34 68.59 135.83 68.65&#xA;  Q 134.64 68.77 133.66 69.36&#xA;  Q 133.29 69.58 132.91 69.38&#xA;  Q 130.93 68.34 129.15 69.36&#xA;  Q 128.69 69.62 128.16 69.62&#xA;  L 126.25 69.62&#xA;  A 2.09 2.04 -31.6 0 1 125.36 69.42&#xA;  C 124.09 68.82 121.82 69.15 121.10 68.61&#xA;  Q 120.72 68.33 120.26 68.29&#xA;  L 108.51 67.45&#xA;  A 0.98 0.93 -54.7 0 0 108.01 67.55&#xA;  C 106.79 68.14 105.50 67.58 104.51 67.66&#xA;  Q 102.91 67.80 101.32 67.89&#xA;  Q 101.20 67.90 101.13 68.01&#xA;  L 100.84 68.46&#xA;  Q 100.62 68.80 100.24 68.96&#xA;  Q 98.07 69.89 95.74 70.32&#xA;  C 92.69 70.89 92.34 72.62 90.62 74.71&#xA;  Q 90.37 75.02 90.37 75.41&#xA;  L 90.37 75.75&#xA;  A 0.97 0.14 -14.5 0 1 89.50 76.11&#xA;  Q 89.20 76.19 88.95 75.95&#xA;  Q 88.88 75.88 88.87 75.99&#xA;  Q 88.87 76.14 88.86 76.29&#xA;  A 0.24 0.24 0.0 0 1 88.45 76.46&#xA;  Q 87.79 75.83 87.28 76.43&#xA;  Q 86.94 76.83 86.42 76.88&#xA;  L 81.57 77.39&#xA;  Q 81.19 77.43 80.86 77.66&#xA;  Q 79.89 78.33 79.15 77.62&#xA;  Q 79.12 77.58 79.12 77.63&#xA;  L 79.12 77.99&#xA;  Q 79.11 78.43 78.70 78.27&#xA;  Q 76.79 77.56 75.89 78.93&#xA;  Q 75.66 79.27 75.28 79.14&#xA;  Q 74.87 79.00 74.70 78.61&#xA;  Q 74.51 78.19 74.09 78.02&#xA;  Q 72.61 77.41 72.23 75.72&#xA;  Q 72.02 74.82 72.28 74.76&#xA;  A 0.97 0.87 -36.6 0 0 72.62 73.07&#xA;  Q 72.08 72.79 72.11 72.07&#xA;  Q 72.13 71.54 71.73 71.88&#xA;  C 69.17 74.03 67.21 75.90 64.36 76.42&#xA;  Q 63.90 76.50 63.55 76.82&#xA;  Q 62.60 77.69 61.44 78.04" stroke="#2d2725"/>
<path d="M 61.44 78.04&#xA;  Q 62.28 76.98 63.12 76.00&#xA;  C 64.40 74.52 64.52 72.57 66.75 71.64&#xA;  Q 67.21 71.45 67.53 71.06&#xA;  L 69.03 69.28" stroke="#4a376a"/>
<path d="M 81.60 185.74&#xA;  Q 83.93 187.82 86.16 189.45&#xA;  C 87.37 190.33 88.91 190.33 89.79 192.32" stroke="#464084"/>
<path d="M 153.77 194.05&#xA;  L 148.26 194.93" stroke="#405154"/>
<path d="M 148.26 194.93&#xA;  Q 146.80 194.69 145.51 195.88&#xA;  Q 145.37 196.01 145.56 196.02&#xA;  Q 145.87 196.03 145.97 195.92" stroke="#464084"/>
<path d="M 145.97 195.92&#xA;  Q 146.80 196.19 147.66 195.96" stroke="#405154"/>
<path d="M 107.67 198.31&#xA;  L 113.83 199.03&#xA;  Q 113.88 199.04 113.88 198.98&#xA;  Q 113.88 198.96 113.88 198.93&#xA;  Q 113.88 198.88 113.75 198.85&#xA;  L 106.26 197.58&#xA;  A 0.22 0.22 0.0 0 1 106.26 197.15&#xA;  Q 107.01 197.03 107.71 197.25&#xA;  Q 107.87 197.30 107.77 197.17&#xA;  Q 107.58 196.91 107.37 196.87&#xA;  Q 103.57 196.21 99.76 196.08" stroke="#464084"/>
<path d="M 145.97 195.92&#xA;  Q 147.53 195.54 148.26 194.93" stroke="#5a577f"/>
<path d="M 202.51 128.44&#xA;  Q 201.51 136.02 200.13 143.50&#xA;  Q 199.91 144.71 199.35 145.03&#xA;  A 0.55 0.55 0.0 0 0 199.08 145.63&#xA;  Q 199.37 146.91 198.80 147.95&#xA;  Q 198.55 148.41 198.63 148.92&#xA;  Q 198.79 150.04 198.00 150.87&#xA;  Q 197.70 151.19 197.78 150.75&#xA;  L 198.35 147.64&#xA;  Q 198.41 147.29 198.17 147.55&#xA;  L 197.72 148.04&#xA;  Q 197.35 148.43 197.38 148.98&#xA;  Q 197.45 149.98 196.75 150.80&#xA;  Q 196.46 151.14 196.40 151.59&#xA;  Q 196.19 153.33 194.76 154.54" stroke="#6a8a7b"/>
<path d="M 194.76 154.54&#xA;  Q 193.96 156.40 192.66 157.60&#xA;  Q 192.10 158.13 192.37 157.41&#xA;  Q 194.11 152.80 196.04 148.25&#xA;  C 196.40 147.40 196.35 146.01 196.78 145.20&#xA;  Q 197.68 143.47 197.76 143.17&#xA;  Q 198.64 139.91 198.94 136.46" stroke="#405154"/>
<path d="M 153.77 194.05&#xA;  Q 154.83 192.26 156.76 191.53&#xA;  C 158.20 190.99 159.03 190.29 160.21 189.54&#xA;  C 162.00 188.41 163.40 186.73 165.52 185.76" stroke="#405154"/>
<path d="M 165.52 185.76&#xA;  Q 167.35 185.63 168.65 183.78" stroke="#405154"/>
<path d="M 188.27 166.17&#xA;  Q 190.21 162.87 192.05 159.47&#xA;  Q 192.24 159.12 192.07 158.93&#xA;  Q 191.77 158.59 191.56 158.99&#xA;  Q 190.38 161.17 189.04 163.23&#xA;  C 188.43 164.17 187.39 164.63 186.88 165.38&#xA;  Q 185.04 168.07 183.17 170.71&#xA;  Q 182.78 171.26 182.02 171.22" stroke="#405154"/>
<path d="M 179.27 174.07&#xA;  Q 181.32 173.46 182.02 171.22" stroke="#405154"/>
<path d="M 173.78 179.74&#xA;  Q 172.76 181.51 170.93 181.80" stroke="#405154"/>
<path d="M 93.13 101.96&#xA;  L 93.20 136.50" stroke="#5f5b5e"/>
<path d="M 93.20 136.50&#xA;  L 92.94 163.50" stroke="#626765"/>
<path d="M 92.94 163.50&#xA;  Q 90.66 169.40 95.96 171.76&#xA;  Q 97.83 172.59 100.98 173.52&#xA;  C 104.17 174.47 107.85 174.09 110.41 174.21&#xA;  Q 114.57 174.39 118.73 174.57&#xA;  C 120.02 174.62 121.44 175.45 122.75 175.22&#xA;  Q 126.22 174.62 129.75 174.33&#xA;  C 132.50 174.11 134.82 172.98 137.57 172.48&#xA;  Q 137.97 172.41 138.09 172.02&#xA;  Q 138.18 171.70 138.57 171.87&#xA;  A 0.81 0.79 -43.5 0 0 139.20 171.88&#xA;  Q 140.43 171.38 141.69 170.90&#xA;  Q 142.57 170.56 143.12 170.73&#xA;  Q 143.96 170.98 144.18 172.00&#xA;  Q 144.27 172.42 144.66 172.60&#xA;  Q 146.09 173.25 145.93 174.71&#xA;  Q 145.87 175.27 146.42 175.38&#xA;  Q 147.94 175.70 149.35 175.29&#xA;  Q 149.84 175.15 150.30 175.35&#xA;  Q 152.77 176.39 155.49 176.10&#xA;  Q 155.83 176.06 155.97 175.75&#xA;  Q 156.28 175.02 157.13 174.89&#xA;  Q 157.70 174.80 157.36 174.33&#xA;  Q 156.70 173.44 155.80 173.71" stroke="#18181a"/>
<path d="M 155.80 173.71&#xA;  Q 158.11 172.53 159.57 170.47" stroke="#7f6f6d"/>
<path d="M 159.57 170.47&#xA;  Q 162.60 170.51 162.10 164.99&#xA;  Q 161.91 162.82 160.01 160.28&#xA;  Q 159.75 159.92 159.30 159.86&#xA;  C 156.82 159.51 156.50 157.56 155.51 155.78&#xA;  Q 155.31 155.41 155.45 155.02&#xA;  L 156.28 152.83&#xA;  Q 156.44 152.41 156.40 151.96&#xA;  Q 156.23 149.68 156.14 147.38&#xA;  C 156.09 146.38 155.70 145.99 155.37 145.09&#xA;  Q 155.20 144.60 155.38 144.12&#xA;  C 156.58 140.92 155.12 135.69 154.33 133.09&#xA;  A 1.14 0.12 71.7 0 1 154.13 132.19&#xA;  Q 154.24 131.55 153.74 131.49&#xA;  Q 152.93 130.32 152.17 129.10&#xA;  Q 151.90 128.65 151.89 128.13&#xA;  L 151.85 124.81&#xA;  Q 151.85 124.23 151.30 124.03&#xA;  Q 150.96 123.90 150.70 123.66&#xA;  Q 150.38 123.36 150.31 122.74&#xA;  C 150.13 121.04 150.13 120.06 149.26 118.43&#xA;  C 148.52 117.05 147.28 113.44 149.00 112.31&#xA;  Q 149.40 112.05 149.65 111.66&#xA;  Q 151.07 109.44 150.17 108.15" stroke="#18181a"/>
<path d="M 150.17 108.15&#xA;  Q 158.03 87.51 140.70 76.07&#xA;  Q 136.51 73.30 130.48 73.21" stroke="#817a78"/>
<path d="M 130.48 73.21&#xA;  L 125.74 73.25" stroke="#604c4b"/>
<path d="M 125.74 73.25&#xA;  Q 113.35 73.16 101.46 73.57&#xA;  C 96.23 73.75 92.71 74.69 92.84 80.63&#xA;  Q 93.07 91.29 93.13 101.96" stroke="#534546"/>
<path d="M 125.74 73.25&#xA;  Q 122.87 74.63 119.92 75.24&#xA;  C 118.76 75.48 118.15 76.12 117.43 76.93&#xA;  Q 117.15 77.23 116.75 77.14&#xA;  Q 116.27 77.02 115.98 77.46&#xA;  Q 111.68 79.28 107.11 80.36&#xA;  Q 106.86 80.42 107.00 80.63&#xA;  Q 107.10 80.76 107.21 80.89&#xA;  Q 107.47 81.19 107.88 81.21&#xA;  L 121.96 81.86" stroke="#8c6c6c"/>
<path d="M 121.96 81.86&#xA;  L 103.21 81.83&#xA;  A 0.74 0.74 0.0 0 0 102.47 82.57&#xA;  L 102.44 97.19" stroke="#503c3e"/>
<path d="M 102.44 97.19&#xA;  L 95.85 98.26&#xA;  A 2.19 2.18 18.5 0 0 94.72 98.82&#xA;  Q 93.32 100.17 93.13 101.96" stroke="#8b7b7f"/>
<path d="M 130.48 73.21&#xA;  Q 128.18 77.64 129.38 81.98" stroke="#baa09f"/>
<path d="M 129.38 81.98&#xA;  L 121.96 81.86" stroke="#5d4343"/>
<path d="M 124.74 114.65&#xA;  L 120.34 114.47&#xA;  Q 119.63 114.44 120.23 114.07&#xA;  Q 121.39 113.37 122.77 113.69&#xA;  A 1.54 1.50 42.6 0 0 123.50 113.67&#xA;  L 131.01 111.63&#xA;  Q 131.45 111.51 131.60 111.08&#xA;  Q 131.84 110.43 132.47 110.38&#xA;  Q 132.83 110.36 133.11 110.13&#xA;  L 136.08 107.55&#xA;  Q 136.45 107.23 136.71 106.82&#xA;  L 138.82 103.48&#xA;  Q 139.05 103.12 139.08 102.68&#xA;  Q 139.13 101.80 139.57 101.11&#xA;  Q 139.84 100.69 139.87 100.19&#xA;  Q 140.02 97.39 139.50 94.63&#xA;  C 139.33 93.69 138.81 93.24 138.28 92.49&#xA;  Q 137.99 92.07 138.10 91.58&#xA;  Q 138.35 90.39 137.73 89.45&#xA;  Q 137.62 89.27 137.62 89.48&#xA;  Q 137.62 89.65 137.63 89.81&#xA;  Q 137.65 90.23 137.29 90.03&#xA;  L 136.53 89.61&#xA;  Q 136.10 89.38 135.61 89.44&#xA;  C 134.28 89.60 133.00 89.57 131.74 89.87&#xA;  Q 129.19 90.48 126.60 90.91&#xA;  C 124.84 91.21 123.58 92.15 121.78 92.59&#xA;  Q 121.30 92.71 120.93 93.03&#xA;  Q 119.18 94.53 116.00 94.90&#xA;  Q 112.83 95.28 107.49 97.84&#xA;  Q 107.07 98.04 106.88 98.46&#xA;  Q 106.25 99.80 104.78 99.63&#xA;  Q 104.29 99.57 103.90 99.89&#xA;  Q 103.30 100.39 102.54 100.53" stroke="#241c1d"/>
<path d="M 102.54 100.53&#xA;  L 102.44 97.19" stroke="#5c5256"/>
<path d="M 102.49 120.83&#xA;  L 102.39 140.96" stroke="#58565e"/>
<path d="M 102.39 140.96&#xA;  L 102.23 123.39&#xA;  Q 102.22 122.89 101.72 122.89&#xA;  L 101.31 122.90&#xA;  Q 100.78 122.91 100.88 123.43&#xA;  Q 101.23 125.20 99.79 126.08&#xA;  A 1.10 1.05 -2.1 0 0 99.44 126.44&#xA;  L 97.90 129.21&#xA;  Q 97.68 129.61 97.26 129.81&#xA;  Q 95.83 130.49 95.64 132.12&#xA;  Q 95.64 132.14 95.63 132.14&#xA;  L 95.28 132.14&#xA;  Q 94.96 132.13 94.81 132.41&#xA;  C 93.93 133.95 94.01 134.41 93.85 136.14&#xA;  Q 93.71 136.13 94.02 134.81&#xA;  A 0.38 0.37 7.4 0 0 93.66 134.35&#xA;  Q 93.64 134.35 93.59 134.35&#xA;  Q 93.52 134.35 93.53 134.41&#xA;  Q 93.70 135.78 93.20 136.50" stroke="#999c9f"/>
<path d="M 150.17 108.15&#xA;  Q 146.24 114.98 139.82 118.83&#xA;  A 0.40 0.40 0.0 0 0 139.85 119.53&#xA;  C 154.81 127.14 158.19 144.32 148.77 157.83" stroke="#726d6e"/>
<path d="M 148.77 157.83&#xA;  Q 148.11 157.38 148.33 156.45&#xA;  Q 148.45 155.92 148.37 156.50&#xA;  Q 148.21 157.51 147.70 158.37&#xA;  Q 147.40 158.86 146.83 158.87&#xA;  Q 146.30 158.87 146.37 159.47&#xA;  Q 146.41 159.87 146.01 159.87&#xA;  Q 145.82 159.87 145.63 159.87&#xA;  A 0.34 0.34 0.0 0 1 145.34 159.36&#xA;  L 147.04 156.62&#xA;  Q 147.25 156.29 147.20 155.89&#xA;  Q 147.06 154.71 148.16 154.21&#xA;  Q 148.55 154.03 148.65 153.61&#xA;  L 149.78 148.95&#xA;  Q 149.89 148.49 150.24 148.16&#xA;  Q 151.74 146.76 151.01 144.60&#xA;  Q 150.93 144.37 151.17 144.33&#xA;  L 151.42 144.29&#xA;  A 0.14 0.14 0.0 0 1 151.58 144.42&#xA;  Q 151.83 147.01 151.06 149.48&#xA;  Q 151.02 149.59 151.09 149.63&#xA;  Q 151.16 149.67 151.14 149.65&#xA;  Q 151.11 149.60 151.11 149.60&#xA;  Q 151.74 148.02 151.80 147.51&#xA;  Q 152.36 142.16 151.93 136.83&#xA;  A 1.73 1.71 15.6 0 0 151.20 135.55&#xA;  Q 149.84 134.58 148.93 133.12&#xA;  Q 148.69 132.73 148.24 132.66&#xA;  C 146.21 132.36 144.86 131.04 142.87 132.11&#xA;  Q 142.42 132.36 142.66 132.81&#xA;  L 144.43 136.11&#xA;  A 0.79 0.78 -51.5 0 1 144.49 136.70&#xA;  Q 144.22 137.60 143.59 137.21" stroke="#bbbbb9"/>
<path d="M 143.59 137.21&#xA;  C 138.91 126.97 130.89 124.76 120.22 124.69" stroke="#7a7579"/>
<path d="M 120.22 124.69&#xA;  C 115.79 124.44 120.07 117.79 117.26 115.72&#xA;  Q 116.89 115.45 117.25 115.17&#xA;  Q 117.55 114.93 117.96 114.84" stroke="#adbdba"/>
<path d="M 117.96 114.84&#xA;  L 124.74 114.65" stroke="#817a78"/>
<path d="M 124.74 114.65&#xA;  Q 131.83 113.96 137.27 109.27&#xA;  C 147.95 100.07 143.01 84.42 129.38 81.98" stroke="#7e7171"/>
<path d="M 117.96 114.84&#xA;  C 114.03 114.51 108.14 113.75 107.66 118.83" stroke="#546966"/>
<path d="M 107.66 118.83&#xA;  Q 105.64 118.87 103.66 118.13&#xA;  Q 103.08 117.92 102.96 118.52&#xA;  L 102.49 120.83" stroke="#212025"/>
<path d="M 102.49 120.83&#xA;  L 102.54 100.53" stroke="#5f5b5e"/>
<path d="M 143.59 137.21&#xA;  Q 146.06 145.69 141.35 151.83&#xA;  Q 136.84 157.71 130.75 157.73&#xA;  Q 117.00 157.77 103.64 157.74&#xA;  A 1.21 1.21 0.0 0 1 102.43 156.54&#xA;  L 102.39 140.96" stroke="#5b6266"/>
<path d="M 143.74 162.70&#xA;  Q 137.60 167.42 131.25 167.76&#xA;  Q 124.73 168.10 110.09 167.97" stroke="#5b6266"/>
<path d="M 159.57 170.47&#xA;  Q 161.53 165.44 158.17 162.08&#xA;  C 152.58 156.48 143.66 163.50 147.40 170.38&#xA;  C 148.95 173.24 152.56 175.03 155.80 173.71" stroke="#706263"/>
<path d="M 92.94 163.50&#xA;  Q 94.22 167.66 97.75 167.75&#xA;  Q 107.02 167.99 110.09 167.97" stroke="#535a5b"/>
<path d="M 110.09 167.97&#xA;  L 109.05 168.74&#xA;  Q 108.68 169.02 108.24 169.17&#xA;  Q 107.17 169.52 107.11 170.67&#xA;  A 1.01 1.00 84.2 0 0 108.37 171.70&#xA;  Q 109.23 171.47 109.94 171.85&#xA;  Q 110.39 172.08 110.89 172.16&#xA;  C 117.54 173.19 125.65 174.00 132.24 172.48&#xA;  C 136.08 171.59 139.79 170.00 143.68 169.44&#xA;  A 0.71 0.70 83.0 0 0 144.27 168.68&#xA;  L 143.74 162.70" stroke="#12131a"/>
<path d="M 143.74 162.70&#xA;  L 148.77 157.83" stroke="#535a5b"/>
<path d="M 120.22 124.69&#xA;  C 114.87 124.85 106.68 126.45 107.66 118.83" stroke="#4d6466"/>
<path d="M 48.45 144.91&#xA;  L 47.70 142.72&#xA;  Q 47.64 142.55 47.66 142.36&#xA;  Q 47.67 142.19 47.57 142.07&#xA;  Q 47.17 141.60 47.38 142.24&#xA;  L 50.00 150.09&#xA;  Q 50.01 150.13 49.83 150.14&#xA;  Q 49.82 150.14 49.88 150.13&#xA;  Q 49.91 150.12 49.91 150.11&#xA;  Q 49.61 148.43 49.50 146.76&#xA;  Q 49.45 146.03 48.97 145.64&#xA;  Q 48.61 145.35 48.45 144.91" stroke="#5673bc"/>
</g>
<path d="M 0.00 0.00&#xA;  L 246.00 0.00&#xA;  L 246.00 246.00&#xA;  L 0.00 246.00&#xA;  L 0.00 0.00&#xA;  Z&#xA;  M 51.16 86.14&#xA;  C 42.86 101.45 40.69 119.42 43.05 136.46&#xA;  Q 46.10 156.05 57.04 170.72&#xA;  C 79.69 201.12 119.88 212.69 155.05 197.39&#xA;  C 188.48 182.44 207.51 151.38 204.14 114.46&#xA;  C 203.60 109.92 203.06 105.21 201.81 100.93&#xA;  C 195.52 79.51 180.27 60.97 160.28 50.55&#xA;  Q 136.31 38.31 110.64 42.27&#xA;  C 85.33 46.16 63.03 63.77 51.16 86.14&#xA;  Z" fill="#090b0f"/>
<path d="M 160.28 50.55&#xA;  Q 159.24 50.91 159.85 51.92&#xA;  L 149.36 47.70&#xA;  L 139.20 44.88&#xA;  C 133.42 43.14 127.64 43.26 121.16 43.19&#xA;  Q 115.01 43.14 109.42 44.20&#xA;  C 104.70 45.09 99.64 45.89 95.26 47.92&#xA;  C 92.92 49.01 89.93 49.71 88.58 51.38&#xA;  Q 88.26 51.78 87.80 51.98&#xA;  Q 85.68 52.90 83.60 53.89&#xA;  C 80.16 55.52 77.01 58.16 73.94 60.42&#xA;  A 0.92 0.83 -64.5 0 1 73.55 60.58&#xA;  Q 73.25 60.61 73.01 60.77&#xA;  Q 72.84 60.88 72.87 61.18&#xA;  A 0.17 0.14 -27.1 0 1 72.82 61.29&#xA;  L 68.31 65.79&#xA;  Q 68.00 66.10 67.59 66.28&#xA;  Q 67.07 66.51 66.88 66.75&#xA;  Q 63.88 70.49 60.81 74.16&#xA;  Q 59.03 76.29 57.54 78.50&#xA;  Q 56.09 79.90 55.28 81.56&#xA;  C 54.08 84.00 53.29 85.33 52.37 87.24&#xA;  Q 52.17 87.65 51.67 87.71&#xA;  Q 51.13 87.77 51.14 87.23&#xA;  L 51.16 86.14&#xA;  C 63.03 63.77 85.33 46.16 110.64 42.27&#xA;  Q 136.31 38.31 160.28 50.55&#xA;  Z" fill="#f5a3cb"/>
<path d="M 139.20 44.88&#xA;  Q 133.07 43.97 126.75 43.74&#xA;  C 121.74 43.56 116.98 43.07 114.51 44.52&#xA;  C 112.36 45.78 108.72 45.55 106.25 45.64&#xA;  C 103.46 45.73 101.40 47.58 99.64 48.34&#xA;  Q 94.95 50.35 90.41 52.70&#xA;  Q 90.30 52.75 87.27 54.16&#xA;  Q 85.19 55.13 83.65 56.49&#xA;  Q 81.08 58.46 78.03 59.96&#xA;  Q 75.82 61.04 74.49 62.49&#xA;  Q 73.03 64.08 71.60 65.69&#xA;  Q 71.28 66.05 70.87 66.28&#xA;  Q 69.96 66.80 69.48 67.74&#xA;  Q 69.25 68.18 68.84 68.45&#xA;  Q 66.62 69.89 65.06 72.11&#xA;  C 63.41 72.90 63.96 74.75 61.95 75.45&#xA;  Q 61.49 75.61 61.25 76.04&#xA;  Q 60.20 77.95 58.38 79.13&#xA;  A 1.04 1.02 -16.0 0 0 57.90 79.98&#xA;  C 57.87 81.29 56.90 82.42 56.52 83.36&#xA;  C 55.52 85.89 53.45 86.89 52.45 89.32&#xA;  Q 52.27 89.77 51.86 90.01&#xA;  Q 51.38 90.31 51.40 90.91&#xA;  Q 51.42 91.41 51.15 91.82&#xA;  L 49.57 94.25&#xA;  L 51.89 88.75&#xA;  Q 52.11 88.23 52.60 87.96&#xA;  Q 53.40 87.51 53.58 86.50&#xA;  A 1.18 1.16 -13.6 0 1 54.04 85.76&#xA;  C 55.48 84.68 55.23 83.43 56.13 82.14&#xA;  Q 57.31 80.48 57.54 78.50&#xA;  Q 59.03 76.29 60.81 74.16&#xA;  Q 63.88 70.49 66.88 66.75&#xA;  Q 67.07 66.51 67.59 66.28&#xA;  Q 68.00 66.10 68.31 65.79&#xA;  L 72.82 61.29&#xA;  A 0.17 0.14 -27.1 0 0 72.87 61.18&#xA;  Q 72.84 60.88 73.01 60.77&#xA;  Q 73.25 60.61 73.55 60.58&#xA;  A 0.92 0.83 -64.5 0 0 73.94 60.42&#xA;  C 77.01 58.16 80.16 55.52 83.60 53.89&#xA;  Q 85.68 52.90 87.80 51.98&#xA;  Q 88.26 51.78 88.58 51.38&#xA;  C 89.93 49.71 92.92 49.01 95.26 47.92&#xA;  C 99.64 45.89 104.70 45.09 109.42 44.20&#xA;  Q 115.01 43.14 121.16 43.19&#xA;  C 127.64 43.26 133.42 43.14 139.20 44.88&#xA;  Z" fill="#da5da5"/>
<path d="M 139.20 44.88&#xA;  L 149.36 47.70&#xA;  L 146.77 48.04&#xA;  Q 145.89 48.15 146.69 48.53&#xA;  L 158.38 54.00&#xA;  Q 158.38 54.00 158.38 54.03&#xA;  Q 158.38 54.04 158.38 54.06&#xA;  Q 158.38 54.12 158.33 54.08&#xA;  Q 157.88 53.64 157.24 54.06&#xA;  Q 146.30 48.89 134.23 47.11&#xA;  Q 124.39 45.66 114.51 47.02&#xA;  Q 109.68 47.69 105.05 48.19&#xA;  Q 102.55 48.43 100.37 49.35&#xA;  Q 97.89 50.39 95.90 50.91&#xA;  Q 93.13 51.64 90.65 53.18&#xA;  Q 87.44 55.17 83.65 56.49&#xA;  Q 85.19 55.13 87.27 54.16&#xA;  Q 90.30 52.75 90.41 52.70&#xA;  Q 94.95 50.35 99.64 48.34&#xA;  C 101.40 47.58 103.46 45.73 106.25 45.64&#xA;  C 108.72 45.55 112.36 45.78 114.51 44.52&#xA;  C 116.98 43.07 121.74 43.56 126.75 43.74&#xA;  Q 133.07 43.97 139.20 44.88&#xA;  Z" fill="#e74f6a"/>
<path d="M 157.24 54.06&#xA;  L 163.40 57.32&#xA;  Q 174.06 65.30 182.63 75.16&#xA;  C 184.14 76.90 185.39 79.33 186.63 80.87&#xA;  Q 190.20 85.29 192.14 89.31&#xA;  Q 190.06 89.00 189.79 86.75&#xA;  Q 189.74 86.31 189.32 86.18&#xA;  Q 188.63 85.96 188.67 85.12&#xA;  A 1.06 1.06 0.0 0 0 187.77 84.02&#xA;  L 184.03 83.45&#xA;  Q 183.87 83.42 183.87 83.26&#xA;  Q 183.87 83.10 183.87 82.93&#xA;  Q 183.88 82.54 183.57 82.31&#xA;  Q 182.22 81.28 181.77 79.66&#xA;  Q 181.63 79.14 181.17 78.86&#xA;  C 179.68 77.97 179.88 76.07 178.67 74.62&#xA;  A 1.24 0.19 81.1 0 1 178.39 73.75&#xA;  Q 178.29 73.24 178.50 72.77&#xA;  Q 178.69 72.33 178.21 72.38&#xA;  Q 177.97 72.41 177.73 72.25&#xA;  A 1.42 0.40 31.6 0 1 176.82 71.26&#xA;  Q 177.00 70.53 176.27 70.26&#xA;  Q 175.90 70.13 175.71 69.78&#xA;  Q 174.93 68.36 173.64 68.26&#xA;  Q 172.72 68.18 172.70 68.17&#xA;  Q 172.40 68.01 172.04 68.28&#xA;  Q 171.89 68.39 171.90 68.58&#xA;  Q 171.90 68.71 171.91 68.84&#xA;  Q 171.97 69.35 171.58 69.02&#xA;  C 169.79 67.56 167.43 66.85 165.93 65.25&#xA;  C 164.12 63.31 162.88 61.35 159.76 62.37&#xA;  C 157.51 63.11 154.49 61.37 152.06 61.38&#xA;  Q 149.54 61.39 147.01 61.38&#xA;  Q 146.83 61.38 146.92 61.23&#xA;  Q 147.08 60.97 147.44 60.96&#xA;  A 0.54 0.53 -14.2 0 0 147.90 60.20&#xA;  L 146.82 57.94&#xA;  Q 146.70 57.69 146.44 57.62&#xA;  Q 145.71 57.41 145.22 56.83&#xA;  Q 144.91 56.47 144.44 56.43&#xA;  Q 143.39 56.35 142.34 56.24&#xA;  Q 141.40 56.14 140.69 56.29&#xA;  Q 136.89 57.07 132.99 57.09&#xA;  Q 132.31 57.10 131.88 56.66&#xA;  Q 131.53 56.31 131.05 56.19&#xA;  Q 129.16 55.75 127.44 54.80&#xA;  Q 126.96 54.54 126.42 54.52&#xA;  L 123.78 54.44&#xA;  Q 123.21 54.42 122.96 53.90&#xA;  Q 121.73 51.25 119.00 51.89&#xA;  A 0.92 0.92 0.0 0 1 118.00 51.48&#xA;  Q 117.00 49.84 115.06 49.80&#xA;  Q 114.62 49.79 114.20 49.92&#xA;  L 112.38 50.48&#xA;  Q 112.02 50.59 111.80 50.88&#xA;  L 110.74 52.25&#xA;  Q 110.43 52.65 109.93 52.54&#xA;  Q 108.32 52.16 106.66 52.48&#xA;  Q 106.16 52.58 105.68 52.41&#xA;  Q 103.97 51.85 102.17 52.60&#xA;  Q 101.65 52.82 101.10 52.70&#xA;  Q 99.60 52.37 98.27 53.15&#xA;  A 1.05 1.05 0.0 0 1 97.27 53.19&#xA;  Q 96.27 52.71 95.62 53.42&#xA;  Q 95.27 53.81 94.74 53.86&#xA;  L 90.21 54.25&#xA;  L 92.88 53.32&#xA;  Q 93.31 53.17 93.66 52.89&#xA;  Q 94.43 52.26 95.36 51.99&#xA;  C 97.70 51.31 99.44 50.21 102.00 49.66&#xA;  Q 103.44 49.35 105.05 48.19&#xA;  Q 109.68 47.69 114.51 47.02&#xA;  Q 124.39 45.66 134.23 47.11&#xA;  Q 146.30 48.89 157.24 54.06&#xA;  Z" fill="#3d2927"/>
<path d="M 149.36 47.70&#xA;  L 159.85 51.92&#xA;  C 163.29 54.12 166.65 56.14 169.83 58.73&#xA;  Q 173.93 62.06 178.04 65.39&#xA;  Q 178.42 65.70 178.56 66.17&#xA;  Q 178.71 66.65 179.22 66.65&#xA;  C 183.21 70.35 186.04 74.46 189.37 78.68&#xA;  Q 191.11 80.87 192.63 83.23&#xA;  A 3.56 2.22 55.9 0 1 192.89 83.66&#xA;  Q 194.99 87.57 196.86 91.58&#xA;  Q 201.36 101.17 202.02 111.72&#xA;  L 200.34 104.07&#xA;  Q 200.24 103.59 199.99 103.16&#xA;  Q 199.36 102.03 199.09 100.02&#xA;  Q 198.79 97.83 196.96 94.91&#xA;  Q 196.22 93.72 195.35 91.33&#xA;  Q 194.64 89.38 193.14 87.86&#xA;  Q 192.80 87.51 192.78 87.02&#xA;  C 192.71 85.41 191.41 85.21 190.70 84.37&#xA;  C 187.70 80.83 185.61 76.58 182.24 73.42&#xA;  Q 180.82 72.10 179.08 69.85&#xA;  Q 177.64 68.00 175.68 66.66&#xA;  Q 175.29 66.40 175.18 65.95&#xA;  Q 174.92 64.94 173.90 64.69&#xA;  Q 173.42 64.57 173.10 64.19&#xA;  C 172.64 63.63 172.44 63.25 171.82 62.85&#xA;  Q 169.33 61.24 167.27 59.10&#xA;  Q 166.20 57.99 163.40 57.32&#xA;  L 157.24 54.06&#xA;  Q 157.88 53.64 158.33 54.08&#xA;  Q 158.38 54.12 158.38 54.06&#xA;  Q 158.38 54.04 158.38 54.03&#xA;  Q 158.38 54.00 158.38 54.00&#xA;  L 146.69 48.53&#xA;  Q 145.89 48.15 146.77 48.04&#xA;  L 149.36 47.70&#xA;  Z" fill="#ea844a"/>
<path d="M 105.05 48.19&#xA;  Q 103.44 49.35 102.00 49.66&#xA;  C 99.44 50.21 97.70 51.31 95.36 51.99&#xA;  Q 94.43 52.26 93.66 52.89&#xA;  Q 93.31 53.17 92.88 53.32&#xA;  L 90.21 54.25&#xA;  Q 82.45 57.91 75.89 63.47&#xA;  Q 75.51 63.79 75.03 63.90&#xA;  Q 74.63 63.99 74.44 64.18&#xA;  Q 71.71 66.97 69.03 69.28&#xA;  Q 67.12 70.08 65.06 72.11&#xA;  Q 66.62 69.89 68.84 68.45&#xA;  Q 69.25 68.18 69.48 67.74&#xA;  Q 69.96 66.80 70.87 66.28&#xA;  Q 71.28 66.05 71.60 65.69&#xA;  Q 73.03 64.08 74.49 62.49&#xA;  Q 75.82 61.04 78.03 59.96&#xA;  Q 81.08 58.46 83.65 56.49&#xA;  Q 87.44 55.17 90.65 53.18&#xA;  Q 93.13 51.64 95.90 50.91&#xA;  Q 97.89 50.39 100.37 49.35&#xA;  Q 102.55 48.43 105.05 48.19&#xA;  Z" fill="#943261"/>
<path d="M 192.14 89.31&#xA;  Q 196.62 97.63 198.51 107.27&#xA;  Q 200.73 116.68 200.05 126.46&#xA;  Q 199.69 118.41 198.42 110.41&#xA;  C 198.28 109.50 197.91 109.02 197.79 108.15&#xA;  Q 196.95 102.02 193.39 97.37&#xA;  A 2.58 2.58 0.0 0 0 191.73 96.38&#xA;  Q 188.03 95.79 184.74 94.04&#xA;  Q 184.24 93.77 184.38 93.22&#xA;  Q 184.58 92.36 183.79 92.25&#xA;  Q 183.23 91.37 182.70 90.47&#xA;  Q 182.65 90.38 182.57 90.45&#xA;  Q 182.52 90.49 182.46 90.51&#xA;  Q 182.24 90.57 182.14 90.25&#xA;  Q 182.05 89.97 181.79 89.79&#xA;  Q 181.69 89.72 181.57 89.75&#xA;  L 181.14 89.86&#xA;  Q 180.78 89.95 180.84 90.31&#xA;  Q 181.02 91.42 182.08 91.94&#xA;  Q 182.42 92.11 182.07 92.24&#xA;  Q 180.74 92.76 180.00 91.85&#xA;  Q 175.41 86.21 171.94 83.29&#xA;  Q 171.56 82.96 171.06 83.04&#xA;  L 169.21 83.34&#xA;  Q 168.72 83.41 168.28 83.18&#xA;  Q 163.62 80.69 159.50 77.37&#xA;  Q 157.40 75.67 151.69 72.99&#xA;  C 150.00 72.20 147.89 72.20 146.03 71.34&#xA;  Q 145.59 71.14 145.12 71.13&#xA;  C 143.47 71.11 142.60 70.27 140.85 70.38&#xA;  Q 140.40 70.41 140.18 70.01&#xA;  C 139.65 69.02 138.73 68.76 137.68 69.05&#xA;  Q 137.20 69.18 136.75 68.88&#xA;  Q 136.34 68.59 135.83 68.65&#xA;  Q 134.64 68.77 133.66 69.36&#xA;  Q 133.29 69.58 132.91 69.38&#xA;  Q 130.93 68.34 129.15 69.36&#xA;  Q 128.69 69.62 128.16 69.62&#xA;  L 126.25 69.62&#xA;  A 2.09 2.04 -31.6 0 1 125.36 69.42&#xA;  C 124.09 68.82 121.82 69.15 121.10 68.61&#xA;  Q 120.72 68.33 120.26 68.29&#xA;  L 108.51 67.45&#xA;  A 0.98 0.93 -54.7 0 0 108.01 67.55&#xA;  C 106.79 68.14 105.50 67.58 104.51 67.66&#xA;  Q 102.91 67.80 101.32 67.89&#xA;  Q 101.20 67.90 101.13 68.01&#xA;  L 100.84 68.46&#xA;  Q 100.62 68.80 100.24 68.96&#xA;  Q 98.07 69.89 95.74 70.32&#xA;  C 92.69 70.89 92.34 72.62 90.62 74.71&#xA;  Q 90.37 75.02 90.37 75.41&#xA;  L 90.37 75.75&#xA;  A 0.97 0.14 -14.5 0 1 89.50 76.11&#xA;  Q 89.20 76.19 88.95 75.95&#xA;  Q 88.88 75.88 88.87 75.99&#xA;  Q 88.87 76.14 88.86 76.29&#xA;  A 0.24 0.24 0.0 0 1 88.45 76.46&#xA;  Q 87.79 75.83 87.28 76.43&#xA;  Q 86.94 76.83 86.42 76.88&#xA;  L 81.57 77.39&#xA;  Q 81.19 77.43 80.86 77.66&#xA;  Q 79.89 78.33 79.15 77.62&#xA;  Q 79.12 77.58 79.12 77.63&#xA;  L 79.12 77.99&#xA;  Q 79.11 78.43 78.70 78.27&#xA;  Q 76.79 77.56 75.89 78.93&#xA;  Q 75.66 79.27 75.28 79.14&#xA;  Q 74.87 79.00 74.70 78.61&#xA;  Q 74.51 78.19 74.09 78.02&#xA;  Q 72.61 77.41 72.23 75.72&#xA;  Q 72.02 74.82 72.28 74.76&#xA;  A 0.97 0.87 -36.6 0 0 72.62 73.07&#xA;  Q 72.08 72.79 72.11 72.07&#xA;  Q 72.13 71.54 71.73 71.88&#xA;  C 69.17 74.03 67.21 75.90 64.36 76.42&#xA;  Q 63.90 76.50 63.55 76.82&#xA;  Q 62.60 77.69 61.44 78.04&#xA;  Q 62.28 76.98 63.12 76.00&#xA;  C 64.40 74.52 64.52 72.57 66.75 71.64&#xA;  Q 67.21 71.45 67.53 71.06&#xA;  L 69.03 69.28&#xA;  Q 71.71 66.97 74.44 64.18&#xA;  Q 74.63 63.99 75.03 63.90&#xA;  Q 75.51 63.79 75.89 63.47&#xA;  Q 82.45 57.91 90.21 54.25&#xA;  L 94.74 53.86&#xA;  Q 95.27 53.81 95.62 53.42&#xA;  Q 96.27 52.71 97.27 53.19&#xA;  A 1.05 1.05 0.0 0 0 98.27 53.15&#xA;  Q 99.60 52.37 101.10 52.70&#xA;  Q 101.65 52.82 102.17 52.60&#xA;  Q 103.97 51.85 105.68 52.41&#xA;  Q 106.16 52.58 106.66 52.48&#xA;  Q 108.32 52.16 109.93 52.54&#xA;  Q 110.43 52.65 110.74 52.25&#xA;  L 111.80 50.88&#xA;  Q 112.02 50.59 112.38 50.48&#xA;  L 114.20 49.92&#xA;  Q 114.62 49.79 115.06 49.80&#xA;  Q 117.00 49.84 118.00 51.48&#xA;  A 0.92 0.92 0.0 0 0 119.00 51.89&#xA;  Q 121.73 51.25 122.96 53.90&#xA;  Q 123.21 54.42 123.78 54.44&#xA;  L 126.42 54.52&#xA;  Q 126.96 54.54 127.44 54.80&#xA;  Q 129.16 55.75 131.05 56.19&#xA;  Q 131.53 56.31 131.88 56.66&#xA;  Q 132.31 57.10 132.99 57.09&#xA;  Q 136.89 57.07 140.69 56.29&#xA;  Q 141.40 56.14 142.34 56.24&#xA;  Q 143.39 56.35 144.44 56.43&#xA;  Q 144.91 56.47 145.22 56.83&#xA;  Q 145.71 57.41 146.44 57.62&#xA;  Q 146.70 57.69 146.82 57.94&#xA;  L 147.90 60.20&#xA;  A 0.54 0.53 -14.2 0 1 147.44 60.96&#xA;  Q 147.08 60.97 146.92 61.23&#xA;  Q 146.83 61.38 147.01 61.38&#xA;  Q 149.54 61.39 152.06 61.38&#xA;  C 154.49 61.37 157.51 63.11 159.76 62.37&#xA;  C 162.88 61.35 164.12 63.31 165.93 65.25&#xA;  C 167.43 66.85 169.79 67.56 171.58 69.02&#xA;  Q 171.97 69.35 171.91 68.84&#xA;  Q 171.90 68.71 171.90 68.58&#xA;  Q 171.89 68.39 172.04 68.28&#xA;  Q 172.40 68.01 172.70 68.17&#xA;  Q 172.72 68.18 173.64 68.26&#xA;  Q 174.93 68.36 175.71 69.78&#xA;  Q 175.90 70.13 176.27 70.26&#xA;  Q 177.00 70.53 176.82 71.26&#xA;  A 1.42 0.40 31.6 0 0 177.73 72.25&#xA;  Q 177.97 72.41 178.21 72.38&#xA;  Q 178.69 72.33 178.50 72.77&#xA;  Q 178.29 73.24 178.39 73.75&#xA;  A 1.24 0.19 81.1 0 0 178.67 74.62&#xA;  C 179.88 76.07 179.68 77.97 181.17 78.86&#xA;  Q 181.63 79.14 181.77 79.66&#xA;  Q 182.22 81.28 183.57 82.31&#xA;  Q 183.88 82.54 183.87 82.93&#xA;  Q 183.87 83.10 183.87 83.26&#xA;  Q 183.87 83.42 184.03 83.45&#xA;  L 187.77 84.02&#xA;  A 1.06 1.06 0.0 0 1 188.67 85.12&#xA;  Q 188.63 85.96 189.32 86.18&#xA;  Q 189.74 86.31 189.79 86.75&#xA;  Q 190.06 89.00 192.14 89.31&#xA;  Z" fill="#332926"/>
<path d="M 160.28 50.55&#xA;  C 180.27 60.97 195.52 79.51 201.81 100.93&#xA;  C 203.06 105.21 203.60 109.92 204.14 114.46&#xA;  L 204.08 116.13&#xA;  Q 204.06 116.84 203.41 116.55&#xA;  L 202.67 116.22&#xA;  L 202.02 111.72&#xA;  Q 201.36 101.17 196.86 91.58&#xA;  Q 194.99 87.57 192.89 83.66&#xA;  A 3.56 2.22 55.9 0 0 192.63 83.23&#xA;  Q 191.11 80.87 189.37 78.68&#xA;  C 186.04 74.46 183.21 70.35 179.22 66.65&#xA;  Q 178.71 66.65 178.56 66.17&#xA;  Q 178.42 65.70 178.04 65.39&#xA;  Q 173.93 62.06 169.83 58.73&#xA;  C 166.65 56.14 163.29 54.12 159.85 51.92&#xA;  Q 159.24 50.91 160.28 50.55&#xA;  Z" fill="#f4d68b"/>
<path d="M 163.40 57.32&#xA;  Q 166.20 57.99 167.27 59.10&#xA;  Q 169.33 61.24 171.82 62.85&#xA;  C 172.44 63.25 172.64 63.63 173.10 64.19&#xA;  Q 173.42 64.57 173.90 64.69&#xA;  Q 174.92 64.94 175.18 65.95&#xA;  Q 175.29 66.40 175.68 66.66&#xA;  Q 177.64 68.00 179.08 69.85&#xA;  Q 180.82 72.10 182.24 73.42&#xA;  C 185.61 76.58 187.70 80.83 190.70 84.37&#xA;  C 191.41 85.21 192.71 85.41 192.78 87.02&#xA;  Q 192.80 87.51 193.14 87.86&#xA;  Q 194.64 89.38 195.35 91.33&#xA;  Q 196.22 93.72 196.96 94.91&#xA;  Q 198.79 97.83 199.09 100.02&#xA;  Q 199.36 102.03 199.99 103.16&#xA;  Q 200.24 103.59 200.34 104.07&#xA;  L 202.02 111.72&#xA;  L 202.67 116.22&#xA;  L 202.51 128.44&#xA;  Q 202.81 122.20 202.21 115.99&#xA;  Q 202.17 115.56 201.82 115.45&#xA;  Q 201.50 115.34 201.41 115.01&#xA;  L 200.68 112.49&#xA;  Q 200.53 111.97 200.11 111.64&#xA;  Q 199.72 111.32 199.80 110.80&#xA;  Q 199.88 110.32 199.76 109.84&#xA;  Q 199.36 108.37 198.51 107.27&#xA;  Q 196.62 97.63 192.14 89.31&#xA;  Q 190.20 85.29 186.63 80.87&#xA;  C 185.39 79.33 184.14 76.90 182.63 75.16&#xA;  Q 174.06 65.30 163.40 57.32&#xA;  Z" fill="#87743a"/>
<path d="M 200.05 126.46&#xA;  Q 200.32 131.58 198.94 136.46&#xA;  Q 197.24 140.94 195.86 145.55&#xA;  C 195.66 146.23 194.86 147.44 194.45 148.07&#xA;  Q 193.98 148.80 193.65 150.05&#xA;  Q 193.30 151.41 192.53 152.60&#xA;  Q 192.26 153.02 192.22 153.51&#xA;  Q 191.86 157.30 189.39 160.10&#xA;  C 188.44 161.19 188.11 162.32 187.64 163.60&#xA;  A 0.42 0.41 10.1 0 1 187.25 163.87&#xA;  Q 187.11 163.87 186.97 163.87&#xA;  Q 186.83 163.87 186.73 163.96&#xA;  Q 185.27 165.26 184.95 166.94&#xA;  A 1.33 1.28 78.7 0 1 184.42 167.77&#xA;  Q 182.58 169.10 182.02 171.22&#xA;  C 180.41 171.37 179.99 172.15 178.68 173.17&#xA;  Q 178.51 173.30 178.56 173.45&#xA;  Q 178.66 173.75 178.90 173.53&#xA;  Q 179.07 173.36 179.28 173.31&#xA;  Q 179.61 173.22 179.48 173.54&#xA;  L 179.27 174.07&#xA;  L 174.71 179.81&#xA;  L 173.78 179.74&#xA;  Q 172.22 179.35 170.93 181.80&#xA;  Q 169.56 182.26 168.65 183.78&#xA;  Q 166.06 183.81 165.52 185.76&#xA;  L 157.16 188.12&#xA;  Q 156.69 188.25 156.42 188.65&#xA;  L 155.91 189.39&#xA;  Q 155.61 189.82 155.08 189.84&#xA;  Q 153.35 189.91 152.71 191.44&#xA;  A 0.73 0.72 -78.0 0 1 152.03 191.89&#xA;  Q 150.47 191.85 149.40 193.04&#xA;  Q 149.10 193.36 148.67 193.44&#xA;  L 144.22 194.25&#xA;  A 0.41 0.40 84.2 0 0 143.89 194.66&#xA;  Q 143.89 194.97 143.62 195.13&#xA;  Q 143.07 195.47 142.88 195.48&#xA;  Q 137.61 195.71 132.34 196.10&#xA;  C 126.25 196.54 120.13 196.07 113.95 196.12&#xA;  C 112.17 196.14 107.91 195.51 106.37 194.65&#xA;  C 104.41 193.55 101.00 193.57 98.77 193.40&#xA;  A 0.63 0.62 76.2 0 1 98.27 193.09&#xA;  L 98.11 192.80&#xA;  Q 97.86 192.36 97.36 192.34&#xA;  Q 94.87 192.24 92.83 190.87&#xA;  Q 92.43 190.60 92.15 190.20&#xA;  C 91.33 189.06 90.49 188.49 88.98 188.25&#xA;  Q 86.81 187.90 84.72 187.22&#xA;  Q 84.48 187.15 84.58 187.37&#xA;  Q 84.63 187.51 84.80 187.57&#xA;  Q 84.90 187.61 84.79 187.62&#xA;  Q 84.64 187.63 84.50 187.63&#xA;  Q 84.39 187.64 84.34 187.53&#xA;  Q 83.49 185.77 81.60 185.74&#xA;  Q 81.76 185.76 81.91 185.78&#xA;  C 80.64 184.52 78.51 182.24 76.96 181.61&#xA;  Q 76.56 181.45 76.36 180.94&#xA;  Q 76.22 180.59 75.93 180.33&#xA;  Q 75.37 179.83 74.61 179.72&#xA;  Q 74.07 179.64 73.74 179.21&#xA;  Q 71.47 176.28 68.01 175.30&#xA;  L 65.82 172.64&#xA;  Q 65.97 170.81 64.77 169.94&#xA;  Q 64.42 169.68 64.18 169.31&#xA;  L 61.14 164.64&#xA;  A 0.61 0.60 72.9 0 0 60.64 164.37&#xA;  Q 60.47 164.37 60.31 164.36&#xA;  Q 59.73 164.33 60.47 165.01&#xA;  Q 61.24 165.72 61.43 167.00&#xA;  Q 60.60 167.13 60.21 166.27&#xA;  Q 59.48 164.66 58.51 163.83&#xA;  Q 58.13 163.51 57.97 163.04&#xA;  L 57.22 160.90&#xA;  Q 56.65 157.83 54.85 156.02&#xA;  Q 54.45 155.62 54.42 155.05&#xA;  Q 54.26 152.27 52.50 150.05&#xA;  A 0.64 0.62 -65.6 0 1 52.38 149.71&#xA;  Q 52.36 149.12 52.40 148.57&#xA;  Q 52.41 148.50 52.40 148.57&#xA;  Q 52.34 148.89 52.25 149.03&#xA;  Q 52.13 149.23 52.09 149.00&#xA;  Q 51.69 146.37 50.44 144.00&#xA;  Q 50.42 143.96 50.39 143.99&#xA;  L 50.10 144.23&#xA;  Q 49.98 144.34 50.07 144.48&#xA;  Q 51.38 146.58 51.36 148.99&#xA;  L 49.18 141.29&#xA;  L 49.49 141.43&#xA;  Q 49.91 141.62 49.80 141.17&#xA;  L 48.34 135.24&#xA;  Q 47.52 134.74 48.02 133.08&#xA;  L 47.16 118.90&#xA;  Q 47.65 111.67 49.06 104.48&#xA;  Q 49.11 104.23 49.25 104.04&#xA;  Q 49.40 103.84 49.56 103.64&#xA;  Q 49.87 103.26 49.89 102.77&#xA;  Q 49.93 101.35 50.39 100.00&#xA;  Q 52.12 94.92 54.54 90.15&#xA;  Q 55.63 88.01 56.40 85.78&#xA;  Q 57.43 82.85 61.44 78.04&#xA;  Q 62.60 77.69 63.55 76.82&#xA;  Q 63.90 76.50 64.36 76.42&#xA;  C 67.21 75.90 69.17 74.03 71.73 71.88&#xA;  Q 72.13 71.54 72.11 72.07&#xA;  Q 72.08 72.79 72.62 73.07&#xA;  A 0.97 0.87 -36.6 0 1 72.28 74.76&#xA;  Q 72.02 74.82 72.23 75.72&#xA;  Q 72.61 77.41 74.09 78.02&#xA;  Q 74.51 78.19 74.70 78.61&#xA;  Q 74.87 79.00 75.28 79.14&#xA;  Q 75.66 79.27 75.89 78.93&#xA;  Q 76.79 77.56 78.70 78.27&#xA;  Q 79.11 78.43 79.12 77.99&#xA;  L 79.12 77.63&#xA;  Q 79.12 77.58 79.15 77.62&#xA;  Q 79.89 78.33 80.86 77.66&#xA;  Q 81.19 77.43 81.57 77.39&#xA;  L 86.42 76.88&#xA;  Q 86.94 76.83 87.28 76.43&#xA;  Q 87.79 75.83 88.45 76.46&#xA;  A 0.24 0.24 0.0 0 0 88.86 76.29&#xA;  Q 88.87 76.14 88.87 75.99&#xA;  Q 88.88 75.88 88.95 75.95&#xA;  Q 89.20 76.19 89.50 76.11&#xA;  A 0.97 0.14 -14.5 0 0 90.37 75.75&#xA;  L 90.37 75.41&#xA;  Q 90.37 75.02 90.62 74.71&#xA;  C 92.34 72.62 92.69 70.89 95.74 70.32&#xA;  Q 98.07 69.89 100.24 68.96&#xA;  Q 100.62 68.80 100.84 68.46&#xA;  L 101.13 68.01&#xA;  Q 101.20 67.90 101.32 67.89&#xA;  Q 102.91 67.80 104.51 67.66&#xA;  C 105.50 67.58 106.79 68.14 108.01 67.55&#xA;  A 0.98 0.93 -54.7 0 1 108.51 67.45&#xA;  L 120.26 68.29&#xA;  Q 120.72 68.33 121.10 68.61&#xA;  C 121.82 69.15 124.09 68.82 125.36 69.42&#xA;  A 2.09 2.04 -31.6 0 0 126.25 69.62&#xA;  L 128.16 69.62&#xA;  Q 128.69 69.62 129.15 69.36&#xA;  Q 130.93 68.34 132.91 69.38&#xA;  Q 133.29 69.58 133.66 69.36&#xA;  Q 134.64 68.77 135.83 68.65&#xA;  Q 136.34 68.59 136.75 68.88&#xA;  Q 137.20 69.18 137.68 69.05&#xA;  C 138.73 68.76 139.65 69.02 140.18 70.01&#xA;  Q 140.40 70.41 140.85 70.38&#xA;  C 142.60 70.27 143.47 71.11 145.12 71.13&#xA;  Q 145.59 71.14 146.03 71.34&#xA;  C 147.89 72.20 150.00 72.20 151.69 72.99&#xA;  Q 157.40 75.67 159.50 77.37&#xA;  Q 163.62 80.69 168.28 83.18&#xA;  Q 168.72 83.41 169.21 83.34&#xA;  L 171.06 83.04&#xA;  Q 171.56 82.96 171.94 83.29&#xA;  Q 175.41 86.21 180.00 91.85&#xA;  Q 180.74 92.76 182.07 92.24&#xA;  Q 182.42 92.11 182.08 91.94&#xA;  Q 181.02 91.42 180.84 90.31&#xA;  Q 180.78 89.95 181.14 89.86&#xA;  L 181.57 89.75&#xA;  Q 181.69 89.72 181.79 89.79&#xA;  Q 182.05 89.97 182.14 90.25&#xA;  Q 182.24 90.57 182.46 90.51&#xA;  Q 182.52 90.49 182.57 90.45&#xA;  Q 182.65 90.38 182.70 90.47&#xA;  Q 183.23 91.37 183.79 92.25&#xA;  Q 184.58 92.36 184.38 93.22&#xA;  Q 184.24 93.77 184.74 94.04&#xA;  Q 188.03 95.79 191.73 96.38&#xA;  A 2.58 2.58 0.0 0 1 193.39 97.37&#xA;  Q 196.95 102.02 197.79 108.15&#xA;  C 197.91 109.02 198.28 109.50 198.42 110.41&#xA;  Q 199.69 118.41 200.05 126.46&#xA;  Z&#xA;  M 93.13 101.96&#xA;  L 93.20 136.50&#xA;  L 92.94 163.50&#xA;  Q 90.66 169.40 95.96 171.76&#xA;  Q 97.83 172.59 100.98 173.52&#xA;  C 104.17 174.47 107.85 174.09 110.41 174.21&#xA;  Q 114.57 174.39 118.73 174.57&#xA;  C 120.02 174.62 121.44 175.45 122.75 175.22&#xA;  Q 126.22 174.62 129.75 174.33&#xA;  C 132.50 174.11 134.82 172.98 137.57 172.48&#xA;  Q 137.97 172.41 138.09 172.02&#xA;  Q 138.18 171.70 138.57 171.87&#xA;  A 0.81 0.79 -43.5 0 0 139.20 171.88&#xA;  Q 140.43 171.38 141.69 170.90&#xA;  Q 142.57 170.56 143.12 170.73&#xA;  Q 143.96 170.98 144.18 172.00&#xA;  Q 144.27 172.42 144.66 172.60&#xA;  Q 146.09 173.25 145.93 174.71&#xA;  Q 145.87 175.27 146.42 175.38&#xA;  Q 147.94 175.70 149.35 175.29&#xA;  Q 149.84 175.15 150.30 175.35&#xA;  Q 152.77 176.39 155.49 176.10&#xA;  Q 155.83 176.06 155.97 175.75&#xA;  Q 156.28 175.02 157.13 174.89&#xA;  Q 157.70 174.80 157.36 174.33&#xA;  Q 156.70 173.44 155.80 173.71&#xA;  Q 158.11 172.53 159.57 170.47&#xA;  Q 162.60 170.51 162.10 164.99&#xA;  Q 161.91 162.82 160.01 160.28&#xA;  Q 159.75 159.92 159.30 159.86&#xA;  C 156.82 159.51 156.50 157.56 155.51 155.78&#xA;  Q 155.31 155.41 155.45 155.02&#xA;  L 156.28 152.83&#xA;  Q 156.44 152.41 156.40 151.96&#xA;  Q 156.23 149.68 156.14 147.38&#xA;  C 156.09 146.38 155.70 145.99 155.37 145.09&#xA;  Q 155.20 144.60 155.38 144.12&#xA;  C 156.58 140.92 155.12 135.69 154.33 133.09&#xA;  A 1.14 0.12 71.7 0 1 154.13 132.19&#xA;  Q 154.24 131.55 153.74 131.49&#xA;  Q 152.93 130.32 152.17 129.10&#xA;  Q 151.90 128.65 151.89 128.13&#xA;  L 151.85 124.81&#xA;  Q 151.85 124.23 151.30 124.03&#xA;  Q 150.96 123.90 150.70 123.66&#xA;  Q 150.38 123.36 150.31 122.74&#xA;  C 150.13 121.04 150.13 120.06 149.26 118.43&#xA;  C 148.52 117.05 147.28 113.44 149.00 112.31&#xA;  Q 149.40 112.05 149.65 111.66&#xA;  Q 151.07 109.44 150.17 108.15&#xA;  Q 158.03 87.51 140.70 76.07&#xA;  Q 136.51 73.30 130.48 73.21&#xA;  L 125.74 73.25&#xA;  Q 113.35 73.16 101.46 73.57&#xA;  C 96.23 73.75 92.71 74.69 92.84 80.63&#xA;  Q 93.07 91.29 93.13 101.96&#xA;  Z" fill="#272524"/>
<path d="M 69.03 69.28&#xA;  L 67.53 71.06&#xA;  Q 67.21 71.45 66.75 71.64&#xA;  C 64.52 72.57 64.40 74.52 63.12 76.00&#xA;  Q 62.28 76.98 61.44 78.04&#xA;  Q 57.43 82.85 56.40 85.78&#xA;  Q 55.63 88.01 54.54 90.15&#xA;  Q 52.12 94.92 50.39 100.00&#xA;  Q 49.93 101.35 49.89 102.77&#xA;  Q 49.87 103.26 49.56 103.64&#xA;  Q 49.40 103.84 49.25 104.04&#xA;  Q 49.11 104.23 49.06 104.48&#xA;  Q 47.65 111.67 47.16 118.90&#xA;  Q 46.80 126.95 47.19 131.74&#xA;  Q 47.25 132.47 48.02 133.08&#xA;  Q 47.52 134.74 48.34 135.24&#xA;  Q 47.39 139.61 49.18 141.29&#xA;  L 51.36 148.99&#xA;  L 52.08 152.06&#xA;  Q 52.19 152.55 52.66 152.75&#xA;  Q 53.43 153.09 53.50 153.74&#xA;  Q 53.78 156.05 55.26 157.16&#xA;  A 1.37 1.30 11.8 0 1 55.76 157.88&#xA;  Q 56.23 159.56 57.22 160.90&#xA;  L 57.97 163.04&#xA;  Q 58.13 163.51 58.51 163.83&#xA;  Q 59.48 164.66 60.21 166.27&#xA;  Q 60.60 167.13 61.43 167.00&#xA;  L 61.42 167.40&#xA;  A 0.63 0.63 0.0 0 0 61.93 168.03&#xA;  Q 62.40 168.13 62.83 168.66&#xA;  Q 64.30 170.45 65.82 172.64&#xA;  L 68.01 175.30&#xA;  L 78.35 184.55&#xA;  Q 73.30 182.67 69.97 178.40&#xA;  Q 69.64 177.97 69.07 177.85&#xA;  Q 68.56 177.74 68.26 177.31&#xA;  Q 67.47 176.16 66.39 175.33&#xA;  Q 65.92 174.98 65.64 174.46&#xA;  Q 64.65 172.68 63.02 171.42&#xA;  Q 62.61 171.11 62.49 170.61&#xA;  Q 62.32 169.90 61.47 169.69&#xA;  A 0.40 0.39 -12.7 0 1 61.27 169.57&#xA;  Q 60.28 168.45 59.02 167.73&#xA;  Q 58.58 167.48 58.31 167.06&#xA;  L 53.80 160.09&#xA;  Q 53.51 159.64 53.62 159.11&#xA;  Q 53.83 158.12 52.86 157.90&#xA;  A 0.33 0.33 0.0 0 1 52.62 157.47&#xA;  Q 52.74 157.08 52.45 156.89&#xA;  Q 52.15 156.69 52.29 157.02&#xA;  Q 52.44 157.36 52.59 157.69&#xA;  Q 52.62 157.74 52.58 157.78&#xA;  Q 52.47 157.92 52.33 157.93&#xA;  Q 52.14 157.95 52.08 157.77&#xA;  C 51.15 155.35 50.67 152.87 49.72 150.41&#xA;  Q 47.68 145.12 46.04 139.70&#xA;  Q 45.63 138.34 45.89 135.76&#xA;  Q 46.11 133.60 45.57 127.90&#xA;  Q 45.57 127.88 45.59 127.88&#xA;  Q 45.59 127.88 45.60 127.88&#xA;  Q 45.63 127.87 45.63 127.87&#xA;  L 45.60 133.77&#xA;  Q 45.60 133.94 45.43 133.94&#xA;  L 45.18 133.93&#xA;  Q 44.93 133.93 44.93 133.68&#xA;  Q 44.93 130.99 44.60 128.39&#xA;  Q 44.60 128.38 44.60 128.38&#xA;  Q 44.61 128.38 44.62 128.37&#xA;  Q 44.65 128.37 44.65 128.40&#xA;  L 44.40 134.17&#xA;  Q 43.36 127.86 43.55 126.00&#xA;  Q 44.34 118.29 44.14 115.25&#xA;  Q 43.98 112.86 44.67 110.55&#xA;  Q 45.16 108.92 45.70 107.31&#xA;  Q 46.76 104.15 47.34 100.84&#xA;  C 47.75 98.43 49.19 96.70 49.57 94.25&#xA;  L 51.15 91.82&#xA;  Q 51.42 91.41 51.40 90.91&#xA;  Q 51.38 90.31 51.86 90.01&#xA;  Q 52.27 89.77 52.45 89.32&#xA;  C 53.45 86.89 55.52 85.89 56.52 83.36&#xA;  C 56.90 82.42 57.87 81.29 57.90 79.98&#xA;  A 1.04 1.02 -16.0 0 1 58.38 79.13&#xA;  Q 60.20 77.95 61.25 76.04&#xA;  Q 61.49 75.61 61.95 75.45&#xA;  C 63.96 74.75 63.41 72.90 65.06 72.11&#xA;  Q 67.12 70.08 69.03 69.28&#xA;  Z&#xA;  M 48.45 144.91&#xA;  L 47.70 142.72&#xA;  Q 47.64 142.55 47.66 142.36&#xA;  Q 47.67 142.19 47.57 142.07&#xA;  Q 47.17 141.60 47.38 142.24&#xA;  L 50.00 150.09&#xA;  Q 50.01 150.13 49.83 150.14&#xA;  Q 49.82 150.14 49.88 150.13&#xA;  Q 49.91 150.12 49.91 150.11&#xA;  Q 49.61 148.43 49.50 146.76&#xA;  Q 49.45 146.03 48.97 145.64&#xA;  Q 48.61 145.35 48.45 144.91&#xA;  Z" fill="#6045ae"/>
<path d="M 125.74 73.25&#xA;  Q 122.87 74.63 119.92 75.24&#xA;  C 118.76 75.48 118.15 76.12 117.43 76.93&#xA;  Q 117.15 77.23 116.75 77.14&#xA;  Q 116.27 77.02 115.98 77.46&#xA;  Q 111.68 79.28 107.11 80.36&#xA;  Q 106.86 80.42 107.00 80.63&#xA;  Q 107.10 80.76 107.21 80.89&#xA;  Q 107.47 81.19 107.88 81.21&#xA;  L 121.96 81.86&#xA;  L 103.21 81.83&#xA;  A 0.74 0.74 0.0 0 0 102.47 82.57&#xA;  L 102.44 97.19&#xA;  L 95.85 98.26&#xA;  A 2.19 2.18 18.5 0 0 94.72 98.82&#xA;  Q 93.32 100.17 93.13 101.96&#xA;  Q 93.07 91.29 92.84 80.63&#xA;  C 92.71 74.69 96.23 73.75 101.46 73.57&#xA;  Q 113.35 73.16 125.74 73.25&#xA;  Z" fill="#7f6567"/>
<path d="M 125.74 73.25&#xA;  L 130.48 73.21&#xA;  Q 128.18 77.64 129.38 81.98&#xA;  L 121.96 81.86&#xA;  L 107.88 81.21&#xA;  Q 107.47 81.19 107.21 80.89&#xA;  Q 107.10 80.76 107.00 80.63&#xA;  Q 106.86 80.42 107.11 80.36&#xA;  Q 111.68 79.28 115.98 77.46&#xA;  Q 116.27 77.02 116.75 77.14&#xA;  Q 117.15 77.23 117.43 76.93&#xA;  C 118.15 76.12 118.76 75.48 119.92 75.24&#xA;  Q 122.87 74.63 125.74 73.25&#xA;  Z" fill="#997271"/>
<path d="M 130.48 73.21&#xA;  Q 136.51 73.30 140.70 76.07&#xA;  Q 158.03 87.51 150.17 108.15&#xA;  Q 146.24 114.98 139.82 118.83&#xA;  A 0.40 0.40 0.0 0 0 139.85 119.53&#xA;  C 154.81 127.14 158.19 144.32 148.77 157.83&#xA;  Q 148.11 157.38 148.33 156.45&#xA;  Q 148.45 155.92 148.37 156.50&#xA;  Q 148.21 157.51 147.70 158.37&#xA;  Q 147.40 158.86 146.83 158.87&#xA;  Q 146.30 158.87 146.37 159.47&#xA;  Q 146.41 159.87 146.01 159.87&#xA;  Q 145.82 159.87 145.63 159.87&#xA;  A 0.34 0.34 0.0 0 1 145.34 159.36&#xA;  L 147.04 156.62&#xA;  Q 147.25 156.29 147.20 155.89&#xA;  Q 147.06 154.71 148.16 154.21&#xA;  Q 148.55 154.03 148.65 153.61&#xA;  L 149.78 148.95&#xA;  Q 149.89 148.49 150.24 148.16&#xA;  Q 151.74 146.76 151.01 144.60&#xA;  Q 150.93 144.37 151.17 144.33&#xA;  L 151.42 144.29&#xA;  A 0.14 0.14 0.0 0 1 151.58 144.42&#xA;  Q 151.83 147.01 151.06 149.48&#xA;  Q 151.02 149.59 151.09 149.63&#xA;  Q 151.16 149.67 151.14 149.65&#xA;  Q 151.11 149.60 151.11 149.60&#xA;  Q 151.74 148.02 151.80 147.51&#xA;  Q 152.36 142.16 151.93 136.83&#xA;  A 1.73 1.71 15.6 0 0 151.20 135.55&#xA;  Q 149.84 134.58 148.93 133.12&#xA;  Q 148.69 132.73 148.24 132.66&#xA;  C 146.21 132.36 144.86 131.04 142.87 132.11&#xA;  Q 142.42 132.36 142.66 132.81&#xA;  L 144.43 136.11&#xA;  A 0.79 0.78 -51.5 0 1 144.49 136.70&#xA;  Q 144.22 137.60 143.59 137.21&#xA;  C 138.91 126.97 130.89 124.76 120.22 124.69&#xA;  C 115.79 124.44 120.07 117.79 117.26 115.72&#xA;  Q 116.89 115.45 117.25 115.17&#xA;  Q 117.55 114.93 117.96 114.84&#xA;  L 124.74 114.65&#xA;  Q 131.83 113.96 137.27 109.27&#xA;  C 147.95 100.07 143.01 84.42 129.38 81.98&#xA;  Q 128.18 77.64 130.48 73.21&#xA;  Z" fill="#dacecc"/>
<path d="M 57.54 78.50&#xA;  Q 57.31 80.48 56.13 82.14&#xA;  C 55.23 83.43 55.48 84.68 54.04 85.76&#xA;  A 1.18 1.16 -13.6 0 0 53.58 86.50&#xA;  Q 53.40 87.51 52.60 87.96&#xA;  Q 52.11 88.23 51.89 88.75&#xA;  L 49.57 94.25&#xA;  C 49.19 96.70 47.75 98.43 47.34 100.84&#xA;  Q 46.76 104.15 45.70 107.31&#xA;  Q 45.16 108.92 44.67 110.55&#xA;  Q 43.98 112.86 44.14 115.25&#xA;  Q 44.34 118.29 43.55 126.00&#xA;  Q 43.36 127.86 44.40 134.17&#xA;  L 43.05 136.46&#xA;  C 40.69 119.42 42.86 101.45 51.16 86.14&#xA;  L 51.14 87.23&#xA;  Q 51.13 87.77 51.67 87.71&#xA;  Q 52.17 87.65 52.37 87.24&#xA;  C 53.29 85.33 54.08 84.00 55.28 81.56&#xA;  Q 56.09 79.90 57.54 78.50&#xA;  Z" fill="#917bd8"/>
<path d="M 121.96 81.86&#xA;  L 129.38 81.98&#xA;  C 143.01 84.42 147.95 100.07 137.27 109.27&#xA;  Q 131.83 113.96 124.74 114.65&#xA;  L 120.34 114.47&#xA;  Q 119.63 114.44 120.23 114.07&#xA;  Q 121.39 113.37 122.77 113.69&#xA;  A 1.54 1.50 42.6 0 0 123.50 113.67&#xA;  L 131.01 111.63&#xA;  Q 131.45 111.51 131.60 111.08&#xA;  Q 131.84 110.43 132.47 110.38&#xA;  Q 132.83 110.36 133.11 110.13&#xA;  L 136.08 107.55&#xA;  Q 136.45 107.23 136.71 106.82&#xA;  L 138.82 103.48&#xA;  Q 139.05 103.12 139.08 102.68&#xA;  Q 139.13 101.80 139.57 101.11&#xA;  Q 139.84 100.69 139.87 100.19&#xA;  Q 140.02 97.39 139.50 94.63&#xA;  C 139.33 93.69 138.81 93.24 138.28 92.49&#xA;  Q 137.99 92.07 138.10 91.58&#xA;  Q 138.35 90.39 137.73 89.45&#xA;  Q 137.62 89.27 137.62 89.48&#xA;  Q 137.62 89.65 137.63 89.81&#xA;  Q 137.65 90.23 137.29 90.03&#xA;  L 136.53 89.61&#xA;  Q 136.10 89.38 135.61 89.44&#xA;  C 134.28 89.60 133.00 89.57 131.74 89.87&#xA;  Q 129.19 90.48 126.60 90.91&#xA;  C 124.84 91.21 123.58 92.15 121.78 92.59&#xA;  Q 121.30 92.71 120.93 93.03&#xA;  Q 119.18 94.53 116.00 94.90&#xA;  Q 112.83 95.28 107.49 97.84&#xA;  Q 107.07 98.04 106.88 98.46&#xA;  Q 106.25 99.80 104.78 99.63&#xA;  Q 104.29 99.57 103.90 99.89&#xA;  Q 103.30 100.39 102.54 100.53&#xA;  L 102.44 97.19&#xA;  L 102.47 82.57&#xA;  A 0.74 0.74 0.0 0 1 103.21 81.83&#xA;  L 121.96 81.86&#xA;  Z" fill="#211315"/>
<path d="M 124.74 114.65&#xA;  L 117.96 114.84&#xA;  C 114.03 114.51 108.14 113.75 107.66 118.83&#xA;  Q 105.64 118.87 103.66 118.13&#xA;  Q 103.08 117.92 102.96 118.52&#xA;  L 102.49 120.83&#xA;  L 102.54 100.53&#xA;  Q 103.30 100.39 103.90 99.89&#xA;  Q 104.29 99.57 104.78 99.63&#xA;  Q 106.25 99.80 106.88 98.46&#xA;  Q 107.07 98.04 107.49 97.84&#xA;  Q 112.83 95.28 116.00 94.90&#xA;  Q 119.18 94.53 120.93 93.03&#xA;  Q 121.30 92.71 121.78 92.59&#xA;  C 123.58 92.15 124.84 91.21 126.60 90.91&#xA;  Q 129.19 90.48 131.74 89.87&#xA;  C 133.00 89.57 134.28 89.60 135.61 89.44&#xA;  Q 136.10 89.38 136.53 89.61&#xA;  L 137.29 90.03&#xA;  Q 137.65 90.23 137.63 89.81&#xA;  Q 137.62 89.65 137.62 89.48&#xA;  Q 137.62 89.27 137.73 89.45&#xA;  Q 138.35 90.39 138.10 91.58&#xA;  Q 137.99 92.07 138.28 92.49&#xA;  C 138.81 93.24 139.33 93.69 139.50 94.63&#xA;  Q 140.02 97.39 139.87 100.19&#xA;  Q 139.84 100.69 139.57 101.11&#xA;  Q 139.13 101.80 139.08 102.68&#xA;  Q 139.05 103.12 138.82 103.48&#xA;  L 136.71 106.82&#xA;  Q 136.45 107.23 136.08 107.55&#xA;  L 133.11 110.13&#xA;  Q 132.83 110.36 132.47 110.38&#xA;  Q 131.84 110.43 131.60 111.08&#xA;  Q 131.45 111.51 131.01 111.63&#xA;  L 123.50 113.67&#xA;  A 1.54 1.50 42.6 0 1 122.77 113.69&#xA;  Q 121.39 113.37 120.23 114.07&#xA;  Q 119.63 114.44 120.34 114.47&#xA;  L 124.74 114.65&#xA;  Z" fill="#272524"/>
<path d="M 102.44 97.19&#xA;  L 102.54 100.53&#xA;  L 102.49 120.83&#xA;  L 102.39 140.96&#xA;  L 102.23 123.39&#xA;  Q 102.22 122.89 101.72 122.89&#xA;  L 101.31 122.90&#xA;  Q 100.78 122.91 100.88 123.43&#xA;  Q 101.23 125.20 99.79 126.08&#xA;  A 1.10 1.05 -2.1 0 0 99.44 126.44&#xA;  L 97.90 129.21&#xA;  Q 97.68 129.61 97.26 129.81&#xA;  Q 95.83 130.49 95.64 132.12&#xA;  Q 95.64 132.14 95.63 132.14&#xA;  L 95.28 132.14&#xA;  Q 94.96 132.13 94.81 132.41&#xA;  C 93.93 133.95 94.01 134.41 93.85 136.14&#xA;  Q 93.71 136.13 94.02 134.81&#xA;  A 0.38 0.37 7.4 0 0 93.66 134.35&#xA;  Q 93.64 134.35 93.59 134.35&#xA;  Q 93.52 134.35 93.53 134.41&#xA;  Q 93.70 135.78 93.20 136.50&#xA;  L 93.13 101.96&#xA;  Q 93.32 100.17 94.72 98.82&#xA;  A 2.19 2.18 18.5 0 1 95.85 98.26&#xA;  L 102.44 97.19&#xA;  Z" fill="#969097"/>
<path d="M 198.51 107.27&#xA;  Q 199.36 108.37 199.76 109.84&#xA;  Q 199.88 110.32 199.80 110.80&#xA;  Q 199.72 111.32 200.11 111.64&#xA;  Q 200.53 111.97 200.68 112.49&#xA;  L 201.41 115.01&#xA;  Q 201.50 115.34 201.82 115.45&#xA;  Q 202.17 115.56 202.21 115.99&#xA;  Q 202.81 122.20 202.51 128.44&#xA;  Q 201.51 136.02 200.13 143.50&#xA;  Q 199.91 144.71 199.35 145.03&#xA;  A 0.55 0.55 0.0 0 0 199.08 145.63&#xA;  Q 199.37 146.91 198.80 147.95&#xA;  Q 198.55 148.41 198.63 148.92&#xA;  Q 198.79 150.04 198.00 150.87&#xA;  Q 197.70 151.19 197.78 150.75&#xA;  L 198.35 147.64&#xA;  Q 198.41 147.29 198.17 147.55&#xA;  L 197.72 148.04&#xA;  Q 197.35 148.43 197.38 148.98&#xA;  Q 197.45 149.98 196.75 150.80&#xA;  Q 196.46 151.14 196.40 151.59&#xA;  Q 196.19 153.33 194.76 154.54&#xA;  Q 193.96 156.40 192.66 157.60&#xA;  Q 192.10 158.13 192.37 157.41&#xA;  Q 194.11 152.80 196.04 148.25&#xA;  C 196.40 147.40 196.35 146.01 196.78 145.20&#xA;  Q 197.68 143.47 197.76 143.17&#xA;  Q 198.64 139.91 198.94 136.46&#xA;  Q 200.32 131.58 200.05 126.46&#xA;  Q 200.73 116.68 198.51 107.27&#xA;  Z" fill="#53684f"/>
<path d="M 150.17 108.15&#xA;  Q 151.07 109.44 149.65 111.66&#xA;  Q 149.40 112.05 149.00 112.31&#xA;  C 147.28 113.44 148.52 117.05 149.26 118.43&#xA;  C 150.13 120.06 150.13 121.04 150.31 122.74&#xA;  Q 150.38 123.36 150.70 123.66&#xA;  Q 150.96 123.90 151.30 124.03&#xA;  Q 151.85 124.23 151.85 124.81&#xA;  L 151.89 128.13&#xA;  Q 151.90 128.65 152.17 129.10&#xA;  Q 152.93 130.32 153.74 131.49&#xA;  Q 154.24 131.55 154.13 132.19&#xA;  A 1.14 0.12 71.7 0 0 154.33 133.09&#xA;  C 155.12 135.69 156.58 140.92 155.38 144.12&#xA;  Q 155.20 144.60 155.37 145.09&#xA;  C 155.70 145.99 156.09 146.38 156.14 147.38&#xA;  Q 156.23 149.68 156.40 151.96&#xA;  Q 156.44 152.41 156.28 152.83&#xA;  L 155.45 155.02&#xA;  Q 155.31 155.41 155.51 155.78&#xA;  C 156.50 157.56 156.82 159.51 159.30 159.86&#xA;  Q 159.75 159.92 160.01 160.28&#xA;  Q 161.91 162.82 162.10 164.99&#xA;  Q 162.60 170.51 159.57 170.47&#xA;  Q 161.53 165.44 158.17 162.08&#xA;  C 152.58 156.48 143.66 163.50 147.40 170.38&#xA;  C 148.95 173.24 152.56 175.03 155.80 173.71&#xA;  Q 156.70 173.44 157.36 174.33&#xA;  Q 157.70 174.80 157.13 174.89&#xA;  Q 156.28 175.02 155.97 175.75&#xA;  Q 155.83 176.06 155.49 176.10&#xA;  Q 152.77 176.39 150.30 175.35&#xA;  Q 149.84 175.15 149.35 175.29&#xA;  Q 147.94 175.70 146.42 175.38&#xA;  Q 145.87 175.27 145.93 174.71&#xA;  Q 146.09 173.25 144.66 172.60&#xA;  Q 144.27 172.42 144.18 172.00&#xA;  Q 143.96 170.98 143.12 170.73&#xA;  Q 142.57 170.56 141.69 170.90&#xA;  Q 140.43 171.38 139.20 171.88&#xA;  A 0.81 0.79 -43.5 0 1 138.57 171.87&#xA;  Q 138.18 171.70 138.09 172.02&#xA;  Q 137.97 172.41 137.57 172.48&#xA;  C 134.82 172.98 132.50 174.11 129.75 174.33&#xA;  Q 126.22 174.62 122.75 175.22&#xA;  C 121.44 175.45 120.02 174.62 118.73 174.57&#xA;  Q 114.57 174.39 110.41 174.21&#xA;  C 107.85 174.09 104.17 174.47 100.98 173.52&#xA;  Q 97.83 172.59 95.96 171.76&#xA;  Q 90.66 169.40 92.94 163.50&#xA;  Q 94.22 167.66 97.75 167.75&#xA;  Q 107.02 167.99 110.09 167.97&#xA;  L 109.05 168.74&#xA;  Q 108.68 169.02 108.24 169.17&#xA;  Q 107.17 169.52 107.11 170.67&#xA;  A 1.01 1.00 84.2 0 0 108.37 171.70&#xA;  Q 109.23 171.47 109.94 171.85&#xA;  Q 110.39 172.08 110.89 172.16&#xA;  C 117.54 173.19 125.65 174.00 132.24 172.48&#xA;  C 136.08 171.59 139.79 170.00 143.68 169.44&#xA;  A 0.71 0.70 83.0 0 0 144.27 168.68&#xA;  L 143.74 162.70&#xA;  L 148.77 157.83&#xA;  C 158.19 144.32 154.81 127.14 139.85 119.53&#xA;  A 0.40 0.40 0.0 0 1 139.82 118.83&#xA;  Q 146.24 114.98 150.17 108.15&#xA;  Z" fill="#090b0f"/>
<path d="M 204.14 114.46&#xA;  C 207.51 151.38 188.48 182.44 155.05 197.39&#xA;  Q 154.20 197.27 153.92 196.24&#xA;  Q 153.78 195.71 153.33 196.03&#xA;  Q 152.04 196.92 150.49 196.29&#xA;  Q 150.04 196.11 150.51 195.96&#xA;  L 151.85 195.54&#xA;  Q 152.42 195.37 151.85 195.19&#xA;  Q 151.21 194.98 150.59 195.39&#xA;  Q 150.54 195.43 150.48 195.37&#xA;  Q 150.44 195.33 150.35 195.37&#xA;  Q 150.56 195.34 150.72 195.24&#xA;  Q 150.91 195.12 151.14 195.11&#xA;  Q 151.74 195.08 151.74 194.78&#xA;  Q 152.92 194.58 153.77 194.05&#xA;  L 154.73 194.02&#xA;  A 1.23 1.20 19.7 0 0 155.58 193.63&#xA;  Q 157.43 191.65 159.83 190.52&#xA;  A 0.72 0.72 0.0 0 0 160.21 190.07&#xA;  Q 160.35 189.56 160.79 189.67&#xA;  A 2.99 2.29 -62.7 0 0 163.51 188.39&#xA;  C 164.33 187.24 165.55 187.25 166.49 186.66&#xA;  Q 169.08 185.06 170.15 184.66&#xA;  Q 172.39 183.82 173.12 182.08&#xA;  Q 173.25 181.79 173.53 181.65&#xA;  Q 173.83 181.50 173.95 181.19&#xA;  Q 174.03 180.98 173.81 180.99&#xA;  Q 173.66 181.00 173.51 181.02&#xA;  Q 173.02 181.10 173.41 180.80&#xA;  L 174.71 179.81&#xA;  Q 175.51 179.86 175.73 179.50&#xA;  C 176.69 177.89 178.90 177.34 180.31 175.75&#xA;  Q 181.73 174.15 182.54 173.35&#xA;  Q 184.11 171.78 185.47 170.04&#xA;  Q 186.90 168.21 188.27 166.17&#xA;  L 191.85 162.53&#xA;  Q 191.94 162.43 191.81 162.39&#xA;  Q 191.66 162.34 191.57 162.29&#xA;  Q 191.52 162.26 191.55 162.21&#xA;  L 194.76 154.54&#xA;  Q 196.19 153.33 196.40 151.59&#xA;  Q 196.46 151.14 196.75 150.80&#xA;  Q 197.45 149.98 197.38 148.98&#xA;  Q 197.35 148.43 197.72 148.04&#xA;  L 198.17 147.55&#xA;  Q 198.41 147.29 198.35 147.64&#xA;  L 197.78 150.75&#xA;  Q 197.70 151.19 198.00 150.87&#xA;  Q 198.79 150.04 198.63 148.92&#xA;  Q 198.55 148.41 198.80 147.95&#xA;  Q 199.37 146.91 199.08 145.63&#xA;  A 0.55 0.55 0.0 0 1 199.35 145.03&#xA;  Q 199.91 144.71 200.13 143.50&#xA;  Q 201.51 136.02 202.51 128.44&#xA;  L 202.67 116.22&#xA;  L 203.41 116.55&#xA;  Q 204.06 116.84 204.08 116.13&#xA;  L 204.14 114.46&#xA;  Z" fill="#80aca7"/>
<path d="M 117.96 114.84&#xA;  Q 117.55 114.93 117.25 115.17&#xA;  Q 116.89 115.45 117.26 115.72&#xA;  C 120.07 117.79 115.79 124.44 120.22 124.69&#xA;  C 114.87 124.85 106.68 126.45 107.66 118.83&#xA;  C 108.14 113.75 114.03 114.51 117.96 114.84&#xA;  Z" fill="#80aca7"/>
<path d="M 107.66 118.83&#xA;  C 106.68 126.45 114.87 124.85 120.22 124.69&#xA;  C 130.89 124.76 138.91 126.97 143.59 137.21&#xA;  Q 146.06 145.69 141.35 151.83&#xA;  Q 136.84 157.71 130.75 157.73&#xA;  Q 117.00 157.77 103.64 157.74&#xA;  A 1.21 1.21 0.0 0 1 102.43 156.54&#xA;  L 102.39 140.96&#xA;  L 102.49 120.83&#xA;  L 102.96 118.52&#xA;  Q 103.08 117.92 103.66 118.13&#xA;  Q 105.64 118.87 107.66 118.83&#xA;  Z" fill="#1a1b25"/>
<path d="M 47.16 118.90&#xA;  L 48.02 133.08&#xA;  Q 47.25 132.47 47.19 131.74&#xA;  Q 46.80 126.95 47.16 118.90&#xA;  Z" fill="#2c3a59"/>
<path d="M 102.39 140.96&#xA;  L 102.43 156.54&#xA;  A 1.21 1.21 0.0 0 0 103.64 157.74&#xA;  Q 117.00 157.77 130.75 157.73&#xA;  Q 136.84 157.71 141.35 151.83&#xA;  Q 146.06 145.69 143.59 137.21&#xA;  Q 144.22 137.60 144.49 136.70&#xA;  A 0.79 0.78 -51.5 0 0 144.43 136.11&#xA;  L 142.66 132.81&#xA;  Q 142.42 132.36 142.87 132.11&#xA;  C 144.86 131.04 146.21 132.36 148.24 132.66&#xA;  Q 148.69 132.73 148.93 133.12&#xA;  Q 149.84 134.58 151.20 135.55&#xA;  A 1.73 1.71 15.6 0 1 151.93 136.83&#xA;  Q 152.36 142.16 151.80 147.51&#xA;  Q 151.74 148.02 151.11 149.60&#xA;  Q 151.11 149.60 151.14 149.65&#xA;  Q 151.16 149.67 151.09 149.63&#xA;  Q 151.02 149.59 151.06 149.48&#xA;  Q 151.83 147.01 151.58 144.42&#xA;  A 0.14 0.14 0.0 0 0 151.42 144.29&#xA;  L 151.17 144.33&#xA;  Q 150.93 144.37 151.01 144.60&#xA;  Q 151.74 146.76 150.24 148.16&#xA;  Q 149.89 148.49 149.78 148.95&#xA;  L 148.65 153.61&#xA;  Q 148.55 154.03 148.16 154.21&#xA;  Q 147.06 154.71 147.20 155.89&#xA;  Q 147.25 156.29 147.04 156.62&#xA;  L 145.34 159.36&#xA;  A 0.34 0.34 0.0 0 0 145.63 159.87&#xA;  Q 145.82 159.87 146.01 159.87&#xA;  Q 146.41 159.87 146.37 159.47&#xA;  Q 146.30 158.87 146.83 158.87&#xA;  Q 147.40 158.86 147.70 158.37&#xA;  Q 148.21 157.51 148.37 156.50&#xA;  Q 148.45 155.92 148.33 156.45&#xA;  Q 148.11 157.38 148.77 157.83&#xA;  L 143.74 162.70&#xA;  Q 137.60 167.42 131.25 167.76&#xA;  Q 124.73 168.10 110.09 167.97&#xA;  Q 107.02 167.99 97.75 167.75&#xA;  Q 94.22 167.66 92.94 163.50&#xA;  L 93.20 136.50&#xA;  Q 93.70 135.78 93.53 134.41&#xA;  Q 93.52 134.35 93.59 134.35&#xA;  Q 93.64 134.35 93.66 134.35&#xA;  A 0.38 0.37 7.4 0 1 94.02 134.81&#xA;  Q 93.71 136.13 93.85 136.14&#xA;  C 94.01 134.41 93.93 133.95 94.81 132.41&#xA;  Q 94.96 132.13 95.28 132.14&#xA;  L 95.63 132.14&#xA;  Q 95.64 132.14 95.64 132.12&#xA;  Q 95.83 130.49 97.26 129.81&#xA;  Q 97.68 129.61 97.90 129.21&#xA;  L 99.44 126.44&#xA;  A 1.10 1.05 -2.1 0 1 99.79 126.08&#xA;  Q 101.23 125.20 100.88 123.43&#xA;  Q 100.78 122.91 101.31 122.90&#xA;  L 101.72 122.89&#xA;  Q 102.22 122.89 102.23 123.39&#xA;  L 102.39 140.96&#xA;  Z" fill="#9ca8a6"/>
<path d="M 78.35 184.55&#xA;  L 80.21 186.10&#xA;  Q 79.94 186.93 80.76 187.25&#xA;  Q 84.09 188.53 85.95 190.59&#xA;  Q 86.27 190.94 86.71 191.10&#xA;  C 87.82 191.51 88.37 192.63 89.79 192.32&#xA;  L 99.76 196.08&#xA;  L 107.67 198.31&#xA;  C 117.86 200.97 128.57 200.65 139.32 198.98&#xA;  Q 139.54 198.95 139.63 198.75&#xA;  Q 139.76 198.47 140.01 198.45&#xA;  Q 143.30 198.24 146.50 197.52&#xA;  Q 147.01 197.40 147.55 196.71&#xA;  Q 147.61 196.63 147.51 196.62&#xA;  Q 147.39 196.60 147.27 196.51&#xA;  A 0.08 0.08 0.0 0 1 147.24 196.43&#xA;  Q 147.29 196.25 147.66 195.96&#xA;  L 151.74 194.78&#xA;  Q 151.74 195.08 151.14 195.11&#xA;  Q 150.91 195.12 150.72 195.24&#xA;  Q 150.56 195.34 150.35 195.37&#xA;  Q 150.44 195.33 150.48 195.37&#xA;  Q 150.54 195.43 150.59 195.39&#xA;  Q 151.21 194.98 151.85 195.19&#xA;  Q 152.42 195.37 151.85 195.54&#xA;  L 150.51 195.96&#xA;  Q 150.04 196.11 150.49 196.29&#xA;  Q 152.04 196.92 153.33 196.03&#xA;  Q 153.78 195.71 153.92 196.24&#xA;  Q 154.20 197.27 155.05 197.39&#xA;  C 119.88 212.69 79.69 201.12 57.04 170.72&#xA;  Q 46.10 156.05 43.05 136.46&#xA;  L 44.40 134.17&#xA;  L 44.65 128.40&#xA;  Q 44.65 128.37 44.62 128.37&#xA;  Q 44.61 128.38 44.60 128.38&#xA;  Q 44.60 128.38 44.60 128.39&#xA;  Q 44.93 130.99 44.93 133.68&#xA;  Q 44.93 133.93 45.18 133.93&#xA;  L 45.43 133.94&#xA;  Q 45.60 133.94 45.60 133.77&#xA;  L 45.63 127.87&#xA;  Q 45.63 127.87 45.60 127.88&#xA;  Q 45.59 127.88 45.59 127.88&#xA;  Q 45.57 127.88 45.57 127.90&#xA;  Q 46.11 133.60 45.89 135.76&#xA;  Q 45.63 138.34 46.04 139.70&#xA;  Q 47.68 145.12 49.72 150.41&#xA;  C 50.67 152.87 51.15 155.35 52.08 157.77&#xA;  Q 52.14 157.95 52.33 157.93&#xA;  Q 52.47 157.92 52.58 157.78&#xA;  Q 52.62 157.74 52.59 157.69&#xA;  Q 52.44 157.36 52.29 157.02&#xA;  Q 52.15 156.69 52.45 156.89&#xA;  Q 52.74 157.08 52.62 157.47&#xA;  A 0.33 0.33 0.0 0 0 52.86 157.90&#xA;  Q 53.83 158.12 53.62 159.11&#xA;  Q 53.51 159.64 53.80 160.09&#xA;  L 58.31 167.06&#xA;  Q 58.58 167.48 59.02 167.73&#xA;  Q 60.28 168.45 61.27 169.57&#xA;  A 0.40 0.39 -12.7 0 0 61.47 169.69&#xA;  Q 62.32 169.90 62.49 170.61&#xA;  Q 62.61 171.11 63.02 171.42&#xA;  Q 64.65 172.68 65.64 174.46&#xA;  Q 65.92 174.98 66.39 175.33&#xA;  Q 67.47 176.16 68.26 177.31&#xA;  Q 68.56 177.74 69.07 177.85&#xA;  Q 69.64 177.97 69.97 178.40&#xA;  Q 73.30 182.67 78.35 184.55&#xA;  Z" fill="#4ca1ca"/>
<path d="M 48.34 135.24&#xA;  L 49.80 141.17&#xA;  Q 49.91 141.62 49.49 141.43&#xA;  L 49.18 141.29&#xA;  Q 47.39 139.61 48.34 135.24&#xA;  Z" fill="#2c3a59"/>
<path d="M 198.94 136.46&#xA;  Q 198.64 139.91 197.76 143.17&#xA;  Q 197.68 143.47 196.78 145.20&#xA;  C 196.35 146.01 196.40 147.40 196.04 148.25&#xA;  Q 194.11 152.80 192.37 157.41&#xA;  Q 192.10 158.13 192.66 157.60&#xA;  Q 193.96 156.40 194.76 154.54&#xA;  L 191.55 162.21&#xA;  Q 191.52 162.26 191.57 162.29&#xA;  Q 191.66 162.34 191.81 162.39&#xA;  Q 191.94 162.43 191.85 162.53&#xA;  L 188.27 166.17&#xA;  Q 190.21 162.87 192.05 159.47&#xA;  Q 192.24 159.12 192.07 158.93&#xA;  Q 191.77 158.59 191.56 158.99&#xA;  Q 190.38 161.17 189.04 163.23&#xA;  C 188.43 164.17 187.39 164.63 186.88 165.38&#xA;  Q 185.04 168.07 183.17 170.71&#xA;  Q 182.78 171.26 182.02 171.22&#xA;  Q 182.58 169.10 184.42 167.77&#xA;  A 1.33 1.28 78.7 0 0 184.95 166.94&#xA;  Q 185.27 165.26 186.73 163.96&#xA;  Q 186.83 163.87 186.97 163.87&#xA;  Q 187.11 163.87 187.25 163.87&#xA;  A 0.42 0.41 10.1 0 0 187.64 163.60&#xA;  C 188.11 162.32 188.44 161.19 189.39 160.10&#xA;  Q 191.86 157.30 192.22 153.51&#xA;  Q 192.26 153.02 192.53 152.60&#xA;  Q 193.30 151.41 193.65 150.05&#xA;  Q 193.98 148.80 194.45 148.07&#xA;  C 194.86 147.44 195.66 146.23 195.86 145.55&#xA;  Q 197.24 140.94 198.94 136.46&#xA;  Z" fill="#2c3a59"/>
<path d="M 48.97 145.64&#xA;  Q 49.45 146.03 49.50 146.76&#xA;  Q 49.61 148.43 49.91 150.11&#xA;  Q 49.91 150.12 49.88 150.13&#xA;  Q 49.82 150.14 49.83 150.14&#xA;  Q 50.01 150.13 50.00 150.09&#xA;  L 47.38 142.24&#xA;  Q 47.17 141.60 47.57 142.07&#xA;  Q 47.67 142.19 47.66 142.36&#xA;  Q 47.64 142.55 47.70 142.72&#xA;  L 48.45 144.91&#xA;  Q 48.61 145.35 48.97 145.64&#xA;  Z" fill="#4ca1ca"/>
<path d="M 57.22 160.90&#xA;  Q 56.23 159.56 55.76 157.88&#xA;  A 1.37 1.30 11.8 0 0 55.26 157.16&#xA;  Q 53.78 156.05 53.50 153.74&#xA;  Q 53.43 153.09 52.66 152.75&#xA;  Q 52.19 152.55 52.08 152.06&#xA;  L 51.36 148.99&#xA;  Q 51.38 146.58 50.07 144.48&#xA;  Q 49.98 144.34 50.10 144.23&#xA;  L 50.39 143.99&#xA;  Q 50.42 143.96 50.44 144.00&#xA;  Q 51.69 146.37 52.09 149.00&#xA;  Q 52.13 149.23 52.25 149.03&#xA;  Q 52.34 148.89 52.40 148.57&#xA;  Q 52.41 148.50 52.40 148.57&#xA;  Q 52.36 149.12 52.38 149.71&#xA;  A 0.64 0.62 -65.6 0 0 52.50 150.05&#xA;  Q 54.26 152.27 54.42 155.05&#xA;  Q 54.45 155.62 54.85 156.02&#xA;  Q 56.65 157.83 57.22 160.90&#xA;  Z" fill="#2c3a59"/>
<path d="M 188.27 166.17&#xA;  Q 186.90 168.21 185.47 170.04&#xA;  Q 184.11 171.78 182.54 173.35&#xA;  Q 181.73 174.15 180.31 175.75&#xA;  C 178.90 177.34 176.69 177.89 175.73 179.50&#xA;  Q 175.51 179.86 174.71 179.81&#xA;  L 179.27 174.07&#xA;  Q 181.32 173.46 182.02 171.22&#xA;  Q 182.78 171.26 183.17 170.71&#xA;  Q 185.04 168.07 186.88 165.38&#xA;  C 187.39 164.63 188.43 164.17 189.04 163.23&#xA;  Q 190.38 161.17 191.56 158.99&#xA;  Q 191.77 158.59 192.07 158.93&#xA;  Q 192.24 159.12 192.05 159.47&#xA;  Q 190.21 162.87 188.27 166.17&#xA;  Z" fill="#53684f"/>
<path d="M 159.57 170.47&#xA;  Q 158.11 172.53 155.80 173.71&#xA;  C 152.56 175.03 148.95 173.24 147.40 170.38&#xA;  C 143.66 163.50 152.58 156.48 158.17 162.08&#xA;  Q 161.53 165.44 159.57 170.47&#xA;  Z" fill="#d7b9b6"/>
<path d="M 143.74 162.70&#xA;  L 144.27 168.68&#xA;  A 0.71 0.70 83.0 0 1 143.68 169.44&#xA;  C 139.79 170.00 136.08 171.59 132.24 172.48&#xA;  C 125.65 174.00 117.54 173.19 110.89 172.16&#xA;  Q 110.39 172.08 109.94 171.85&#xA;  Q 109.23 171.47 108.37 171.70&#xA;  A 1.01 1.00 84.2 0 1 107.11 170.67&#xA;  Q 107.17 169.52 108.24 169.17&#xA;  Q 108.68 169.02 109.05 168.74&#xA;  L 110.09 167.97&#xA;  Q 124.73 168.10 131.25 167.76&#xA;  Q 137.60 167.42 143.74 162.70&#xA;  Z" fill="#1a1b25"/>
<path d="M 65.82 172.64&#xA;  Q 64.30 170.45 62.83 168.66&#xA;  Q 62.40 168.13 61.93 168.03&#xA;  A 0.63 0.63 0.0 0 1 61.42 167.40&#xA;  L 61.43 167.00&#xA;  Q 61.24 165.72 60.47 165.01&#xA;  Q 59.73 164.33 60.31 164.36&#xA;  Q 60.47 164.37 60.64 164.37&#xA;  A 0.61 0.60 72.9 0 1 61.14 164.64&#xA;  L 64.18 169.31&#xA;  Q 64.42 169.68 64.77 169.94&#xA;  Q 65.97 170.81 65.82 172.64&#xA;  Z" fill="#2c3a59"/>
<path d="M 182.02 171.22&#xA;  Q 181.32 173.46 179.27 174.07&#xA;  L 179.48 173.54&#xA;  Q 179.61 173.22 179.28 173.31&#xA;  Q 179.07 173.36 178.90 173.53&#xA;  Q 178.66 173.75 178.56 173.45&#xA;  Q 178.51 173.30 178.68 173.17&#xA;  C 179.99 172.15 180.41 171.37 182.02 171.22&#xA;  Z" fill="#2c3a59"/>
<path d="M 68.01 175.30&#xA;  Q 71.47 176.28 73.74 179.21&#xA;  Q 74.07 179.64 74.61 179.72&#xA;  Q 75.37 179.83 75.93 180.33&#xA;  Q 76.22 180.59 76.36 180.94&#xA;  Q 76.56 181.45 76.96 181.61&#xA;  C 78.51 182.24 80.64 184.52 81.91 185.78&#xA;  Q 80.71 185.83 80.38 185.26&#xA;  Q 80.12 184.83 79.84 184.59&#xA;  Q 79.53 184.30 79.68 184.70&#xA;  L 80.21 186.10&#xA;  L 78.35 184.55&#xA;  L 68.01 175.30&#xA;  Z" fill="#2c3a59"/>
<path d="M 173.78 179.74&#xA;  Q 172.76 181.51 170.93 181.80&#xA;  Q 172.22 179.35 173.78 179.74&#xA;  Z" fill="#2c3a59"/>
<path d="M 173.78 179.74&#xA;  L 174.71 179.81&#xA;  L 173.41 180.80&#xA;  Q 173.02 181.10 173.51 181.02&#xA;  Q 173.66 181.00 173.81 180.99&#xA;  Q 174.03 180.98 173.95 181.19&#xA;  Q 173.83 181.50 173.53 181.65&#xA;  Q 173.25 181.79 173.12 182.08&#xA;  Q 172.39 183.82 170.15 184.66&#xA;  Q 169.08 185.06 166.49 186.66&#xA;  C 165.55 187.25 164.33 187.24 163.51 188.39&#xA;  A 2.99 2.29 -62.7 0 1 160.79 189.67&#xA;  Q 160.35 189.56 160.21 190.07&#xA;  A 0.72 0.72 0.0 0 1 159.83 190.52&#xA;  Q 157.43 191.65 155.58 193.63&#xA;  A 1.23 1.20 19.7 0 1 154.73 194.02&#xA;  L 153.77 194.05&#xA;  Q 154.83 192.26 156.76 191.53&#xA;  C 158.20 190.99 159.03 190.29 160.21 189.54&#xA;  C 162.00 188.41 163.40 186.73 165.52 185.76&#xA;  Q 167.35 185.63 168.65 183.78&#xA;  Q 169.56 182.26 170.93 181.80&#xA;  Q 172.76 181.51 173.78 179.74&#xA;  Z" fill="#53684f"/>
<path d="M 168.65 183.78&#xA;  Q 167.35 185.63 165.52 185.76&#xA;  Q 166.06 183.81 168.65 183.78&#xA;  Z" fill="#2c3a59"/>
<path d="M 81.91 185.78&#xA;  Q 81.76 185.76 81.60 185.74&#xA;  Q 83.93 187.82 86.16 189.45&#xA;  C 87.37 190.33 88.91 190.33 89.79 192.32&#xA;  C 88.37 192.63 87.82 191.51 86.71 191.10&#xA;  Q 86.27 190.94 85.95 190.59&#xA;  Q 84.09 188.53 80.76 187.25&#xA;  Q 79.94 186.93 80.21 186.10&#xA;  L 79.68 184.70&#xA;  Q 79.53 184.30 79.84 184.59&#xA;  Q 80.12 184.83 80.38 185.26&#xA;  Q 80.71 185.83 81.91 185.78&#xA;  Z" fill="#6045ae"/>
<path d="M 81.60 185.74&#xA;  Q 83.49 185.77 84.34 187.53&#xA;  Q 84.39 187.64 84.50 187.63&#xA;  Q 84.64 187.63 84.79 187.62&#xA;  Q 84.90 187.61 84.80 187.57&#xA;  Q 84.63 187.51 84.58 187.37&#xA;  Q 84.48 187.15 84.72 187.22&#xA;  Q 86.81 187.90 88.98 188.25&#xA;  C 90.49 188.49 91.33 189.06 92.15 190.20&#xA;  Q 92.43 190.60 92.83 190.87&#xA;  Q 94.87 192.24 97.36 192.34&#xA;  Q 97.86 192.36 98.11 192.80&#xA;  L 98.27 193.09&#xA;  A 0.63 0.62 76.2 0 0 98.77 193.40&#xA;  C 101.00 193.57 104.41 193.55 106.37 194.65&#xA;  C 107.91 195.51 112.17 196.14 113.95 196.12&#xA;  C 120.13 196.07 126.25 196.54 132.34 196.10&#xA;  Q 137.61 195.71 142.88 195.48&#xA;  Q 143.07 195.47 143.62 195.13&#xA;  Q 143.89 194.97 143.89 194.66&#xA;  A 0.41 0.40 84.2 0 1 144.22 194.25&#xA;  L 148.67 193.44&#xA;  Q 149.10 193.36 149.40 193.04&#xA;  Q 150.47 191.85 152.03 191.89&#xA;  A 0.73 0.72 -78.0 0 0 152.71 191.44&#xA;  Q 153.35 189.91 155.08 189.84&#xA;  Q 155.61 189.82 155.91 189.39&#xA;  L 156.42 188.65&#xA;  Q 156.69 188.25 157.16 188.12&#xA;  L 165.52 185.76&#xA;  C 163.40 186.73 162.00 188.41 160.21 189.54&#xA;  C 159.03 190.29 158.20 190.99 156.76 191.53&#xA;  Q 154.83 192.26 153.77 194.05&#xA;  L 148.26 194.93&#xA;  Q 146.80 194.69 145.51 195.88&#xA;  Q 145.37 196.01 145.56 196.02&#xA;  Q 145.87 196.03 145.97 195.92&#xA;  Q 146.80 196.19 147.66 195.96&#xA;  Q 147.29 196.25 147.24 196.43&#xA;  A 0.08 0.08 0.0 0 0 147.27 196.51&#xA;  Q 147.39 196.60 147.51 196.62&#xA;  Q 147.61 196.63 147.55 196.71&#xA;  Q 147.01 197.40 146.50 197.52&#xA;  Q 143.30 198.24 140.01 198.45&#xA;  Q 139.76 198.47 139.63 198.75&#xA;  Q 139.54 198.95 139.32 198.98&#xA;  C 128.57 200.65 117.86 200.97 107.67 198.31&#xA;  L 113.83 199.03&#xA;  Q 113.88 199.04 113.88 198.98&#xA;  Q 113.88 198.96 113.88 198.93&#xA;  Q 113.88 198.88 113.75 198.85&#xA;  L 106.26 197.58&#xA;  A 0.22 0.22 0.0 0 1 106.26 197.15&#xA;  Q 107.01 197.03 107.71 197.25&#xA;  Q 107.87 197.30 107.77 197.17&#xA;  Q 107.58 196.91 107.37 196.87&#xA;  Q 103.57 196.21 99.76 196.08&#xA;  L 89.79 192.32&#xA;  C 88.91 190.33 87.37 190.33 86.16 189.45&#xA;  Q 83.93 187.82 81.60 185.74&#xA;  Z" fill="#2c3a59"/>
<path d="M 153.77 194.05&#xA;  Q 152.92 194.58 151.74 194.78&#xA;  L 147.66 195.96&#xA;  Q 146.80 196.19 145.97 195.92&#xA;  Q 147.53 195.54 148.26 194.93&#xA;  L 153.77 194.05&#xA;  Z" fill="#53684f"/>
<path d="M 148.26 194.93&#xA;  Q 147.53 195.54 145.97 195.92&#xA;  Q 145.87 196.03 145.56 196.02&#xA;  Q 145.37 196.01 145.51 195.88&#xA;  Q 146.80 194.69 148.26 194.93&#xA;  Z" fill="#6045ae"/>
<path d="M 99.76 196.08&#xA;  Q 103.57 196.21 107.37 196.87&#xA;  Q 107.58 196.91 107.77 197.17&#xA;  Q 107.87 197.30 107.71 197.25&#xA;  Q 107.01 197.03 106.26 197.15&#xA;  A 0.22 0.22 0.0 0 0 106.26 197.58&#xA;  L 113.75 198.85&#xA;  Q 113.88 198.88 113.88 198.93&#xA;  Q 113.88 198.96 113.88 198.98&#xA;  Q 113.88 199.04 113.83 199.03&#xA;  L 107.67 198.31&#xA;  L 99.76 196.08&#xA;  Z" fill="#6045ae"/>
</svg>