<?xml version="1.0" encoding="utf-8"?>
<svg xmlns="http://www.w3.org/2000/svg" version="1.1" viewBox="0.00 0.00 32.00 32.00">
<g fill="none" stroke-linecap="butt" stroke-width="2.00">
<path d="M 15.71 2.50&#xA;  A 0.76 0.65 -40.3 0 0 15.42 2.50&#xA;  L 4.41 4.93&#xA;  Q 4.25 4.97 4.26 5.13&#xA;  L 4.29 5.41&#xA;  Q 4.31 5.62 4.51 5.61&#xA;  Q 15.21 5.39 25.81 5.62&#xA;  Q 25.98 5.62 26.08 5.54&#xA;  Q 26.19 5.44 26.20 5.28&#xA;  Q 26.21 4.96 25.90 4.89&#xA;  L 15.71 2.50" stroke="#808080"/>
<path d="M 26.44 6.99&#xA;  A 0.49 0.49 0.0 0 0 25.95 6.50&#xA;  L 4.49 6.50&#xA;  A 0.49 0.49 0.0 0 0 4.00 6.99&#xA;  L 4.00 8.27&#xA;  A 0.49 0.49 0.0 0 0 4.49 8.76&#xA;  L 25.95 8.76&#xA;  A 0.49 0.49 0.0 0 0 26.44 8.27&#xA;  L 26.44 6.99" stroke="#808080"/>
<path d="M 7.7508 10.6224&#xA;  A 0.90 0.90 0.0 0 0 6.8524 9.7208&#xA;  L 5.9324 9.7192&#xA;  A 0.90 0.90 0.0 0 0 5.0308 10.6176&#xA;  L 5.0092 22.9776&#xA;  A 0.90 0.90 0.0 0 0 5.9076 23.8792&#xA;  L 6.8276 23.8808&#xA;  A 0.90 0.90 0.0 0 0 7.7292 22.9824&#xA;  L 7.7508 10.6224" stroke="#808080"/>
<path d="M 13.4507 10.6725&#xA;  A 0.96 0.96 0.0 0 0 12.4924 9.7108&#xA;  L 11.5324 9.7092&#xA;  A 0.96 0.96 0.0 0 0 10.5707 10.6675&#xA;  L 10.5493 22.9075&#xA;  A 0.96 0.96 0.0 0 0 11.5076 23.8692&#xA;  L 12.4676 23.8708&#xA;  A 0.96 0.96 0.0 0 0 13.4293 22.9125&#xA;  L 13.4507 10.6725" stroke="#808080"/>
<path d="M 19.74 10.54&#xA;  A 0.82 0.82 0.0 0 0 18.92 9.72&#xA;  L 17.84 9.72&#xA;  A 0.82 0.82 0.0 0 0 17.02 10.54&#xA;  L 17.02 23.04&#xA;  A 0.82 0.82 0.0 0 0 17.84 23.86&#xA;  L 18.92 23.86&#xA;  A 0.82 0.82 0.0 0 0 19.74 23.04&#xA;  L 19.74 10.54" stroke="#808080"/>
<path d="M 25.43 10.66&#xA;  A 0.95 0.95 0.0 0 0 24.48 9.71&#xA;  L 23.52 9.71&#xA;  A 0.95 0.95 0.0 0 0 22.57 10.66&#xA;  L 22.57 22.92&#xA;  A 0.95 0.95 0.0 0 0 23.52 23.87&#xA;  L 24.48 23.87&#xA;  A 0.95 0.95 0.0 0 0 25.43 22.92&#xA;  L 25.43 10.66" stroke="#808080"/>
<path d="M 26.45 25.45&#xA;  A 0.65 0.65 0.0 0 0 25.80 24.80&#xA;  L 4.62 24.80&#xA;  A 0.65 0.65 0.0 0 0 3.97 25.45&#xA;  L 3.97 25.63&#xA;  A 0.65 0.65 0.0 0 0 4.62 26.28&#xA;  L 25.80 26.28&#xA;  A 0.65 0.65 0.0 0 0 26.45 25.63&#xA;  L 26.45 25.45" stroke="#808080"/>
<path d="M 27.24 27.86&#xA;  A 0.62 0.62 0.0 0 0 26.62 27.24&#xA;  L 3.70 27.24&#xA;  A 0.62 0.62 0.0 0 0 3.08 27.86&#xA;  L 3.08 28.24&#xA;  A 0.62 0.62 0.0 0 0 3.70 28.86&#xA;  L 26.62 28.86&#xA;  A 0.62 0.62 0.0 0 0 27.24 28.24&#xA;  L 27.24 27.86" stroke="#808080"/>
</g>
<path d="M 0.00 0.00&#xA;  L 32.00 0.00&#xA;  L 32.00 32.00&#xA;  L 0.00 32.00&#xA;  L 0.00 0.00&#xA;  Z&#xA;  M 15.71 2.50&#xA;  A 0.76 0.65 -40.3 0 0 15.42 2.50&#xA;  L 4.41 4.93&#xA;  Q 4.25 4.97 4.26 5.13&#xA;  L 4.29 5.41&#xA;  Q 4.31 5.62 4.51 5.61&#xA;  Q 15.21 5.39 25.81 5.62&#xA;  Q 25.98 5.62 26.08 5.54&#xA;  Q 26.19 5.44 26.20 5.28&#xA;  Q 26.21 4.96 25.90 4.89&#xA;  L 15.71 2.50&#xA;  Z&#xA;  M 26.44 6.99&#xA;  A 0.49 0.49 0.0 0 0 25.95 6.50&#xA;  L 4.49 6.50&#xA;  A 0.49 0.49 0.0 0 0 4.00 6.99&#xA;  L 4.00 8.27&#xA;  A 0.49 0.49 0.0 0 0 4.49 8.76&#xA;  L 25.95 8.76&#xA;  A 0.49 0.49 0.0 0 0 26.44 8.27&#xA;  L 26.44 6.99&#xA;  Z&#xA;  M 7.7508 10.6224&#xA;  A 0.90 0.90 0.0 0 0 6.8524 9.7208&#xA;  L 5.9324 9.7192&#xA;  A 0.90 0.90 0.0 0 0 5.0308 10.6176&#xA;  L 5.0092 22.9776&#xA;  A 0.90 0.90 0.0 0 0 5.9076 23.8792&#xA;  L 6.8276 23.8808&#xA;  A 0.90 0.90 0.0 0 0 7.7292 22.9824&#xA;  L 7.7508 10.6224&#xA;  Z&#xA;  M 13.4507 10.6725&#xA;  A 0.96 0.96 0.0 0 0 12.4924 9.7108&#xA;  L 11.5324 9.7092&#xA;  A 0.96 0.96 0.0 0 0 10.5707 10.6675&#xA;  L 10.5493 22.9075&#xA;  A 0.96 0.96 0.0 0 0 11.5076 23.8692&#xA;  L 12.4676 23.8708&#xA;  A 0.96 0.96 0.0 0 0 13.4293 22.9125&#xA;  L 13.4507 10.6725&#xA;  Z&#xA;  M 19.74 10.54&#xA;  A 0.82 0.82 0.0 0 0 18.92 9.72&#xA;  L 17.84 9.72&#xA;  A 0.82 0.82 0.0 0 0 17.02 10.54&#xA;  L 17.02 23.04&#xA;  A 0.82 0.82 0.0 0 0 17.84 23.86&#xA;  L 18.92 23.86&#xA;  A 0.82 0.82 0.0 0 0 19.74 23.04&#xA;  L 19.74 10.54&#xA;  Z&#xA;  M 25.43 10.66&#xA;  A 0.95 0.95 0.0 0 0 24.48 9.71&#xA;  L 23.52 9.71&#xA;  A 0.95 0.95 0.0 0 0 22.57 10.66&#xA;  L 22.57 22.92&#xA;  A 0.95 0.95 0.0 0 0 23.52 23.87&#xA;  L 24.48 23.87&#xA;  A 0.95 0.95 0.0 0 0 25.43 22.92&#xA;  L 25.43 10.66&#xA;  Z&#xA;  M 26.45 25.45&#xA;  A 0.65 0.65 0.0 0 0 25.80 24.80&#xA;  L 4.62 24.80&#xA;  A 0.65 0.65 0.0 0 0 3.97 25.45&#xA;  L 3.97 25.63&#xA;  A 0.65 0.65 0.0 0 0 4.62 26.28&#xA;  L 25.80 26.28&#xA;  A 0.65 0.65 0.0 0 0 26.45 25.63&#xA;  L 26.45 25.45&#xA;  Z&#xA;  M 27.24 27.86&#xA;  A 0.62 0.62 0.0 0 0 26.62 27.24&#xA;  L 3.70 27.24&#xA;  A 0.62 0.62 0.0 0 0 3.08 27.86&#xA;  L 3.08 28.24&#xA;  A 0.62 0.62 0.0 0 0 3.70 28.86&#xA;  L 26.62 28.86&#xA;  A 0.62 0.62 0.0 0 0 27.24 28.24&#xA;  L 27.24 27.86&#xA;  Z" fill="#000000"/>
<path d="M 15.71 2.50&#xA;  L 25.90 4.89&#xA;  Q 26.21 4.96 26.20 5.28&#xA;  Q 26.19 5.44 26.08 5.54&#xA;  Q 25.98 5.62 25.81 5.62&#xA;  Q 15.21 5.39 4.51 5.61&#xA;  Q 4.31 5.62 4.29 5.41&#xA;  L 4.26 5.13&#xA;  Q 4.25 4.97 4.41 4.93&#xA;  L 15.42 2.50&#xA;  A 0.76 0.65 -40.3 0 1 15.71 2.50&#xA;  Z" fill="#ffffff"/>
<rect fill="#ffffff" height="2.26" rx="0.49" width="22.44" x="4.00" y="6.50"/>
<rect fill="#ffffff" height="14.16" rx="0.90" transform="translate(6.38,16.80) rotate(0.1)" width="2.72" x="-1.36" y="-7.08"/>
<rect fill="#ffffff" height="14.16" rx="0.96" transform="translate(12.00,16.79) rotate(0.1)" width="2.88" x="-1.44" y="-7.08"/>
<rect fill="#ffffff" height="14.14" rx="0.82" width="2.72" x="17.02" y="9.72"/>
<rect fill="#ffffff" height="14.16" rx="0.95" width="2.86" x="22.57" y="9.71"/>
<rect fill="#ffffff" height="1.48" rx="0.65" width="22.48" x="3.97" y="24.80"/>
<rect fill="#ffffff" height="1.62" rx="0.62" width="24.16" x="3.08" y="27.24"/>
</svg>