<?xml version="1.0" encoding="utf-8"?>
<svg xmlns="http://www.w3.org/2000/svg" version="1.1" viewBox="0.00 0.00 32.00 32.00">
<g fill="none" stroke-linecap="butt" stroke-width="2.00">
<path d="M 4.16 11.19&#xA;  Q 0.92 24.03 13.20 28.09" stroke="#9ec9ff"/>
<path d="M 13.20 28.09&#xA;  Q 21.48 29.20 25.75 22.65" stroke="#afdffe"/>
<path d="M 25.75 22.65&#xA;  Q 27.67 19.72 27.91 16.58&#xA;  Q 27.93 16.37 27.72 16.42&#xA;  L 22.85 17.48&#xA;  Q 22.60 17.54 22.56 17.79&#xA;  Q 21.98 21.06 18.25 22.80" stroke="#d8d1fa"/>
<path d="M 18.25 22.80&#xA;  Q 15.93 23.58 13.19 22.91" stroke="#afdffe"/>
<path d="M 13.19 22.91&#xA;  C 7.89 20.63 6.37 14.03 11.02 10.21" stroke="#9ec9ff"/>
<path d="M 11.02 10.21&#xA;  Q 14.42 7.90 18.10 9.07&#xA;  Q 18.59 9.22 18.93 8.84&#xA;  L 21.23 6.32" stroke="#afdffe"/>
<path d="M 21.23 6.32&#xA;  Q 21.70 6.32 21.95 6.05&#xA;  Q 22.30 5.66 21.84 5.40&#xA;  C 15.00 1.61 7.66 4.33 4.16 11.19" stroke="#beb9f9"/>
<path d="M 21.23 6.32&#xA;  C 18.74 4.27 13.73 5.71 11.00 7.20" stroke="#6e99f8"/>
<path d="M 11.00 7.20&#xA;  Q 8.02 8.89 6.16 11.69&#xA;  Q 5.89 12.09 5.47 11.87&#xA;  L 4.16 11.19" stroke="#5c83f9"/>
<path d="M 11.02 10.21&#xA;  Q 11.19 9.70 11.08 9.31&#xA;  Q 10.99 9.00 11.14 8.71&#xA;  Q 11.52 7.97 11.00 7.20" stroke="#4ea9fe"/>
<path d="M 13.19 22.91&#xA;  Q 13.80 25.64 13.20 28.09" stroke="#4ea9fe"/>
<path d="M 25.75 22.65&#xA;  Q 24.43 21.80 24.08 20.86&#xA;  Q 23.99 20.62 23.75 20.62&#xA;  Q 23.60 20.62 23.45 20.62&#xA;  Q 23.10 20.64 23.03 20.98&#xA;  Q 22.39 24.30 19.85 26.49&#xA;  A 0.68 0.68 0.0 0 1 18.77 25.73&#xA;  Q 19.28 24.37 18.25 22.80" stroke="#88b1f9"/>
<path d="M 22.94 7.23&#xA;  C 17.17 9.48 19.90 17.37 25.98 15.52&#xA;  Q 28.03 14.90 28.46 12.51" stroke="#a8daff"/>
<path d="M 28.46 12.51&#xA;  C 29.18 9.07 26.32 6.17 22.94 7.23" stroke="#d6dffc"/>
<path d="M 28.46 12.51&#xA;  Q 23.52 11.59 22.94 7.23" stroke="#7fb9fc"/>
</g>
<path d="M 14.13 0.00&#xA;  L 18.00 0.00&#xA;  Q 29.67 2.37 32.00 14.13&#xA;  L 32.00 18.00&#xA;  Q 29.62 29.67 17.87 32.00&#xA;  L 14.00 32.00&#xA;  Q 2.32 29.63 0.00 17.87&#xA;  L 0.00 14.01&#xA;  Q 2.39 2.32 14.13 0.00&#xA;  Z&#xA;  M 4.16 11.19&#xA;  Q 0.92 24.03 13.20 28.09&#xA;  Q 21.48 29.20 25.75 22.65&#xA;  Q 27.67 19.72 27.91 16.58&#xA;  Q 27.93 16.37 27.72 16.42&#xA;  L 22.85 17.48&#xA;  Q 22.60 17.54 22.56 17.79&#xA;  Q 21.98 21.06 18.25 22.80&#xA;  Q 15.93 23.58 13.19 22.91&#xA;  C 7.89 20.63 6.37 14.03 11.02 10.21&#xA;  Q 14.42 7.90 18.10 9.07&#xA;  Q 18.59 9.22 18.93 8.84&#xA;  L 21.23 6.32&#xA;  Q 21.70 6.32 21.95 6.05&#xA;  Q 22.30 5.66 21.84 5.40&#xA;  C 15.00 1.61 7.66 4.33 4.16 11.19&#xA;  Z&#xA;  M 22.94 7.23&#xA;  C 17.17 9.48 19.90 17.37 25.98 15.52&#xA;  Q 28.03 14.90 28.46 12.51&#xA;  C 29.18 9.07 26.32 6.17 22.94 7.23&#xA;  Z" fill="#ffffff"/>
<path d="M 21.23 6.32&#xA;  C 18.74 4.27 13.73 5.71 11.00 7.20&#xA;  Q 8.02 8.89 6.16 11.69&#xA;  Q 5.89 12.09 5.47 11.87&#xA;  L 4.16 11.19&#xA;  C 7.66 4.33 15.00 1.61 21.84 5.40&#xA;  Q 22.30 5.66 21.95 6.05&#xA;  Q 21.70 6.32 21.23 6.32&#xA;  Z" fill="#7c73f2"/>
<path d="M 21.23 6.32&#xA;  L 18.93 8.84&#xA;  Q 18.59 9.22 18.10 9.07&#xA;  Q 14.42 7.90 11.02 10.21&#xA;  Q 11.19 9.70 11.08 9.31&#xA;  Q 10.99 9.00 11.14 8.71&#xA;  Q 11.52 7.97 11.00 7.20&#xA;  C 13.73 5.71 18.74 4.27 21.23 6.32&#xA;  Z" fill="#5fbffd"/>
<path d="M 11.00 7.20&#xA;  Q 11.52 7.97 11.14 8.71&#xA;  Q 10.99 9.00 11.08 9.31&#xA;  Q 11.19 9.70 11.02 10.21&#xA;  C 6.37 14.03 7.89 20.63 13.19 22.91&#xA;  Q 13.80 25.64 13.20 28.09&#xA;  Q 0.92 24.03 4.16 11.19&#xA;  L 5.47 11.87&#xA;  Q 5.89 12.09 6.16 11.69&#xA;  Q 8.02 8.89 11.00 7.20&#xA;  Z" fill="#3c92ff"/>
<path d="M 28.46 12.51&#xA;  Q 23.52 11.59 22.94 7.23&#xA;  C 26.32 6.17 29.18 9.07 28.46 12.51&#xA;  Z" fill="#adbef9"/>
<path d="M 22.94 7.23&#xA;  Q 23.52 11.59 28.46 12.51&#xA;  Q 28.03 14.90 25.98 15.52&#xA;  C 19.90 17.37 17.17 9.48 22.94 7.23&#xA;  Z" fill="#50b4fe"/>
<path d="M 25.75 22.65&#xA;  Q 24.43 21.80 24.08 20.86&#xA;  Q 23.99 20.62 23.75 20.62&#xA;  Q 23.60 20.62 23.45 20.62&#xA;  Q 23.10 20.64 23.03 20.98&#xA;  Q 22.39 24.30 19.85 26.49&#xA;  A 0.68 0.68 0.0 0 1 18.77 25.73&#xA;  Q 19.28 24.37 18.25 22.80&#xA;  Q 21.98 21.06 22.56 17.79&#xA;  Q 22.60 17.54 22.85 17.48&#xA;  L 27.72 16.42&#xA;  Q 27.93 16.37 27.91 16.58&#xA;  Q 27.67 19.72 25.75 22.65&#xA;  Z" fill="#b0a2f5"/>
<path d="M 25.75 22.65&#xA;  Q 21.48 29.20 13.20 28.09&#xA;  Q 13.80 25.64 13.19 22.91&#xA;  Q 15.93 23.58 18.25 22.80&#xA;  Q 19.28 24.37 18.77 25.73&#xA;  A 0.68 0.68 0.0 0 0 19.85 26.49&#xA;  Q 22.39 24.30 23.03 20.98&#xA;  Q 23.10 20.64 23.45 20.62&#xA;  Q 23.60 20.62 23.75 20.62&#xA;  Q 23.99 20.62 24.08 20.86&#xA;  Q 24.43 21.80 25.75 22.65&#xA;  Z" fill="#5fbffd"/>
</svg>