<?xml version="1.0" encoding="utf-8"?>
<svg xmlns="http://www.w3.org/2000/svg" version="1.1" viewBox="0.00 0.00 48.00 48.00">
<path d="M 21.59 0.00&#xA;  L 26.97 0.00&#xA;  Q 44.73 3.66 48.00 21.35&#xA;  L 48.00 26.74&#xA;  Q 44.53 44.65 26.64 48.00&#xA;  L 21.26 48.00&#xA;  Q 3.35 44.54 0.00 26.63&#xA;  L 0.00 21.28&#xA;  Q 3.52 3.17 21.59 0.00&#xA;  Z&#xA;  M 22.77 1.57&#xA;  Q 16.97 2.00 12.00 4.96&#xA;  Q 10.58 5.81 12.23 5.80&#xA;  L 22.71 5.79&#xA;  A 0.50 0.50 0.0 0 0 23.21 5.29&#xA;  L 23.25 2.02&#xA;  Q 23.26 1.53 22.77 1.57&#xA;  Z&#xA;  M 24.78 22.84&#xA;  A 0.38 0.38 0.0 0 0 25.16 23.22&#xA;  L 28.61 23.22&#xA;  A 0.38 0.38 0.0 0 0 28.99 22.84&#xA;  L 29.00 2.42&#xA;  A 0.38 0.38 0.0 0 0 28.68 2.04&#xA;  L 25.22 1.53&#xA;  A 0.38 0.38 0.0 0 0 24.78 1.90&#xA;  L 24.78 22.84&#xA;  Z&#xA;  M 34.81 4.47&#xA;  A 0.35 0.35 0.0 0 0 34.60 4.15&#xA;  L 31.11 2.64&#xA;  A 0.35 0.35 0.0 0 0 30.62 2.96&#xA;  L 30.60 22.88&#xA;  A 0.35 0.35 0.0 0 0 30.95 23.23&#xA;  L 34.46 23.22&#xA;  A 0.35 0.35 0.0 0 0 34.81 22.87&#xA;  L 34.81 4.47&#xA;  Z&#xA;  M 40.69 8.91&#xA;  A 0.34 0.34 0.0 0 0 40.57 8.65&#xA;  L 36.96 5.53&#xA;  A 0.34 0.34 0.0 0 0 36.40 5.78&#xA;  L 36.40 22.89&#xA;  A 0.34 0.34 0.0 0 0 36.74 23.23&#xA;  L 40.35 23.21&#xA;  A 0.34 0.34 0.0 0 0 40.69 22.87&#xA;  L 40.69 8.91&#xA;  Z&#xA;  M 8.89 7.36&#xA;  A 0.35 0.35 0.0 0 0 8.63 7.48&#xA;  L 5.52 11.04&#xA;  A 0.35 0.35 0.0 0 0 5.78 11.62&#xA;  L 22.87 11.63&#xA;  A 0.35 0.35 0.0 0 0 23.22 11.28&#xA;  L 23.24 7.68&#xA;  A 0.35 0.35 0.0 0 0 22.89 7.33&#xA;  L 8.89 7.36&#xA;  Z&#xA;  M 42.18 11.50&#xA;  L 42.22 22.72&#xA;  Q 42.22 23.23 42.72 23.23&#xA;  L 45.99 23.23&#xA;  Q 46.45 23.23 46.42 22.76&#xA;  Q 45.98 16.58 42.65 11.36&#xA;  A 0.26 0.26 0.0 0 0 42.18 11.50&#xA;  Z&#xA;  M 4.55 13.18&#xA;  A 0.41 0.41 0.0 0 0 4.17 13.42&#xA;  L 2.65 16.85&#xA;  A 0.41 0.41 0.0 0 0 3.03 17.43&#xA;  L 22.82 17.42&#xA;  A 0.41 0.41 0.0 0 0 23.23 17.01&#xA;  L 23.23 13.59&#xA;  A 0.41 0.41 0.0 0 0 22.82 13.18&#xA;  L 4.55 13.18&#xA;  Z&#xA;  M 22.83 23.23&#xA;  A 0.39 0.39 0.0 0 0 23.22 22.84&#xA;  L 23.24 19.39&#xA;  A 0.39 0.39 0.0 0 0 22.85 19.00&#xA;  L 2.41 19.00&#xA;  A 0.39 0.39 0.0 0 0 2.02 19.34&#xA;  L 1.56 22.79&#xA;  A 0.39 0.39 0.0 0 0 1.95 23.23&#xA;  L 22.83 23.23&#xA;  Z&#xA;  M 1.58 25.21&#xA;  Q 1.97 30.88 4.81 35.77&#xA;  Q 5.82 37.50 5.81 35.50&#xA;  L 5.78 25.17&#xA;  Q 5.78 24.80 5.41 24.80&#xA;  L 2.01 24.76&#xA;  Q 1.55 24.76 1.58 25.21&#xA;  Z&#xA;  M 7.32 39.05&#xA;  A 0.41 0.41 0.0 0 0 7.46 39.36&#xA;  L 10.93 42.42&#xA;  A 0.41 0.41 0.0 0 0 11.61 42.11&#xA;  L 11.62 25.19&#xA;  A 0.41 0.41 0.0 0 0 11.21 24.78&#xA;  L 7.72 24.78&#xA;  A 0.41 0.41 0.0 0 0 7.31 25.19&#xA;  L 7.32 39.05&#xA;  Z&#xA;  M 13.17 43.47&#xA;  A 0.41 0.41 0.0 0 0 13.41 43.85&#xA;  L 16.85 45.36&#xA;  A 0.41 0.41 0.0 0 0 17.42 44.98&#xA;  L 17.45 25.20&#xA;  A 0.41 0.41 0.0 0 0 17.04 24.79&#xA;  L 13.57 24.76&#xA;  A 0.41 0.41 0.0 0 0 13.16 25.17&#xA;  L 13.17 43.47&#xA;  Z&#xA;  M 19.01 45.58&#xA;  A 0.40 0.40 0.0 0 0 19.35 45.98&#xA;  L 22.77 46.47&#xA;  A 0.40 0.40 0.0 0 0 23.23 46.07&#xA;  L 23.24 25.19&#xA;  A 0.40 0.40 0.0 0 0 22.84 24.79&#xA;  L 19.41 24.77&#xA;  A 0.40 0.40 0.0 0 0 19.01 25.17&#xA;  L 19.01 45.58&#xA;  Z&#xA;  M 45.57 29.00&#xA;  A 0.39 0.39 0.0 0 0 45.96 28.67&#xA;  L 46.47 25.22&#xA;  A 0.39 0.39 0.0 0 0 46.09 24.77&#xA;  L 25.17 24.76&#xA;  A 0.39 0.39 0.0 0 0 24.78 25.15&#xA;  L 24.77 28.61&#xA;  A 0.39 0.39 0.0 0 0 25.16 29.00&#xA;  L 45.57 29.00&#xA;  Z&#xA;  M 43.46 34.82&#xA;  A 0.41 0.41 0.0 0 0 43.84 34.58&#xA;  L 45.36 31.15&#xA;  A 0.41 0.41 0.0 0 0 44.98 30.57&#xA;  L 25.18 30.58&#xA;  A 0.41 0.41 0.0 0 0 24.77 30.99&#xA;  L 24.77 34.40&#xA;  A 0.41 0.41 0.0 0 0 25.18 34.81&#xA;  L 43.46 34.82&#xA;  Z&#xA;  M 39.12 40.65&#xA;  A 0.35 0.35 0.0 0 0 39.38 40.53&#xA;  L 42.46 36.96&#xA;  A 0.35 0.35 0.0 0 0 42.20 36.38&#xA;  L 25.12 36.37&#xA;  A 0.35 0.35 0.0 0 0 24.77 36.72&#xA;  L 24.77 40.34&#xA;  A 0.35 0.35 0.0 0 0 25.12 40.69&#xA;  L 39.12 40.65&#xA;  Z&#xA;  M 25.22 46.43&#xA;  Q 31.14 46.01 36.20 42.92&#xA;  A 0.40 0.40 0.0 0 0 35.99 42.18&#xA;  L 25.28 42.22&#xA;  Q 24.78 42.22 24.77 42.72&#xA;  L 24.76 46.00&#xA;  Q 24.76 46.46 25.22 46.43&#xA;  Z" fill="#015dcc"/>
</svg>