<?xml version="1.0" encoding="utf-8"?>
<svg xmlns="http://www.w3.org/2000/svg" version="1.1" viewBox="0.00 0.00 256.00 256.00">
<g fill="none" stroke-linecap="butt" stroke-width="2.00">
<path d="M 121.83 33.15&#xA;  L 109.43 38.13" stroke="#bed2fd"/>
<path d="M 109.43 38.13&#xA;  L 96.03 43.69" stroke="#dce0fd"/>
<path d="M 96.03 43.69&#xA;  L 87.45 47.23" stroke="#eeecfd"/>
<path d="M 87.45 47.23&#xA;  L 75.07 52.44&#xA;  Q 74.68 52.60 74.37 52.90&#xA;  L 72.73 54.47&#xA;  Q 72.40 54.79 72.69 55.14&#xA;  Q 73.17 55.73 73.39 56.46&#xA;  Q 73.53 56.93 74.02 56.90&#xA;  C 76.03 56.78 77.13 56.79 79.18 57.59&#xA;  C 80.44 58.08 82.78 57.82 83.48 58.20&#xA;  Q 83.70 58.32 83.83 58.51&#xA;  Q 84.17 58.99 83.66 59.29&#xA;  Q 83.07 59.63 82.19 59.59" stroke="#f8f4fe"/>
<path d="M 82.19 59.59&#xA;  L 81.47 59.62" stroke="#9bc5fd"/>
<path d="M 81.47 59.62&#xA;  Q 74.47 58.61 67.51 57.48&#xA;  Q 58.51 56.03 56.91 64.89" stroke="#8ebaff"/>
<path d="M 56.91 64.89&#xA;  L 50.73 79.29" stroke="#dce0fd"/>
<path d="M 50.73 79.29&#xA;  Q 47.73 86.41 44.83 93.61&#xA;  Q 43.99 95.70 44.13 98.03&#xA;  Q 44.57 105.26 44.23 112.21&#xA;  Q 44.20 112.80 44.70 112.48&#xA;  L 49.14 109.59&#xA;  Q 49.71 109.22 49.91 109.87&#xA;  Q 49.97 110.08 49.98 110.35" stroke="#eeecfd"/>
<path d="M 49.98 110.35&#xA;  L 49.46 110.93" stroke="#9bc5fd"/>
<path d="M 49.46 110.93&#xA;  Q 41.77 116.44 34.19 122.13&#xA;  C 32.77 123.19 31.58 124.67 31.30 126.26&#xA;  Q 30.56 130.57 33.30 134.33" stroke="#8ebaff"/>
<path d="M 33.30 134.33&#xA;  L 40.07 150.85" stroke="#dce0fd"/>
<path d="M 40.07 150.85&#xA;  L 45.86 164.93" stroke="#eeecfd"/>
<path d="M 45.86 164.93&#xA;  L 52.09 179.64&#xA;  Q 52.24 180.00 52.57 180.22&#xA;  L 55.85 182.36&#xA;  Q 56.28 182.64 56.51 182.17&#xA;  Q 57.84 179.41 58.03 176.35&#xA;  Q 58.08 175.54 58.46 175.29&#xA;  Q 58.98 174.95 59.82 175.31" stroke="#f8f4fe"/>
<path d="M 59.82 175.31&#xA;  Q 58.98 182.54 57.59 189.75&#xA;  Q 56.11 197.45 64.85 199.35" stroke="#8ebaff"/>
<path d="M 64.85 199.35&#xA;  L 75.79 204.06" stroke="#dce0fd"/>
<path d="M 75.79 204.06&#xA;  L 92.98 211.13" stroke="#eeecfd"/>
<path d="M 92.98 211.13&#xA;  Q 99.26 213.83 105.67 216.39&#xA;  C 107.58 217.15 109.29 217.17 111.31 217.48&#xA;  Q 111.76 217.55 112.17 217.34&#xA;  Q 113.26 216.78 114.45 216.87&#xA;  Q 115.04 216.91 115.06 216.33&#xA;  Q 115.11 214.44 113.78 213.15&#xA;  Q 113.43 212.81 113.51 212.34&#xA;  Q 113.61 211.77 114.18 211.69" stroke="#f8f4fe"/>
<path d="M 114.18 211.69&#xA;  Q 117.51 216.03 120.87 220.33&#xA;  C 124.02 224.35 126.86 226.51 131.80 224.35&#xA;  Q 139.99 220.75 148.23 217.35" stroke="#8ebaff"/>
<path d="M 148.23 217.35&#xA;  L 165.67 209.97" stroke="#bed2fd"/>
<path d="M 165.67 209.97&#xA;  L 171.84 207.52" stroke="#d2defc"/>
<path d="M 171.84 207.52&#xA;  L 188.96 200.55" stroke="#eeecfd"/>
<path d="M 188.96 200.55&#xA;  Q 190.48 200.11 190.47 198.71" stroke="#f8f4fe"/>
<path d="M 190.47 198.71&#xA;  C 195.16 199.17 197.24 196.90 198.99 192.66&#xA;  Q 202.68 183.74 206.28 174.81" stroke="#8ebaff"/>
<path d="M 206.28 174.81&#xA;  L 212.27 159.94" stroke="#bed2fd"/>
<path d="M 212.27 159.94&#xA;  L 215.52 151.90" stroke="#dce0fd"/>
<path d="M 215.52 151.90&#xA;  L 222.10 136.48&#xA;  Q 222.37 135.86 221.79 136.21&#xA;  Q 218.77 138.06 215.96 140.19&#xA;  Q 213.82 141.81 211.66 143.40&#xA;  Q 209.31 145.13 207.54 146.82&#xA;  C 205.49 148.78 203.00 150.90 201.37 153.22&#xA;  Q 199.99 155.17 199.65 153.06" stroke="#eeecfd"/>
<path d="M 199.65 153.06&#xA;  L 201.78 149.91" stroke="#d4eef9"/>
<path d="M 201.78 149.91&#xA;  L 206.67 145.18" stroke="#afd4fb"/>
<path d="M 206.67 145.18&#xA;  L 210.79 142.16" stroke="#9bc5fd"/>
<path d="M 210.79 142.16&#xA;  Q 215.28 138.95 219.51 135.88&#xA;  C 224.24 132.44 227.05 129.31 224.24 123.59&#xA;  Q 222.67 120.38 220.78 116.12" stroke="#8ebaff"/>
<path d="M 220.78 116.12&#xA;  L 215.99 104.51" stroke="#bed2fd"/>
<path d="M 215.99 104.51&#xA;  L 211.68 94.25" stroke="#d2defc"/>
<path d="M 211.68 94.25&#xA;  L 209.65 89.40" stroke="#d4eef9"/>
<path d="M 209.65 89.40&#xA;  L 207.02 82.85" stroke="#eeecfd"/>
<path d="M 207.02 82.85&#xA;  Q 204.32 75.81 200.97 68.77&#xA;  Q 199.79 66.28 200.19 69.01&#xA;  L 200.51 71.21&#xA;  A 1.02 0.98 60.4 0 1 200.31 71.99&#xA;  C 198.68 74.15 200.03 76.15 198.60 78.40&#xA;  Q 198.05 79.27 198.10 80.01&#xA;  Q 198.36 83.45 197.26 86.66&#xA;  C 196.74 88.20 197.93 90.39 195.73 91.14" stroke="#f8f4fe"/>
<path d="M 195.73 91.14&#xA;  Q 195.74 90.65 195.47 90.53" stroke="#c4e4fa"/>
<path d="M 195.47 90.53&#xA;  L 196.21 82.18" stroke="#afd4fb"/>
<path d="M 196.21 82.18&#xA;  Q 197.49 73.85 198.65 65.99&#xA;  C 199.38 60.99 197.04 58.82 192.54 56.97&#xA;  Q 187.89 55.07 182.79 53.14" stroke="#8ebaff"/>
<path d="M 182.79 53.14&#xA;  L 177.53 50.87" stroke="#bed2fd"/>
<path d="M 177.53 50.87&#xA;  L 163.97 45.49" stroke="#d2defc"/>
<path d="M 163.97 45.49&#xA;  L 156.59 42.27" stroke="#edf9fd"/>
<path d="M 156.59 42.27&#xA;  L 147.48 38.52" stroke="#eeecfd"/>
<path d="M 147.48 38.52&#xA;  Q 145.01 37.34 140.93 35.92&#xA;  Q 139.66 35.48 139.12 35.63&#xA;  Q 137.71 36.01 138.55 37.20&#xA;  L 145.83 47.51&#xA;  Q 146.05 47.83 145.87 48.17&#xA;  Q 145.56 48.76 145.00 48.59" stroke="#f8f4fe"/>
<path d="M 145.00 48.59&#xA;  L 143.53 46.71" stroke="#9bc5fd"/>
<path d="M 143.53 46.71&#xA;  Q 136.08 36.39 133.92 33.84&#xA;  Q 129.11 28.16 121.83 33.15" stroke="#8ebaff"/>
<path d="M 143.53 46.71&#xA;  Q 143.44 47.04 143.29 47.21&#xA;  Q 143.26 47.24 142.51 46.99&#xA;  Q 142.31 46.92 142.39 46.71&#xA;  A 0.32 0.32 0.0 0 0 142.20 46.30&#xA;  Q 140.36 45.66 140.01 47.28&#xA;  Q 139.24 50.82 137.50 53.37&#xA;  C 136.80 54.38 135.51 55.37 134.80 56.80&#xA;  Q 134.58 57.25 134.86 57.67&#xA;  Q 135.71 58.99 135.52 60.61" stroke="#2a80fd"/>
<path d="M 135.52 60.61&#xA;  L 125.04 47.22" stroke="#8ebaff"/>
<path d="M 125.04 47.22&#xA;  Q 122.32 43.65 121.29 41.74&#xA;  Q 119.44 38.32 121.83 33.15" stroke="#4d8dfd"/>
<path d="M 139.60 64.53&#xA;  L 144.79 68.58" stroke="#afd4fb"/>
<path d="M 144.79 68.58&#xA;  L 151.73 72.29" stroke="#d4eef9"/>
<path d="M 177.78 66.94&#xA;  L 181.76 68.50" stroke="#bed2fd"/>
<path d="M 181.76 68.50&#xA;  Q 182.23 68.48 182.65 68.69&#xA;  Q 183.09 68.91 183.04 69.41&#xA;  L 182.13 77.27" stroke="#8ebaff"/>
<path d="M 182.13 77.27&#xA;  L 180.73 87.29" stroke="#afd4fb"/>
<path d="M 180.73 87.29&#xA;  L 180.86 92.49" stroke="#c4e4fa"/>
<path d="M 180.86 92.49&#xA;  Q 181.64 98.63 183.79 104.20" stroke="#d4eef9"/>
<path d="M 183.79 104.20&#xA;  L 185.25 107.57" stroke="#edf9fd"/>
<path d="M 185.25 107.57&#xA;  Q 188.85 114.67 194.93 119.78&#xA;  Q 195.31 120.10 195.80 120.05&#xA;  Q 197.66 119.87 199.48 120.17&#xA;  Q 199.81 120.23 200.00 120.54&#xA;  Q 200.16 120.81 200.47 120.83&#xA;  L 204.06 121.00&#xA;  Q 204.50 121.02 204.57 120.58&#xA;  Q 204.76 119.30 205.81 118.61" stroke="#f2fdfb"/>
<path d="M 205.81 118.61&#xA;  L 206.47 119.68" stroke="#d4eef9"/>
<path d="M 206.47 119.68&#xA;  Q 207.00 122.89 209.51 124.52" stroke="#d2defc"/>
<path d="M 209.51 124.52&#xA;  L 198.93 132.41" stroke="#8ebaff"/>
<path d="M 198.93 132.41&#xA;  L 191.28 139.86" stroke="#9bc5fd"/>
<path d="M 191.28 139.86&#xA;  L 189.15 142.68" stroke="#afd4fb"/>
<path d="M 189.15 142.68&#xA;  L 187.14 145.60" stroke="#d4eef9"/>
<path d="M 187.14 145.60&#xA;  L 185.09 149.52&#xA;  Q 184.89 149.90 184.90 150.33&#xA;  Q 184.92 151.30 184.34 152.11&#xA;  A 1.01 0.03 -79.1 0 0 184.14 153.00&#xA;  Q 184.05 153.45 184.20 153.86&#xA;  Q 184.38 154.35 184.14 154.80&#xA;  Q 180.60 161.42 181.23 168.98&#xA;  C 181.53 172.68 181.07 179.00 186.00 179.70&#xA;  Q 186.58 179.78 186.80 179.24&#xA;  L 187.22 178.20&#xA;  Q 187.44 177.66 187.94 177.97&#xA;  Q 188.36 178.23 188.61 179.08" stroke="#f2fdfb"/>
<path d="M 188.61 179.08&#xA;  L 187.36 182.99" stroke="#d2defc"/>
<path d="M 187.36 182.99&#xA;  C 181.82 182.22 175.69 180.49 170.08 180.55" stroke="#8ebaff"/>
<path d="M 170.08 180.55&#xA;  L 163.23 180.78" stroke="#9bc5fd"/>
<path d="M 163.23 180.78&#xA;  Q 160.32 180.73 156.31 182.20" stroke="#afd4fb"/>
<path d="M 156.31 182.20&#xA;  L 148.43 185.33" stroke="#c4e4fa"/>
<path d="M 148.43 185.33&#xA;  L 141.74 189.63" stroke="#d4eef9"/>
<path d="M 141.74 189.63&#xA;  Q 134.99 195.66 130.73 202.49&#xA;  Q 129.94 203.74 131.12 204.36&#xA;  Q 131.45 204.54 131.58 204.89&#xA;  Q 131.84 205.63 132.74 205.64&#xA;  Q 134.16 205.66 134.37 207.11" stroke="#f2fdfb"/>
<path d="M 134.37 207.11&#xA;  L 132.61 207.81&#xA;  Q 132.11 208.00 132.15 208.54&#xA;  Q 132.23 209.55 131.57 209.65" stroke="#d2defc"/>
<path d="M 131.57 209.65&#xA;  L 122.31 198.18" stroke="#8ebaff"/>
<path d="M 122.31 198.18&#xA;  L 118.15 193.47" stroke="#9bc5fd"/>
<path d="M 118.15 193.47&#xA;  Q 117.46 192.26 116.11 191.51" stroke="#afd4fb"/>
<path d="M 116.11 191.51&#xA;  L 110.09 187.22" stroke="#c4e4fa"/>
<path d="M 110.09 187.22&#xA;  L 105.07 184.56" stroke="#d4eef9"/>
<path d="M 105.07 184.56&#xA;  Q 100.55 181.98 94.98 180.98" stroke="#edf9fd"/>
<path d="M 94.98 180.98&#xA;  Q 88.83 179.91 82.67 181.40&#xA;  C 81.27 181.73 79.61 181.40 78.06 182.48&#xA;  Q 77.67 182.74 77.65 183.21&#xA;  Q 77.58 184.33 76.76 184.98&#xA;  A 1.01 1.01 0.0 0 0 77.25 186.77&#xA;  Q 79.15 187.02 81.10 188.69&#xA;  Q 82.36 189.77 80.95 190.09" stroke="#f2fdfb"/>
<path d="M 80.95 190.09&#xA;  L 73.96 187.35" stroke="#bed2fd"/>
<path d="M 73.96 187.35&#xA;  Q 72.95 187.24 73.31 185.24&#xA;  C 75.35 173.86 77.15 164.35 72.90 152.98" stroke="#8ebaff"/>
<path d="M 72.90 152.98&#xA;  Q 71.47 148.42 68.09 143.67" stroke="#afd4fb"/>
<path d="M 68.09 143.67&#xA;  Q 67.46 142.31 66.09 140.91" stroke="#c4e4fa"/>
<path d="M 66.09 140.91&#xA;  L 63.51 137.66" stroke="#d4eef9"/>
<path d="M 63.51 137.66&#xA;  Q 59.44 133.50 54.39 130.40&#xA;  C 52.39 129.17 50.54 129.70 50.14 132.10&#xA;  A 1.41 1.38 35.6 0 0 50.30 133.01&#xA;  Q 51.93 135.95 50.04 136.41" stroke="#edf9fd"/>
<path d="M 50.04 136.41&#xA;  L 48.32 132.53" stroke="#bed2fd"/>
<path d="M 48.32 132.53&#xA;  L 47.58 131.41&#xA;  Q 47.28 130.96 47.72 130.63&#xA;  C 57.25 123.74 65.98 118.52 71.35 106.74" stroke="#8ebaff"/>
<path d="M 71.35 106.74&#xA;  Q 72.97 104.49 73.52 100.66" stroke="#afd4fb"/>
<path d="M 73.52 100.66&#xA;  Q 74.36 99.40 74.94 96.39" stroke="#c4e4fa"/>
<path d="M 74.94 96.39&#xA;  L 75.42 84.48" stroke="#d4eef9"/>
<path d="M 75.42 84.48&#xA;  L 73.89 75.93&#xA;  Q 73.80 75.45 73.36 75.25&#xA;  Q 71.15 74.27 69.64 76.05&#xA;  Q 69.43 76.30 69.24 76.36&#xA;  Q 69.00 76.44 68.80 76.38&#xA;  Q 68.32 76.24 68.44 75.75&#xA;  Q 68.56 75.29 68.38 74.98" stroke="#f2fdfb"/>
<path d="M 68.38 74.98&#xA;  Q 68.63 74.06 69.07 73.47&#xA;  Q 69.39 73.05 69.92 73.10&#xA;  L 76.16 73.74" stroke="#8ebaff"/>
<path d="M 76.16 73.74&#xA;  L 81.98 74.55" stroke="#9bc5fd"/>
<path d="M 81.98 74.55&#xA;  L 90.22 75.23" stroke="#afd4fb"/>
<path d="M 90.22 75.23&#xA;  Q 98.58 74.82 106.23 71.51" stroke="#d4eef9"/>
<path d="M 106.23 71.51&#xA;  Q 115.63 67.54 121.61 59.37&#xA;  A 1.50 1.47 62.9 0 0 121.89 58.47&#xA;  Q 121.81 55.47 122.86 52.62&#xA;  A 1.33 1.33 0.0 0 0 121.46 50.84&#xA;  Q 119.34 51.08 120.18 49.72" stroke="#f2fdfb"/>
<path d="M 125.04 47.22&#xA;  Q 122.70 49.03 120.18 49.72" stroke="#bed2fd"/>
<path d="M 120.18 49.72&#xA;  L 105.58 55.78" stroke="#b0d0f9"/>
<path d="M 105.58 55.78&#xA;  Q 105.28 55.62 104.98 55.46" stroke="#92c1f6"/>
<path d="M 104.98 55.46&#xA;  Q 108.76 53.34 110.68 50.16&#xA;  C 112.46 47.21 111.87 43.13 111.81 39.65&#xA;  Q 111.81 39.06 111.22 39.01&#xA;  Q 109.16 38.84 109.43 38.13" stroke="#9ab3fb"/>
<path d="M 146.25 50.67&#xA;  Q 146.20 51.91 145.58 52.40&#xA;  Q 145.21 52.69 145.14 53.15&#xA;  C 144.92 54.54 145.91 55.14 146.11 56.18&#xA;  Q 146.37 57.56 146.06 58.92&#xA;  Q 145.94 59.46 145.48 59.76&#xA;  L 143.50 61.05&#xA;  A 0.69 0.69 0.0 0 0 143.38 62.11&#xA;  L 143.59 62.32&#xA;  Q 143.99 62.73 143.54 63.09&#xA;  Q 142.25 64.12 140.96 63.30&#xA;  A 0.67 0.66 -55.1 0 0 140.08 63.46&#xA;  Q 139.73 63.90 139.60 64.53" stroke="#4b9af9"/>
<path d="M 139.60 64.53&#xA;  L 135.52 60.61" stroke="#9bc5fd"/>
<path d="M 106.23 71.51&#xA;  Q 106.15 70.61 105.31 70.11&#xA;  A 1.12 1.11 -66.6 0 1 104.81 68.84&#xA;  Q 106.70 62.03 105.58 55.78" stroke="#c6ecf5"/>
<path d="M 147.62 52.29&#xA;  Q 147.33 53.44 147.16 53.44&#xA;  A 1.10 1.10 0.0 0 0 146.29 55.16&#xA;  C 148.46 58.32 152.31 59.46 150.85 64.21&#xA;  Q 150.71 64.68 150.32 64.98&#xA;  C 148.48 66.38 148.25 66.94 145.73 67.15&#xA;  Q 145.26 67.19 145.16 67.66&#xA;  Q 145.05 68.17 144.79 68.58" stroke="#84c3f5"/>
<path d="M 90.22 75.23&#xA;  L 89.99 74.38&#xA;  A 0.70 0.70 0.0 0 0 89.23 73.86&#xA;  Q 88.63 73.94 88.17 73.51&#xA;  Q 87.66 73.03 87.81 72.35&#xA;  L 89.73 62.97&#xA;  Q 89.84 62.46 90.29 62.18&#xA;  Q 90.85 61.83 91.53 61.77&#xA;  Q 92.04 61.73 92.12 61.23&#xA;  Q 92.21 60.71 91.73 60.11" stroke="#84c3f5"/>
<path d="M 71.35 106.74&#xA;  Q 69.69 107.07 68.37 110.62" stroke="#3e8ffb"/>
<path d="M 68.37 110.62&#xA;  L 55.11 110.60&#xA;  A 1.24 1.24 0.0 0 1 54.05 108.71&#xA;  Q 55.22 106.78 54.48 106.23" stroke="#4b9af9"/>
<path d="M 105.07 184.56&#xA;  Q 104.98 187.43 101.99 187.48&#xA;  Q 97.89 187.53 95.08 191.09&#xA;  C 94.14 192.29 93.85 193.63 93.29 195.10" stroke="#c1e8f6"/>
<path d="M 93.29 195.10&#xA;  L 88.41 193.13" stroke="#abccfa"/>
<path d="M 163.97 45.49&#xA;  C 163.53 46.90 164.62 47.34 164.74 48.52&#xA;  Q 164.93 50.38 163.39 51.60&#xA;  Q 162.97 51.93 163.05 52.45&#xA;  C 163.65 56.36 164.40 58.18 162.28 61.84&#xA;  A 0.90 0.90 0.0 0 0 163.21 63.18&#xA;  C 165.90 62.72 167.95 62.36 170.60 63.60&#xA;  Q 173.12 64.77 175.85 65.68" stroke="#bfd8f9"/>
<path d="M 175.85 65.68&#xA;  L 177.78 66.94" stroke="#abccfa"/>
<path d="M 177.78 66.94&#xA;  Q 177.23 66.75 177.28 68.05&#xA;  Q 177.31 68.83 178.12 69.05&#xA;  A 0.32 0.32 0.0 0 1 178.33 69.49&#xA;  L 176.71 73.21&#xA;  Q 176.57 73.54 176.25 73.71&#xA;  Q 173.45 75.18 170.75 75.26&#xA;  Q 168.58 75.32 160.75 74.87&#xA;  Q 160.62 74.87 160.51 74.80&#xA;  Q 160.39 74.72 160.25 74.64&#xA;  A 1.06 1.04 60.2 0 0 159.71 74.49&#xA;  Q 155.44 74.44 151.73 72.29" stroke="#edf9fd"/>
<path d="M 151.73 72.29&#xA;  Q 154.36 71.44 156.60 69.85&#xA;  Q 156.73 69.75 156.85 69.46&#xA;  Q 157.02 69.04 157.38 68.76&#xA;  Q 158.20 68.11 157.84 67.08&#xA;  Q 157.66 66.58 157.14 66.46&#xA;  L 154.50 65.90&#xA;  A 1.14 1.14 0.0 0 1 153.60 64.74&#xA;  C 153.69 62.97 153.85 61.60 152.95 59.91&#xA;  Q 151.95 58.05 151.32 55.97" stroke="#c1e8f6"/>
<path d="M 163.52 195.56&#xA;  L 156.34 197.88" stroke="#bdd8f8"/>
<path d="M 156.34 197.88&#xA;  L 155.33 198.49" stroke="#b2d0f8"/>
<path d="M 155.33 198.49&#xA;  L 155.01 198.19&#xA;  Q 154.60 197.80 155.08 197.49&#xA;  Q 155.57 197.17 155.78 196.65&#xA;  Q 155.91 196.32 155.79 195.84&#xA;  Q 154.50 190.97 152.19 186.14&#xA;  A 1.16 1.16 0.0 0 0 150.45 185.71&#xA;  Q 149.42 186.50 148.43 185.33" stroke="#98d3f3"/>
<path d="M 131.57 209.65&#xA;  L 135.34 214.79" stroke="#6199fc"/>
<path d="M 135.34 214.79&#xA;  Q 136.09 217.59 135.36 220.62&#xA;  Q 135.20 221.26 135.82 221.03&#xA;  Q 138.67 219.95 147.50 216.63&#xA;  Q 148.78 216.15 148.23 217.35" stroke="#4d8dfd"/>
<path d="M 114.18 211.69&#xA;  L 112.91 209.90" stroke="#87aefe"/>
<path d="M 73.52 100.66&#xA;  Q 71.46 102.67 70.81 105.79&#xA;  Q 70.71 106.27 70.22 106.28&#xA;  L 57.94 106.54&#xA;  Q 57.54 106.55 57.22 106.78&#xA;  Q 56.92 106.99 56.49 106.88&#xA;  Q 55.88 106.72 56.14 106.15&#xA;  Q 57.08 104.01 56.06 103.83" stroke="#74b9f6"/>
<path d="M 81.47 59.62&#xA;  Q 81.56 59.73 81.61 59.88&#xA;  Q 81.76 60.35 81.29 60.49&#xA;  Q 79.87 60.93 78.45 60.87&#xA;  A 1.10 1.09 -87.3 0 0 77.32 61.91&#xA;  Q 77.10 66.57 75.68 71.22&#xA;  Q 75.59 71.54 75.65 71.75&#xA;  Q 75.77 72.19 76.22 72.31&#xA;  Q 76.68 72.44 76.60 72.91&#xA;  Q 76.54 73.28 76.16 73.74" stroke="#2a80fd"/>
<path d="M 68.38 74.98&#xA;  L 65.67 80.96" stroke="#81b7fb"/>
<path d="M 65.67 80.96&#xA;  Q 65.85 77.02 67.80 73.32&#xA;  Q 68.08 72.80 67.50 72.71&#xA;  L 62.14 71.84" stroke="#4d8dfd"/>
<path d="M 62.14 71.84&#xA;  Q 58.04 70.34 56.91 64.89" stroke="#6b9afd"/>
<path d="M 175.84 196.17&#xA;  L 170.94 195.25" stroke="#94bafc"/>
<path d="M 170.94 195.25&#xA;  Q 170.24 194.48 171.15 194.17&#xA;  Q 172.78 193.62 172.28 191.97&#xA;  L 169.26 182.15&#xA;  A 0.59 0.59 0.0 0 0 168.56 181.75&#xA;  Q 165.21 182.55 163.23 180.78" stroke="#4b9af9"/>
<path d="M 55.96 150.18&#xA;  L 56.76 151.72" stroke="#92c1f6"/>
<path d="M 56.76 151.72&#xA;  L 56.15 152.03" stroke="#82b7f7"/>
<path d="M 56.15 152.03&#xA;  L 52.28 146.95&#xA;  Q 51.99 146.56 51.52 146.42&#xA;  Q 49.96 145.94 48.65 145.01&#xA;  Q 46.49 143.47 45.55 142.91&#xA;  Q 44.35 142.20 43.28 141.31&#xA;  C 41.78 140.06 39.98 139.16 38.59 137.58&#xA;  Q 38.41 137.37 38.20 137.54&#xA;  Q 37.92 137.75 37.67 137.40&#xA;  A 0.44 0.43 -48.5 0 1 37.65 136.96&#xA;  Q 37.98 136.37 37.94 135.78" stroke="#9ab3fb"/>
<path d="M 182.79 53.14&#xA;  Q 183.83 55.07 186.32 56.22&#xA;  Q 186.67 56.38 187.05 56.36&#xA;  Q 187.91 56.33 188.61 56.86&#xA;  A 0.39 0.39 0.0 0 1 188.52 57.53&#xA;  C 183.62 59.40 183.62 62.72 183.45 67.31&#xA;  Q 183.42 67.95 182.79 67.90&#xA;  L 182.25 67.86&#xA;  Q 181.87 67.83 181.80 68.21&#xA;  Q 181.77 68.33 181.76 68.50" stroke="#4d8dfd"/>
<path d="M 155.33 198.49&#xA;  Q 149.66 201.70 145.80 206.72" stroke="#c2dbf7"/>
<path d="M 145.80 206.72&#xA;  Q 144.80 207.27 144.89 206.01&#xA;  A 0.66 0.62 -16.0 0 1 145.18 205.52&#xA;  Q 147.24 204.10 146.53 202.08" stroke="#a6cdf5"/>
<path d="M 146.53 202.08&#xA;  L 148.44 201.30&#xA;  Q 148.92 201.11 148.66 200.66&#xA;  Q 148.32 200.07 147.72 199.79&#xA;  Q 147.20 199.56 147.02 199.02&#xA;  L 144.03 190.40&#xA;  A 0.26 0.26 0.0 0 0 143.75 190.23&#xA;  Q 142.29 190.46 141.74 189.63" stroke="#c6ecf5"/>
<path d="M 94.38 195.81&#xA;  Q 92.35 195.90 90.28 195.67&#xA;  Q 88.02 195.43 86.23 195.68&#xA;  Q 80.33 196.53 74.38 197.01&#xA;  Q 73.84 197.05 73.40 197.36&#xA;  Q 72.66 197.86 71.90 197.37&#xA;  Q 71.57 197.16 71.58 196.78&#xA;  Q 71.59 196.31 71.30 195.77" stroke="#9ab3fb"/>
<path d="M 94.98 180.98&#xA;  C 92.98 182.07 92.02 183.79 90.35 185.23&#xA;  Q 90.01 185.53 89.88 185.96&#xA;  Q 89.55 187.06 88.49 187.69&#xA;  A 1.34 1.29 89.0 0 0 87.96 188.26&#xA;  Q 87.46 189.25 87.19 189.34&#xA;  Q 84.47 190.24 87.22 191.06&#xA;  Q 89.34 191.68 88.41 193.13" stroke="#dff6f9"/>
<path d="M 88.41 193.13&#xA;  L 80.95 190.09" stroke="#b0d0f9"/>
<path d="M 74.94 96.39&#xA;  Q 73.66 95.63 73.03 98.01&#xA;  A 0.51 0.50 6.9 0 1 72.55 98.38&#xA;  L 61.42 98.57&#xA;  Q 61.07 98.57 60.83 98.33&#xA;  Q 60.35 97.83 59.65 98.49&#xA;  A 0.76 0.66 85.9 0 0 59.53 98.65&#xA;  Q 59.12 99.46 58.25 100.28" stroke="#98d3f3"/>
<path d="M 110.09 187.22&#xA;  Q 109.13 187.42 109.36 188.63&#xA;  A 1.45 1.44 80.4 0 1 108.16 190.33&#xA;  Q 107.20 190.47 106.27 190.22&#xA;  Q 105.88 190.11 105.66 189.76&#xA;  Q 105.26 189.10 104.68 188.96&#xA;  A 1.51 1.50 13.2 0 0 102.84 190.09&#xA;  Q 102.43 192.00 101.35 194.15&#xA;  C 101.04 194.76 101.05 195.59 100.15 196.02&#xA;  Q 99.84 196.17 99.65 196.44&#xA;  Q 99.27 196.97 98.62 196.96" stroke="#98d3f3"/>
<path d="M 98.62 196.96&#xA;  Q 98.22 196.81 97.78 196.85" stroke="#c2dbf7"/>
<path d="M 97.78 196.85&#xA;  L 94.38 195.81" stroke="#b0cff7"/>
<path d="M 94.38 195.81&#xA;  L 93.29 195.10" stroke="#92c1f6"/>
<path d="M 190.47 198.71&#xA;  L 175.84 196.17" stroke="#87aefe"/>
<path d="M 175.84 196.17&#xA;  Q 176.43 194.99 178.72 194.69&#xA;  Q 179.36 194.61 179.12 194.01&#xA;  Q 178.59 192.74 178.23 191.43&#xA;  C 177.71 189.55 176.67 187.92 176.28 185.86&#xA;  C 176.00 184.34 175.21 183.55 174.25 182.47&#xA;  Q 173.93 182.10 173.44 182.07&#xA;  L 170.12 181.86&#xA;  Q 169.61 181.82 169.61 181.32&#xA;  Q 169.60 180.89 170.08 180.55" stroke="#2a80fd"/>
<path d="M 73.96 187.35&#xA;  L 71.30 195.77" stroke="#4d8dfd"/>
<path d="M 71.30 195.77&#xA;  Q 68.81 198.48 64.85 199.35" stroke="#6b9afd"/>
<path d="M 59.82 175.31&#xA;  L 60.73 170.29" stroke="#87aefe"/>
<path d="M 146.53 202.08&#xA;  L 134.37 207.11" stroke="#c4dcf8"/>
<path d="M 165.67 209.97&#xA;  Q 163.00 209.72 160.40 210.94&#xA;  Q 158.37 211.89 156.85 211.96&#xA;  Q 149.91 212.27 142.97 212.09&#xA;  Q 142.64 212.08 142.47 212.35&#xA;  Q 142.37 212.50 142.25 212.62&#xA;  Q 142.05 212.83 141.67 212.88&#xA;  Q 139.15 213.18 136.62 213.42&#xA;  Q 136.28 213.46 136.35 213.79&#xA;  L 136.42 214.14&#xA;  Q 136.54 214.71 135.98 214.86&#xA;  Q 135.69 214.95 135.34 214.79" stroke="#90b1f9"/>
<path d="M 116.11 191.51&#xA;  L 111.95 189.81&#xA;  A 0.60 0.59 -68.3 0 0 111.17 190.15&#xA;  Q 110.53 191.77 108.85 192.21&#xA;  Q 108.37 192.33 108.05 192.70&#xA;  Q 106.55 194.40 106.90 196.68&#xA;  Q 106.92 196.80 106.80 196.86&#xA;  Q 106.64 196.94 106.54 196.82&#xA;  Q 106.25 196.49 105.96 196.81&#xA;  Q 104.10 198.88 105.88 201.59" stroke="#74b9f6"/>
<path d="M 105.88 201.59&#xA;  L 98.62 196.96" stroke="#b2d0f8"/>
<path d="M 196.35 162.18&#xA;  L 195.43 162.19" stroke="#a6cdf5"/>
<path d="M 195.43 162.19&#xA;  Q 192.21 161.34 190.83 158.95&#xA;  C 190.05 157.62 190.24 155.60 189.33 153.97&#xA;  Q 187.09 149.94 187.14 145.60" stroke="#c6ecf5"/>
<path d="M 201.40 107.96&#xA;  Q 197.37 109.46 192.77 107.61&#xA;  Q 188.86 106.05 185.25 107.57" stroke="#dff6f9"/>
<path d="M 201.78 149.91&#xA;  Q 200.06 149.08 199.50 149.84&#xA;  A 3.21 3.01 34.7 0 1 195.27 150.47&#xA;  L 192.49 148.66&#xA;  Q 192.05 148.37 191.52 148.41&#xA;  Q 190.32 148.49 189.69 147.50&#xA;  Q 189.42 147.09 189.39 146.61&#xA;  L 189.15 142.68" stroke="#84c3f5"/>
<path d="M 210.79 142.16&#xA;  Q 209.61 141.41 211.88 139.53&#xA;  Q 212.31 139.17 212.10 138.66&#xA;  C 210.92 135.74 207.94 136.94 205.62 134.96&#xA;  Q 205.27 134.66 205.17 134.21&#xA;  L 204.87 132.83&#xA;  Q 204.75 132.30 204.25 132.10&#xA;  Q 203.80 131.92 203.85 131.44&#xA;  Q 203.94 130.68 203.27 131.04&#xA;  Q 201.75 131.87 200.47 132.97&#xA;  Q 199.71 133.64 198.93 132.41" stroke="#2a80fd"/>
<path d="M 195.43 162.19&#xA;  L 188.61 179.08" stroke="#c4dcf8"/>
<path d="M 195.19 184.59&#xA;  L 187.36 182.99" stroke="#6199fc"/>
<path d="M 118.15 193.47&#xA;  Q 113.18 192.35 110.03 198.15&#xA;  Q 109.81 198.56 109.38 198.76&#xA;  Q 108.00 199.42 107.65 201.00&#xA;  A 1.07 1.05 26.9 0 0 108.00 202.04&#xA;  L 109.79 203.56&#xA;  Q 110.14 203.86 110.11 204.32&#xA;  L 110.01 205.96" stroke="#4b9af9"/>
<path d="M 110.01 205.96&#xA;  Q 109.46 205.75 109.78 205.77" stroke="#a8c9fa"/>
<path d="M 109.78 205.77&#xA;  L 105.88 201.59" stroke="#9ec1f9"/>
<path d="M 196.79 97.22&#xA;  Q 195.44 96.52 193.99 94.03&#xA;  Q 193.73 93.59 193.23 93.55&#xA;  L 180.86 92.49" stroke="#98d3f3"/>
<path d="M 84.83 60.03&#xA;  Q 81.92 61.92 82.44 63.93&#xA;  Q 82.48 64.10 82.39 64.76&#xA;  Q 82.31 65.36 81.79 65.71&#xA;  A 0.87 0.86 -11.5 0 0 81.42 66.26&#xA;  L 80.27 72.22&#xA;  A 0.61 0.61 0.0 0 0 80.71 72.93&#xA;  L 82.22 73.34&#xA;  A 0.56 0.56 0.0 0 1 82.35 74.37&#xA;  Q 82.21 74.44 81.98 74.55" stroke="#4b9af9"/>
<path d="M 66.09 140.91&#xA;  Q 65.80 140.85 65.62 140.92&#xA;  Q 65.19 141.10 65.51 141.44&#xA;  Q 66.27 142.23 65.94 143.19&#xA;  Q 65.76 143.73 64.95 144.23&#xA;  C 62.92 145.49 62.53 147.13 61.43 148.84&#xA;  C 60.70 149.97 60.31 151.59 58.82 152.62&#xA;  Q 58.41 152.90 58.00 152.61&#xA;  L 56.76 151.72" stroke="#98d3f3"/>
<path d="M 211.68 94.25&#xA;  Q 210.24 95.04 211.66 97.47&#xA;  Q 211.92 97.92 211.91 98.44&#xA;  Q 211.81 101.96 211.01 105.40&#xA;  C 210.82 106.23 211.00 107.02 210.68 107.90&#xA;  C 210.07 109.54 209.90 110.88 209.55 112.43&#xA;  Q 209.48 112.74 209.26 112.52&#xA;  L 208.97 112.24&#xA;  A 0.27 0.26 23.0 0 0 208.52 112.42&#xA;  L 208.30 118.51&#xA;  Q 208.29 118.91 207.88 118.91&#xA;  Q 207.53 118.92 207.26 118.80&#xA;  Q 206.82 118.60 206.51 118.98&#xA;  Q 206.27 119.27 206.47 119.68" stroke="#a6cdf5"/>
<path d="M 205.81 118.61&#xA;  L 201.40 107.96" stroke="#c6ecf5"/>
<path d="M 201.40 107.96&#xA;  Q 200.60 105.83 199.45 104.61&#xA;  A 1.31 1.30 69.9 0 0 198.53 104.18&#xA;  Q 191.98 103.95 185.74 102.05&#xA;  A 0.89 0.88 0.4 0 0 184.63 103.14&#xA;  Q 184.91 104.07 183.79 104.20" stroke="#c1e8f6"/>
<path d="M 75.42 84.48&#xA;  Q 74.05 84.69 73.95 85.68&#xA;  A 1.07 1.06 2.7 0 1 72.89 86.64&#xA;  L 67.02 86.64&#xA;  Q 66.65 86.64 66.33 86.44&#xA;  Q 66.21 86.37 66.09 86.30&#xA;  Q 65.83 86.15 65.55 86.28&#xA;  Q 65.04 86.52 65.09 86.94&#xA;  Q 65.15 87.43 64.76 87.73&#xA;  Q 64.20 88.18 63.31 87.38" stroke="#c6ecf5"/>
<path d="M 195.47 90.53&#xA;  L 195.18 90.86&#xA;  Q 194.75 91.35 194.49 90.75&#xA;  Q 193.95 89.47 193.97 88.05&#xA;  Q 193.98 87.49 193.43 87.41&#xA;  L 183.29 85.90&#xA;  A 1.26 1.26 0.0 0 0 182.06 86.43&#xA;  Q 181.53 87.20 180.73 87.29" stroke="#74b9f6"/>
<path d="M 170.94 195.25&#xA;  L 163.52 195.56" stroke="#a8c9fa"/>
<path d="M 163.52 195.56&#xA;  Q 162.75 195.58 162.46 195.21&#xA;  A 0.45 0.45 0.0 0 1 162.77 194.49&#xA;  Q 163.30 194.43 163.74 194.15&#xA;  Q 164.22 193.85 164.04 193.33&#xA;  L 160.74 183.56&#xA;  Q 160.56 183.01 159.98 183.03&#xA;  Q 157.80 183.08 156.31 182.20" stroke="#74b9f6"/>
<path d="M 196.21 82.18&#xA;  Q 194.59 81.31 194.92 78.34&#xA;  Q 194.98 77.80 194.44 77.74&#xA;  Q 188.34 77.01 186.38 76.41&#xA;  Q 184.49 75.83 182.13 77.27" stroke="#3e8ffb"/>
<path d="M 48.32 132.53&#xA;  Q 48.47 133.00 48.20 133.31&#xA;  Q 47.79 133.78 47.39 133.31&#xA;  Q 47.17 133.07 47.11 132.72&#xA;  A 0.92 0.92 0.0 0 0 45.56 132.21&#xA;  Q 42.30 135.39 37.94 135.78" stroke="#4d8dfd"/>
<path d="M 37.94 135.78&#xA;  L 33.30 134.33" stroke="#6b9afd"/>
<path d="M 72.90 152.98&#xA;  Q 72.11 154.88 72.85 157.46&#xA;  C 74.21 162.16 69.76 164.50 67.29 168.25&#xA;  Q 66.64 169.23 65.87 170.12&#xA;  C 64.81 171.34 63.51 171.08 62.63 172.49&#xA;  Q 62.41 172.85 62.31 172.43&#xA;  Q 61.83 170.24 60.73 170.29" stroke="#3e8ffb"/>
<path d="M 60.73 170.29&#xA;  L 60.47 164.53" stroke="#a8c9fa"/>
<path d="M 60.47 164.53&#xA;  Q 60.52 162.94 59.97 161.49" stroke="#9ec1f9"/>
<path d="M 68.09 143.67&#xA;  Q 67.67 145.14 69.02 146.76&#xA;  Q 69.37 147.18 69.18 147.68&#xA;  Q 68.68 149.01 67.41 149.48&#xA;  Q 66.92 149.67 66.58 150.06&#xA;  C 65.06 151.80 61.19 154.65 61.14 156.91&#xA;  Q 61.13 157.39 60.88 157.80&#xA;  Q 59.90 159.38 59.97 161.49" stroke="#74b9f6"/>
<path d="M 59.97 161.49&#xA;  L 59.50 159.35" stroke="#b2d0f8"/>
<path d="M 206.67 145.18&#xA;  Q 206.05 144.05 205.01 143.55&#xA;  Q 204.58 143.35 204.16 143.56&#xA;  C 202.72 144.30 201.21 145.30 199.57 144.82&#xA;  Q 198.11 144.40 196.89 143.47&#xA;  Q 196.50 143.17 196.30 142.72&#xA;  Q 196.13 142.33 195.75 142.09&#xA;  Q 195.40 141.87 194.68 141.89&#xA;  Q 193.66 141.93 192.56 141.83&#xA;  Q 192.04 141.79 192.05 141.27&#xA;  Q 192.07 139.94 191.28 139.86" stroke="#4b9af9"/>
<path d="M 215.99 104.51&#xA;  Q 214.64 105.15 216.23 108.89&#xA;  Q 216.28 109.00 216.36 109.05&#xA;  Q 216.48 109.12 216.61 109.13&#xA;  Q 216.91 109.17 216.96 109.47&#xA;  Q 217.23 111.19 217.15 112.94&#xA;  C 217.10 114.05 216.43 114.78 216.65 116.17&#xA;  Q 216.72 116.62 216.27 116.72&#xA;  Q 215.13 116.99 215.17 118.20&#xA;  Q 215.19 118.71 215.68 118.84&#xA;  Q 216.24 118.99 216.44 119.67&#xA;  Q 216.51 119.93 216.39 120.17&#xA;  Q 216.33 120.29 216.27 120.42" stroke="#90b1f9"/>
<path d="M 216.27 120.42&#xA;  L 209.51 124.52" stroke="#6199fc"/>
<path d="M 63.51 137.66&#xA;  Q 63.22 137.58 63.01 137.63&#xA;  Q 62.50 137.75 62.68 138.24&#xA;  C 62.93 138.93 62.88 139.50 62.35 140.08&#xA;  C 61.05 141.52 59.90 142.84 59.10 144.71&#xA;  Q 58.44 146.26 57.69 147.81&#xA;  Q 56.89 149.44 55.96 150.18" stroke="#c1e8f6"/>
<path d="M 55.96 150.18&#xA;  L 50.04 136.41" stroke="#abccfa"/>
<path d="M 122.31 198.18&#xA;  L 123.04 201.02&#xA;  A 0.69 0.68 84.3 0 1 122.35 201.87&#xA;  Q 120.24 201.79 118.59 203.03&#xA;  A 0.96 0.92 -12.4 0 0 118.25 203.54&#xA;  L 116.28 210.74&#xA;  A 0.52 0.52 0.0 0 1 115.35 210.91&#xA;  Q 113.69 208.59 112.91 209.90" stroke="#2a80fd"/>
<path d="M 112.91 209.90&#xA;  L 110.01 205.96" stroke="#94bafc"/>
<path d="M 104.98 55.46&#xA;  Q 102.10 57.99 97.86 58.58" stroke="#b0cff7"/>
<path d="M 97.86 58.58&#xA;  Q 97.19 55.98 97.37 53.41&#xA;  C 97.61 49.86 97.65 48.00 97.58 45.21&#xA;  Q 97.56 44.63 96.99 44.63&#xA;  L 96.55 44.63&#xA;  Q 96.18 44.63 96.12 44.26&#xA;  L 96.03 43.69" stroke="#caccfb"/>
<path d="M 147.48 38.52&#xA;  Q 149.12 41.86 148.56 43.15&#xA;  Q 148.40 43.51 148.38 43.91&#xA;  C 148.32 45.18 148.02 48.00 149.54 48.61&#xA;  Q 149.98 48.79 150.25 49.18&#xA;  Q 152.39 52.23 156.14 52.53&#xA;  Q 156.29 52.54 156.18 52.43&#xA;  Q 156.08 52.33 155.98 52.22&#xA;  A 0.28 0.28 0.0 0 1 156.22 51.75&#xA;  Q 160.28 52.48 161.85 56.48&#xA;  A 1.18 1.18 0.0 0 1 161.19 58.00&#xA;  Q 160.17 58.41 160.18 59.50&#xA;  A 1.36 1.35 17.8 0 1 158.03 60.60&#xA;  L 152.63 56.73" stroke="#e7e0fc"/>
<path d="M 152.63 56.73&#xA;  Q 152.11 56.11 151.32 55.97" stroke="#e6edfb"/>
<path d="M 151.32 55.97&#xA;  L 147.62 52.29" stroke="#cde3f7"/>
<path d="M 147.62 52.29&#xA;  L 146.25 50.67" stroke="#a8c9fa"/>
<path d="M 146.25 50.67&#xA;  L 145.00 48.59" stroke="#94bafc"/>
<path d="M 97.86 58.58&#xA;  L 91.73 60.11" stroke="#c2dbf7"/>
<path d="M 91.73 60.11&#xA;  Q 91.40 60.38 90.42 60.23" stroke="#9ec1f9"/>
<path d="M 90.42 60.23&#xA;  Q 90.75 59.99 90.88 59.66&#xA;  Q 91.06 59.20 90.64 58.93&#xA;  L 89.53 58.22&#xA;  A 0.85 0.83 16.5 0 1 89.13 57.51&#xA;  L 89.13 48.62&#xA;  A 0.32 0.31 -84.5 0 0 88.88 48.31&#xA;  Q 87.22 47.96 87.45 47.23" stroke="#e7e0fc"/>
<path d="M 90.42 60.23&#xA;  L 84.83 60.03" stroke="#a8c9fa"/>
<path d="M 84.83 60.03&#xA;  L 82.19 59.59" stroke="#94bafc"/>
<path d="M 68.37 110.62&#xA;  L 63.23 116.50&#xA;  A 1.36 1.34 20.8 0 1 62.19 116.96&#xA;  L 45.74 116.64&#xA;  A 0.57 0.57 0.0 0 1 45.39 115.63&#xA;  L 49.96 111.80&#xA;  Q 50.41 111.43 49.89 111.16&#xA;  L 49.46 110.93" stroke="#2a80fd"/>
<path d="M 62.14 71.84&#xA;  Q 62.34 72.96 61.57 73.40&#xA;  Q 61.16 73.62 61.16 74.08&#xA;  C 61.14 75.93 60.14 77.04 60.10 78.73&#xA;  Q 59.99 83.54 61.10 88.23&#xA;  Q 61.22 88.74 60.99 89.21&#xA;  Q 59.45 92.47 59.73 95.80" stroke="#9ab3fb"/>
<path d="M 59.73 95.80&#xA;  L 58.25 100.28" stroke="#b0cff7"/>
<path d="M 58.25 100.28&#xA;  L 56.06 103.83" stroke="#a0c4f8"/>
<path d="M 56.06 103.83&#xA;  L 54.48 106.23" stroke="#8cb5f9"/>
<path d="M 54.48 106.23&#xA;  Q 54.26 106.33 54.08 106.53" stroke="#78a6fb"/>
<path d="M 54.08 106.53&#xA;  Q 54.21 106.01 54.09 105.69&#xA;  Q 53.85 105.07 53.33 105.47&#xA;  Q 53.04 105.69 52.65 105.65&#xA;  Q 52.12 105.58 52.12 105.05&#xA;  L 52.12 81.92&#xA;  A 1.77 1.75 -61.9 0 0 51.83 80.95&#xA;  L 50.73 79.29" stroke="#caccfb"/>
<path d="M 177.53 50.87&#xA;  Q 175.17 50.81 172.47 49.75&#xA;  A 1.47 1.47 0.0 0 0 170.47 50.99&#xA;  Q 170.39 51.90 169.73 52.24&#xA;  A 0.99 0.96 -5.6 0 0 169.24 52.82&#xA;  Q 168.97 53.70 169.25 54.49&#xA;  Q 169.41 54.95 169.27 55.42&#xA;  Q 168.82 56.99 169.11 58.48&#xA;  Q 169.19 58.89 168.78 58.93&#xA;  Q 166.75 59.14 167.14 61.17&#xA;  Q 167.23 61.61 167.57 61.90&#xA;  C 168.83 62.98 170.55 62.84 171.58 63.23&#xA;  Q 174.04 64.16 175.85 65.68" stroke="#90b1f9"/>
<path d="M 156.59 42.27&#xA;  Q 156.47 43.58 157.01 43.60&#xA;  Q 158.16 44.11 158.14 45.32&#xA;  Q 158.13 45.79 158.49 46.10&#xA;  Q 159.95 47.36 158.95 48.81&#xA;  Q 158.63 49.26 158.81 49.78&#xA;  Q 159.31 51.26 160.72 51.60&#xA;  A 1.14 1.13 83.1 0 1 161.48 52.20&#xA;  Q 163.00 55.22 162.89 58.60&#xA;  Q 162.87 59.10 162.42 59.32&#xA;  L 160.82 60.11&#xA;  Q 160.43 60.31 160.40 60.75&#xA;  L 160.38 61.08&#xA;  A 0.26 0.25 -2.8 0 1 160.16 61.32&#xA;  Q 157.20 61.64 156.20 60.40&#xA;  C 155.09 59.04 153.83 58.03 152.63 56.73" stroke="#dbe5fb"/>
<path d="M 188.96 200.55&#xA;  Q 185.71 199.59 182.40 199.33&#xA;  C 181.07 199.22 180.24 198.68 179.03 198.24&#xA;  Q 178.56 198.07 178.06 198.15&#xA;  Q 176.10 198.48 174.25 198.00&#xA;  Q 171.73 197.34 170.64 197.34&#xA;  Q 166.94 197.31 163.24 197.40&#xA;  Q 162.79 197.41 162.42 197.69&#xA;  Q 161.19 198.63 160.00 198.26&#xA;  Q 159.03 197.96 158.48 198.38&#xA;  Q 158.08 198.67 157.59 198.67&#xA;  Q 156.62 198.69 156.34 197.88" stroke="#e7e0fc"/>
<path d="M 171.84 207.52&#xA;  Q 170.22 206.76 167.91 207.05&#xA;  Q 164.98 207.42 164.06 207.41&#xA;  Q 155.23 207.29 146.40 207.57&#xA;  Q 145.88 207.59 145.83 207.07&#xA;  L 145.80 206.72" stroke="#c0cbfa"/>
<path d="M 65.67 80.96&#xA;  Q 65.24 83.86 63.31 87.38" stroke="#b0d0f9"/>
<path d="M 63.31 87.38&#xA;  L 59.73 95.80" stroke="#92c1f6"/>
<path d="M 56.15 152.03&#xA;  L 57.97 155.27&#xA;  Q 58.19 155.65 58.60 155.78&#xA;  Q 59.03 155.91 58.88 156.30&#xA;  Q 58.69 156.82 59.04 157.25&#xA;  Q 59.86 158.29 59.50 159.35" stroke="#a0c4f8"/>
<path d="M 59.50 159.35&#xA;  Q 55.42 158.10 51.90 155.99&#xA;  C 48.14 153.75 45.40 152.24 42.22 150.23&#xA;  Q 41.80 149.97 41.33 150.12&#xA;  Q 40.66 150.33 40.07 150.85" stroke="#caccfb"/>
<path d="M 97.78 196.85&#xA;  Q 98.03 197.54 97.83 198.02&#xA;  Q 97.62 198.55 97.06 198.39&#xA;  Q 96.41 198.20 96.07 198.67&#xA;  Q 95.75 199.11 95.21 199.11&#xA;  Q 93.39 199.09 91.62 199.50&#xA;  Q 84.09 201.23 76.42 202.03&#xA;  Q 76.20 202.05 76.04 202.21&#xA;  L 75.77 202.48&#xA;  Q 75.50 202.75 75.82 202.96&#xA;  Q 76.14 203.18 76.29 203.55&#xA;  Q 76.39 203.79 76.28 203.96&#xA;  Q 76.12 204.20 75.79 204.06" stroke="#caccfb"/>
<path d="M 109.78 205.77&#xA;  Q 108.44 205.52 108.13 206.74&#xA;  Q 107.99 207.26 107.50 207.48&#xA;  Q 104.95 208.61 102.18 208.30&#xA;  Q 101.64 208.24 101.15 208.44&#xA;  Q 99.05 209.30 96.85 209.54&#xA;  Q 96.38 209.60 95.95 209.79&#xA;  L 92.98 211.13" stroke="#e7e0fc"/>
<path d="M 206.28 174.81&#xA;  Q 206.12 174.61 206.11 174.36&#xA;  Q 206.10 174.06 205.80 174.07&#xA;  Q 205.59 174.09 205.52 174.26&#xA;  Q 202.53 181.47 199.51 188.46&#xA;  A 0.46 0.46 0.0 0 1 198.69 188.50&#xA;  Q 197.36 186.13 195.19 184.59" stroke="#4d8dfd"/>
<path d="M 195.19 184.59&#xA;  Q 195.19 181.96 197.09 181.19&#xA;  Q 197.37 181.08 197.38 180.78&#xA;  Q 197.38 180.64 197.37 180.50&#xA;  Q 197.35 180.16 197.58 179.91&#xA;  Q 199.62 177.70 202.05 175.96&#xA;  Q 204.43 174.25 205.51 172.55&#xA;  Q 207.73 169.05 209.23 165.02" stroke="#90b1f9"/>
<path d="M 215.52 151.90&#xA;  Q 209.70 159.72 202.75 165.01&#xA;  Q 202.54 165.17 202.26 165.15&#xA;  Q 201.88 165.13 201.62 165.39&#xA;  L 197.60 169.40&#xA;  Q 197.38 169.63 197.07 169.63&#xA;  Q 196.89 169.63 196.72 169.64&#xA;  Q 196.39 169.65 196.39 169.32&#xA;  Q 196.41 168.53 195.61 168.57" stroke="#caccfb"/>
<path d="M 195.61 168.57&#xA;  L 196.35 162.18" stroke="#c0cbfa"/>
<path d="M 196.35 162.18&#xA;  Q 197.10 157.29 199.65 153.06" stroke="#c2dbf7"/>
<path d="M 220.78 116.12&#xA;  Q 219.50 117.05 221.26 120.28&#xA;  Q 221.66 121.01 220.86 120.80&#xA;  Q 218.54 120.16 216.27 120.42" stroke="#4d8dfd"/>
<path d="M 212.27 159.94&#xA;  Q 210.37 161.68 209.23 165.02" stroke="#9ab3fb"/>
<path d="M 209.23 165.02&#xA;  L 197.88 174.47&#xA;  Q 197.37 174.89 197.10 174.29&#xA;  Q 195.71 171.22 195.61 168.57" stroke="#aebffa"/>
<path d="M 207.02 82.85&#xA;  Q 205.24 83.12 206.69 85.20&#xA;  Q 206.98 85.61 206.96 86.12&#xA;  Q 206.79 90.81 205.43 95.86&#xA;  Q 204.14 100.63 203.87 106.24&#xA;  Q 203.83 107.04 204.61 107.39&#xA;  Q 205.03 107.58 204.89 108.02&#xA;  Q 204.77 108.42 204.09 108.50" stroke="#e7e0fc"/>
<path d="M 204.09 108.50&#xA;  Q 199.30 103.52 196.79 97.22" stroke="#cde3f7"/>
<path d="M 196.79 97.22&#xA;  L 195.73 91.14" stroke="#bdd8f8"/>
<path d="M 209.65 89.40&#xA;  Q 208.90 91.41 210.16 93.29&#xA;  Q 210.45 93.72 210.35 94.22&#xA;  Q 210.19 95.04 210.79 95.56&#xA;  Q 210.89 95.64 210.87 95.77&#xA;  Q 210.80 96.10 210.40 96.13&#xA;  A 0.19 0.19 0.0 0 0 210.22 96.30&#xA;  L 208.27 109.36&#xA;  A 1.38 1.38 0.0 0 1 205.99 110.19&#xA;  L 204.09 108.50" stroke="#c2dbf7"/>
<path d="M 60.47 164.53&#xA;  Q 60.18 164.53 60.13 164.29&#xA;  Q 60.10 164.14 59.99 164.25&#xA;  L 59.68 164.56&#xA;  Q 59.43 164.82 59.40 165.17&#xA;  L 58.94 170.98&#xA;  A 0.37 0.37 0.0 0 1 58.45 171.30&#xA;  C 56.45 170.59 55.52 169.39 54.13 168.45&#xA;  Q 50.32 165.86 45.86 164.93" stroke="#e7e0fc"/>
<path d="M 54.08 106.53&#xA;  Q 52.40 108.78 49.98 110.35" stroke="#8ab2fb"/>
</g>
<path d="M 0.00 0.00&#xA;  L 256.00 0.00&#xA;  L 256.00 256.00&#xA;  L 0.00 256.00&#xA;  L 0.00 0.00&#xA;  Z&#xA;  M 121.83 33.15&#xA;  L 109.43 38.13&#xA;  L 96.03 43.69&#xA;  L 87.45 47.23&#xA;  L 75.07 52.44&#xA;  Q 74.68 52.60 74.37 52.90&#xA;  L 72.73 54.47&#xA;  Q 72.40 54.79 72.69 55.14&#xA;  Q 73.17 55.73 73.39 56.46&#xA;  Q 73.53 56.93 74.02 56.90&#xA;  C 76.03 56.78 77.13 56.79 79.18 57.59&#xA;  C 80.44 58.08 82.78 57.82 83.48 58.20&#xA;  Q 83.70 58.32 83.83 58.51&#xA;  Q 84.17 58.99 83.66 59.29&#xA;  Q 83.07 59.63 82.19 59.59&#xA;  L 81.47 59.62&#xA;  Q 74.47 58.61 67.51 57.48&#xA;  Q 58.51 56.03 56.91 64.89&#xA;  L 50.73 79.29&#xA;  Q 47.73 86.41 44.83 93.61&#xA;  Q 43.99 95.70 44.13 98.03&#xA;  Q 44.57 105.26 44.23 112.21&#xA;  Q 44.20 112.80 44.70 112.48&#xA;  L 49.14 109.59&#xA;  Q 49.71 109.22 49.91 109.87&#xA;  Q 49.97 110.08 49.98 110.35&#xA;  L 49.46 110.93&#xA;  Q 41.77 116.44 34.19 122.13&#xA;  C 32.77 123.19 31.58 124.67 31.30 126.26&#xA;  Q 30.56 130.57 33.30 134.33&#xA;  L 40.07 150.85&#xA;  L 45.86 164.93&#xA;  L 52.09 179.64&#xA;  Q 52.24 180.00 52.57 180.22&#xA;  L 55.85 182.36&#xA;  Q 56.28 182.64 56.51 182.17&#xA;  Q 57.84 179.41 58.03 176.35&#xA;  Q 58.08 175.54 58.46 175.29&#xA;  Q 58.98 174.95 59.82 175.31&#xA;  Q 58.98 182.54 57.59 189.75&#xA;  Q 56.11 197.45 64.85 199.35&#xA;  L 75.79 204.06&#xA;  L 92.98 211.13&#xA;  Q 99.26 213.83 105.67 216.39&#xA;  C 107.58 217.15 109.29 217.17 111.31 217.48&#xA;  Q 111.76 217.55 112.17 217.34&#xA;  Q 113.26 216.78 114.45 216.87&#xA;  Q 115.04 216.91 115.06 216.33&#xA;  Q 115.11 214.44 113.78 213.15&#xA;  Q 113.43 212.81 113.51 212.34&#xA;  Q 113.61 211.77 114.18 211.69&#xA;  Q 117.51 216.03 120.87 220.33&#xA;  C 124.02 224.35 126.86 226.51 131.80 224.35&#xA;  Q 139.99 220.75 148.23 217.35&#xA;  L 165.67 209.97&#xA;  L 171.84 207.52&#xA;  L 188.96 200.55&#xA;  Q 190.48 200.11 190.47 198.71&#xA;  C 195.16 199.17 197.24 196.90 198.99 192.66&#xA;  Q 202.68 183.74 206.28 174.81&#xA;  L 212.27 159.94&#xA;  L 215.52 151.90&#xA;  L 222.10 136.48&#xA;  Q 222.37 135.86 221.79 136.21&#xA;  Q 218.77 138.06 215.96 140.19&#xA;  Q 213.82 141.81 211.66 143.40&#xA;  Q 209.31 145.13 207.54 146.82&#xA;  C 205.49 148.78 203.00 150.90 201.37 153.22&#xA;  Q 199.99 155.17 199.65 153.06&#xA;  L 201.78 149.91&#xA;  L 206.67 145.18&#xA;  L 210.79 142.16&#xA;  Q 215.28 138.95 219.51 135.88&#xA;  C 224.24 132.44 227.05 129.31 224.24 123.59&#xA;  Q 222.67 120.38 220.78 116.12&#xA;  L 215.99 104.51&#xA;  L 211.68 94.25&#xA;  L 209.65 89.40&#xA;  L 207.02 82.85&#xA;  Q 204.32 75.81 200.97 68.77&#xA;  Q 199.79 66.28 200.19 69.01&#xA;  L 200.51 71.21&#xA;  A 1.02 0.98 60.4 0 1 200.31 71.99&#xA;  C 198.68 74.15 200.03 76.15 198.60 78.40&#xA;  Q 198.05 79.27 198.10 80.01&#xA;  Q 198.36 83.45 197.26 86.66&#xA;  C 196.74 88.20 197.93 90.39 195.73 91.14&#xA;  Q 195.74 90.65 195.47 90.53&#xA;  L 196.21 82.18&#xA;  Q 197.49 73.85 198.65 65.99&#xA;  C 199.38 60.99 197.04 58.82 192.54 56.97&#xA;  Q 187.89 55.07 182.79 53.14&#xA;  L 177.53 50.87&#xA;  L 163.97 45.49&#xA;  L 156.59 42.27&#xA;  L 147.48 38.52&#xA;  Q 145.01 37.34 140.93 35.92&#xA;  Q 139.66 35.48 139.12 35.63&#xA;  Q 137.71 36.01 138.55 37.20&#xA;  L 145.83 47.51&#xA;  Q 146.05 47.83 145.87 48.17&#xA;  Q 145.56 48.76 145.00 48.59&#xA;  L 143.53 46.71&#xA;  Q 136.08 36.39 133.92 33.84&#xA;  Q 129.11 28.16 121.83 33.15&#xA;  Z" fill="#ffffff"/>
<path d="M 143.53 46.71&#xA;  Q 143.44 47.04 143.29 47.21&#xA;  Q 143.26 47.24 142.51 46.99&#xA;  Q 142.31 46.92 142.39 46.71&#xA;  A 0.32 0.32 0.0 0 0 142.20 46.30&#xA;  Q 140.36 45.66 140.01 47.28&#xA;  Q 139.24 50.82 137.50 53.37&#xA;  C 136.80 54.38 135.51 55.37 134.80 56.80&#xA;  Q 134.58 57.25 134.86 57.67&#xA;  Q 135.71 58.99 135.52 60.61&#xA;  L 125.04 47.22&#xA;  Q 122.32 43.65 121.29 41.74&#xA;  Q 119.44 38.32 121.83 33.15&#xA;  Q 129.11 28.16 133.92 33.84&#xA;  Q 136.08 36.39 143.53 46.71&#xA;  Z" fill="#1d74ff"/>
<path d="M 121.83 33.15&#xA;  Q 119.44 38.32 121.29 41.74&#xA;  Q 122.32 43.65 125.04 47.22&#xA;  Q 122.70 49.03 120.18 49.72&#xA;  L 105.58 55.78&#xA;  Q 105.28 55.62 104.98 55.46&#xA;  Q 108.76 53.34 110.68 50.16&#xA;  C 112.46 47.21 111.87 43.13 111.81 39.65&#xA;  Q 111.81 39.06 111.22 39.01&#xA;  Q 109.16 38.84 109.43 38.13&#xA;  L 121.83 33.15&#xA;  Z" fill="#7ca5fa"/>
<path d="M 147.48 38.52&#xA;  Q 149.12 41.86 148.56 43.15&#xA;  Q 148.40 43.51 148.38 43.91&#xA;  C 148.32 45.18 148.02 48.00 149.54 48.61&#xA;  Q 149.98 48.79 150.25 49.18&#xA;  Q 152.39 52.23 156.14 52.53&#xA;  Q 156.29 52.54 156.18 52.43&#xA;  Q 156.08 52.33 155.98 52.22&#xA;  A 0.28 0.28 0.0 0 1 156.22 51.75&#xA;  Q 160.28 52.48 161.85 56.48&#xA;  A 1.18 1.18 0.0 0 1 161.19 58.00&#xA;  Q 160.17 58.41 160.18 59.50&#xA;  A 1.36 1.35 17.8 0 1 158.03 60.60&#xA;  L 152.63 56.73&#xA;  Q 152.11 56.11 151.32 55.97&#xA;  L 147.62 52.29&#xA;  L 146.25 50.67&#xA;  L 145.00 48.59&#xA;  Q 145.56 48.76 145.87 48.17&#xA;  Q 146.05 47.83 145.83 47.51&#xA;  L 138.55 37.20&#xA;  Q 137.71 36.01 139.12 35.63&#xA;  Q 139.66 35.48 140.93 35.92&#xA;  Q 145.01 37.34 147.48 38.52&#xA;  Z" fill="#f1e8fc"/>
<path d="M 109.43 38.13&#xA;  Q 109.16 38.84 111.22 39.01&#xA;  Q 111.81 39.06 111.81 39.65&#xA;  C 111.87 43.13 112.46 47.21 110.68 50.16&#xA;  Q 108.76 53.34 104.98 55.46&#xA;  Q 102.10 57.99 97.86 58.58&#xA;  Q 97.19 55.98 97.37 53.41&#xA;  C 97.61 49.86 97.65 48.00 97.58 45.21&#xA;  Q 97.56 44.63 96.99 44.63&#xA;  L 96.55 44.63&#xA;  Q 96.18 44.63 96.12 44.26&#xA;  L 96.03 43.69&#xA;  L 109.43 38.13&#xA;  Z" fill="#b8c0fb"/>
<path d="M 147.48 38.52&#xA;  L 156.59 42.27&#xA;  Q 156.47 43.58 157.01 43.60&#xA;  Q 158.16 44.11 158.14 45.32&#xA;  Q 158.13 45.79 158.49 46.10&#xA;  Q 159.95 47.36 158.95 48.81&#xA;  Q 158.63 49.26 158.81 49.78&#xA;  Q 159.31 51.26 160.72 51.60&#xA;  A 1.14 1.13 83.1 0 1 161.48 52.20&#xA;  Q 163.00 55.22 162.89 58.60&#xA;  Q 162.87 59.10 162.42 59.32&#xA;  L 160.82 60.11&#xA;  Q 160.43 60.31 160.40 60.75&#xA;  L 160.38 61.08&#xA;  A 0.26 0.25 -2.8 0 1 160.16 61.32&#xA;  Q 157.20 61.64 156.20 60.40&#xA;  C 155.09 59.04 153.83 58.03 152.63 56.73&#xA;  L 158.03 60.60&#xA;  A 1.36 1.35 17.8 0 0 160.18 59.50&#xA;  Q 160.17 58.41 161.19 58.00&#xA;  A 1.18 1.18 0.0 0 0 161.85 56.48&#xA;  Q 160.28 52.48 156.22 51.75&#xA;  A 0.28 0.28 0.0 0 0 155.98 52.22&#xA;  Q 156.08 52.33 156.18 52.43&#xA;  Q 156.29 52.54 156.14 52.53&#xA;  Q 152.39 52.23 150.25 49.18&#xA;  Q 149.98 48.79 149.54 48.61&#xA;  C 148.02 48.00 148.32 45.18 148.38 43.91&#xA;  Q 148.40 43.51 148.56 43.15&#xA;  Q 149.12 41.86 147.48 38.52&#xA;  Z" fill="#dcd8fb"/>
<path d="M 156.59 42.27&#xA;  L 163.97 45.49&#xA;  C 163.53 46.90 164.62 47.34 164.74 48.52&#xA;  Q 164.93 50.38 163.39 51.60&#xA;  Q 162.97 51.93 163.05 52.45&#xA;  C 163.65 56.36 164.40 58.18 162.28 61.84&#xA;  A 0.90 0.90 0.0 0 0 163.21 63.18&#xA;  C 165.90 62.72 167.95 62.36 170.60 63.60&#xA;  Q 173.12 64.77 175.85 65.68&#xA;  L 177.78 66.94&#xA;  Q 177.23 66.75 177.28 68.05&#xA;  Q 177.31 68.83 178.12 69.05&#xA;  A 0.32 0.32 0.0 0 1 178.33 69.49&#xA;  L 176.71 73.21&#xA;  Q 176.57 73.54 176.25 73.71&#xA;  Q 173.45 75.18 170.75 75.26&#xA;  Q 168.58 75.32 160.75 74.87&#xA;  Q 160.62 74.87 160.51 74.80&#xA;  Q 160.39 74.72 160.25 74.64&#xA;  A 1.06 1.04 60.2 0 0 159.71 74.49&#xA;  Q 155.44 74.44 151.73 72.29&#xA;  Q 154.36 71.44 156.60 69.85&#xA;  Q 156.73 69.75 156.85 69.46&#xA;  Q 157.02 69.04 157.38 68.76&#xA;  Q 158.20 68.11 157.84 67.08&#xA;  Q 157.66 66.58 157.14 66.46&#xA;  L 154.50 65.90&#xA;  A 1.14 1.14 0.0 0 1 153.60 64.74&#xA;  C 153.69 62.97 153.85 61.60 152.95 59.91&#xA;  Q 151.95 58.05 151.32 55.97&#xA;  Q 152.11 56.11 152.63 56.73&#xA;  C 153.83 58.03 155.09 59.04 156.20 60.40&#xA;  Q 157.20 61.64 160.16 61.32&#xA;  A 0.26 0.25 -2.8 0 0 160.38 61.08&#xA;  L 160.40 60.75&#xA;  Q 160.43 60.31 160.82 60.11&#xA;  L 162.42 59.32&#xA;  Q 162.87 59.10 162.89 58.60&#xA;  Q 163.00 55.22 161.48 52.20&#xA;  A 1.14 1.13 83.1 0 0 160.72 51.60&#xA;  Q 159.31 51.26 158.81 49.78&#xA;  Q 158.63 49.26 158.95 48.81&#xA;  Q 159.95 47.36 158.49 46.10&#xA;  Q 158.13 45.79 158.14 45.32&#xA;  Q 158.16 44.11 157.01 43.60&#xA;  Q 156.47 43.58 156.59 42.27&#xA;  Z" fill="#daf2fa"/>
<path d="M 96.03 43.69&#xA;  L 96.12 44.26&#xA;  Q 96.18 44.63 96.55 44.63&#xA;  L 96.99 44.63&#xA;  Q 97.56 44.63 97.58 45.21&#xA;  C 97.65 48.00 97.61 49.86 97.37 53.41&#xA;  Q 97.19 55.98 97.86 58.58&#xA;  L 91.73 60.11&#xA;  Q 91.40 60.38 90.42 60.23&#xA;  Q 90.75 59.99 90.88 59.66&#xA;  Q 91.06 59.20 90.64 58.93&#xA;  L 89.53 58.22&#xA;  A 0.85 0.83 16.5 0 1 89.13 57.51&#xA;  L 89.13 48.62&#xA;  A 0.32 0.31 -84.5 0 0 88.88 48.31&#xA;  Q 87.22 47.96 87.45 47.23&#xA;  L 96.03 43.69&#xA;  Z" fill="#dcd8fb"/>
<path d="M 163.97 45.49&#xA;  L 177.53 50.87&#xA;  Q 175.17 50.81 172.47 49.75&#xA;  A 1.47 1.47 0.0 0 0 170.47 50.99&#xA;  Q 170.39 51.90 169.73 52.24&#xA;  A 0.99 0.96 -5.6 0 0 169.24 52.82&#xA;  Q 168.97 53.70 169.25 54.49&#xA;  Q 169.41 54.95 169.27 55.42&#xA;  Q 168.82 56.99 169.11 58.48&#xA;  Q 169.19 58.89 168.78 58.93&#xA;  Q 166.75 59.14 167.14 61.17&#xA;  Q 167.23 61.61 167.57 61.90&#xA;  C 168.83 62.98 170.55 62.84 171.58 63.23&#xA;  Q 174.04 64.16 175.85 65.68&#xA;  Q 173.12 64.77 170.60 63.60&#xA;  C 167.95 62.36 165.90 62.72 163.21 63.18&#xA;  A 0.90 0.90 0.0 0 1 162.28 61.84&#xA;  C 164.40 58.18 163.65 56.36 163.05 52.45&#xA;  Q 162.97 51.93 163.39 51.60&#xA;  Q 164.93 50.38 164.74 48.52&#xA;  C 164.62 47.34 163.53 46.90 163.97 45.49&#xA;  Z" fill="#a4bdf8"/>
<path d="M 143.53 46.71&#xA;  L 145.00 48.59&#xA;  L 146.25 50.67&#xA;  Q 146.20 51.91 145.58 52.40&#xA;  Q 145.21 52.69 145.14 53.15&#xA;  C 144.92 54.54 145.91 55.14 146.11 56.18&#xA;  Q 146.37 57.56 146.06 58.92&#xA;  Q 145.94 59.46 145.48 59.76&#xA;  L 143.50 61.05&#xA;  A 0.69 0.69 0.0 0 0 143.38 62.11&#xA;  L 143.59 62.32&#xA;  Q 143.99 62.73 143.54 63.09&#xA;  Q 142.25 64.12 140.96 63.30&#xA;  A 0.67 0.66 -55.1 0 0 140.08 63.46&#xA;  Q 139.73 63.90 139.60 64.53&#xA;  L 135.52 60.61&#xA;  Q 135.71 58.99 134.86 57.67&#xA;  Q 134.58 57.25 134.80 56.80&#xA;  C 135.51 55.37 136.80 54.38 137.50 53.37&#xA;  Q 139.24 50.82 140.01 47.28&#xA;  Q 140.36 45.66 142.20 46.30&#xA;  A 0.32 0.32 0.0 0 1 142.39 46.71&#xA;  Q 142.31 46.92 142.51 46.99&#xA;  Q 143.26 47.24 143.29 47.21&#xA;  Q 143.44 47.04 143.53 46.71&#xA;  Z" fill="#378bfb"/>
<path d="M 87.45 47.23&#xA;  Q 87.22 47.96 88.88 48.31&#xA;  A 0.32 0.31 -84.5 0 1 89.13 48.62&#xA;  L 89.13 57.51&#xA;  A 0.85 0.83 16.5 0 0 89.53 58.22&#xA;  L 90.64 58.93&#xA;  Q 91.06 59.20 90.88 59.66&#xA;  Q 90.75 59.99 90.42 60.23&#xA;  L 84.83 60.03&#xA;  L 82.19 59.59&#xA;  Q 83.07 59.63 83.66 59.29&#xA;  Q 84.17 58.99 83.83 58.51&#xA;  Q 83.70 58.32 83.48 58.20&#xA;  C 82.78 57.82 80.44 58.08 79.18 57.59&#xA;  C 77.13 56.79 76.03 56.78 74.02 56.90&#xA;  Q 73.53 56.93 73.39 56.46&#xA;  Q 73.17 55.73 72.69 55.14&#xA;  Q 72.40 54.79 72.73 54.47&#xA;  L 74.37 52.90&#xA;  Q 74.68 52.60 75.07 52.44&#xA;  L 87.45 47.23&#xA;  Z" fill="#f1e8fc"/>
<path d="M 125.04 47.22&#xA;  L 135.52 60.61&#xA;  L 139.60 64.53&#xA;  L 144.79 68.58&#xA;  L 151.73 72.29&#xA;  Q 155.44 74.44 159.71 74.49&#xA;  A 1.06 1.04 60.2 0 1 160.25 74.64&#xA;  Q 160.39 74.72 160.51 74.80&#xA;  Q 160.62 74.87 160.75 74.87&#xA;  Q 168.58 75.32 170.75 75.26&#xA;  Q 173.45 75.18 176.25 73.71&#xA;  Q 176.57 73.54 176.71 73.21&#xA;  L 178.33 69.49&#xA;  A 0.32 0.32 0.0 0 0 178.12 69.05&#xA;  Q 177.31 68.83 177.28 68.05&#xA;  Q 177.23 66.75 177.78 66.94&#xA;  L 181.76 68.50&#xA;  Q 182.23 68.48 182.65 68.69&#xA;  Q 183.09 68.91 183.04 69.41&#xA;  L 182.13 77.27&#xA;  L 180.73 87.29&#xA;  L 180.86 92.49&#xA;  Q 181.64 98.63 183.79 104.20&#xA;  L 185.25 107.57&#xA;  Q 188.85 114.67 194.93 119.78&#xA;  Q 195.31 120.10 195.80 120.05&#xA;  Q 197.66 119.87 199.48 120.17&#xA;  Q 199.81 120.23 200.00 120.54&#xA;  Q 200.16 120.81 200.47 120.83&#xA;  L 204.06 121.00&#xA;  Q 204.50 121.02 204.57 120.58&#xA;  Q 204.76 119.30 205.81 118.61&#xA;  L 206.47 119.68&#xA;  Q 207.00 122.89 209.51 124.52&#xA;  L 198.93 132.41&#xA;  L 191.28 139.86&#xA;  L 189.15 142.68&#xA;  L 187.14 145.60&#xA;  L 185.09 149.52&#xA;  Q 184.89 149.90 184.90 150.33&#xA;  Q 184.92 151.30 184.34 152.11&#xA;  A 1.01 0.03 -79.1 0 0 184.14 153.00&#xA;  Q 184.05 153.45 184.20 153.86&#xA;  Q 184.38 154.35 184.14 154.80&#xA;  Q 180.60 161.42 181.23 168.98&#xA;  C 181.53 172.68 181.07 179.00 186.00 179.70&#xA;  Q 186.58 179.78 186.80 179.24&#xA;  L 187.22 178.20&#xA;  Q 187.44 177.66 187.94 177.97&#xA;  Q 188.36 178.23 188.61 179.08&#xA;  L 187.36 182.99&#xA;  C 181.82 182.22 175.69 180.49 170.08 180.55&#xA;  L 163.23 180.78&#xA;  Q 160.32 180.73 156.31 182.20&#xA;  L 148.43 185.33&#xA;  L 141.74 189.63&#xA;  Q 134.99 195.66 130.73 202.49&#xA;  Q 129.94 203.74 131.12 204.36&#xA;  Q 131.45 204.54 131.58 204.89&#xA;  Q 131.84 205.63 132.74 205.64&#xA;  Q 134.16 205.66 134.37 207.11&#xA;  L 132.61 207.81&#xA;  Q 132.11 208.00 132.15 208.54&#xA;  Q 132.23 209.55 131.57 209.65&#xA;  L 122.31 198.18&#xA;  L 118.15 193.47&#xA;  Q 117.46 192.26 116.11 191.51&#xA;  L 110.09 187.22&#xA;  L 105.07 184.56&#xA;  Q 100.55 181.98 94.98 180.98&#xA;  Q 88.83 179.91 82.67 181.40&#xA;  C 81.27 181.73 79.61 181.40 78.06 182.48&#xA;  Q 77.67 182.74 77.65 183.21&#xA;  Q 77.58 184.33 76.76 184.98&#xA;  A 1.01 1.01 0.0 0 0 77.25 186.77&#xA;  Q 79.15 187.02 81.10 188.69&#xA;  Q 82.36 189.77 80.95 190.09&#xA;  L 73.96 187.35&#xA;  Q 72.95 187.24 73.31 185.24&#xA;  C 75.35 173.86 77.15 164.35 72.90 152.98&#xA;  Q 71.47 148.42 68.09 143.67&#xA;  Q 67.46 142.31 66.09 140.91&#xA;  L 63.51 137.66&#xA;  Q 59.44 133.50 54.39 130.40&#xA;  C 52.39 129.17 50.54 129.70 50.14 132.10&#xA;  A 1.41 1.38 35.6 0 0 50.30 133.01&#xA;  Q 51.93 135.95 50.04 136.41&#xA;  L 48.32 132.53&#xA;  L 47.58 131.41&#xA;  Q 47.28 130.96 47.72 130.63&#xA;  C 57.25 123.74 65.98 118.52 71.35 106.74&#xA;  Q 72.97 104.49 73.52 100.66&#xA;  Q 74.36 99.40 74.94 96.39&#xA;  L 75.42 84.48&#xA;  L 73.89 75.93&#xA;  Q 73.80 75.45 73.36 75.25&#xA;  Q 71.15 74.27 69.64 76.05&#xA;  Q 69.43 76.30 69.24 76.36&#xA;  Q 69.00 76.44 68.80 76.38&#xA;  Q 68.32 76.24 68.44 75.75&#xA;  Q 68.56 75.29 68.38 74.98&#xA;  Q 68.63 74.06 69.07 73.47&#xA;  Q 69.39 73.05 69.92 73.10&#xA;  L 76.16 73.74&#xA;  L 81.98 74.55&#xA;  L 90.22 75.23&#xA;  Q 98.58 74.82 106.23 71.51&#xA;  Q 115.63 67.54 121.61 59.37&#xA;  A 1.50 1.47 62.9 0 0 121.89 58.47&#xA;  Q 121.81 55.47 122.86 52.62&#xA;  A 1.33 1.33 0.0 0 0 121.46 50.84&#xA;  Q 119.34 51.08 120.18 49.72&#xA;  Q 122.70 49.03 125.04 47.22&#xA;  Z" fill="#ffffff"/>
<path d="M 120.18 49.72&#xA;  Q 119.34 51.08 121.46 50.84&#xA;  A 1.33 1.33 0.0 0 1 122.86 52.62&#xA;  Q 121.81 55.47 121.89 58.47&#xA;  A 1.50 1.47 62.9 0 1 121.61 59.37&#xA;  Q 115.63 67.54 106.23 71.51&#xA;  Q 106.15 70.61 105.31 70.11&#xA;  A 1.12 1.11 -66.6 0 1 104.81 68.84&#xA;  Q 106.70 62.03 105.58 55.78&#xA;  L 120.18 49.72&#xA;  Z" fill="#e4faf7"/>
<path d="M 177.53 50.87&#xA;  L 182.79 53.14&#xA;  Q 183.83 55.07 186.32 56.22&#xA;  Q 186.67 56.38 187.05 56.36&#xA;  Q 187.91 56.33 188.61 56.86&#xA;  A 0.39 0.39 0.0 0 1 188.52 57.53&#xA;  C 183.62 59.40 183.62 62.72 183.45 67.31&#xA;  Q 183.42 67.95 182.79 67.90&#xA;  L 182.25 67.86&#xA;  Q 181.87 67.83 181.80 68.21&#xA;  Q 181.77 68.33 181.76 68.50&#xA;  L 177.78 66.94&#xA;  L 175.85 65.68&#xA;  Q 174.04 64.16 171.58 63.23&#xA;  C 170.55 62.84 168.83 62.98 167.57 61.90&#xA;  Q 167.23 61.61 167.14 61.17&#xA;  Q 166.75 59.14 168.78 58.93&#xA;  Q 169.19 58.89 169.11 58.48&#xA;  Q 168.82 56.99 169.27 55.42&#xA;  Q 169.41 54.95 169.25 54.49&#xA;  Q 168.97 53.70 169.24 52.82&#xA;  A 0.99 0.96 -5.6 0 1 169.73 52.24&#xA;  Q 170.39 51.90 170.47 50.99&#xA;  A 1.47 1.47 0.0 0 1 172.47 49.75&#xA;  Q 175.17 50.81 177.53 50.87&#xA;  Z" fill="#7ca5fa"/>
<path d="M 146.25 50.67&#xA;  L 147.62 52.29&#xA;  Q 147.33 53.44 147.16 53.44&#xA;  A 1.10 1.10 0.0 0 0 146.29 55.16&#xA;  C 148.46 58.32 152.31 59.46 150.85 64.21&#xA;  Q 150.71 64.68 150.32 64.98&#xA;  C 148.48 66.38 148.25 66.94 145.73 67.15&#xA;  Q 145.26 67.19 145.16 67.66&#xA;  Q 145.05 68.17 144.79 68.58&#xA;  L 139.60 64.53&#xA;  Q 139.73 63.90 140.08 63.46&#xA;  A 0.67 0.66 -55.1 0 1 140.96 63.30&#xA;  Q 142.25 64.12 143.54 63.09&#xA;  Q 143.99 62.73 143.59 62.32&#xA;  L 143.38 62.11&#xA;  A 0.69 0.69 0.0 0 1 143.50 61.05&#xA;  L 145.48 59.76&#xA;  Q 145.94 59.46 146.06 58.92&#xA;  Q 146.37 57.56 146.11 56.18&#xA;  C 145.91 55.14 144.92 54.54 145.14 53.15&#xA;  Q 145.21 52.69 145.58 52.40&#xA;  Q 146.20 51.91 146.25 50.67&#xA;  Z" fill="#5fa9f7"/>
<path d="M 147.62 52.29&#xA;  L 151.32 55.97&#xA;  Q 151.95 58.05 152.95 59.91&#xA;  C 153.85 61.60 153.69 62.97 153.60 64.74&#xA;  A 1.14 1.14 0.0 0 0 154.50 65.90&#xA;  L 157.14 66.46&#xA;  Q 157.66 66.58 157.84 67.08&#xA;  Q 158.20 68.11 157.38 68.76&#xA;  Q 157.02 69.04 156.85 69.46&#xA;  Q 156.73 69.75 156.60 69.85&#xA;  Q 154.36 71.44 151.73 72.29&#xA;  L 144.79 68.58&#xA;  Q 145.05 68.17 145.16 67.66&#xA;  Q 145.26 67.19 145.73 67.15&#xA;  C 148.25 66.94 148.48 66.38 150.32 64.98&#xA;  Q 150.71 64.68 150.85 64.21&#xA;  C 152.31 59.46 148.46 58.32 146.29 55.16&#xA;  A 1.10 1.10 0.0 0 1 147.16 53.44&#xA;  Q 147.33 53.44 147.62 52.29&#xA;  Z" fill="#a8ddf2"/>
<path d="M 182.79 53.14&#xA;  Q 187.89 55.07 192.54 56.97&#xA;  C 197.04 58.82 199.38 60.99 198.65 65.99&#xA;  Q 197.49 73.85 196.21 82.18&#xA;  Q 194.59 81.31 194.92 78.34&#xA;  Q 194.98 77.80 194.44 77.74&#xA;  Q 188.34 77.01 186.38 76.41&#xA;  Q 184.49 75.83 182.13 77.27&#xA;  L 183.04 69.41&#xA;  Q 183.09 68.91 182.65 68.69&#xA;  Q 182.23 68.48 181.76 68.50&#xA;  Q 181.77 68.33 181.80 68.21&#xA;  Q 181.87 67.83 182.25 67.86&#xA;  L 182.79 67.90&#xA;  Q 183.42 67.95 183.45 67.31&#xA;  C 183.62 62.72 183.62 59.40 188.52 57.53&#xA;  A 0.39 0.39 0.0 0 0 188.61 56.86&#xA;  Q 187.91 56.33 187.05 56.36&#xA;  Q 186.67 56.38 186.32 56.22&#xA;  Q 183.83 55.07 182.79 53.14&#xA;  Z" fill="#1d74ff"/>
<path d="M 104.98 55.46&#xA;  Q 105.28 55.62 105.58 55.78&#xA;  Q 106.70 62.03 104.81 68.84&#xA;  A 1.12 1.11 -66.6 0 0 105.31 70.11&#xA;  Q 106.15 70.61 106.23 71.51&#xA;  Q 98.58 74.82 90.22 75.23&#xA;  L 89.99 74.38&#xA;  A 0.70 0.70 0.0 0 0 89.23 73.86&#xA;  Q 88.63 73.94 88.17 73.51&#xA;  Q 87.66 73.03 87.81 72.35&#xA;  L 89.73 62.97&#xA;  Q 89.84 62.46 90.29 62.18&#xA;  Q 90.85 61.83 91.53 61.77&#xA;  Q 92.04 61.73 92.12 61.23&#xA;  Q 92.21 60.71 91.73 60.11&#xA;  L 97.86 58.58&#xA;  Q 102.10 57.99 104.98 55.46&#xA;  Z" fill="#a8ddf2"/>
<path d="M 81.47 59.62&#xA;  Q 81.56 59.73 81.61 59.88&#xA;  Q 81.76 60.35 81.29 60.49&#xA;  Q 79.87 60.93 78.45 60.87&#xA;  A 1.10 1.09 -87.3 0 0 77.32 61.91&#xA;  Q 77.10 66.57 75.68 71.22&#xA;  Q 75.59 71.54 75.65 71.75&#xA;  Q 75.77 72.19 76.22 72.31&#xA;  Q 76.68 72.44 76.60 72.91&#xA;  Q 76.54 73.28 76.16 73.74&#xA;  L 69.92 73.10&#xA;  Q 69.39 73.05 69.07 73.47&#xA;  Q 68.63 74.06 68.38 74.98&#xA;  L 65.67 80.96&#xA;  Q 65.85 77.02 67.80 73.32&#xA;  Q 68.08 72.80 67.50 72.71&#xA;  L 62.14 71.84&#xA;  Q 58.04 70.34 56.91 64.89&#xA;  Q 58.51 56.03 67.51 57.48&#xA;  Q 74.47 58.61 81.47 59.62&#xA;  Z" fill="#1d74ff"/>
<path d="M 81.47 59.62&#xA;  L 82.19 59.59&#xA;  L 84.83 60.03&#xA;  Q 81.92 61.92 82.44 63.93&#xA;  Q 82.48 64.10 82.39 64.76&#xA;  Q 82.31 65.36 81.79 65.71&#xA;  A 0.87 0.86 -11.5 0 0 81.42 66.26&#xA;  L 80.27 72.22&#xA;  A 0.61 0.61 0.0 0 0 80.71 72.93&#xA;  L 82.22 73.34&#xA;  A 0.56 0.56 0.0 0 1 82.35 74.37&#xA;  Q 82.21 74.44 81.98 74.55&#xA;  L 76.16 73.74&#xA;  Q 76.54 73.28 76.60 72.91&#xA;  Q 76.68 72.44 76.22 72.31&#xA;  Q 75.77 72.19 75.65 71.75&#xA;  Q 75.59 71.54 75.68 71.22&#xA;  Q 77.10 66.57 77.32 61.91&#xA;  A 1.10 1.09 -87.3 0 1 78.45 60.87&#xA;  Q 79.87 60.93 81.29 60.49&#xA;  Q 81.76 60.35 81.61 59.88&#xA;  Q 81.56 59.73 81.47 59.62&#xA;  Z" fill="#378bfb"/>
<path d="M 84.83 60.03&#xA;  L 90.42 60.23&#xA;  Q 91.40 60.38 91.73 60.11&#xA;  Q 92.21 60.71 92.12 61.23&#xA;  Q 92.04 61.73 91.53 61.77&#xA;  Q 90.85 61.83 90.29 62.18&#xA;  Q 89.84 62.46 89.73 62.97&#xA;  L 87.81 72.35&#xA;  Q 87.66 73.03 88.17 73.51&#xA;  Q 88.63 73.94 89.23 73.86&#xA;  A 0.70 0.70 0.0 0 1 89.99 74.38&#xA;  L 90.22 75.23&#xA;  L 81.98 74.55&#xA;  Q 82.21 74.44 82.35 74.37&#xA;  A 0.56 0.56 0.0 0 0 82.22 73.34&#xA;  L 80.71 72.93&#xA;  A 0.61 0.61 0.0 0 1 80.27 72.22&#xA;  L 81.42 66.26&#xA;  A 0.87 0.86 -11.5 0 1 81.79 65.71&#xA;  Q 82.31 65.36 82.39 64.76&#xA;  Q 82.48 64.10 82.44 63.93&#xA;  Q 81.92 61.92 84.83 60.03&#xA;  Z" fill="#5fa9f7"/>
<path d="M 56.91 64.89&#xA;  Q 58.04 70.34 62.14 71.84&#xA;  Q 62.34 72.96 61.57 73.40&#xA;  Q 61.16 73.62 61.16 74.08&#xA;  C 61.14 75.93 60.14 77.04 60.10 78.73&#xA;  Q 59.99 83.54 61.10 88.23&#xA;  Q 61.22 88.74 60.99 89.21&#xA;  Q 59.45 92.47 59.73 95.80&#xA;  L 58.25 100.28&#xA;  L 56.06 103.83&#xA;  L 54.48 106.23&#xA;  Q 54.26 106.33 54.08 106.53&#xA;  Q 54.21 106.01 54.09 105.69&#xA;  Q 53.85 105.07 53.33 105.47&#xA;  Q 53.04 105.69 52.65 105.65&#xA;  Q 52.12 105.58 52.12 105.05&#xA;  L 52.12 81.92&#xA;  A 1.77 1.75 -61.9 0 0 51.83 80.95&#xA;  L 50.73 79.29&#xA;  L 56.91 64.89&#xA;  Z" fill="#b8c0fb"/>
<path d="M 207.02 82.85&#xA;  Q 205.24 83.12 206.69 85.20&#xA;  Q 206.98 85.61 206.96 86.12&#xA;  Q 206.79 90.81 205.43 95.86&#xA;  Q 204.14 100.63 203.87 106.24&#xA;  Q 203.83 107.04 204.61 107.39&#xA;  Q 205.03 107.58 204.89 108.02&#xA;  Q 204.77 108.42 204.09 108.50&#xA;  Q 199.30 103.52 196.79 97.22&#xA;  L 195.73 91.14&#xA;  C 197.93 90.39 196.74 88.20 197.26 86.66&#xA;  Q 198.36 83.45 198.10 80.01&#xA;  Q 198.05 79.27 198.60 78.40&#xA;  C 200.03 76.15 198.68 74.15 200.31 71.99&#xA;  A 1.02 0.98 60.4 0 0 200.51 71.21&#xA;  L 200.19 69.01&#xA;  Q 199.79 66.28 200.97 68.77&#xA;  Q 204.32 75.81 207.02 82.85&#xA;  Z" fill="#f1e8fc"/>
<path d="M 62.14 71.84&#xA;  L 67.50 72.71&#xA;  Q 68.08 72.80 67.80 73.32&#xA;  Q 65.85 77.02 65.67 80.96&#xA;  Q 65.24 83.86 63.31 87.38&#xA;  L 59.73 95.80&#xA;  Q 59.45 92.47 60.99 89.21&#xA;  Q 61.22 88.74 61.10 88.23&#xA;  Q 59.99 83.54 60.10 78.73&#xA;  C 60.14 77.04 61.14 75.93 61.16 74.08&#xA;  Q 61.16 73.62 61.57 73.40&#xA;  Q 62.34 72.96 62.14 71.84&#xA;  Z" fill="#7ca5fa"/>
<path d="M 68.38 74.98&#xA;  Q 68.56 75.29 68.44 75.75&#xA;  Q 68.32 76.24 68.80 76.38&#xA;  Q 69.00 76.44 69.24 76.36&#xA;  Q 69.43 76.30 69.64 76.05&#xA;  Q 71.15 74.27 73.36 75.25&#xA;  Q 73.80 75.45 73.89 75.93&#xA;  L 75.42 84.48&#xA;  Q 74.05 84.69 73.95 85.68&#xA;  A 1.07 1.06 2.7 0 1 72.89 86.64&#xA;  L 67.02 86.64&#xA;  Q 66.65 86.64 66.33 86.44&#xA;  Q 66.21 86.37 66.09 86.30&#xA;  Q 65.83 86.15 65.55 86.28&#xA;  Q 65.04 86.52 65.09 86.94&#xA;  Q 65.15 87.43 64.76 87.73&#xA;  Q 64.20 88.18 63.31 87.38&#xA;  Q 65.24 83.86 65.67 80.96&#xA;  L 68.38 74.98&#xA;  Z" fill="#e4faf7"/>
<path d="M 196.21 82.18&#xA;  L 195.47 90.53&#xA;  L 195.18 90.86&#xA;  Q 194.75 91.35 194.49 90.75&#xA;  Q 193.95 89.47 193.97 88.05&#xA;  Q 193.98 87.49 193.43 87.41&#xA;  L 183.29 85.90&#xA;  A 1.26 1.26 0.0 0 0 182.06 86.43&#xA;  Q 181.53 87.20 180.73 87.29&#xA;  L 182.13 77.27&#xA;  Q 184.49 75.83 186.38 76.41&#xA;  Q 188.34 77.01 194.44 77.74&#xA;  Q 194.98 77.80 194.92 78.34&#xA;  Q 194.59 81.31 196.21 82.18&#xA;  Z" fill="#5fa9f7"/>
<path d="M 50.73 79.29&#xA;  L 51.83 80.95&#xA;  A 1.77 1.75 -61.9 0 1 52.12 81.92&#xA;  L 52.12 105.05&#xA;  Q 52.12 105.58 52.65 105.65&#xA;  Q 53.04 105.69 53.33 105.47&#xA;  Q 53.85 105.07 54.09 105.69&#xA;  Q 54.21 106.01 54.08 106.53&#xA;  Q 52.40 108.78 49.98 110.35&#xA;  Q 49.97 110.08 49.91 109.87&#xA;  Q 49.71 109.22 49.14 109.59&#xA;  L 44.70 112.48&#xA;  Q 44.20 112.80 44.23 112.21&#xA;  Q 44.57 105.26 44.13 98.03&#xA;  Q 43.99 95.70 44.83 93.61&#xA;  Q 47.73 86.41 50.73 79.29&#xA;  Z" fill="#dcd8fb"/>
<path d="M 207.02 82.85&#xA;  L 209.65 89.40&#xA;  Q 208.90 91.41 210.16 93.29&#xA;  Q 210.45 93.72 210.35 94.22&#xA;  Q 210.19 95.04 210.79 95.56&#xA;  Q 210.89 95.64 210.87 95.77&#xA;  Q 210.80 96.10 210.40 96.13&#xA;  A 0.19 0.19 0.0 0 0 210.22 96.30&#xA;  L 208.27 109.36&#xA;  A 1.38 1.38 0.0 0 1 205.99 110.19&#xA;  L 204.09 108.50&#xA;  Q 204.77 108.42 204.89 108.02&#xA;  Q 205.03 107.58 204.61 107.39&#xA;  Q 203.83 107.04 203.87 106.24&#xA;  Q 204.14 100.63 205.43 95.86&#xA;  Q 206.79 90.81 206.96 86.12&#xA;  Q 206.98 85.61 206.69 85.20&#xA;  Q 205.24 83.12 207.02 82.85&#xA;  Z" fill="#dcd8fb"/>
<path d="M 75.42 84.48&#xA;  L 74.94 96.39&#xA;  Q 73.66 95.63 73.03 98.01&#xA;  A 0.51 0.50 6.9 0 1 72.55 98.38&#xA;  L 61.42 98.57&#xA;  Q 61.07 98.57 60.83 98.33&#xA;  Q 60.35 97.83 59.65 98.49&#xA;  A 0.76 0.66 85.9 0 0 59.53 98.65&#xA;  Q 59.12 99.46 58.25 100.28&#xA;  L 59.73 95.80&#xA;  L 63.31 87.38&#xA;  Q 64.20 88.18 64.76 87.73&#xA;  Q 65.15 87.43 65.09 86.94&#xA;  Q 65.04 86.52 65.55 86.28&#xA;  Q 65.83 86.15 66.09 86.30&#xA;  Q 66.21 86.37 66.33 86.44&#xA;  Q 66.65 86.64 67.02 86.64&#xA;  L 72.89 86.64&#xA;  A 1.07 1.06 2.7 0 0 73.95 85.68&#xA;  Q 74.05 84.69 75.42 84.48&#xA;  Z" fill="#a8ddf2"/>
<path d="M 195.47 90.53&#xA;  Q 195.74 90.65 195.73 91.14&#xA;  L 196.79 97.22&#xA;  Q 195.44 96.52 193.99 94.03&#xA;  Q 193.73 93.59 193.23 93.55&#xA;  L 180.86 92.49&#xA;  L 180.73 87.29&#xA;  Q 181.53 87.20 182.06 86.43&#xA;  A 1.26 1.26 0.0 0 1 183.29 85.90&#xA;  L 193.43 87.41&#xA;  Q 193.98 87.49 193.97 88.05&#xA;  Q 193.95 89.47 194.49 90.75&#xA;  Q 194.75 91.35 195.18 90.86&#xA;  L 195.47 90.53&#xA;  Z" fill="#88c8f4"/>
<path d="M 209.65 89.40&#xA;  L 211.68 94.25&#xA;  Q 210.24 95.04 211.66 97.47&#xA;  Q 211.92 97.92 211.91 98.44&#xA;  Q 211.81 101.96 211.01 105.40&#xA;  C 210.82 106.23 211.00 107.02 210.68 107.90&#xA;  C 210.07 109.54 209.90 110.88 209.55 112.43&#xA;  Q 209.48 112.74 209.26 112.52&#xA;  L 208.97 112.24&#xA;  A 0.27 0.26 23.0 0 0 208.52 112.42&#xA;  L 208.30 118.51&#xA;  Q 208.29 118.91 207.88 118.91&#xA;  Q 207.53 118.92 207.26 118.80&#xA;  Q 206.82 118.60 206.51 118.98&#xA;  Q 206.27 119.27 206.47 119.68&#xA;  L 205.81 118.61&#xA;  L 201.40 107.96&#xA;  Q 200.60 105.83 199.45 104.61&#xA;  A 1.31 1.30 69.9 0 0 198.53 104.18&#xA;  Q 191.98 103.95 185.74 102.05&#xA;  A 0.89 0.88 0.4 0 0 184.63 103.14&#xA;  Q 184.91 104.07 183.79 104.20&#xA;  Q 181.64 98.63 180.86 92.49&#xA;  L 193.23 93.55&#xA;  Q 193.73 93.59 193.99 94.03&#xA;  Q 195.44 96.52 196.79 97.22&#xA;  Q 199.30 103.52 204.09 108.50&#xA;  L 205.99 110.19&#xA;  A 1.38 1.38 0.0 0 0 208.27 109.36&#xA;  L 210.22 96.30&#xA;  A 0.19 0.19 0.0 0 1 210.40 96.13&#xA;  Q 210.80 96.10 210.87 95.77&#xA;  Q 210.89 95.64 210.79 95.56&#xA;  Q 210.19 95.04 210.35 94.22&#xA;  Q 210.45 93.72 210.16 93.29&#xA;  Q 208.90 91.41 209.65 89.40&#xA;  Z" fill="#a8ddf2"/>
<path d="M 211.68 94.25&#xA;  L 215.99 104.51&#xA;  Q 214.64 105.15 216.23 108.89&#xA;  Q 216.28 109.00 216.36 109.05&#xA;  Q 216.48 109.12 216.61 109.13&#xA;  Q 216.91 109.17 216.96 109.47&#xA;  Q 217.23 111.19 217.15 112.94&#xA;  C 217.10 114.05 216.43 114.78 216.65 116.17&#xA;  Q 216.72 116.62 216.27 116.72&#xA;  Q 215.13 116.99 215.17 118.20&#xA;  Q 215.19 118.71 215.68 118.84&#xA;  Q 216.24 118.99 216.44 119.67&#xA;  Q 216.51 119.93 216.39 120.17&#xA;  Q 216.33 120.29 216.27 120.42&#xA;  L 209.51 124.52&#xA;  Q 207.00 122.89 206.47 119.68&#xA;  Q 206.27 119.27 206.51 118.98&#xA;  Q 206.82 118.60 207.26 118.80&#xA;  Q 207.53 118.92 207.88 118.91&#xA;  Q 208.29 118.91 208.30 118.51&#xA;  L 208.52 112.42&#xA;  A 0.27 0.26 23.0 0 1 208.97 112.24&#xA;  L 209.26 112.52&#xA;  Q 209.48 112.74 209.55 112.43&#xA;  C 209.90 110.88 210.07 109.54 210.68 107.90&#xA;  C 211.00 107.02 210.82 106.23 211.01 105.40&#xA;  Q 211.81 101.96 211.91 98.44&#xA;  Q 211.92 97.92 211.66 97.47&#xA;  Q 210.24 95.04 211.68 94.25&#xA;  Z" fill="#a4bdf8"/>
<path d="M 74.94 96.39&#xA;  Q 74.36 99.40 73.52 100.66&#xA;  Q 71.46 102.67 70.81 105.79&#xA;  Q 70.71 106.27 70.22 106.28&#xA;  L 57.94 106.54&#xA;  Q 57.54 106.55 57.22 106.78&#xA;  Q 56.92 106.99 56.49 106.88&#xA;  Q 55.88 106.72 56.14 106.15&#xA;  Q 57.08 104.01 56.06 103.83&#xA;  L 58.25 100.28&#xA;  Q 59.12 99.46 59.53 98.65&#xA;  A 0.76 0.66 85.9 0 1 59.65 98.49&#xA;  Q 60.35 97.83 60.83 98.33&#xA;  Q 61.07 98.57 61.42 98.57&#xA;  L 72.55 98.38&#xA;  A 0.51 0.50 6.9 0 0 73.03 98.01&#xA;  Q 73.66 95.63 74.94 96.39&#xA;  Z" fill="#88c8f4"/>
<path d="M 73.52 100.66&#xA;  Q 72.97 104.49 71.35 106.74&#xA;  Q 69.69 107.07 68.37 110.62&#xA;  L 55.11 110.60&#xA;  A 1.24 1.24 0.0 0 1 54.05 108.71&#xA;  Q 55.22 106.78 54.48 106.23&#xA;  L 56.06 103.83&#xA;  Q 57.08 104.01 56.14 106.15&#xA;  Q 55.88 106.72 56.49 106.88&#xA;  Q 56.92 106.99 57.22 106.78&#xA;  Q 57.54 106.55 57.94 106.54&#xA;  L 70.22 106.28&#xA;  Q 70.71 106.27 70.81 105.79&#xA;  Q 71.46 102.67 73.52 100.66&#xA;  Z" fill="#5fa9f7"/>
<path d="M 201.40 107.96&#xA;  Q 197.37 109.46 192.77 107.61&#xA;  Q 188.86 106.05 185.25 107.57&#xA;  L 183.79 104.20&#xA;  Q 184.91 104.07 184.63 103.14&#xA;  A 0.89 0.88 0.4 0 1 185.74 102.05&#xA;  Q 191.98 103.95 198.53 104.18&#xA;  A 1.31 1.30 69.9 0 1 199.45 104.61&#xA;  Q 200.60 105.83 201.40 107.96&#xA;  Z" fill="#daf2fa"/>
<path d="M 215.99 104.51&#xA;  L 220.78 116.12&#xA;  Q 219.50 117.05 221.26 120.28&#xA;  Q 221.66 121.01 220.86 120.80&#xA;  Q 218.54 120.16 216.27 120.42&#xA;  Q 216.33 120.29 216.39 120.17&#xA;  Q 216.51 119.93 216.44 119.67&#xA;  Q 216.24 118.99 215.68 118.84&#xA;  Q 215.19 118.71 215.17 118.20&#xA;  Q 215.13 116.99 216.27 116.72&#xA;  Q 216.72 116.62 216.65 116.17&#xA;  C 216.43 114.78 217.10 114.05 217.15 112.94&#xA;  Q 217.23 111.19 216.96 109.47&#xA;  Q 216.91 109.17 216.61 109.13&#xA;  Q 216.48 109.12 216.36 109.05&#xA;  Q 216.28 109.00 216.23 108.89&#xA;  Q 214.64 105.15 215.99 104.51&#xA;  Z" fill="#7ca5fa"/>
<path d="M 54.48 106.23&#xA;  Q 55.22 106.78 54.05 108.71&#xA;  A 1.24 1.24 0.0 0 0 55.11 110.60&#xA;  L 68.37 110.62&#xA;  L 63.23 116.50&#xA;  A 1.36 1.34 20.8 0 1 62.19 116.96&#xA;  L 45.74 116.64&#xA;  A 0.57 0.57 0.0 0 1 45.39 115.63&#xA;  L 49.96 111.80&#xA;  Q 50.41 111.43 49.89 111.16&#xA;  L 49.46 110.93&#xA;  L 49.98 110.35&#xA;  Q 52.40 108.78 54.08 106.53&#xA;  Q 54.26 106.33 54.48 106.23&#xA;  Z" fill="#378bfb"/>
<path d="M 71.35 106.74&#xA;  C 65.98 118.52 57.25 123.74 47.72 130.63&#xA;  Q 47.28 130.96 47.58 131.41&#xA;  L 48.32 132.53&#xA;  Q 48.47 133.00 48.20 133.31&#xA;  Q 47.79 133.78 47.39 133.31&#xA;  Q 47.17 133.07 47.11 132.72&#xA;  A 0.92 0.92 0.0 0 0 45.56 132.21&#xA;  Q 42.30 135.39 37.94 135.78&#xA;  L 33.30 134.33&#xA;  Q 30.56 130.57 31.30 126.26&#xA;  C 31.58 124.67 32.77 123.19 34.19 122.13&#xA;  Q 41.77 116.44 49.46 110.93&#xA;  L 49.89 111.16&#xA;  Q 50.41 111.43 49.96 111.80&#xA;  L 45.39 115.63&#xA;  A 0.57 0.57 0.0 0 0 45.74 116.64&#xA;  L 62.19 116.96&#xA;  A 1.36 1.34 20.8 0 0 63.23 116.50&#xA;  L 68.37 110.62&#xA;  Q 69.69 107.07 71.35 106.74&#xA;  Z" fill="#1d74ff"/>
<path d="M 201.40 107.96&#xA;  L 205.81 118.61&#xA;  Q 204.76 119.30 204.57 120.58&#xA;  Q 204.50 121.02 204.06 121.00&#xA;  L 200.47 120.83&#xA;  Q 200.16 120.81 200.00 120.54&#xA;  Q 199.81 120.23 199.48 120.17&#xA;  Q 197.66 119.87 195.80 120.05&#xA;  Q 195.31 120.10 194.93 119.78&#xA;  Q 188.85 114.67 185.25 107.57&#xA;  Q 188.86 106.05 192.77 107.61&#xA;  Q 197.37 109.46 201.40 107.96&#xA;  Z" fill="#e4faf7"/>
<path d="M 220.78 116.12&#xA;  Q 222.67 120.38 224.24 123.59&#xA;  C 227.05 129.31 224.24 132.44 219.51 135.88&#xA;  Q 215.28 138.95 210.79 142.16&#xA;  Q 209.61 141.41 211.88 139.53&#xA;  Q 212.31 139.17 212.10 138.66&#xA;  C 210.92 135.74 207.94 136.94 205.62 134.96&#xA;  Q 205.27 134.66 205.17 134.21&#xA;  L 204.87 132.83&#xA;  Q 204.75 132.30 204.25 132.10&#xA;  Q 203.80 131.92 203.85 131.44&#xA;  Q 203.94 130.68 203.27 131.04&#xA;  Q 201.75 131.87 200.47 132.97&#xA;  Q 199.71 133.64 198.93 132.41&#xA;  L 209.51 124.52&#xA;  L 216.27 120.42&#xA;  Q 218.54 120.16 220.86 120.80&#xA;  Q 221.66 121.01 221.26 120.28&#xA;  Q 219.50 117.05 220.78 116.12&#xA;  Z" fill="#1d74ff"/>
<path d="M 63.51 137.66&#xA;  Q 63.22 137.58 63.01 137.63&#xA;  Q 62.50 137.75 62.68 138.24&#xA;  C 62.93 138.93 62.88 139.50 62.35 140.08&#xA;  C 61.05 141.52 59.90 142.84 59.10 144.71&#xA;  Q 58.44 146.26 57.69 147.81&#xA;  Q 56.89 149.44 55.96 150.18&#xA;  L 50.04 136.41&#xA;  Q 51.93 135.95 50.30 133.01&#xA;  A 1.41 1.38 35.6 0 1 50.14 132.10&#xA;  C 50.54 129.70 52.39 129.17 54.39 130.40&#xA;  Q 59.44 133.50 63.51 137.66&#xA;  Z" fill="#daf2fa"/>
<path d="M 210.79 142.16&#xA;  L 206.67 145.18&#xA;  Q 206.05 144.05 205.01 143.55&#xA;  Q 204.58 143.35 204.16 143.56&#xA;  C 202.72 144.30 201.21 145.30 199.57 144.82&#xA;  Q 198.11 144.40 196.89 143.47&#xA;  Q 196.50 143.17 196.30 142.72&#xA;  Q 196.13 142.33 195.75 142.09&#xA;  Q 195.40 141.87 194.68 141.89&#xA;  Q 193.66 141.93 192.56 141.83&#xA;  Q 192.04 141.79 192.05 141.27&#xA;  Q 192.07 139.94 191.28 139.86&#xA;  L 198.93 132.41&#xA;  Q 199.71 133.64 200.47 132.97&#xA;  Q 201.75 131.87 203.27 131.04&#xA;  Q 203.94 130.68 203.85 131.44&#xA;  Q 203.80 131.92 204.25 132.10&#xA;  Q 204.75 132.30 204.87 132.83&#xA;  L 205.17 134.21&#xA;  Q 205.27 134.66 205.62 134.96&#xA;  C 207.94 136.94 210.92 135.74 212.10 138.66&#xA;  Q 212.31 139.17 211.88 139.53&#xA;  Q 209.61 141.41 210.79 142.16&#xA;  Z" fill="#378bfb"/>
<path d="M 48.32 132.53&#xA;  L 50.04 136.41&#xA;  L 55.96 150.18&#xA;  L 56.76 151.72&#xA;  L 56.15 152.03&#xA;  L 52.28 146.95&#xA;  Q 51.99 146.56 51.52 146.42&#xA;  Q 49.96 145.94 48.65 145.01&#xA;  Q 46.49 143.47 45.55 142.91&#xA;  Q 44.35 142.20 43.28 141.31&#xA;  C 41.78 140.06 39.98 139.16 38.59 137.58&#xA;  Q 38.41 137.37 38.20 137.54&#xA;  Q 37.92 137.75 37.67 137.40&#xA;  A 0.44 0.43 -48.5 0 1 37.65 136.96&#xA;  Q 37.98 136.37 37.94 135.78&#xA;  Q 42.30 135.39 45.56 132.21&#xA;  A 0.92 0.92 0.0 0 1 47.11 132.72&#xA;  Q 47.17 133.07 47.39 133.31&#xA;  Q 47.79 133.78 48.20 133.31&#xA;  Q 48.47 133.00 48.32 132.53&#xA;  Z" fill="#7ca5fa"/>
<path d="M 33.30 134.33&#xA;  L 37.94 135.78&#xA;  Q 37.98 136.37 37.65 136.96&#xA;  A 0.44 0.43 -48.5 0 0 37.67 137.40&#xA;  Q 37.92 137.75 38.20 137.54&#xA;  Q 38.41 137.37 38.59 137.58&#xA;  C 39.98 139.16 41.78 140.06 43.28 141.31&#xA;  Q 44.35 142.20 45.55 142.91&#xA;  Q 46.49 143.47 48.65 145.01&#xA;  Q 49.96 145.94 51.52 146.42&#xA;  Q 51.99 146.56 52.28 146.95&#xA;  L 56.15 152.03&#xA;  L 57.97 155.27&#xA;  Q 58.19 155.65 58.60 155.78&#xA;  Q 59.03 155.91 58.88 156.30&#xA;  Q 58.69 156.82 59.04 157.25&#xA;  Q 59.86 158.29 59.50 159.35&#xA;  Q 55.42 158.10 51.90 155.99&#xA;  C 48.14 153.75 45.40 152.24 42.22 150.23&#xA;  Q 41.80 149.97 41.33 150.12&#xA;  Q 40.66 150.33 40.07 150.85&#xA;  L 33.30 134.33&#xA;  Z" fill="#b8c0fb"/>
<path d="M 215.52 151.90&#xA;  Q 209.70 159.72 202.75 165.01&#xA;  Q 202.54 165.17 202.26 165.15&#xA;  Q 201.88 165.13 201.62 165.39&#xA;  L 197.60 169.40&#xA;  Q 197.38 169.63 197.07 169.63&#xA;  Q 196.89 169.63 196.72 169.64&#xA;  Q 196.39 169.65 196.39 169.32&#xA;  Q 196.41 168.53 195.61 168.57&#xA;  L 196.35 162.18&#xA;  Q 197.10 157.29 199.65 153.06&#xA;  Q 199.99 155.17 201.37 153.22&#xA;  C 203.00 150.90 205.49 148.78 207.54 146.82&#xA;  Q 209.31 145.13 211.66 143.40&#xA;  Q 213.82 141.81 215.96 140.19&#xA;  Q 218.77 138.06 221.79 136.21&#xA;  Q 222.37 135.86 222.10 136.48&#xA;  L 215.52 151.90&#xA;  Z" fill="#dcd8fb"/>
<path d="M 63.51 137.66&#xA;  L 66.09 140.91&#xA;  Q 65.80 140.85 65.62 140.92&#xA;  Q 65.19 141.10 65.51 141.44&#xA;  Q 66.27 142.23 65.94 143.19&#xA;  Q 65.76 143.73 64.95 144.23&#xA;  C 62.92 145.49 62.53 147.13 61.43 148.84&#xA;  C 60.70 149.97 60.31 151.59 58.82 152.62&#xA;  Q 58.41 152.90 58.00 152.61&#xA;  L 56.76 151.72&#xA;  L 55.96 150.18&#xA;  Q 56.89 149.44 57.69 147.81&#xA;  Q 58.44 146.26 59.10 144.71&#xA;  C 59.90 142.84 61.05 141.52 62.35 140.08&#xA;  C 62.88 139.50 62.93 138.93 62.68 138.24&#xA;  Q 62.50 137.75 63.01 137.63&#xA;  Q 63.22 137.58 63.51 137.66&#xA;  Z" fill="#a8ddf2"/>
<path d="M 191.28 139.86&#xA;  Q 192.07 139.94 192.05 141.27&#xA;  Q 192.04 141.79 192.56 141.83&#xA;  Q 193.66 141.93 194.68 141.89&#xA;  Q 195.40 141.87 195.75 142.09&#xA;  Q 196.13 142.33 196.30 142.72&#xA;  Q 196.50 143.17 196.89 143.47&#xA;  Q 198.11 144.40 199.57 144.82&#xA;  C 201.21 145.30 202.72 144.30 204.16 143.56&#xA;  Q 204.58 143.35 205.01 143.55&#xA;  Q 206.05 144.05 206.67 145.18&#xA;  L 201.78 149.91&#xA;  Q 200.06 149.08 199.50 149.84&#xA;  A 3.21 3.01 34.7 0 1 195.27 150.47&#xA;  L 192.49 148.66&#xA;  Q 192.05 148.37 191.52 148.41&#xA;  Q 190.32 148.49 189.69 147.50&#xA;  Q 189.42 147.09 189.39 146.61&#xA;  L 189.15 142.68&#xA;  L 191.28 139.86&#xA;  Z" fill="#5fa9f7"/>
<path d="M 66.09 140.91&#xA;  Q 67.46 142.31 68.09 143.67&#xA;  Q 67.67 145.14 69.02 146.76&#xA;  Q 69.37 147.18 69.18 147.68&#xA;  Q 68.68 149.01 67.41 149.48&#xA;  Q 66.92 149.67 66.58 150.06&#xA;  C 65.06 151.80 61.19 154.65 61.14 156.91&#xA;  Q 61.13 157.39 60.88 157.80&#xA;  Q 59.90 159.38 59.97 161.49&#xA;  L 59.50 159.35&#xA;  Q 59.86 158.29 59.04 157.25&#xA;  Q 58.69 156.82 58.88 156.30&#xA;  Q 59.03 155.91 58.60 155.78&#xA;  Q 58.19 155.65 57.97 155.27&#xA;  L 56.15 152.03&#xA;  L 56.76 151.72&#xA;  L 58.00 152.61&#xA;  Q 58.41 152.90 58.82 152.62&#xA;  C 60.31 151.59 60.70 149.97 61.43 148.84&#xA;  C 62.53 147.13 62.92 145.49 64.95 144.23&#xA;  Q 65.76 143.73 65.94 143.19&#xA;  Q 66.27 142.23 65.51 141.44&#xA;  Q 65.19 141.10 65.62 140.92&#xA;  Q 65.80 140.85 66.09 140.91&#xA;  Z" fill="#88c8f4"/>
<path d="M 189.15 142.68&#xA;  L 189.39 146.61&#xA;  Q 189.42 147.09 189.69 147.50&#xA;  Q 190.32 148.49 191.52 148.41&#xA;  Q 192.05 148.37 192.49 148.66&#xA;  L 195.27 150.47&#xA;  A 3.21 3.01 34.7 0 0 199.50 149.84&#xA;  Q 200.06 149.08 201.78 149.91&#xA;  L 199.65 153.06&#xA;  Q 197.10 157.29 196.35 162.18&#xA;  L 195.43 162.19&#xA;  Q 192.21 161.34 190.83 158.95&#xA;  C 190.05 157.62 190.24 155.60 189.33 153.97&#xA;  Q 187.09 149.94 187.14 145.60&#xA;  L 189.15 142.68&#xA;  Z" fill="#a8ddf2"/>
<path d="M 68.09 143.67&#xA;  Q 71.47 148.42 72.90 152.98&#xA;  Q 72.11 154.88 72.85 157.46&#xA;  C 74.21 162.16 69.76 164.50 67.29 168.25&#xA;  Q 66.64 169.23 65.87 170.12&#xA;  C 64.81 171.34 63.51 171.08 62.63 172.49&#xA;  Q 62.41 172.85 62.31 172.43&#xA;  Q 61.83 170.24 60.73 170.29&#xA;  L 60.47 164.53&#xA;  Q 60.52 162.94 59.97 161.49&#xA;  Q 59.90 159.38 60.88 157.80&#xA;  Q 61.13 157.39 61.14 156.91&#xA;  C 61.19 154.65 65.06 151.80 66.58 150.06&#xA;  Q 66.92 149.67 67.41 149.48&#xA;  Q 68.68 149.01 69.18 147.68&#xA;  Q 69.37 147.18 69.02 146.76&#xA;  Q 67.67 145.14 68.09 143.67&#xA;  Z" fill="#5fa9f7"/>
<path d="M 187.14 145.60&#xA;  Q 187.09 149.94 189.33 153.97&#xA;  C 190.24 155.60 190.05 157.62 190.83 158.95&#xA;  Q 192.21 161.34 195.43 162.19&#xA;  L 188.61 179.08&#xA;  Q 188.36 178.23 187.94 177.97&#xA;  Q 187.44 177.66 187.22 178.20&#xA;  L 186.80 179.24&#xA;  Q 186.58 179.78 186.00 179.70&#xA;  C 181.07 179.00 181.53 172.68 181.23 168.98&#xA;  Q 180.60 161.42 184.14 154.80&#xA;  Q 184.38 154.35 184.20 153.86&#xA;  Q 184.05 153.45 184.14 153.00&#xA;  A 1.01 0.03 -79.1 0 1 184.34 152.11&#xA;  Q 184.92 151.30 184.90 150.33&#xA;  Q 184.89 149.90 185.09 149.52&#xA;  L 187.14 145.60&#xA;  Z" fill="#e4faf7"/>
<path d="M 59.50 159.35&#xA;  L 59.97 161.49&#xA;  Q 60.52 162.94 60.47 164.53&#xA;  Q 60.18 164.53 60.13 164.29&#xA;  Q 60.10 164.14 59.99 164.25&#xA;  L 59.68 164.56&#xA;  Q 59.43 164.82 59.40 165.17&#xA;  L 58.94 170.98&#xA;  A 0.37 0.37 0.0 0 1 58.45 171.30&#xA;  C 56.45 170.59 55.52 169.39 54.13 168.45&#xA;  Q 50.32 165.86 45.86 164.93&#xA;  L 40.07 150.85&#xA;  Q 40.66 150.33 41.33 150.12&#xA;  Q 41.80 149.97 42.22 150.23&#xA;  C 45.40 152.24 48.14 153.75 51.90 155.99&#xA;  Q 55.42 158.10 59.50 159.35&#xA;  Z" fill="#dcd8fb"/>
<path d="M 215.52 151.90&#xA;  L 212.27 159.94&#xA;  Q 210.37 161.68 209.23 165.02&#xA;  L 197.88 174.47&#xA;  Q 197.37 174.89 197.10 174.29&#xA;  Q 195.71 171.22 195.61 168.57&#xA;  Q 196.41 168.53 196.39 169.32&#xA;  Q 196.39 169.65 196.72 169.64&#xA;  Q 196.89 169.63 197.07 169.63&#xA;  Q 197.38 169.63 197.60 169.40&#xA;  L 201.62 165.39&#xA;  Q 201.88 165.13 202.26 165.15&#xA;  Q 202.54 165.17 202.75 165.01&#xA;  Q 209.70 159.72 215.52 151.90&#xA;  Z" fill="#b8c0fb"/>
<path d="M 72.90 152.98&#xA;  C 77.15 164.35 75.35 173.86 73.31 185.24&#xA;  Q 72.95 187.24 73.96 187.35&#xA;  L 71.30 195.77&#xA;  Q 68.81 198.48 64.85 199.35&#xA;  Q 56.11 197.45 57.59 189.75&#xA;  Q 58.98 182.54 59.82 175.31&#xA;  L 60.73 170.29&#xA;  Q 61.83 170.24 62.31 172.43&#xA;  Q 62.41 172.85 62.63 172.49&#xA;  C 63.51 171.08 64.81 171.34 65.87 170.12&#xA;  Q 66.64 169.23 67.29 168.25&#xA;  C 69.76 164.50 74.21 162.16 72.85 157.46&#xA;  Q 72.11 154.88 72.90 152.98&#xA;  Z" fill="#1d74ff"/>
<path d="M 212.27 159.94&#xA;  L 206.28 174.81&#xA;  Q 206.12 174.61 206.11 174.36&#xA;  Q 206.10 174.06 205.80 174.07&#xA;  Q 205.59 174.09 205.52 174.26&#xA;  Q 202.53 181.47 199.51 188.46&#xA;  A 0.46 0.46 0.0 0 1 198.69 188.50&#xA;  Q 197.36 186.13 195.19 184.59&#xA;  Q 195.19 181.96 197.09 181.19&#xA;  Q 197.37 181.08 197.38 180.78&#xA;  Q 197.38 180.64 197.37 180.50&#xA;  Q 197.35 180.16 197.58 179.91&#xA;  Q 199.62 177.70 202.05 175.96&#xA;  Q 204.43 174.25 205.51 172.55&#xA;  Q 207.73 169.05 209.23 165.02&#xA;  Q 210.37 161.68 212.27 159.94&#xA;  Z" fill="#7ca5fa"/>
<path d="M 196.35 162.18&#xA;  L 195.61 168.57&#xA;  Q 195.71 171.22 197.10 174.29&#xA;  Q 197.37 174.89 197.88 174.47&#xA;  L 209.23 165.02&#xA;  Q 207.73 169.05 205.51 172.55&#xA;  Q 204.43 174.25 202.05 175.96&#xA;  Q 199.62 177.70 197.58 179.91&#xA;  Q 197.35 180.16 197.37 180.50&#xA;  Q 197.38 180.64 197.38 180.78&#xA;  Q 197.37 181.08 197.09 181.19&#xA;  Q 195.19 181.96 195.19 184.59&#xA;  L 187.36 182.99&#xA;  L 188.61 179.08&#xA;  L 195.43 162.19&#xA;  L 196.35 162.18&#xA;  Z" fill="#a4bdf8"/>
<path d="M 60.47 164.53&#xA;  L 60.73 170.29&#xA;  L 59.82 175.31&#xA;  Q 58.98 174.95 58.46 175.29&#xA;  Q 58.08 175.54 58.03 176.35&#xA;  Q 57.84 179.41 56.51 182.17&#xA;  Q 56.28 182.64 55.85 182.36&#xA;  L 52.57 180.22&#xA;  Q 52.24 180.00 52.09 179.64&#xA;  L 45.86 164.93&#xA;  Q 50.32 165.86 54.13 168.45&#xA;  C 55.52 169.39 56.45 170.59 58.45 171.30&#xA;  A 0.37 0.37 0.0 0 0 58.94 170.98&#xA;  L 59.40 165.17&#xA;  Q 59.43 164.82 59.68 164.56&#xA;  L 59.99 164.25&#xA;  Q 60.10 164.14 60.13 164.29&#xA;  Q 60.18 164.53 60.47 164.53&#xA;  Z" fill="#f1e8fc"/>
<path d="M 206.28 174.81&#xA;  Q 202.68 183.74 198.99 192.66&#xA;  C 197.24 196.90 195.16 199.17 190.47 198.71&#xA;  L 175.84 196.17&#xA;  Q 176.43 194.99 178.72 194.69&#xA;  Q 179.36 194.61 179.12 194.01&#xA;  Q 178.59 192.74 178.23 191.43&#xA;  C 177.71 189.55 176.67 187.92 176.28 185.86&#xA;  C 176.00 184.34 175.21 183.55 174.25 182.47&#xA;  Q 173.93 182.10 173.44 182.07&#xA;  L 170.12 181.86&#xA;  Q 169.61 181.82 169.61 181.32&#xA;  Q 169.60 180.89 170.08 180.55&#xA;  C 175.69 180.49 181.82 182.22 187.36 182.99&#xA;  L 195.19 184.59&#xA;  Q 197.36 186.13 198.69 188.50&#xA;  A 0.46 0.46 0.0 0 0 199.51 188.46&#xA;  Q 202.53 181.47 205.52 174.26&#xA;  Q 205.59 174.09 205.80 174.07&#xA;  Q 206.10 174.06 206.11 174.36&#xA;  Q 206.12 174.61 206.28 174.81&#xA;  Z" fill="#1d74ff"/>
<path d="M 94.98 180.98&#xA;  C 92.98 182.07 92.02 183.79 90.35 185.23&#xA;  Q 90.01 185.53 89.88 185.96&#xA;  Q 89.55 187.06 88.49 187.69&#xA;  A 1.34 1.29 89.0 0 0 87.96 188.26&#xA;  Q 87.46 189.25 87.19 189.34&#xA;  Q 84.47 190.24 87.22 191.06&#xA;  Q 89.34 191.68 88.41 193.13&#xA;  L 80.95 190.09&#xA;  Q 82.36 189.77 81.10 188.69&#xA;  Q 79.15 187.02 77.25 186.77&#xA;  A 1.01 1.01 0.0 0 1 76.76 184.98&#xA;  Q 77.58 184.33 77.65 183.21&#xA;  Q 77.67 182.74 78.06 182.48&#xA;  C 79.61 181.40 81.27 181.73 82.67 181.40&#xA;  Q 88.83 179.91 94.98 180.98&#xA;  Z" fill="#e4faf7"/>
<path d="M 170.08 180.55&#xA;  Q 169.60 180.89 169.61 181.32&#xA;  Q 169.61 181.82 170.12 181.86&#xA;  L 173.44 182.07&#xA;  Q 173.93 182.10 174.25 182.47&#xA;  C 175.21 183.55 176.00 184.34 176.28 185.86&#xA;  C 176.67 187.92 177.71 189.55 178.23 191.43&#xA;  Q 178.59 192.74 179.12 194.01&#xA;  Q 179.36 194.61 178.72 194.69&#xA;  Q 176.43 194.99 175.84 196.17&#xA;  L 170.94 195.25&#xA;  Q 170.24 194.48 171.15 194.17&#xA;  Q 172.78 193.62 172.28 191.97&#xA;  L 169.26 182.15&#xA;  A 0.59 0.59 0.0 0 0 168.56 181.75&#xA;  Q 165.21 182.55 163.23 180.78&#xA;  L 170.08 180.55&#xA;  Z" fill="#378bfb"/>
<path d="M 163.23 180.78&#xA;  Q 165.21 182.55 168.56 181.75&#xA;  A 0.59 0.59 0.0 0 1 169.26 182.15&#xA;  L 172.28 191.97&#xA;  Q 172.78 193.62 171.15 194.17&#xA;  Q 170.24 194.48 170.94 195.25&#xA;  L 163.52 195.56&#xA;  Q 162.75 195.58 162.46 195.21&#xA;  A 0.45 0.45 0.0 0 1 162.77 194.49&#xA;  Q 163.30 194.43 163.74 194.15&#xA;  Q 164.22 193.85 164.04 193.33&#xA;  L 160.74 183.56&#xA;  Q 160.56 183.01 159.98 183.03&#xA;  Q 157.80 183.08 156.31 182.20&#xA;  Q 160.32 180.73 163.23 180.78&#xA;  Z" fill="#5fa9f7"/>
<path d="M 94.98 180.98&#xA;  Q 100.55 181.98 105.07 184.56&#xA;  Q 104.98 187.43 101.99 187.48&#xA;  Q 97.89 187.53 95.08 191.09&#xA;  C 94.14 192.29 93.85 193.63 93.29 195.10&#xA;  L 88.41 193.13&#xA;  Q 89.34 191.68 87.22 191.06&#xA;  Q 84.47 190.24 87.19 189.34&#xA;  Q 87.46 189.25 87.96 188.26&#xA;  A 1.34 1.29 89.0 0 1 88.49 187.69&#xA;  Q 89.55 187.06 89.88 185.96&#xA;  Q 90.01 185.53 90.35 185.23&#xA;  C 92.02 183.79 92.98 182.07 94.98 180.98&#xA;  Z" fill="#daf2fa"/>
<path d="M 156.31 182.20&#xA;  Q 157.80 183.08 159.98 183.03&#xA;  Q 160.56 183.01 160.74 183.56&#xA;  L 164.04 193.33&#xA;  Q 164.22 193.85 163.74 194.15&#xA;  Q 163.30 194.43 162.77 194.49&#xA;  A 0.45 0.45 0.0 0 0 162.46 195.21&#xA;  Q 162.75 195.58 163.52 195.56&#xA;  L 156.34 197.88&#xA;  L 155.33 198.49&#xA;  L 155.01 198.19&#xA;  Q 154.60 197.80 155.08 197.49&#xA;  Q 155.57 197.17 155.78 196.65&#xA;  Q 155.91 196.32 155.79 195.84&#xA;  Q 154.50 190.97 152.19 186.14&#xA;  A 1.16 1.16 0.0 0 0 150.45 185.71&#xA;  Q 149.42 186.50 148.43 185.33&#xA;  L 156.31 182.20&#xA;  Z" fill="#88c8f4"/>
<path d="M 105.07 184.56&#xA;  L 110.09 187.22&#xA;  Q 109.13 187.42 109.36 188.63&#xA;  A 1.45 1.44 80.4 0 1 108.16 190.33&#xA;  Q 107.20 190.47 106.27 190.22&#xA;  Q 105.88 190.11 105.66 189.76&#xA;  Q 105.26 189.10 104.68 188.96&#xA;  A 1.51 1.50 13.2 0 0 102.84 190.09&#xA;  Q 102.43 192.00 101.35 194.15&#xA;  C 101.04 194.76 101.05 195.59 100.15 196.02&#xA;  Q 99.84 196.17 99.65 196.44&#xA;  Q 99.27 196.97 98.62 196.96&#xA;  Q 98.22 196.81 97.78 196.85&#xA;  L 94.38 195.81&#xA;  L 93.29 195.10&#xA;  C 93.85 193.63 94.14 192.29 95.08 191.09&#xA;  Q 97.89 187.53 101.99 187.48&#xA;  Q 104.98 187.43 105.07 184.56&#xA;  Z" fill="#a8ddf2"/>
<path d="M 148.43 185.33&#xA;  Q 149.42 186.50 150.45 185.71&#xA;  A 1.16 1.16 0.0 0 1 152.19 186.14&#xA;  Q 154.50 190.97 155.79 195.84&#xA;  Q 155.91 196.32 155.78 196.65&#xA;  Q 155.57 197.17 155.08 197.49&#xA;  Q 154.60 197.80 155.01 198.19&#xA;  L 155.33 198.49&#xA;  Q 149.66 201.70 145.80 206.72&#xA;  Q 144.80 207.27 144.89 206.01&#xA;  A 0.66 0.62 -16.0 0 1 145.18 205.52&#xA;  Q 147.24 204.10 146.53 202.08&#xA;  L 148.44 201.30&#xA;  Q 148.92 201.11 148.66 200.66&#xA;  Q 148.32 200.07 147.72 199.79&#xA;  Q 147.20 199.56 147.02 199.02&#xA;  L 144.03 190.40&#xA;  A 0.26 0.26 0.0 0 0 143.75 190.23&#xA;  Q 142.29 190.46 141.74 189.63&#xA;  L 148.43 185.33&#xA;  Z" fill="#a8ddf2"/>
<path d="M 110.09 187.22&#xA;  L 116.11 191.51&#xA;  L 111.95 189.81&#xA;  A 0.60 0.59 -68.3 0 0 111.17 190.15&#xA;  Q 110.53 191.77 108.85 192.21&#xA;  Q 108.37 192.33 108.05 192.70&#xA;  Q 106.55 194.40 106.90 196.68&#xA;  Q 106.92 196.80 106.80 196.86&#xA;  Q 106.64 196.94 106.54 196.82&#xA;  Q 106.25 196.49 105.96 196.81&#xA;  Q 104.10 198.88 105.88 201.59&#xA;  L 98.62 196.96&#xA;  Q 99.27 196.97 99.65 196.44&#xA;  Q 99.84 196.17 100.15 196.02&#xA;  C 101.05 195.59 101.04 194.76 101.35 194.15&#xA;  Q 102.43 192.00 102.84 190.09&#xA;  A 1.51 1.50 13.2 0 1 104.68 188.96&#xA;  Q 105.26 189.10 105.66 189.76&#xA;  Q 105.88 190.11 106.27 190.22&#xA;  Q 107.20 190.47 108.16 190.33&#xA;  A 1.45 1.44 80.4 0 0 109.36 188.63&#xA;  Q 109.13 187.42 110.09 187.22&#xA;  Z" fill="#88c8f4"/>
<path d="M 73.96 187.35&#xA;  L 80.95 190.09&#xA;  L 88.41 193.13&#xA;  L 93.29 195.10&#xA;  L 94.38 195.81&#xA;  Q 92.35 195.90 90.28 195.67&#xA;  Q 88.02 195.43 86.23 195.68&#xA;  Q 80.33 196.53 74.38 197.01&#xA;  Q 73.84 197.05 73.40 197.36&#xA;  Q 72.66 197.86 71.90 197.37&#xA;  Q 71.57 197.16 71.58 196.78&#xA;  Q 71.59 196.31 71.30 195.77&#xA;  L 73.96 187.35&#xA;  Z" fill="#7ca5fa"/>
<path d="M 141.74 189.63&#xA;  Q 142.29 190.46 143.75 190.23&#xA;  A 0.26 0.26 0.0 0 1 144.03 190.40&#xA;  L 147.02 199.02&#xA;  Q 147.20 199.56 147.72 199.79&#xA;  Q 148.32 200.07 148.66 200.66&#xA;  Q 148.92 201.11 148.44 201.30&#xA;  L 146.53 202.08&#xA;  L 134.37 207.11&#xA;  Q 134.16 205.66 132.74 205.64&#xA;  Q 131.84 205.63 131.58 204.89&#xA;  Q 131.45 204.54 131.12 204.36&#xA;  Q 129.94 203.74 130.73 202.49&#xA;  Q 134.99 195.66 141.74 189.63&#xA;  Z" fill="#e4faf7"/>
<path d="M 116.11 191.51&#xA;  Q 117.46 192.26 118.15 193.47&#xA;  Q 113.18 192.35 110.03 198.15&#xA;  Q 109.81 198.56 109.38 198.76&#xA;  Q 108.00 199.42 107.65 201.00&#xA;  A 1.07 1.05 26.9 0 0 108.00 202.04&#xA;  L 109.79 203.56&#xA;  Q 110.14 203.86 110.11 204.32&#xA;  L 110.01 205.96&#xA;  Q 109.46 205.75 109.78 205.77&#xA;  L 105.88 201.59&#xA;  Q 104.10 198.88 105.96 196.81&#xA;  Q 106.25 196.49 106.54 196.82&#xA;  Q 106.64 196.94 106.80 196.86&#xA;  Q 106.92 196.80 106.90 196.68&#xA;  Q 106.55 194.40 108.05 192.70&#xA;  Q 108.37 192.33 108.85 192.21&#xA;  Q 110.53 191.77 111.17 190.15&#xA;  A 0.60 0.59 -68.3 0 1 111.95 189.81&#xA;  L 116.11 191.51&#xA;  Z" fill="#5fa9f7"/>
<path d="M 118.15 193.47&#xA;  L 122.31 198.18&#xA;  L 123.04 201.02&#xA;  A 0.69 0.68 84.3 0 1 122.35 201.87&#xA;  Q 120.24 201.79 118.59 203.03&#xA;  A 0.96 0.92 -12.4 0 0 118.25 203.54&#xA;  L 116.28 210.74&#xA;  A 0.52 0.52 0.0 0 1 115.35 210.91&#xA;  Q 113.69 208.59 112.91 209.90&#xA;  L 110.01 205.96&#xA;  L 110.11 204.32&#xA;  Q 110.14 203.86 109.79 203.56&#xA;  L 108.00 202.04&#xA;  A 1.07 1.05 26.9 0 1 107.65 201.00&#xA;  Q 108.00 199.42 109.38 198.76&#xA;  Q 109.81 198.56 110.03 198.15&#xA;  Q 113.18 192.35 118.15 193.47&#xA;  Z" fill="#378bfb"/>
<path d="M 94.38 195.81&#xA;  L 97.78 196.85&#xA;  Q 98.03 197.54 97.83 198.02&#xA;  Q 97.62 198.55 97.06 198.39&#xA;  Q 96.41 198.20 96.07 198.67&#xA;  Q 95.75 199.11 95.21 199.11&#xA;  Q 93.39 199.09 91.62 199.50&#xA;  Q 84.09 201.23 76.42 202.03&#xA;  Q 76.20 202.05 76.04 202.21&#xA;  L 75.77 202.48&#xA;  Q 75.50 202.75 75.82 202.96&#xA;  Q 76.14 203.18 76.29 203.55&#xA;  Q 76.39 203.79 76.28 203.96&#xA;  Q 76.12 204.20 75.79 204.06&#xA;  L 64.85 199.35&#xA;  Q 68.81 198.48 71.30 195.77&#xA;  Q 71.59 196.31 71.58 196.78&#xA;  Q 71.57 197.16 71.90 197.37&#xA;  Q 72.66 197.86 73.40 197.36&#xA;  Q 73.84 197.05 74.38 197.01&#xA;  Q 80.33 196.53 86.23 195.68&#xA;  Q 88.02 195.43 90.28 195.67&#xA;  Q 92.35 195.90 94.38 195.81&#xA;  Z" fill="#b8c0fb"/>
<path d="M 170.94 195.25&#xA;  L 175.84 196.17&#xA;  L 190.47 198.71&#xA;  Q 190.48 200.11 188.96 200.55&#xA;  Q 185.71 199.59 182.40 199.33&#xA;  C 181.07 199.22 180.24 198.68 179.03 198.24&#xA;  Q 178.56 198.07 178.06 198.15&#xA;  Q 176.10 198.48 174.25 198.00&#xA;  Q 171.73 197.34 170.64 197.34&#xA;  Q 166.94 197.31 163.24 197.40&#xA;  Q 162.79 197.41 162.42 197.69&#xA;  Q 161.19 198.63 160.00 198.26&#xA;  Q 159.03 197.96 158.48 198.38&#xA;  Q 158.08 198.67 157.59 198.67&#xA;  Q 156.62 198.69 156.34 197.88&#xA;  L 163.52 195.56&#xA;  L 170.94 195.25&#xA;  Z" fill="#f1e8fc"/>
<path d="M 97.78 196.85&#xA;  Q 98.22 196.81 98.62 196.96&#xA;  L 105.88 201.59&#xA;  L 109.78 205.77&#xA;  Q 108.44 205.52 108.13 206.74&#xA;  Q 107.99 207.26 107.50 207.48&#xA;  Q 104.95 208.61 102.18 208.30&#xA;  Q 101.64 208.24 101.15 208.44&#xA;  Q 99.05 209.30 96.85 209.54&#xA;  Q 96.38 209.60 95.95 209.79&#xA;  L 92.98 211.13&#xA;  L 75.79 204.06&#xA;  Q 76.12 204.20 76.28 203.96&#xA;  Q 76.39 203.79 76.29 203.55&#xA;  Q 76.14 203.18 75.82 202.96&#xA;  Q 75.50 202.75 75.77 202.48&#xA;  L 76.04 202.21&#xA;  Q 76.20 202.05 76.42 202.03&#xA;  Q 84.09 201.23 91.62 199.50&#xA;  Q 93.39 199.09 95.21 199.11&#xA;  Q 95.75 199.11 96.07 198.67&#xA;  Q 96.41 198.20 97.06 198.39&#xA;  Q 97.62 198.55 97.83 198.02&#xA;  Q 98.03 197.54 97.78 196.85&#xA;  Z" fill="#dcd8fb"/>
<path d="M 188.96 200.55&#xA;  L 171.84 207.52&#xA;  Q 170.22 206.76 167.91 207.05&#xA;  Q 164.98 207.42 164.06 207.41&#xA;  Q 155.23 207.29 146.40 207.57&#xA;  Q 145.88 207.59 145.83 207.07&#xA;  L 145.80 206.72&#xA;  Q 149.66 201.70 155.33 198.49&#xA;  L 156.34 197.88&#xA;  Q 156.62 198.69 157.59 198.67&#xA;  Q 158.08 198.67 158.48 198.38&#xA;  Q 159.03 197.96 160.00 198.26&#xA;  Q 161.19 198.63 162.42 197.69&#xA;  Q 162.79 197.41 163.24 197.40&#xA;  Q 166.94 197.31 170.64 197.34&#xA;  Q 171.73 197.34 174.25 198.00&#xA;  Q 176.10 198.48 178.06 198.15&#xA;  Q 178.56 198.07 179.03 198.24&#xA;  C 180.24 198.68 181.07 199.22 182.40 199.33&#xA;  Q 185.71 199.59 188.96 200.55&#xA;  Z" fill="#dcd8fb"/>
<path d="M 122.31 198.18&#xA;  L 131.57 209.65&#xA;  L 135.34 214.79&#xA;  Q 136.09 217.59 135.36 220.62&#xA;  Q 135.20 221.26 135.82 221.03&#xA;  Q 138.67 219.95 147.50 216.63&#xA;  Q 148.78 216.15 148.23 217.35&#xA;  Q 139.99 220.75 131.80 224.35&#xA;  C 126.86 226.51 124.02 224.35 120.87 220.33&#xA;  Q 117.51 216.03 114.18 211.69&#xA;  L 112.91 209.90&#xA;  Q 113.69 208.59 115.35 210.91&#xA;  A 0.52 0.52 0.0 0 0 116.28 210.74&#xA;  L 118.25 203.54&#xA;  A 0.96 0.92 -12.4 0 1 118.59 203.03&#xA;  Q 120.24 201.79 122.35 201.87&#xA;  A 0.69 0.68 84.3 0 0 123.04 201.02&#xA;  L 122.31 198.18&#xA;  Z" fill="#1d74ff"/>
<path d="M 146.53 202.08&#xA;  Q 147.24 204.10 145.18 205.52&#xA;  A 0.66 0.62 -16.0 0 0 144.89 206.01&#xA;  Q 144.80 207.27 145.80 206.72&#xA;  L 145.83 207.07&#xA;  Q 145.88 207.59 146.40 207.57&#xA;  Q 155.23 207.29 164.06 207.41&#xA;  Q 164.98 207.42 167.91 207.05&#xA;  Q 170.22 206.76 171.84 207.52&#xA;  L 165.67 209.97&#xA;  Q 163.00 209.72 160.40 210.94&#xA;  Q 158.37 211.89 156.85 211.96&#xA;  Q 149.91 212.27 142.97 212.09&#xA;  Q 142.64 212.08 142.47 212.35&#xA;  Q 142.37 212.50 142.25 212.62&#xA;  Q 142.05 212.83 141.67 212.88&#xA;  Q 139.15 213.18 136.62 213.42&#xA;  Q 136.28 213.46 136.35 213.79&#xA;  L 136.42 214.14&#xA;  Q 136.54 214.71 135.98 214.86&#xA;  Q 135.69 214.95 135.34 214.79&#xA;  L 131.57 209.65&#xA;  Q 132.23 209.55 132.15 208.54&#xA;  Q 132.11 208.00 132.61 207.81&#xA;  L 134.37 207.11&#xA;  L 146.53 202.08&#xA;  Z" fill="#a4bdf8"/>
<path d="M 109.78 205.77&#xA;  Q 109.46 205.75 110.01 205.96&#xA;  L 112.91 209.90&#xA;  L 114.18 211.69&#xA;  Q 113.61 211.77 113.51 212.34&#xA;  Q 113.43 212.81 113.78 213.15&#xA;  Q 115.11 214.44 115.06 216.33&#xA;  Q 115.04 216.91 114.45 216.87&#xA;  Q 113.26 216.78 112.17 217.34&#xA;  Q 111.76 217.55 111.31 217.48&#xA;  C 109.29 217.17 107.58 217.15 105.67 216.39&#xA;  Q 99.26 213.83 92.98 211.13&#xA;  L 95.95 209.79&#xA;  Q 96.38 209.60 96.85 209.54&#xA;  Q 99.05 209.30 101.15 208.44&#xA;  Q 101.64 208.24 102.18 208.30&#xA;  Q 104.95 208.61 107.50 207.48&#xA;  Q 107.99 207.26 108.13 206.74&#xA;  Q 108.44 205.52 109.78 205.77&#xA;  Z" fill="#f1e8fc"/>
<path d="M 165.67 209.97&#xA;  L 148.23 217.35&#xA;  Q 148.78 216.15 147.50 216.63&#xA;  Q 138.67 219.95 135.82 221.03&#xA;  Q 135.20 221.26 135.36 220.62&#xA;  Q 136.09 217.59 135.34 214.79&#xA;  Q 135.69 214.95 135.98 214.86&#xA;  Q 136.54 214.71 136.42 214.14&#xA;  L 136.35 213.79&#xA;  Q 136.28 213.46 136.62 213.42&#xA;  Q 139.15 213.18 141.67 212.88&#xA;  Q 142.05 212.83 142.25 212.62&#xA;  Q 142.37 212.50 142.47 212.35&#xA;  Q 142.64 212.08 142.97 212.09&#xA;  Q 149.91 212.27 156.85 211.96&#xA;  Q 158.37 211.89 160.40 210.94&#xA;  Q 163.00 209.72 165.67 209.97&#xA;  Z" fill="#7ca5fa"/>
</svg>