<?xml version="1.0" encoding="utf-8"?>
<svg xmlns="http://www.w3.org/2000/svg" version="1.1" viewBox="0.00 0.00 512.00 512.00">
<g fill="none" stroke-linecap="butt" stroke-width="2.00">
<path d="M 397.88 344.96&#xA;  L 340.83 303.54&#xA;  A 0.64 0.64 0.0 0 0 339.87 303.77&#xA;  C 332.65 318.45 317.85 334.16 300.25 322.35&#xA;  C 282.13 310.20 297.58 289.74 308.13 279.83&#xA;  A 0.49 0.49 0.0 0 0 308.06 279.07&#xA;  L 256.02 244.48" stroke="#af8e53"/>
<path d="M 256.02 244.48&#xA;  L 256.02 207.21&#xA;  A 0.49 0.49 0.0 0 1 256.56 206.72&#xA;  C 270.74 208.19 295.30 206.66 295.88 186.75&#xA;  C 296.44 167.45 277.61 165.74 263.51 166.69&#xA;  C 261.60 166.81 258.91 167.42 256.55 167.53&#xA;  Q 255.99 167.56 255.99 167.00&#xA;  L 256.00 118.54" stroke="#99ca6d"/>
<path d="M 256.02 244.48&#xA;  L 203.78 277.75&#xA;  A 0.48 0.47 -30.4 0 1 203.11 277.58&#xA;  C 198.31 268.72 189.43 256.96 179.52 254.76&#xA;  C 169.95 252.64 159.45 259.10 157.64 268.66&#xA;  C 155.44 280.19 164.43 292.48 171.59 300.83&#xA;  Q 171.95 301.25 171.51 301.58&#xA;  L 113.96 344.93" stroke="#4b94a1"/>
<path d="M 350.02 237.76&#xA;  C 326.48 229.93 307.67 247.44 295.96 264.63&#xA;  A 2.04 2.04 0.0 0 0 296.44 267.43&#xA;  L 296.74 267.65&#xA;  A 1.45 1.45 0.0 0 0 298.81 267.28&#xA;  C 310.17 250.14 327.60 234.51 349.58 241.59&#xA;  A 1.33 1.33 0.0 0 0 351.29 240.60&#xA;  L 351.39 240.15&#xA;  Q 351.77 238.34 350.02 237.76" stroke="#fee28f"/>
<path d="M 386.66 292.60&#xA;  A 12.38 12.38 0.0 0 0 374.28 280.22&#xA;  A 12.38 12.38 0.0 0 0 361.90 292.60&#xA;  A 12.38 12.38 0.0 0 0 374.28 304.98&#xA;  A 12.38 12.38 0.0 0 0 386.66 292.60" stroke="#fee28f"/>
<path d="M 226.67 149.00&#xA;  A 12.36 12.36 0.0 0 0 214.31 136.64&#xA;  A 12.36 12.36 0.0 0 0 201.95 149.00&#xA;  A 12.36 12.36 0.0 0 0 214.31 161.36&#xA;  A 12.36 12.36 0.0 0 0 226.67 149.00" stroke="#9ae8dd"/>
<path d="M 192.66 204.41&#xA;  C 196.97 214.94 207.50 221.98 218.27 224.43&#xA;  Q 234.04 228.02 250.14 224.04&#xA;  Q 251.81 223.63 251.51 221.93&#xA;  L 251.44 221.53&#xA;  A 1.41 1.41 0.0 0 0 249.84 220.38&#xA;  Q 240.08 221.86 237.50 222.12&#xA;  C 221.35 223.72 203.71 218.53 195.97 202.93&#xA;  Q 195.11 201.19 193.50 202.29&#xA;  L 193.24 202.47&#xA;  A 1.61 1.60 -28.6 0 0 192.66 204.41" stroke="#9ae8dd"/>
<path d="M 255.77 297.35&#xA;  A 12.34 12.34 0.0 0 0 243.43 285.01&#xA;  A 12.34 12.34 0.0 0 0 231.09 297.35&#xA;  A 12.34 12.34 0.0 0 0 243.43 309.69&#xA;  A 12.34 12.34 0.0 0 0 255.77 297.35" stroke="#b0abc3"/>
<path d="M 162.23 314.74&#xA;  C 171.36 334.26 188.99 353.47 213.08 348.41&#xA;  A 1.40 1.39 75.8 0 0 214.12 346.65&#xA;  L 213.99 346.26&#xA;  Q 213.50 344.63 211.83 344.94&#xA;  C 189.33 349.13 174.53 330.84 165.42 313.05&#xA;  A 1.50 1.50 0.0 0 0 163.60 312.31&#xA;  L 163.21 312.44&#xA;  A 1.67 1.67 0.0 0 0 162.23 314.74" stroke="#b0abc3"/>
</g>
<path d="M 397.88 344.96&#xA;  L 340.83 303.54&#xA;  A 0.64 0.64 0.0 0 0 339.87 303.77&#xA;  C 332.65 318.45 317.85 334.16 300.25 322.35&#xA;  C 282.13 310.20 297.58 289.74 308.13 279.83&#xA;  A 0.49 0.49 0.0 0 0 308.06 279.07&#xA;  L 256.02 244.48&#xA;  L 256.02 207.21&#xA;  A 0.49 0.49 0.0 0 1 256.56 206.72&#xA;  C 270.74 208.19 295.30 206.66 295.88 186.75&#xA;  C 296.44 167.45 277.61 165.74 263.51 166.69&#xA;  C 261.60 166.81 258.91 167.42 256.55 167.53&#xA;  Q 255.99 167.56 255.99 167.00&#xA;  L 256.00 118.54&#xA;  C 309.35 86.33 383.76 66.14 437.41 110.84&#xA;  C 486.70 151.91 479.69 216.07 453.87 267.47&#xA;  Q 432.11 310.79 397.88 344.96&#xA;  Z&#xA;  M 350.02 237.76&#xA;  C 326.48 229.93 307.67 247.44 295.96 264.63&#xA;  A 2.04 2.04 0.0 0 0 296.44 267.43&#xA;  L 296.74 267.65&#xA;  A 1.45 1.45 0.0 0 0 298.81 267.28&#xA;  C 310.17 250.14 327.60 234.51 349.58 241.59&#xA;  A 1.33 1.33 0.0 0 0 351.29 240.60&#xA;  L 351.39 240.15&#xA;  Q 351.77 238.34 350.02 237.76&#xA;  Z&#xA;  M 386.66 292.60&#xA;  A 12.38 12.38 0.0 0 0 374.28 280.22&#xA;  A 12.38 12.38 0.0 0 0 361.90 292.60&#xA;  A 12.38 12.38 0.0 0 0 374.28 304.98&#xA;  A 12.38 12.38 0.0 0 0 386.66 292.60&#xA;  Z" fill="#fdc41f"/>
<path d="M 256.00 118.54&#xA;  L 255.99 167.00&#xA;  Q 255.99 167.56 256.55 167.53&#xA;  C 258.91 167.42 261.60 166.81 263.51 166.69&#xA;  C 277.61 165.74 296.44 167.45 295.88 186.75&#xA;  C 295.30 206.66 270.74 208.19 256.56 206.72&#xA;  A 0.49 0.49 0.0 0 0 256.02 207.21&#xA;  L 256.02 244.48&#xA;  L 203.78 277.75&#xA;  A 0.48 0.47 -30.4 0 1 203.11 277.58&#xA;  C 198.31 268.72 189.43 256.96 179.52 254.76&#xA;  C 169.95 252.64 159.45 259.10 157.64 268.66&#xA;  C 155.44 280.19 164.43 292.48 171.59 300.83&#xA;  Q 171.95 301.25 171.51 301.58&#xA;  L 113.96 344.93&#xA;  Q 80.32 311.14 58.74 268.48&#xA;  C 34.25 220.08 25.53 157.04 69.18 115.82&#xA;  C 122.53 65.44 200.17 85.18 256.00 118.54&#xA;  Z&#xA;  M 226.67 149.00&#xA;  A 12.36 12.36 0.0 0 0 214.31 136.64&#xA;  A 12.36 12.36 0.0 0 0 201.95 149.00&#xA;  A 12.36 12.36 0.0 0 0 214.31 161.36&#xA;  A 12.36 12.36 0.0 0 0 226.67 149.00&#xA;  Z&#xA;  M 192.66 204.41&#xA;  C 196.97 214.94 207.50 221.98 218.27 224.43&#xA;  Q 234.04 228.02 250.14 224.04&#xA;  Q 251.81 223.63 251.51 221.93&#xA;  L 251.44 221.53&#xA;  A 1.41 1.41 0.0 0 0 249.84 220.38&#xA;  Q 240.08 221.86 237.50 222.12&#xA;  C 221.35 223.72 203.71 218.53 195.97 202.93&#xA;  Q 195.11 201.19 193.50 202.29&#xA;  L 193.24 202.47&#xA;  A 1.61 1.60 -28.6 0 0 192.66 204.41&#xA;  Z" fill="#35d0ba"/>
<circle cx="214.31" cy="149.00" fill="#ffffff" r="12.36"/>
<path d="M 192.66 204.41&#xA;  A 1.61 1.60 -28.6 0 1 193.24 202.47&#xA;  L 193.50 202.29&#xA;  Q 195.11 201.19 195.97 202.93&#xA;  C 203.71 218.53 221.35 223.72 237.50 222.12&#xA;  Q 240.08 221.86 249.84 220.38&#xA;  A 1.41 1.41 0.0 0 1 251.44 221.53&#xA;  L 251.51 221.93&#xA;  Q 251.81 223.63 250.14 224.04&#xA;  Q 234.04 228.02 218.27 224.43&#xA;  C 207.50 221.98 196.97 214.94 192.66 204.41&#xA;  Z" fill="#ffffff"/>
<path d="M 295.96 264.63&#xA;  C 307.67 247.44 326.48 229.93 350.02 237.76&#xA;  Q 351.77 238.34 351.39 240.15&#xA;  L 351.29 240.60&#xA;  A 1.33 1.33 0.0 0 1 349.58 241.59&#xA;  C 327.60 234.51 310.17 250.14 298.81 267.28&#xA;  A 1.45 1.45 0.0 0 1 296.74 267.65&#xA;  L 296.44 267.43&#xA;  A 2.04 2.04 0.0 0 1 295.96 264.63&#xA;  Z" fill="#ffffff"/>
<path d="M 256.02 244.48&#xA;  L 308.06 279.07&#xA;  A 0.49 0.49 0.0 0 1 308.13 279.83&#xA;  C 297.58 289.74 282.13 310.20 300.25 322.35&#xA;  C 317.85 334.16 332.65 318.45 339.87 303.77&#xA;  A 0.64 0.64 0.0 0 1 340.83 303.54&#xA;  L 397.88 344.96&#xA;  Q 340.58 403.02 262.90 427.16&#xA;  C 259.03 428.36 253.76 428.62 249.91 427.44&#xA;  Q 171.69 403.32 113.96 344.93&#xA;  L 171.51 301.58&#xA;  Q 171.95 301.25 171.59 300.83&#xA;  C 164.43 292.48 155.44 280.19 157.64 268.66&#xA;  C 159.45 259.10 169.95 252.64 179.52 254.76&#xA;  C 189.43 256.96 198.31 268.72 203.11 277.58&#xA;  A 0.48 0.47 -30.4 0 0 203.78 277.75&#xA;  L 256.02 244.48&#xA;  Z&#xA;  M 255.77 297.35&#xA;  A 12.34 12.34 0.0 0 0 243.43 285.01&#xA;  A 12.34 12.34 0.0 0 0 231.09 297.35&#xA;  A 12.34 12.34 0.0 0 0 243.43 309.69&#xA;  A 12.34 12.34 0.0 0 0 255.77 297.35&#xA;  Z&#xA;  M 162.23 314.74&#xA;  C 171.36 334.26 188.99 353.47 213.08 348.41&#xA;  A 1.40 1.39 75.8 0 0 214.12 346.65&#xA;  L 213.99 346.26&#xA;  Q 213.50 344.63 211.83 344.94&#xA;  C 189.33 349.13 174.53 330.84 165.42 313.05&#xA;  A 1.50 1.50 0.0 0 0 163.60 312.31&#xA;  L 163.21 312.44&#xA;  A 1.67 1.67 0.0 0 0 162.23 314.74&#xA;  Z" fill="#615787"/>
<circle cx="374.28" cy="292.60" fill="#ffffff" r="12.38"/>
<circle cx="243.43" cy="297.35" fill="#ffffff" r="12.34"/>
<path d="M 213.08 348.41&#xA;  C 188.99 353.47 171.36 334.26 162.23 314.74&#xA;  A 1.67 1.67 0.0 0 1 163.21 312.44&#xA;  L 163.60 312.31&#xA;  A 1.50 1.50 0.0 0 1 165.42 313.05&#xA;  C 174.53 330.84 189.33 349.13 211.83 344.94&#xA;  Q 213.50 344.63 213.99 346.26&#xA;  L 214.12 346.65&#xA;  A 1.40 1.39 75.8 0 1 213.08 348.41&#xA;  Z" fill="#ffffff"/>
</svg>