<?xml version="1.0" encoding="utf-8"?>
<svg xmlns="http://www.w3.org/2000/svg" version="1.1" viewBox="0.00 0.00 240.00 240.00">
<g fill="none" stroke-linecap="butt" stroke-width="2.00">
<path d="M 56.55 132.63&#xA;  L 61.04 138.72" stroke="#17557f"/>
<path d="M 61.04 138.72&#xA;  Q 67.83 146.88 77.68 151.31" stroke="#10657f"/>
<path d="M 77.68 151.31&#xA;  Q 93.01 158.60 106.91 149.60" stroke="#17557f"/>
<path d="M 106.91 149.60&#xA;  Q 127.12 137.90 147.27 126.09&#xA;  C 152.55 122.99 155.46 120.58 156.32 114.72&#xA;  Q 157.33 107.80 152.09 102.12" stroke="#10657f"/>
<path d="M 152.09 102.12&#xA;  Q 134.98 91.98 117.46 81.95&#xA;  Q 112.99 79.39 110.58 78.91&#xA;  C 104.23 77.64 97.34 81.30 95.01 87.28&#xA;  C 93.34 91.58 93.96 98.41 94.08 103.54" stroke="#0a6f7b"/>
<path d="M 94.08 103.54&#xA;  Q 93.94 115.68 94.08 128.00&#xA;  C 94.15 135.23 103.40 136.99 105.93 130.65&#xA;  Q 106.52 129.17 106.51 125.75&#xA;  Q 106.44 109.24 106.52 92.72&#xA;  A 1.50 1.50 0.0 0 1 108.77 91.43&#xA;  L 143.20 111.30&#xA;  A 1.30 1.28 -83.9 0 1 143.78 112.03&#xA;  Q 144.22 113.48 142.30 114.59&#xA;  Q 120.14 127.43 98.01 140.31&#xA;  Q 96.54 141.16 93.74 141.94" stroke="#02777b"/>
<path d="M 93.74 141.94&#xA;  Q 86.88 142.65 80.21 138.58" stroke="#0a6f7b"/>
<path d="M 80.21 138.58&#xA;  Q 71.64 133.66 66.70 125.17" stroke="#10657f"/>
<path d="M 66.70 125.17&#xA;  Q 63.65 119.43 62.55 113.30" stroke="#17557f"/>
<path d="M 62.55 113.30&#xA;  C 60.79 97.08 68.12 83.19 82.42 76.06&#xA;  Q 89.03 72.77 95.50 72.76&#xA;  Q 120.25 72.72 145.00 72.77&#xA;  Q 147.55 72.78 153.98 74.62" stroke="#1d4c7f"/>
<path d="M 153.98 74.62&#xA;  C 176.27 83.42 185.05 108.50 171.11 128.59" stroke="#3d4c7f"/>
<path d="M 171.11 128.59&#xA;  Q 167.75 133.23 162.68 136.95" stroke="#4a427b"/>
<path d="M 162.68 136.95&#xA;  C 156.62 140.87 149.64 142.53 142.89 146.07" stroke="#5c3471"/>
<path d="M 142.89 146.07&#xA;  Q 139.88 147.17 134.70 150.18&#xA;  Q 120.96 158.18 107.29 166.18&#xA;  Q 106.54 166.62 106.52 165.75&#xA;  C 106.47 162.31 106.45 159.34 103.08 157.57&#xA;  C 99.98 155.94 96.02 157.11 94.57 160.41&#xA;  C 93.62 162.60 93.88 167.64 94.11 169.70&#xA;  C 95.17 179.28 105.00 182.01 112.56 177.59&#xA;  Q 126.69 169.34 140.82 161.09&#xA;  C 148.35 156.69 156.30 153.76 164.59 150.30" stroke="#7e135d"/>
<path d="M 164.59 150.30&#xA;  Q 170.72 147.28 176.43 141.73" stroke="#5c3471"/>
<path d="M 176.43 141.73&#xA;  Q 181.01 136.98 184.10 131.60" stroke="#4a427b"/>
<path d="M 184.10 131.60&#xA;  C 199.78 103.30 184.41 68.57 152.50 61.33" stroke="#3d4c7f"/>
<path d="M 152.50 61.33&#xA;  Q 147.58 60.33 142.00 60.31&#xA;  Q 120.63 60.25 99.25 60.24&#xA;  C 60.85 60.22 37.20 99.17 56.55 132.63" stroke="#1d4c7f"/>
<path d="M 152.50 61.33&#xA;  Q 149.19 61.45 150.61 66.78&#xA;  Q 150.71 67.12 150.66 67.53&#xA;  Q 150.61 67.91 150.63 68.32&#xA;  Q 150.66 68.85 151.11 69.11&#xA;  Q 151.62 69.42 151.40 70.14&#xA;  Q 151.24 70.65 151.62 71.01&#xA;  Q 153.27 72.59 153.98 74.62" stroke="#5998fe"/>
<path d="M 62.55 113.30&#xA;  Q 61.12 116.96 61.13 120.83&#xA;  A 1.90 1.88 -30.7 0 1 60.89 121.75&#xA;  Q 57.98 126.98 56.55 132.63" stroke="#33a0fe"/>
<path d="M 184.10 131.60&#xA;  Q 181.63 132.23 180.03 130.76&#xA;  Q 179.69 130.44 179.23 130.42&#xA;  Q 176.37 130.26 174.27 128.30&#xA;  A 0.81 0.79 55.4 0 0 173.44 128.14&#xA;  Q 172.22 128.61 171.11 128.59" stroke="#868efa"/>
<path d="M 176.43 141.73&#xA;  Q 173.08 139.05 169.23 138.46&#xA;  Q 167.96 138.27 166.94 137.41&#xA;  A 1.31 1.28 66.0 0 0 166.16 137.10&#xA;  L 162.68 136.95" stroke="#a676eb"/>
<path d="M 106.91 149.60&#xA;  Q 106.43 148.86 105.06 149.34&#xA;  Q 104.00 149.72 102.90 149.92&#xA;  Q 102.88 149.92 102.88 149.90&#xA;  Q 102.88 149.89 102.87 149.89&#xA;  Q 102.87 149.87 102.90 149.88&#xA;  Q 103.37 149.89 103.66 149.59&#xA;  Q 103.75 149.50 103.62 149.50&#xA;  L 93.24 149.79&#xA;  Q 92.72 149.80 92.30 149.49&#xA;  Q 91.86 149.15 91.26 149.23&#xA;  C 87.84 149.63 85.17 150.83 81.49 150.16&#xA;  A 1.00 0.06 -16.7 0 0 80.62 150.37&#xA;  Q 80.29 150.46 80.12 150.75&#xA;  Q 79.86 151.19 79.40 150.98&#xA;  Q 78.47 150.57 77.68 151.31" stroke="#26b9fe"/>
<path d="M 61.04 138.72&#xA;  Q 62.31 136.89 62.69 134.51&#xA;  Q 62.77 134.01 63.11 133.64&#xA;  Q 66.70 129.70 66.70 125.17" stroke="#26b9fe"/>
<path d="M 164.59 150.30&#xA;  Q 155.90 143.40 142.89 146.07" stroke="#da47cd"/>
<path d="M 152.09 102.12&#xA;  L 151.88 102.94&#xA;  Q 151.84 103.10 151.73 102.99&#xA;  L 151.51 102.77&#xA;  A 0.34 0.33 -41.0 0 0 151.06 102.74&#xA;  Q 150.70 103.01 151.05 103.46&#xA;  Q 151.15 103.59 151.31 103.62&#xA;  Q 151.53 103.67 151.59 103.88&#xA;  C 152.14 105.73 153.37 106.92 153.41 108.79&#xA;  Q 153.46 111.32 152.51 113.63&#xA;  Q 151.80 115.35 149.52 117.33&#xA;  Q 146.51 119.93 143.79 122.87&#xA;  Q 143.44 123.25 143.28 123.74&#xA;  Q 143.05 124.49 142.31 124.74&#xA;  Q 141.88 124.88 141.54 125.18&#xA;  Q 136.73 129.43 131.07 132.40&#xA;  C 129.30 133.33 127.04 133.54 125.13 135.06&#xA;  Q 124.74 135.37 124.23 135.37&#xA;  L 121.95 135.37&#xA;  Q 121.47 135.37 121.11 135.69&#xA;  Q 118.29 138.22 114.74 139.51&#xA;  A 1.77 1.70 5.7 0 0 113.89 140.18&#xA;  Q 113.00 141.55 111.38 141.84&#xA;  A 1.03 1.01 -81.6 0 0 110.65 142.39&#xA;  C 109.79 144.16 107.76 144.83 106.01 145.39&#xA;  Q 105.20 145.64 104.89 145.35&#xA;  Q 104.73 145.19 104.54 145.29&#xA;  Q 104.32 145.41 104.09 145.68&#xA;  Q 103.38 146.53 103.79 145.49&#xA;  Q 103.88 145.26 104.04 144.98&#xA;  A 0.25 0.25 0.0 0 0 103.62 144.70&#xA;  L 103.35 145.08&#xA;  Q 103.03 145.53 102.49 145.40&#xA;  Q 101.57 145.19 101.49 146.09&#xA;  Q 101.44 146.68 100.86 146.57&#xA;  L 92.13 144.86&#xA;  Q 91.82 144.80 91.67 144.52&#xA;  Q 91.54 144.27 91.31 144.09&#xA;  Q 91.03 143.88 90.38 143.90&#xA;  C 87.39 144.00 83.45 143.08 81.46 140.65&#xA;  Q 80.29 139.21 80.21 138.58" stroke="#1ad3f9"/>
<path d="M 93.74 141.94&#xA;  L 94.04 142.50&#xA;  Q 94.27 142.93 94.70 142.73&#xA;  Q 95.52 142.34 96.14 142.87&#xA;  Q 96.48 143.17 96.93 143.23&#xA;  L 99.52 143.56&#xA;  Q 99.95 143.62 100.33 143.42&#xA;  Q 100.85 143.16 101.15 142.58&#xA;  Q 101.35 142.19 101.78 142.09&#xA;  L 104.29 141.56&#xA;  Q 104.46 141.52 104.35 141.65&#xA;  Q 104.20 141.83 103.88 141.73&#xA;  A 0.05 0.05 0.0 0 0 103.82 141.81&#xA;  Q 103.97 141.99 104.12 142.16&#xA;  Q 104.17 142.22 104.23 142.18&#xA;  L 107.82 140.11&#xA;  Q 108.22 139.88 108.46 139.49&#xA;  Q 110.07 136.90 112.77 136.61&#xA;  Q 114.54 136.42 115.13 135.28&#xA;  A 0.55 0.52 -82.8 0 1 115.46 135.01&#xA;  Q 118.65 134.12 119.87 132.99&#xA;  Q 121.13 131.82 122.40 132.22&#xA;  Q 122.85 132.37 123.23 132.09&#xA;  C 125.84 130.26 128.29 130.96 130.62 129.42&#xA;  Q 132.30 128.30 133.72 126.85&#xA;  Q 134.03 126.53 134.16 126.10&#xA;  Q 134.37 125.41 134.93 125.20&#xA;  Q 135.22 125.09 135.45 124.89&#xA;  C 136.96 123.63 137.81 122.15 139.41 121.00&#xA;  C 141.53 119.48 145.12 116.54 145.75 113.92&#xA;  Q 146.05 112.64 146.58 111.38&#xA;  Q 146.75 110.96 147.11 110.68&#xA;  Q 149.02 109.16 147.47 107.38&#xA;  Q 147.17 107.04 147.14 106.58&#xA;  L 147.05 105.22&#xA;  A 0.60 0.59 -1.0 0 0 146.47 104.67&#xA;  Q 145.98 104.66 146.09 104.32&#xA;  Q 146.20 103.92 145.90 103.62&#xA;  Q 144.42 102.17 142.63 101.10&#xA;  Q 142.33 100.92 142.21 100.59&#xA;  A 0.82 0.79 -87.3 0 0 141.83 100.16&#xA;  L 132.33 95.13&#xA;  A 0.35 0.33 -43.2 0 0 132.02 95.13&#xA;  Q 131.89 95.19 131.76 95.25&#xA;  Q 131.09 95.56 131.10 95.53&#xA;  Q 131.11 95.38 131.11 95.26&#xA;  Q 131.11 95.01 130.88 94.93&#xA;  Q 128.36 94.17 126.38 92.51&#xA;  Q 125.97 92.16 125.43 92.07&#xA;  Q 121.80 91.50 118.81 89.44&#xA;  Q 118.43 89.17 117.98 89.31&#xA;  Q 117.43 89.48 117.00 89.26&#xA;  Q 115.66 88.58 114.13 87.16&#xA;  Q 113.76 86.82 113.27 86.71&#xA;  Q 109.58 85.91 105.81 85.60&#xA;  Q 102.99 85.36 102.68 85.40&#xA;  C 100.29 85.71 100.06 88.10 98.55 89.52&#xA;  A 1.68 1.66 -14.8 0 0 98.10 90.28&#xA;  Q 97.84 91.30 97.30 91.42&#xA;  A 2.25 2.19 78.0 0 0 95.65 94.04&#xA;  Q 95.89 95.23 95.49 96.51&#xA;  A 0.11 0.11 0.0 0 1 95.30 96.55&#xA;  Q 95.20 96.44 95.08 96.34&#xA;  Q 94.87 96.18 94.84 96.44&#xA;  L 94.08 103.54" stroke="#0ce6f5"/>
</g>
<path d="M 0.00 0.00&#xA;  L 240.00 0.00&#xA;  L 240.00 240.00&#xA;  L 0.00 240.00&#xA;  L 0.00 0.00&#xA;  Z&#xA;  M 56.55 132.63&#xA;  L 61.04 138.72&#xA;  Q 67.83 146.88 77.68 151.31&#xA;  Q 93.01 158.60 106.91 149.60&#xA;  Q 127.12 137.90 147.27 126.09&#xA;  C 152.55 122.99 155.46 120.58 156.32 114.72&#xA;  Q 157.33 107.80 152.09 102.12&#xA;  Q 134.98 91.98 117.46 81.95&#xA;  Q 112.99 79.39 110.58 78.91&#xA;  C 104.23 77.64 97.34 81.30 95.01 87.28&#xA;  C 93.34 91.58 93.96 98.41 94.08 103.54&#xA;  Q 93.94 115.68 94.08 128.00&#xA;  C 94.15 135.23 103.40 136.99 105.93 130.65&#xA;  Q 106.52 129.17 106.51 125.75&#xA;  Q 106.44 109.24 106.52 92.72&#xA;  A 1.50 1.50 0.0 0 1 108.77 91.43&#xA;  L 143.20 111.30&#xA;  A 1.30 1.28 -83.9 0 1 143.78 112.03&#xA;  Q 144.22 113.48 142.30 114.59&#xA;  Q 120.14 127.43 98.01 140.31&#xA;  Q 96.54 141.16 93.74 141.94&#xA;  Q 86.88 142.65 80.21 138.58&#xA;  Q 71.64 133.66 66.70 125.17&#xA;  Q 63.65 119.43 62.55 113.30&#xA;  C 60.79 97.08 68.12 83.19 82.42 76.06&#xA;  Q 89.03 72.77 95.50 72.76&#xA;  Q 120.25 72.72 145.00 72.77&#xA;  Q 147.55 72.78 153.98 74.62&#xA;  C 176.27 83.42 185.05 108.50 171.11 128.59&#xA;  Q 167.75 133.23 162.68 136.95&#xA;  C 156.62 140.87 149.64 142.53 142.89 146.07&#xA;  Q 139.88 147.17 134.70 150.18&#xA;  Q 120.96 158.18 107.29 166.18&#xA;  Q 106.54 166.62 106.52 165.75&#xA;  C 106.47 162.31 106.45 159.34 103.08 157.57&#xA;  C 99.98 155.94 96.02 157.11 94.57 160.41&#xA;  C 93.62 162.60 93.88 167.64 94.11 169.70&#xA;  C 95.17 179.28 105.00 182.01 112.56 177.59&#xA;  Q 126.69 169.34 140.82 161.09&#xA;  C 148.35 156.69 156.30 153.76 164.59 150.30&#xA;  Q 170.72 147.28 176.43 141.73&#xA;  Q 181.01 136.98 184.10 131.60&#xA;  C 199.78 103.30 184.41 68.57 152.50 61.33&#xA;  Q 147.58 60.33 142.00 60.31&#xA;  Q 120.63 60.25 99.25 60.24&#xA;  C 60.85 60.22 37.20 99.17 56.55 132.63&#xA;  Z" fill="#000000"/>
<path d="M 152.50 61.33&#xA;  Q 149.19 61.45 150.61 66.78&#xA;  Q 150.71 67.12 150.66 67.53&#xA;  Q 150.61 67.91 150.63 68.32&#xA;  Q 150.66 68.85 151.11 69.11&#xA;  Q 151.62 69.42 151.40 70.14&#xA;  Q 151.24 70.65 151.62 71.01&#xA;  Q 153.27 72.59 153.98 74.62&#xA;  Q 147.55 72.78 145.00 72.77&#xA;  Q 120.25 72.72 95.50 72.76&#xA;  Q 89.03 72.77 82.42 76.06&#xA;  C 68.12 83.19 60.79 97.08 62.55 113.30&#xA;  Q 61.12 116.96 61.13 120.83&#xA;  A 1.90 1.88 -30.7 0 1 60.89 121.75&#xA;  Q 57.98 126.98 56.55 132.63&#xA;  C 37.20 99.17 60.85 60.22 99.25 60.24&#xA;  Q 120.63 60.25 142.00 60.31&#xA;  Q 147.58 60.33 152.50 61.33&#xA;  Z" fill="#3997fe"/>
<path d="M 152.50 61.33&#xA;  C 184.41 68.57 199.78 103.30 184.10 131.60&#xA;  Q 181.63 132.23 180.03 130.76&#xA;  Q 179.69 130.44 179.23 130.42&#xA;  Q 176.37 130.26 174.27 128.30&#xA;  A 0.81 0.79 55.4 0 0 173.44 128.14&#xA;  Q 172.22 128.61 171.11 128.59&#xA;  C 185.05 108.50 176.27 83.42 153.98 74.62&#xA;  Q 153.27 72.59 151.62 71.01&#xA;  Q 151.24 70.65 151.40 70.14&#xA;  Q 151.62 69.42 151.11 69.11&#xA;  Q 150.66 68.85 150.63 68.32&#xA;  Q 150.61 67.91 150.66 67.53&#xA;  Q 150.71 67.12 150.61 66.78&#xA;  Q 149.19 61.45 152.50 61.33&#xA;  Z" fill="#7998fe"/>
<path d="M 152.09 102.12&#xA;  L 151.88 102.94&#xA;  Q 151.84 103.10 151.73 102.99&#xA;  L 151.51 102.77&#xA;  A 0.34 0.33 -41.0 0 0 151.06 102.74&#xA;  Q 150.70 103.01 151.05 103.46&#xA;  Q 151.15 103.59 151.31 103.62&#xA;  Q 151.53 103.67 151.59 103.88&#xA;  C 152.14 105.73 153.37 106.92 153.41 108.79&#xA;  Q 153.46 111.32 152.51 113.63&#xA;  Q 151.80 115.35 149.52 117.33&#xA;  Q 146.51 119.93 143.79 122.87&#xA;  Q 143.44 123.25 143.28 123.74&#xA;  Q 143.05 124.49 142.31 124.74&#xA;  Q 141.88 124.88 141.54 125.18&#xA;  Q 136.73 129.43 131.07 132.40&#xA;  C 129.30 133.33 127.04 133.54 125.13 135.06&#xA;  Q 124.74 135.37 124.23 135.37&#xA;  L 121.95 135.37&#xA;  Q 121.47 135.37 121.11 135.69&#xA;  Q 118.29 138.22 114.74 139.51&#xA;  A 1.77 1.70 5.7 0 0 113.89 140.18&#xA;  Q 113.00 141.55 111.38 141.84&#xA;  A 1.03 1.01 -81.6 0 0 110.65 142.39&#xA;  C 109.79 144.16 107.76 144.83 106.01 145.39&#xA;  Q 105.20 145.64 104.89 145.35&#xA;  Q 104.73 145.19 104.54 145.29&#xA;  Q 104.32 145.41 104.09 145.68&#xA;  Q 103.38 146.53 103.79 145.49&#xA;  Q 103.88 145.26 104.04 144.98&#xA;  A 0.25 0.25 0.0 0 0 103.62 144.70&#xA;  L 103.35 145.08&#xA;  Q 103.03 145.53 102.49 145.40&#xA;  Q 101.57 145.19 101.49 146.09&#xA;  Q 101.44 146.68 100.86 146.57&#xA;  L 92.13 144.86&#xA;  Q 91.82 144.80 91.67 144.52&#xA;  Q 91.54 144.27 91.31 144.09&#xA;  Q 91.03 143.88 90.38 143.90&#xA;  C 87.39 144.00 83.45 143.08 81.46 140.65&#xA;  Q 80.29 139.21 80.21 138.58&#xA;  Q 86.88 142.65 93.74 141.94&#xA;  L 94.04 142.50&#xA;  Q 94.27 142.93 94.70 142.73&#xA;  Q 95.52 142.34 96.14 142.87&#xA;  Q 96.48 143.17 96.93 143.23&#xA;  L 99.52 143.56&#xA;  Q 99.95 143.62 100.33 143.42&#xA;  Q 100.85 143.16 101.15 142.58&#xA;  Q 101.35 142.19 101.78 142.09&#xA;  L 104.29 141.56&#xA;  Q 104.46 141.52 104.35 141.65&#xA;  Q 104.20 141.83 103.88 141.73&#xA;  A 0.05 0.05 0.0 0 0 103.82 141.81&#xA;  Q 103.97 141.99 104.12 142.16&#xA;  Q 104.17 142.22 104.23 142.18&#xA;  L 107.82 140.11&#xA;  Q 108.22 139.88 108.46 139.49&#xA;  Q 110.07 136.90 112.77 136.61&#xA;  Q 114.54 136.42 115.13 135.28&#xA;  A 0.55 0.52 -82.8 0 1 115.46 135.01&#xA;  Q 118.65 134.12 119.87 132.99&#xA;  Q 121.13 131.82 122.40 132.22&#xA;  Q 122.85 132.37 123.23 132.09&#xA;  C 125.84 130.26 128.29 130.96 130.62 129.42&#xA;  Q 132.30 128.30 133.72 126.85&#xA;  Q 134.03 126.53 134.16 126.10&#xA;  Q 134.37 125.41 134.93 125.20&#xA;  Q 135.22 125.09 135.45 124.89&#xA;  C 136.96 123.63 137.81 122.15 139.41 121.00&#xA;  C 141.53 119.48 145.12 116.54 145.75 113.92&#xA;  Q 146.05 112.64 146.58 111.38&#xA;  Q 146.75 110.96 147.11 110.68&#xA;  Q 149.02 109.16 147.47 107.38&#xA;  Q 147.17 107.04 147.14 106.58&#xA;  L 147.05 105.22&#xA;  A 0.60 0.59 -1.0 0 0 146.47 104.67&#xA;  Q 145.98 104.66 146.09 104.32&#xA;  Q 146.20 103.92 145.90 103.62&#xA;  Q 144.42 102.17 142.63 101.10&#xA;  Q 142.33 100.92 142.21 100.59&#xA;  A 0.82 0.79 -87.3 0 0 141.83 100.16&#xA;  L 132.33 95.13&#xA;  A 0.35 0.33 -43.2 0 0 132.02 95.13&#xA;  Q 131.89 95.19 131.76 95.25&#xA;  Q 131.09 95.56 131.10 95.53&#xA;  Q 131.11 95.38 131.11 95.26&#xA;  Q 131.11 95.01 130.88 94.93&#xA;  Q 128.36 94.17 126.38 92.51&#xA;  Q 125.97 92.16 125.43 92.07&#xA;  Q 121.80 91.50 118.81 89.44&#xA;  Q 118.43 89.17 117.98 89.31&#xA;  Q 117.43 89.48 117.00 89.26&#xA;  Q 115.66 88.58 114.13 87.16&#xA;  Q 113.76 86.82 113.27 86.71&#xA;  Q 109.58 85.91 105.81 85.60&#xA;  Q 102.99 85.36 102.68 85.40&#xA;  C 100.29 85.71 100.06 88.10 98.55 89.52&#xA;  A 1.68 1.66 -14.8 0 0 98.10 90.28&#xA;  Q 97.84 91.30 97.30 91.42&#xA;  A 2.25 2.19 78.0 0 0 95.65 94.04&#xA;  Q 95.89 95.23 95.49 96.51&#xA;  A 0.11 0.11 0.0 0 1 95.30 96.55&#xA;  Q 95.20 96.44 95.08 96.34&#xA;  Q 94.87 96.18 94.84 96.44&#xA;  L 94.08 103.54&#xA;  C 93.96 98.41 93.34 91.58 95.01 87.28&#xA;  C 97.34 81.30 104.23 77.64 110.58 78.91&#xA;  Q 112.99 79.39 117.46 81.95&#xA;  Q 134.98 91.98 152.09 102.12&#xA;  Z" fill="#14ddf5"/>
<path d="M 93.74 141.94&#xA;  Q 96.54 141.16 98.01 140.31&#xA;  Q 120.14 127.43 142.30 114.59&#xA;  Q 144.22 113.48 143.78 112.03&#xA;  A 1.30 1.28 -83.9 0 0 143.20 111.30&#xA;  L 108.77 91.43&#xA;  A 1.50 1.50 0.0 0 0 106.52 92.72&#xA;  Q 106.44 109.24 106.51 125.75&#xA;  Q 106.52 129.17 105.93 130.65&#xA;  C 103.40 136.99 94.15 135.23 94.08 128.00&#xA;  Q 93.94 115.68 94.08 103.54&#xA;  L 94.84 96.44&#xA;  Q 94.87 96.18 95.08 96.34&#xA;  Q 95.20 96.44 95.30 96.55&#xA;  A 0.11 0.11 0.0 0 0 95.49 96.51&#xA;  Q 95.89 95.23 95.65 94.04&#xA;  A 2.25 2.19 78.0 0 1 97.30 91.42&#xA;  Q 97.84 91.30 98.10 90.28&#xA;  A 1.68 1.66 -14.8 0 1 98.55 89.52&#xA;  C 100.06 88.10 100.29 85.71 102.68 85.40&#xA;  Q 102.99 85.36 105.81 85.60&#xA;  Q 109.58 85.91 113.27 86.71&#xA;  Q 113.76 86.82 114.13 87.16&#xA;  Q 115.66 88.58 117.00 89.26&#xA;  Q 117.43 89.48 117.98 89.31&#xA;  Q 118.43 89.17 118.81 89.44&#xA;  Q 121.80 91.50 125.43 92.07&#xA;  Q 125.97 92.16 126.38 92.51&#xA;  Q 128.36 94.17 130.88 94.93&#xA;  Q 131.11 95.01 131.11 95.26&#xA;  Q 131.11 95.38 131.10 95.53&#xA;  Q 131.09 95.56 131.76 95.25&#xA;  Q 131.89 95.19 132.02 95.13&#xA;  A 0.35 0.33 -43.2 0 1 132.33 95.13&#xA;  L 141.83 100.16&#xA;  A 0.82 0.79 -87.3 0 1 142.21 100.59&#xA;  Q 142.33 100.92 142.63 101.10&#xA;  Q 144.42 102.17 145.90 103.62&#xA;  Q 146.20 103.92 146.09 104.32&#xA;  Q 145.98 104.66 146.47 104.67&#xA;  A 0.60 0.59 -1.0 0 1 147.05 105.22&#xA;  L 147.14 106.58&#xA;  Q 147.17 107.04 147.47 107.38&#xA;  Q 149.02 109.16 147.11 110.68&#xA;  Q 146.75 110.96 146.58 111.38&#xA;  Q 146.05 112.64 145.75 113.92&#xA;  C 145.12 116.54 141.53 119.48 139.41 121.00&#xA;  C 137.81 122.15 136.96 123.63 135.45 124.89&#xA;  Q 135.22 125.09 134.93 125.20&#xA;  Q 134.37 125.41 134.16 126.10&#xA;  Q 134.03 126.53 133.72 126.85&#xA;  Q 132.30 128.30 130.62 129.42&#xA;  C 128.29 130.96 125.84 130.26 123.23 132.09&#xA;  Q 122.85 132.37 122.40 132.22&#xA;  Q 121.13 131.82 119.87 132.99&#xA;  Q 118.65 134.12 115.46 135.01&#xA;  A 0.55 0.52 -82.8 0 0 115.13 135.28&#xA;  Q 114.54 136.42 112.77 136.61&#xA;  Q 110.07 136.90 108.46 139.49&#xA;  Q 108.22 139.88 107.82 140.11&#xA;  L 104.23 142.18&#xA;  Q 104.17 142.22 104.12 142.16&#xA;  Q 103.97 141.99 103.82 141.81&#xA;  A 0.05 0.05 0.0 0 1 103.88 141.73&#xA;  Q 104.20 141.83 104.35 141.65&#xA;  Q 104.46 141.52 104.29 141.56&#xA;  L 101.78 142.09&#xA;  Q 101.35 142.19 101.15 142.58&#xA;  Q 100.85 143.16 100.33 143.42&#xA;  Q 99.95 143.62 99.52 143.56&#xA;  L 96.93 143.23&#xA;  Q 96.48 143.17 96.14 142.87&#xA;  Q 95.52 142.34 94.70 142.73&#xA;  Q 94.27 142.93 94.04 142.50&#xA;  L 93.74 141.94&#xA;  Z" fill="#04eef5"/>
<path d="M 152.09 102.12&#xA;  Q 157.33 107.80 156.32 114.72&#xA;  C 155.46 120.58 152.55 122.99 147.27 126.09&#xA;  Q 127.12 137.90 106.91 149.60&#xA;  Q 106.43 148.86 105.06 149.34&#xA;  Q 104.00 149.72 102.90 149.92&#xA;  Q 102.88 149.92 102.88 149.90&#xA;  Q 102.88 149.89 102.87 149.89&#xA;  Q 102.87 149.87 102.90 149.88&#xA;  Q 103.37 149.89 103.66 149.59&#xA;  Q 103.75 149.50 103.62 149.50&#xA;  L 93.24 149.79&#xA;  Q 92.72 149.80 92.30 149.49&#xA;  Q 91.86 149.15 91.26 149.23&#xA;  C 87.84 149.63 85.17 150.83 81.49 150.16&#xA;  A 1.00 0.06 -16.7 0 0 80.62 150.37&#xA;  Q 80.29 150.46 80.12 150.75&#xA;  Q 79.86 151.19 79.40 150.98&#xA;  Q 78.47 150.57 77.68 151.31&#xA;  Q 67.83 146.88 61.04 138.72&#xA;  Q 62.31 136.89 62.69 134.51&#xA;  Q 62.77 134.01 63.11 133.64&#xA;  Q 66.70 129.70 66.70 125.17&#xA;  Q 71.64 133.66 80.21 138.58&#xA;  Q 80.29 139.21 81.46 140.65&#xA;  C 83.45 143.08 87.39 144.00 90.38 143.90&#xA;  Q 91.03 143.88 91.31 144.09&#xA;  Q 91.54 144.27 91.67 144.52&#xA;  Q 91.82 144.80 92.13 144.86&#xA;  L 100.86 146.57&#xA;  Q 101.44 146.68 101.49 146.09&#xA;  Q 101.57 145.19 102.49 145.40&#xA;  Q 103.03 145.53 103.35 145.08&#xA;  L 103.62 144.70&#xA;  A 0.25 0.25 0.0 0 1 104.04 144.98&#xA;  Q 103.88 145.26 103.79 145.49&#xA;  Q 103.38 146.53 104.09 145.68&#xA;  Q 104.32 145.41 104.54 145.29&#xA;  Q 104.73 145.19 104.89 145.35&#xA;  Q 105.20 145.64 106.01 145.39&#xA;  C 107.76 144.83 109.79 144.16 110.65 142.39&#xA;  A 1.03 1.01 -81.6 0 1 111.38 141.84&#xA;  Q 113.00 141.55 113.89 140.18&#xA;  A 1.77 1.70 5.7 0 1 114.74 139.51&#xA;  Q 118.29 138.22 121.11 135.69&#xA;  Q 121.47 135.37 121.95 135.37&#xA;  L 124.23 135.37&#xA;  Q 124.74 135.37 125.13 135.06&#xA;  C 127.04 133.54 129.30 133.33 131.07 132.40&#xA;  Q 136.73 129.43 141.54 125.18&#xA;  Q 141.88 124.88 142.31 124.74&#xA;  Q 143.05 124.49 143.28 123.74&#xA;  Q 143.44 123.25 143.79 122.87&#xA;  Q 146.51 119.93 149.52 117.33&#xA;  Q 151.80 115.35 152.51 113.63&#xA;  Q 153.46 111.32 153.41 108.79&#xA;  C 153.37 106.92 152.14 105.73 151.59 103.88&#xA;  Q 151.53 103.67 151.31 103.62&#xA;  Q 151.15 103.59 151.05 103.46&#xA;  Q 150.70 103.01 151.06 102.74&#xA;  A 0.34 0.33 -41.0 0 1 151.51 102.77&#xA;  L 151.73 102.99&#xA;  Q 151.84 103.10 151.88 102.94&#xA;  L 152.09 102.12&#xA;  Z" fill="#1fc9fd"/>
<path d="M 62.55 113.30&#xA;  Q 63.65 119.43 66.70 125.17&#xA;  Q 66.70 129.70 63.11 133.64&#xA;  Q 62.77 134.01 62.69 134.51&#xA;  Q 62.31 136.89 61.04 138.72&#xA;  L 56.55 132.63&#xA;  Q 57.98 126.98 60.89 121.75&#xA;  A 1.90 1.88 -30.7 0 0 61.13 120.83&#xA;  Q 61.12 116.96 62.55 113.30&#xA;  Z" fill="#2da9fe"/>
<path d="M 184.10 131.60&#xA;  Q 181.01 136.98 176.43 141.73&#xA;  Q 173.08 139.05 169.23 138.46&#xA;  Q 167.96 138.27 166.94 137.41&#xA;  A 1.31 1.28 66.0 0 0 166.16 137.10&#xA;  L 162.68 136.95&#xA;  Q 167.75 133.23 171.11 128.59&#xA;  Q 172.22 128.61 173.44 128.14&#xA;  A 0.81 0.79 55.4 0 1 174.27 128.30&#xA;  Q 176.37 130.26 179.23 130.42&#xA;  Q 179.69 130.44 180.03 130.76&#xA;  Q 181.63 132.23 184.10 131.60&#xA;  Z" fill="#9384f5"/>
<path d="M 176.43 141.73&#xA;  Q 170.72 147.28 164.59 150.30&#xA;  Q 155.90 143.40 142.89 146.07&#xA;  C 149.64 142.53 156.62 140.87 162.68 136.95&#xA;  L 166.16 137.10&#xA;  A 1.31 1.28 66.0 0 1 166.94 137.41&#xA;  Q 167.96 138.27 169.23 138.46&#xA;  Q 173.08 139.05 176.43 141.73&#xA;  Z" fill="#b868e1"/>
<path d="M 164.59 150.30&#xA;  C 156.30 153.76 148.35 156.69 140.82 161.09&#xA;  Q 126.69 169.34 112.56 177.59&#xA;  C 105.00 182.01 95.17 179.28 94.11 169.70&#xA;  C 93.88 167.64 93.62 162.60 94.57 160.41&#xA;  C 96.02 157.11 99.98 155.94 103.08 157.57&#xA;  C 106.45 159.34 106.47 162.31 106.52 165.75&#xA;  Q 106.54 166.62 107.29 166.18&#xA;  Q 120.96 158.18 134.70 150.18&#xA;  Q 139.88 147.17 142.89 146.07&#xA;  Q 155.90 143.40 164.59 150.30&#xA;  Z" fill="#fb25b9"/>
<path d="M 106.91 149.60&#xA;  Q 93.01 158.60 77.68 151.31&#xA;  Q 78.47 150.57 79.40 150.98&#xA;  Q 79.86 151.19 80.12 150.75&#xA;  Q 80.29 150.46 80.62 150.37&#xA;  A 1.00 0.06 -16.7 0 1 81.49 150.16&#xA;  C 85.17 150.83 87.84 149.63 91.26 149.23&#xA;  Q 91.86 149.15 92.30 149.49&#xA;  Q 92.72 149.80 93.24 149.79&#xA;  L 103.62 149.50&#xA;  Q 103.75 149.50 103.66 149.59&#xA;  Q 103.37 149.89 102.90 149.88&#xA;  Q 102.87 149.87 102.87 149.89&#xA;  Q 102.88 149.89 102.88 149.90&#xA;  Q 102.88 149.92 102.90 149.92&#xA;  Q 104.00 149.72 105.06 149.34&#xA;  Q 106.43 148.86 106.91 149.60&#xA;  Z" fill="#2da9fe"/>
</svg>