<?xml version="1.0" encoding="utf-8"?>
<svg xmlns="http://www.w3.org/2000/svg" version="1.1" viewBox="0.00 0.00 128.00 128.00">
<g fill="none" stroke-linecap="butt" stroke-width="2.00">
<path d="M 45.17 36.92&#xA;  Q 45.58 37.06 46.47 37.74&#xA;  C 51.66 41.71 59.67 39.36 65.02 36.77&#xA;  C 77.26 30.81 91.12 24.56 104.64 31.50&#xA;  Q 110.58 34.55 114.57 39.89&#xA;  Q 115.79 41.51 115.16 39.59&#xA;  Q 114.87 38.68 114.00 37.04&#xA;  Q 102.72 15.78 81.00 8.99&#xA;  C 58.66 2.01 34.03 9.84 20.09 28.67&#xA;  Q 7.75 45.35 9.31 67.50&#xA;  Q 9.40 68.74 9.62 69.09&#xA;  Q 10.33 70.23 10.53 69.02&#xA;  C 12.18 58.94 23.79 51.87 32.87 50.55&#xA;  C 55.69 47.25 71.77 70.51 94.13 66.64&#xA;  Q 101.60 65.34 105.50 61.03&#xA;  C 109.98 56.08 110.35 48.62 106.36 43.15&#xA;  C 102.83 38.31 97.00 35.66 91.18 34.70&#xA;  C 81.76 33.13 72.52 37.07 64.09 39.97&#xA;  C 56.19 42.68 50.53 43.77 44.61 37.84&#xA;  Q 43.01 36.23 45.17 36.92" stroke="#c3c7ff"/>
<path d="M 118.99 64.47&#xA;  C 112.63 78.36 96.02 83.10 82.04 79.65&#xA;  C 70.55 76.81 60.42 70.13 50.13 64.44&#xA;  Q 43.86 60.98 38.01 59.56&#xA;  C 20.61 55.32 5.50 72.03 16.99 88.20&#xA;  Q 18.48 90.30 19.50 92.58&#xA;  Q 21.64 97.39 25.72 101.25&#xA;  Q 44.51 119.03 70.36 116.52&#xA;  C 98.02 113.83 117.48 91.85 119.87 64.69&#xA;  A 0.44 0.44 0.0 0 0 119.46 64.21&#xA;  Q 119.12 64.18 118.99 64.47" stroke="#c3c7ff"/>
</g>
<path d="M 0.00 0.00&#xA;  L 128.00 0.00&#xA;  L 128.00 128.00&#xA;  L 0.00 128.00&#xA;  L 0.00 0.00&#xA;  Z&#xA;  M 45.17 36.92&#xA;  Q 45.58 37.06 46.47 37.74&#xA;  C 51.66 41.71 59.67 39.36 65.02 36.77&#xA;  C 77.26 30.81 91.12 24.56 104.64 31.50&#xA;  Q 110.58 34.55 114.57 39.89&#xA;  Q 115.79 41.51 115.16 39.59&#xA;  Q 114.87 38.68 114.00 37.04&#xA;  Q 102.72 15.78 81.00 8.99&#xA;  C 58.66 2.01 34.03 9.84 20.09 28.67&#xA;  Q 7.75 45.35 9.31 67.50&#xA;  Q 9.40 68.74 9.62 69.09&#xA;  Q 10.33 70.23 10.53 69.02&#xA;  C 12.18 58.94 23.79 51.87 32.87 50.55&#xA;  C 55.69 47.25 71.77 70.51 94.13 66.64&#xA;  Q 101.60 65.34 105.50 61.03&#xA;  C 109.98 56.08 110.35 48.62 106.36 43.15&#xA;  C 102.83 38.31 97.00 35.66 91.18 34.70&#xA;  C 81.76 33.13 72.52 37.07 64.09 39.97&#xA;  C 56.19 42.68 50.53 43.77 44.61 37.84&#xA;  Q 43.01 36.23 45.17 36.92&#xA;  Z&#xA;  M 118.99 64.47&#xA;  C 112.63 78.36 96.02 83.10 82.04 79.65&#xA;  C 70.55 76.81 60.42 70.13 50.13 64.44&#xA;  Q 43.86 60.98 38.01 59.56&#xA;  C 20.61 55.32 5.50 72.03 16.99 88.20&#xA;  Q 18.48 90.30 19.50 92.58&#xA;  Q 21.64 97.39 25.72 101.25&#xA;  Q 44.51 119.03 70.36 116.52&#xA;  C 98.02 113.83 117.48 91.85 119.87 64.69&#xA;  A 0.44 0.44 0.0 0 0 119.46 64.21&#xA;  Q 119.12 64.18 118.99 64.47&#xA;  Z" fill="#ffffff"/>
<path d="M 45.17 36.92&#xA;  Q 43.01 36.23 44.61 37.84&#xA;  C 50.53 43.77 56.19 42.68 64.09 39.97&#xA;  C 72.52 37.07 81.76 33.13 91.18 34.70&#xA;  C 97.00 35.66 102.83 38.31 106.36 43.15&#xA;  C 110.35 48.62 109.98 56.08 105.50 61.03&#xA;  Q 101.60 65.34 94.13 66.64&#xA;  C 71.77 70.51 55.69 47.25 32.87 50.55&#xA;  C 23.79 51.87 12.18 58.94 10.53 69.02&#xA;  Q 10.33 70.23 9.62 69.09&#xA;  Q 9.40 68.74 9.31 67.50&#xA;  Q 7.75 45.35 20.09 28.67&#xA;  C 34.03 9.84 58.66 2.01 81.00 8.99&#xA;  Q 102.72 15.78 114.00 37.04&#xA;  Q 114.87 38.68 115.16 39.59&#xA;  Q 115.79 41.51 114.57 39.89&#xA;  Q 110.58 34.55 104.64 31.50&#xA;  C 91.12 24.56 77.26 30.81 65.02 36.77&#xA;  C 59.67 39.36 51.66 41.71 46.47 37.74&#xA;  Q 45.58 37.06 45.17 36.92&#xA;  Z" fill="#868fff"/>
<path d="M 82.04 79.65&#xA;  C 96.02 83.10 112.63 78.36 118.99 64.47&#xA;  Q 119.12 64.18 119.46 64.21&#xA;  A 0.44 0.44 0.0 0 1 119.87 64.69&#xA;  C 117.48 91.85 98.02 113.83 70.36 116.52&#xA;  Q 44.51 119.03 25.72 101.25&#xA;  Q 21.64 97.39 19.50 92.58&#xA;  Q 18.48 90.30 16.99 88.20&#xA;  C 5.50 72.03 20.61 55.32 38.01 59.56&#xA;  Q 43.86 60.98 50.13 64.44&#xA;  C 60.42 70.13 70.55 76.81 82.04 79.65&#xA;  Z" fill="#868fff"/>
</svg>