<?xml version="1.0" encoding="utf-8"?>
<svg xmlns="http://www.w3.org/2000/svg" version="1.1" viewBox="0.00 0.00 198.00 198.00">
<g fill="none" stroke-linecap="butt" stroke-width="2.00">
<path d="M 169.77 71.82&#xA;  L 141.34 99.79" stroke="#bbfc59"/>
<path d="M 98.99 57.48&#xA;  L 70.72 29.32" stroke="#ffa369"/>
<path d="M 127.21 170.78&#xA;  L 99.02 142.56" stroke="#69caaa"/>
<path d="M 56.47 100.02&#xA;  L 28.26 128.25" stroke="#ae71ba"/>
</g>
<path d="M 169.77 71.82&#xA;  L 141.34 99.79&#xA;  L 98.99 57.48&#xA;  L 70.72 29.32&#xA;  Q 76.63 23.40 82.96 17.13&#xA;  Q 87.53 12.59 90.98 11.06&#xA;  Q 99.11 7.43 107.17 11.11&#xA;  Q 110.71 12.73 115.71 17.74&#xA;  Q 142.91 44.98 169.77 71.82&#xA;  Z" fill="#fff85e"/>
<path d="M 70.72 29.32&#xA;  L 98.99 57.48&#xA;  L 56.47 100.02&#xA;  L 28.26 128.25&#xA;  Q 21.92 121.95 15.78 115.76&#xA;  C 6.36 106.30 5.29 94.73 15.28 84.74&#xA;  Q 42.68 57.35 70.72 29.32&#xA;  Z" fill="#ff4e74"/>
<path d="M 169.77 71.82&#xA;  Q 175.78 77.77 181.52 83.52&#xA;  Q 186.25 88.27 187.86 91.82&#xA;  Q 191.61 100.07 187.90 108.10&#xA;  Q 186.17 111.86 180.24 117.79&#xA;  Q 153.60 144.39 127.21 170.78&#xA;  L 99.02 142.56&#xA;  L 141.34 99.79&#xA;  L 169.77 71.82&#xA;  Z" fill="#76ff54"/>
<path d="M 56.47 100.02&#xA;  L 99.02 142.56&#xA;  L 127.21 170.78&#xA;  Q 120.84 177.21 114.56 183.40&#xA;  C 105.14 192.71 93.62 193.58 83.77 183.73&#xA;  Q 55.89 155.87 28.26 128.25&#xA;  L 56.47 100.02&#xA;  Z" fill="#5c94ff"/>
</svg>