<?xml version="1.0" encoding="utf-8"?>
<svg xmlns="http://www.w3.org/2000/svg" version="1.1" viewBox="0.00 0.00 64.00 64.00">
<g fill="none" stroke-linecap="butt" stroke-width="2.00">
<path d="M 54.74 53.06&#xA;  Q 54.40 52.22 54.75 51.44&#xA;  Q 54.98 50.91 55.38 51.33&#xA;  C 56.77 52.81 58.93 55.92 60.82 56.53&#xA;  A 0.89 0.89 0.0 0 0 61.92 55.34&#xA;  L 54.68 37.87&#xA;  A 0.53 0.47 46.4 0 1 54.67 37.52&#xA;  Q 55.09 36.46 55.72 35.51&#xA;  Q 60.45 28.38 56.14 21.96&#xA;  Q 55.15 20.48 55.23 22.27&#xA;  Q 55.41 26.11 53.53 29.65" stroke="#8d92b8"/>
<path d="M 53.53 29.65&#xA;  C 48.31 36.31 38.47 36.03 32.87 30.42&#xA;  Q 32.51 30.06 32.09 30.37&#xA;  Q 31.13 31.09 30.63 32.25" stroke="#687eb6"/>
<path d="M 30.63 32.25&#xA;  L 23.31 38.52&#xA;  Q 22.90 38.88 23.20 39.34&#xA;  C 24.01 40.61 25.14 41.77 25.77 42.96&#xA;  Q 28.35 47.87 30.41 53.04&#xA;  Q 30.74 53.85 31.29 54.16&#xA;  A 0.60 0.59 -76.5 0 0 32.17 53.62&#xA;  L 32.10 50.01&#xA;  Q 32.10 49.64 32.47 49.63&#xA;  Q 32.61 49.62 32.78 49.60&#xA;  Q 33.17 49.55 33.27 49.94&#xA;  Q 34.25 53.78 36.66 56.92&#xA;  A 0.78 0.78 0.0 0 0 38.05 56.51&#xA;  L 38.73 47.72&#xA;  A 0.84 0.84 0.0 0 1 39.29 46.99&#xA;  C 41.28 46.31 45.82 45.63 47.23 47.51&#xA;  Q 49.64 50.72 52.62 54.22" stroke="#8d92b8"/>
<path d="M 30.63 32.25&#xA;  Q 31.61 33.16 32.58 34.02&#xA;  C 37.84 38.63 53.00 39.35 53.53 29.65" stroke="#daebfe"/>
<path d="M 18.31 15.58&#xA;  A 0.83 0.83 0.0 0 0 19.28 16.59&#xA;  L 22.04 16.06&#xA;  A 0.83 0.83 0.0 0 0 22.63 14.88&#xA;  L 20.88 11.23&#xA;  A 0.83 0.83 0.0 0 0 19.32 11.39&#xA;  L 18.31 15.58" stroke="#8d92b8"/>
<path d="M 29.20 29.42&#xA;  Q 30.90 28.14 30.44 27.25&#xA;  Q 27.54 21.75 27.30 15.55" stroke="#687eb6"/>
<path d="M 27.30 15.55&#xA;  L 27.42 11.70&#xA;  Q 27.49 9.65 26.31 11.33&#xA;  L 22.70 16.50&#xA;  A 2.78 2.78 0.0 0 1 19.47 17.53&#xA;  C 14.34 15.68 10.18 23.49 3.91 21.19&#xA;  A 0.67 0.67 0.0 0 0 3.02 21.91&#xA;  C 3.80 27.74 4.65 31.08 11.50 31.34&#xA;  Q 16.87 31.54 18.40 27.65&#xA;  Q 19.48 24.92 19.15 27.83&#xA;  C 18.72 31.59 14.23 33.45 10.61 32.44&#xA;  Q 7.52 31.58 9.93 33.71&#xA;  Q 10.10 33.86 11.70 34.33&#xA;  Q 16.07 35.61 20.50 36.74&#xA;  A 1.20 1.18 36.6 0 0 21.42 36.61&#xA;  Q 26.25 33.75 29.20 29.42" stroke="#8d92b8"/>
<path d="M 27.30 15.55&#xA;  L 27.10 20.50&#xA;  Q 27.09 20.83 26.78 20.97&#xA;  Q 26.51 21.10 26.74 21.47&#xA;  Q 26.05 26.21 29.20 29.42" stroke="#daebfe"/>
</g>
<path d="M 54.74 53.06&#xA;  Q 54.40 52.22 54.75 51.44&#xA;  Q 54.98 50.91 55.38 51.33&#xA;  C 56.77 52.81 58.93 55.92 60.82 56.53&#xA;  A 0.89 0.89 0.0 0 0 61.92 55.34&#xA;  L 54.68 37.87&#xA;  A 0.53 0.47 46.4 0 1 54.67 37.52&#xA;  Q 55.09 36.46 55.72 35.51&#xA;  Q 60.45 28.38 56.14 21.96&#xA;  Q 55.15 20.48 55.23 22.27&#xA;  Q 55.41 26.11 53.53 29.65&#xA;  C 48.31 36.31 38.47 36.03 32.87 30.42&#xA;  Q 32.51 30.06 32.09 30.37&#xA;  Q 31.13 31.09 30.63 32.25&#xA;  L 23.31 38.52&#xA;  Q 22.90 38.88 23.20 39.34&#xA;  C 24.01 40.61 25.14 41.77 25.77 42.96&#xA;  Q 28.35 47.87 30.41 53.04&#xA;  Q 30.74 53.85 31.29 54.16&#xA;  A 0.60 0.59 -76.5 0 0 32.17 53.62&#xA;  L 32.10 50.01&#xA;  Q 32.10 49.64 32.47 49.63&#xA;  Q 32.61 49.62 32.78 49.60&#xA;  Q 33.17 49.55 33.27 49.94&#xA;  Q 34.25 53.78 36.66 56.92&#xA;  A 0.78 0.78 0.0 0 0 38.05 56.51&#xA;  L 38.73 47.72&#xA;  A 0.84 0.84 0.0 0 1 39.29 46.99&#xA;  C 41.28 46.31 45.82 45.63 47.23 47.51&#xA;  Q 49.64 50.72 52.62 54.22&#xA;  Q 33.43 66.37 16.56 52.95&#xA;  Q 8.60 46.63 6.92 35.50&#xA;  C 6.30 31.36 4.27 32.01 2.55 29.14&#xA;  Q -0.44 24.19 1.56 18.73&#xA;  Q 1.75 18.21 2.27 18.39&#xA;  C 4.18 19.05 8.79 20.01 10.12 17.89&#xA;  Q 19.62 2.75 36.47 3.32&#xA;  C 48.32 3.73 59.01 11.34 62.62 22.76&#xA;  C 64.59 28.99 63.88 37.69 61.26 43.63&#xA;  A 1.39 1.36 -42.7 0 0 61.21 44.58&#xA;  C 62.50 48.79 64.04 53.30 63.31 57.73&#xA;  Q 63.23 58.23 62.73 58.30&#xA;  C 59.81 58.70 56.67 55.19 54.74 53.06&#xA;  Z&#xA;  M 18.31 15.58&#xA;  A 0.83 0.83 0.0 0 0 19.28 16.59&#xA;  L 22.04 16.06&#xA;  A 0.83 0.83 0.0 0 0 22.63 14.88&#xA;  L 20.88 11.23&#xA;  A 0.83 0.83 0.0 0 0 19.32 11.39&#xA;  L 18.31 15.58&#xA;  Z&#xA;  M 29.20 29.42&#xA;  Q 30.90 28.14 30.44 27.25&#xA;  Q 27.54 21.75 27.30 15.55&#xA;  L 27.42 11.70&#xA;  Q 27.49 9.65 26.31 11.33&#xA;  L 22.70 16.50&#xA;  A 2.78 2.78 0.0 0 1 19.47 17.53&#xA;  C 14.34 15.68 10.18 23.49 3.91 21.19&#xA;  A 0.67 0.67 0.0 0 0 3.02 21.91&#xA;  C 3.80 27.74 4.65 31.08 11.50 31.34&#xA;  Q 16.87 31.54 18.40 27.65&#xA;  Q 19.48 24.92 19.15 27.83&#xA;  C 18.72 31.59 14.23 33.45 10.61 32.44&#xA;  Q 7.52 31.58 9.93 33.71&#xA;  Q 10.10 33.86 11.70 34.33&#xA;  Q 16.07 35.61 20.50 36.74&#xA;  A 1.20 1.18 36.6 0 0 21.42 36.61&#xA;  Q 26.25 33.75 29.20 29.42&#xA;  Z" fill="#1a2570"/>
<path d="M 18.31 15.58&#xA;  L 19.32 11.39&#xA;  A 0.83 0.83 0.0 0 1 20.88 11.23&#xA;  L 22.63 14.88&#xA;  A 0.83 0.83 0.0 0 1 22.04 16.06&#xA;  L 19.28 16.59&#xA;  A 0.83 0.83 0.0 0 1 18.31 15.58&#xA;  Z" fill="#ffffff"/>
<path d="M 27.30 15.55&#xA;  L 27.10 20.50&#xA;  Q 27.09 20.83 26.78 20.97&#xA;  Q 26.51 21.10 26.74 21.47&#xA;  Q 26.05 26.21 29.20 29.42&#xA;  Q 26.25 33.75 21.42 36.61&#xA;  A 1.20 1.18 36.6 0 1 20.50 36.74&#xA;  Q 16.07 35.61 11.70 34.33&#xA;  Q 10.10 33.86 9.93 33.71&#xA;  Q 7.52 31.58 10.61 32.44&#xA;  C 14.23 33.45 18.72 31.59 19.15 27.83&#xA;  Q 19.48 24.92 18.40 27.65&#xA;  Q 16.87 31.54 11.50 31.34&#xA;  C 4.65 31.08 3.80 27.74 3.02 21.91&#xA;  A 0.67 0.67 0.0 0 1 3.91 21.19&#xA;  C 10.18 23.49 14.34 15.68 19.47 17.53&#xA;  A 2.78 2.78 0.0 0 0 22.70 16.50&#xA;  L 26.31 11.33&#xA;  Q 27.49 9.65 27.42 11.70&#xA;  L 27.30 15.55&#xA;  Z" fill="#ffffff"/>
<path d="M 27.30 15.55&#xA;  Q 27.54 21.75 30.44 27.25&#xA;  Q 30.90 28.14 29.20 29.42&#xA;  Q 26.05 26.21 26.74 21.47&#xA;  Q 26.51 21.10 26.78 20.97&#xA;  Q 27.09 20.83 27.10 20.50&#xA;  L 27.30 15.55&#xA;  Z" fill="#b5d6fc"/>
<path d="M 54.74 53.06&#xA;  Q 53.00 53.73 52.62 54.22&#xA;  Q 49.64 50.72 47.23 47.51&#xA;  C 45.82 45.63 41.28 46.31 39.29 46.99&#xA;  A 0.84 0.84 0.0 0 0 38.73 47.72&#xA;  L 38.05 56.51&#xA;  A 0.78 0.78 0.0 0 1 36.66 56.92&#xA;  Q 34.25 53.78 33.27 49.94&#xA;  Q 33.17 49.55 32.78 49.60&#xA;  Q 32.61 49.62 32.47 49.63&#xA;  Q 32.10 49.64 32.10 50.01&#xA;  L 32.17 53.62&#xA;  A 0.60 0.59 -76.5 0 1 31.29 54.16&#xA;  Q 30.74 53.85 30.41 53.04&#xA;  Q 28.35 47.87 25.77 42.96&#xA;  C 25.14 41.77 24.01 40.61 23.20 39.34&#xA;  Q 22.90 38.88 23.31 38.52&#xA;  L 30.63 32.25&#xA;  Q 31.61 33.16 32.58 34.02&#xA;  C 37.84 38.63 53.00 39.35 53.53 29.65&#xA;  Q 55.41 26.11 55.23 22.27&#xA;  Q 55.15 20.48 56.14 21.96&#xA;  Q 60.45 28.38 55.72 35.51&#xA;  Q 55.09 36.46 54.67 37.52&#xA;  A 0.53 0.47 46.4 0 0 54.68 37.87&#xA;  L 61.92 55.34&#xA;  A 0.89 0.89 0.0 0 1 60.82 56.53&#xA;  C 58.93 55.92 56.77 52.81 55.38 51.33&#xA;  Q 54.98 50.91 54.75 51.44&#xA;  Q 54.40 52.22 54.74 53.06&#xA;  Z" fill="#ffffff"/>
<path d="M 53.53 29.65&#xA;  C 53.00 39.35 37.84 38.63 32.58 34.02&#xA;  Q 31.61 33.16 30.63 32.25&#xA;  Q 31.13 31.09 32.09 30.37&#xA;  Q 32.51 30.06 32.87 30.42&#xA;  C 38.47 36.03 48.31 36.31 53.53 29.65&#xA;  Z" fill="#b5d6fc"/>
</svg>