<?xml version="1.0" encoding="utf-8"?>
<svg xmlns="http://www.w3.org/2000/svg" version="1.1" viewBox="0.00 0.00 32.00 32.00">
<path d="M 20.89 9.10&#xA;  L 25.43 7.94&#xA;  A 0.38 0.38 0.0 0 1 25.87 8.15&#xA;  L 27.88 12.59&#xA;  A 0.38 0.38 0.0 0 1 27.78 13.04&#xA;  L 24.09 16.22&#xA;  A 0.38 0.38 0.0 0 0 24.02 16.72&#xA;  L 27.35 21.66&#xA;  A 0.38 0.38 0.0 0 1 27.35 22.08&#xA;  L 24.56 26.22&#xA;  A 0.38 0.38 0.0 0 1 24.01 26.30&#xA;  L 19.55 22.63&#xA;  A 0.38 0.38 0.0 0 0 18.98 22.74&#xA;  L 15.29 29.34&#xA;  A 0.38 0.38 0.0 0 1 14.81 29.51&#xA;  L 9.08 27.13&#xA;  A 0.38 0.38 0.0 0 1 8.86 26.65&#xA;  L 11.52 18.80&#xA;  A 0.38 0.38 0.0 0 0 11.28 18.32&#xA;  L 3.36 15.72&#xA;  A 0.38 0.38 0.0 0 1 3.11 15.28&#xA;  L 4.52 8.69&#xA;  A 0.38 0.38 0.0 0 1 4.94 8.40&#xA;  L 12.59 9.42&#xA;  A 0.38 0.38 0.0 0 0 13.02 9.04&#xA;  L 12.90 2.45&#xA;  A 0.38 0.38 0.0 0 1 13.30 2.06&#xA;  L 18.32 2.34&#xA;  A 0.38 0.38 0.0 0 1 18.66 2.62&#xA;  L 20.43 8.83&#xA;  A 0.38 0.38 0.0 0 0 20.89 9.10&#xA;  Z&#xA;  M 15.4254 9.4035&#xA;  A 1.22 1.06 84.1 0 0 16.3544 8.0810&#xA;  A 1.22 1.06 84.1 0 0 15.1746 6.9765&#xA;  A 1.22 1.06 84.1 0 0 14.2456 8.2990&#xA;  A 1.22 1.06 84.1 0 0 15.4254 9.4035&#xA;  Z&#xA;  M 18.9434 9.1290&#xA;  A 1.18 0.97 55.2 0 0 19.0665 7.6064&#xA;  A 1.18 0.97 55.2 0 0 17.5966 7.1910&#xA;  A 1.18 0.97 55.2 0 0 17.4735 8.7136&#xA;  A 1.18 0.97 55.2 0 0 18.9434 9.1290&#xA;  Z" fill="#5b5afe"/>
</svg>