<?xml version="1.0" encoding="utf-8"?>
<svg xmlns="http://www.w3.org/2000/svg" version="1.1" viewBox="0.00 0.00 32.00 32.00">
<g fill="none" stroke-linecap="butt" stroke-width="2.00">
<path d="M 18.45 10.58&#xA;  Q 18.40 10.64 18.40 11.01" stroke="#08a883"/>
<path d="M 18.40 11.01&#xA;  Q 17.31 11.74 17.31 12.24" stroke="#16887a"/>
<path d="M 9.76 25.69&#xA;  L 10.70 27.49" stroke="#16887a"/>
<path d="M 27.07 27.48&#xA;  Q 26.69 26.48 27.17 25.81" stroke="#1d686e"/>
<path d="M 19.55 12.24&#xA;  Q 19.20 11.52 18.40 11.01" stroke="#1d686e"/>
</g>
<path d="M 18.45 10.58&#xA;  Q 18.40 10.64 18.40 11.01&#xA;  Q 17.31 11.74 17.31 12.24&#xA;  L 13.97 6.36&#xA;  A 0.34 0.33 -45.5 0 0 13.39 6.37&#xA;  L 2.75 25.27&#xA;  Q 2.50 25.72 3.02 25.72&#xA;  L 9.76 25.69&#xA;  L 10.70 27.49&#xA;  L 2.11 27.50&#xA;  A 1.48 1.48 0.0 0 1 1.02 27.02&#xA;  Q 0.17 26.10 0.86 24.88&#xA;  Q 6.61 14.65 12.26 4.69&#xA;  A 1.66 1.65 -44.9 0 1 15.14 4.69&#xA;  L 18.45 10.58&#xA;  Z" fill="#00c78f"/>
<path d="M 32.00 25.61&#xA;  L 32.00 26.62&#xA;  Q 30.50 28.02 27.07 27.48&#xA;  Q 26.69 26.48 27.17 25.81&#xA;  L 29.35 25.71&#xA;  Q 30.04 25.68 29.70 25.07&#xA;  L 21.48 10.42&#xA;  Q 21.10 9.75 20.70 10.40&#xA;  L 19.55 12.24&#xA;  Q 19.20 11.52 18.40 11.01&#xA;  Q 18.40 10.64 18.45 10.58&#xA;  L 19.79 8.33&#xA;  A 1.50 1.50 0.0 0 1 22.39 8.36&#xA;  L 32.00 25.61&#xA;  Z" fill="#0f8877"/>
<path d="M 18.40 11.01&#xA;  Q 19.20 11.52 19.55 12.24&#xA;  L 27.17 25.81&#xA;  Q 26.69 26.48 27.07 27.48&#xA;  L 10.70 27.49&#xA;  L 9.76 25.69&#xA;  L 17.31 12.24&#xA;  Q 17.31 11.74 18.40 11.01&#xA;  Z&#xA;  M 12.16 25.22&#xA;  A 0.34 0.34 0.0 0 0 12.45 25.73&#xA;  L 24.31 25.73&#xA;  A 0.34 0.34 0.0 0 0 24.60 25.22&#xA;  L 18.68 14.84&#xA;  A 0.34 0.34 0.0 0 0 18.08 14.84&#xA;  L 12.16 25.22&#xA;  Z" fill="#2b4865"/>
</svg>