<?xml version="1.0" encoding="utf-8"?>
<svg xmlns="http://www.w3.org/2000/svg" version="1.1" viewBox="0.00 0.00 192.00 192.00">
<g fill="none" stroke-linecap="butt" stroke-width="2.00">
<path d="M 179.02 95.76&#xA;  A 83.01 83.01 0.0 0 0 96.01 12.75&#xA;  A 83.01 83.01 0.0 0 0 13.00 95.76&#xA;  A 83.01 83.01 0.0 0 0 96.01 178.77&#xA;  A 83.01 83.01 0.0 0 0 179.02 95.76" stroke="#b9b0f9"/>
<path d="M 95.49 146.75&#xA;  A 1.02 1.02 0.0 0 0 96.51 146.75&#xA;  L 139.92 121.68&#xA;  A 1.02 1.02 0.0 0 0 140.43 120.80&#xA;  L 140.44 70.76&#xA;  A 1.02 1.02 0.0 0 0 139.93 69.88&#xA;  L 96.52 44.81&#xA;  A 1.02 1.02 0.0 0 0 95.50 44.81&#xA;  L 52.05 69.90&#xA;  A 1.02 1.02 0.0 0 0 51.54 70.78&#xA;  L 51.54 120.77&#xA;  A 1.02 1.02 0.0 0 0 52.05 121.65&#xA;  L 95.49 146.75" stroke="#b9b0f9"/>
<path d="M 131.30 76.10&#xA;  A 1.29 1.29 0.0 0 0 130.65 74.98&#xA;  L 96.62 55.35&#xA;  A 1.29 1.29 0.0 0 0 95.34 55.35&#xA;  L 61.30 75.00&#xA;  A 1.29 1.29 0.0 0 0 60.66 76.11&#xA;  L 60.61 115.38&#xA;  A 1.29 1.29 0.0 0 0 61.26 116.50&#xA;  L 95.39 136.20&#xA;  A 1.29 1.29 0.0 0 0 96.67 136.20&#xA;  L 130.65 116.58&#xA;  A 1.29 1.29 0.0 0 0 131.30 115.47&#xA;  L 131.30 76.10" stroke="#b9b0f9"/>
<path d="M 64.18 114.95&#xA;  C 74.29 120.82 84.41 126.91 94.69 132.59&#xA;  C 96.23 133.44 96.81 132.87 98.12 132.11&#xA;  Q 112.94 123.51 127.81 114.96&#xA;  A 1.42 1.40 -15.2 0 0 128.52 113.74&#xA;  L 128.52 77.81&#xA;  A 1.45 1.44 15.4 0 0 127.81 76.57&#xA;  L 96.68 58.60&#xA;  A 1.35 1.33 44.6 0 0 95.35 58.60&#xA;  L 64.13 76.65&#xA;  A 1.28 1.28 0.0 0 0 63.49 77.76&#xA;  L 63.49 113.75&#xA;  A 1.41 1.39 15.6 0 0 64.18 114.95" stroke="#b9b0f9"/>
<path d="M 72.48 108.51&#xA;  A 1.45 1.45 0.0 0 0 73.20 109.77&#xA;  L 95.29 122.53&#xA;  A 1.45 1.45 0.0 0 0 96.74 122.53&#xA;  L 118.78 109.83&#xA;  A 1.45 1.45 0.0 0 0 119.51 108.57&#xA;  L 119.50 82.99&#xA;  A 1.45 1.45 0.0 0 0 118.77 81.73&#xA;  L 96.68 69.02&#xA;  A 1.45 1.45 0.0 0 0 95.24 69.02&#xA;  L 73.20 81.75&#xA;  A 1.45 1.45 0.0 0 0 72.48 83.01&#xA;  L 72.48 108.51" stroke="#b9b0f9"/>
<path d="M 75.25 106.82&#xA;  A 1.60 1.60 0.0 0 0 76.05 108.20&#xA;  L 95.18 119.25&#xA;  A 1.60 1.60 0.0 0 0 96.78 119.25&#xA;  L 115.92 108.20&#xA;  A 1.60 1.60 0.0 0 0 116.72 106.82&#xA;  L 116.74 84.70&#xA;  A 1.60 1.60 0.0 0 0 115.94 83.32&#xA;  L 96.83 72.29&#xA;  A 1.60 1.60 0.0 0 0 95.23 72.29&#xA;  L 76.06 83.37&#xA;  A 1.60 1.60 0.0 0 0 75.26 84.75&#xA;  L 75.25 106.82" stroke="#b9b0f9"/>
<path d="M 108.00 89.46&#xA;  A 1.03 1.03 0.0 0 0 107.48 88.56&#xA;  L 96.52 82.22&#xA;  A 1.03 1.03 0.0 0 0 95.48 82.22&#xA;  L 84.51 88.58&#xA;  A 1.03 1.03 0.0 0 0 83.99 89.48&#xA;  L 84.03 102.11&#xA;  A 1.03 1.03 0.0 0 0 84.54 103.00&#xA;  L 95.48 109.31&#xA;  A 1.03 1.03 0.0 0 0 96.50 109.31&#xA;  L 107.46 103.03&#xA;  A 1.03 1.03 0.0 0 0 107.98 102.13&#xA;  L 108.00 89.46" stroke="#b9b0f9"/>
</g>
<path d="M 181.97 95.78&#xA;  A 85.98 85.98 0.0 0 1 95.99 181.76&#xA;  A 85.98 85.98 0.0 0 1 10.01 95.78&#xA;  A 85.98 85.98 0.0 0 1 95.99 9.80&#xA;  A 85.98 85.98 0.0 0 1 181.97 95.78&#xA;  Z&#xA;  M 179.02 95.76&#xA;  A 83.01 83.01 0.0 0 0 96.01 12.75&#xA;  A 83.01 83.01 0.0 0 0 13.00 95.76&#xA;  A 83.01 83.01 0.0 0 0 96.01 178.77&#xA;  A 83.01 83.01 0.0 0 0 179.02 95.76&#xA;  Z" fill="#7360f2"/>
<path d="M 179.02 95.76&#xA;  A 83.01 83.01 0.0 0 1 96.01 178.77&#xA;  A 83.01 83.01 0.0 0 1 13.00 95.76&#xA;  A 83.01 83.01 0.0 0 1 96.01 12.75&#xA;  A 83.01 83.01 0.0 0 1 179.02 95.76&#xA;  Z&#xA;  M 95.49 146.75&#xA;  A 1.02 1.02 0.0 0 0 96.51 146.75&#xA;  L 139.92 121.68&#xA;  A 1.02 1.02 0.0 0 0 140.43 120.80&#xA;  L 140.44 70.76&#xA;  A 1.02 1.02 0.0 0 0 139.93 69.88&#xA;  L 96.52 44.81&#xA;  A 1.02 1.02 0.0 0 0 95.50 44.81&#xA;  L 52.05 69.90&#xA;  A 1.02 1.02 0.0 0 0 51.54 70.78&#xA;  L 51.54 120.77&#xA;  A 1.02 1.02 0.0 0 0 52.05 121.65&#xA;  L 95.49 146.75&#xA;  Z" fill="#ffffff"/>
<path d="M 95.49 146.75&#xA;  L 52.05 121.65&#xA;  A 1.02 1.02 0.0 0 1 51.54 120.77&#xA;  L 51.54 70.78&#xA;  A 1.02 1.02 0.0 0 1 52.05 69.90&#xA;  L 95.50 44.81&#xA;  A 1.02 1.02 0.0 0 1 96.52 44.81&#xA;  L 139.93 69.88&#xA;  A 1.02 1.02 0.0 0 1 140.44 70.76&#xA;  L 140.43 120.80&#xA;  A 1.02 1.02 0.0 0 1 139.92 121.68&#xA;  L 96.51 146.75&#xA;  A 1.02 1.02 0.0 0 1 95.49 146.75&#xA;  Z&#xA;  M 131.30 76.10&#xA;  A 1.29 1.29 0.0 0 0 130.65 74.98&#xA;  L 96.62 55.35&#xA;  A 1.29 1.29 0.0 0 0 95.34 55.35&#xA;  L 61.30 75.00&#xA;  A 1.29 1.29 0.0 0 0 60.66 76.11&#xA;  L 60.61 115.38&#xA;  A 1.29 1.29 0.0 0 0 61.26 116.50&#xA;  L 95.39 136.20&#xA;  A 1.29 1.29 0.0 0 0 96.67 136.20&#xA;  L 130.65 116.58&#xA;  A 1.29 1.29 0.0 0 0 131.30 115.47&#xA;  L 131.30 76.10&#xA;  Z" fill="#7360f2"/>
<path d="M 131.30 76.10&#xA;  L 131.30 115.47&#xA;  A 1.29 1.29 0.0 0 1 130.65 116.58&#xA;  L 96.67 136.20&#xA;  A 1.29 1.29 0.0 0 1 95.39 136.20&#xA;  L 61.26 116.50&#xA;  A 1.29 1.29 0.0 0 1 60.61 115.38&#xA;  L 60.66 76.11&#xA;  A 1.29 1.29 0.0 0 1 61.30 75.00&#xA;  L 95.34 55.35&#xA;  A 1.29 1.29 0.0 0 1 96.62 55.35&#xA;  L 130.65 74.98&#xA;  A 1.29 1.29 0.0 0 1 131.30 76.10&#xA;  Z&#xA;  M 64.18 114.95&#xA;  C 74.29 120.82 84.41 126.91 94.69 132.59&#xA;  C 96.23 133.44 96.81 132.87 98.12 132.11&#xA;  Q 112.94 123.51 127.81 114.96&#xA;  A 1.42 1.40 -15.2 0 0 128.52 113.74&#xA;  L 128.52 77.81&#xA;  A 1.45 1.44 15.4 0 0 127.81 76.57&#xA;  L 96.68 58.60&#xA;  A 1.35 1.33 44.6 0 0 95.35 58.60&#xA;  L 64.13 76.65&#xA;  A 1.28 1.28 0.0 0 0 63.49 77.76&#xA;  L 63.49 113.75&#xA;  A 1.41 1.39 15.6 0 0 64.18 114.95&#xA;  Z" fill="#ffffff"/>
<path d="M 94.69 132.59&#xA;  C 84.41 126.91 74.29 120.82 64.18 114.95&#xA;  A 1.41 1.39 15.6 0 1 63.49 113.75&#xA;  L 63.49 77.76&#xA;  A 1.28 1.28 0.0 0 1 64.13 76.65&#xA;  L 95.35 58.60&#xA;  A 1.35 1.33 44.6 0 1 96.68 58.60&#xA;  L 127.81 76.57&#xA;  A 1.45 1.44 15.4 0 1 128.52 77.81&#xA;  L 128.52 113.74&#xA;  A 1.42 1.40 -15.2 0 1 127.81 114.96&#xA;  Q 112.94 123.51 98.12 132.11&#xA;  C 96.81 132.87 96.23 133.44 94.69 132.59&#xA;  Z&#xA;  M 72.48 108.51&#xA;  A 1.45 1.45 0.0 0 0 73.20 109.77&#xA;  L 95.29 122.53&#xA;  A 1.45 1.45 0.0 0 0 96.74 122.53&#xA;  L 118.78 109.83&#xA;  A 1.45 1.45 0.0 0 0 119.51 108.57&#xA;  L 119.50 82.99&#xA;  A 1.45 1.45 0.0 0 0 118.77 81.73&#xA;  L 96.68 69.02&#xA;  A 1.45 1.45 0.0 0 0 95.24 69.02&#xA;  L 73.20 81.75&#xA;  A 1.45 1.45 0.0 0 0 72.48 83.01&#xA;  L 72.48 108.51&#xA;  Z" fill="#7360f2"/>
<path d="M 72.48 108.51&#xA;  L 72.48 83.01&#xA;  A 1.45 1.45 0.0 0 1 73.20 81.75&#xA;  L 95.24 69.02&#xA;  A 1.45 1.45 0.0 0 1 96.68 69.02&#xA;  L 118.77 81.73&#xA;  A 1.45 1.45 0.0 0 1 119.50 82.99&#xA;  L 119.51 108.57&#xA;  A 1.45 1.45 0.0 0 1 118.78 109.83&#xA;  L 96.74 122.53&#xA;  A 1.45 1.45 0.0 0 1 95.29 122.53&#xA;  L 73.20 109.77&#xA;  A 1.45 1.45 0.0 0 1 72.48 108.51&#xA;  Z&#xA;  M 75.25 106.82&#xA;  A 1.60 1.60 0.0 0 0 76.05 108.20&#xA;  L 95.18 119.25&#xA;  A 1.60 1.60 0.0 0 0 96.78 119.25&#xA;  L 115.92 108.20&#xA;  A 1.60 1.60 0.0 0 0 116.72 106.82&#xA;  L 116.74 84.70&#xA;  A 1.60 1.60 0.0 0 0 115.94 83.32&#xA;  L 96.83 72.29&#xA;  A 1.60 1.60 0.0 0 0 95.23 72.29&#xA;  L 76.06 83.37&#xA;  A 1.60 1.60 0.0 0 0 75.26 84.75&#xA;  L 75.25 106.82&#xA;  Z" fill="#ffffff"/>
<path d="M 75.25 106.82&#xA;  L 75.26 84.75&#xA;  A 1.60 1.60 0.0 0 1 76.06 83.37&#xA;  L 95.23 72.29&#xA;  A 1.60 1.60 0.0 0 1 96.83 72.29&#xA;  L 115.94 83.32&#xA;  A 1.60 1.60 0.0 0 1 116.74 84.70&#xA;  L 116.72 106.82&#xA;  A 1.60 1.60 0.0 0 1 115.92 108.20&#xA;  L 96.78 119.25&#xA;  A 1.60 1.60 0.0 0 1 95.18 119.25&#xA;  L 76.05 108.20&#xA;  A 1.60 1.60 0.0 0 1 75.25 106.82&#xA;  Z&#xA;  M 108.00 89.46&#xA;  A 1.03 1.03 0.0 0 0 107.48 88.56&#xA;  L 96.52 82.22&#xA;  A 1.03 1.03 0.0 0 0 95.48 82.22&#xA;  L 84.51 88.58&#xA;  A 1.03 1.03 0.0 0 0 83.99 89.48&#xA;  L 84.03 102.11&#xA;  A 1.03 1.03 0.0 0 0 84.54 103.00&#xA;  L 95.48 109.31&#xA;  A 1.03 1.03 0.0 0 0 96.50 109.31&#xA;  L 107.46 103.03&#xA;  A 1.03 1.03 0.0 0 0 107.98 102.13&#xA;  L 108.00 89.46&#xA;  Z" fill="#7360f2"/>
<path d="M 108.00 89.46&#xA;  L 107.98 102.13&#xA;  A 1.03 1.03 0.0 0 1 107.46 103.03&#xA;  L 96.50 109.31&#xA;  A 1.03 1.03 0.0 0 1 95.48 109.31&#xA;  L 84.54 103.00&#xA;  A 1.03 1.03 0.0 0 1 84.03 102.11&#xA;  L 83.99 89.48&#xA;  A 1.03 1.03 0.0 0 1 84.51 88.58&#xA;  L 95.48 82.22&#xA;  A 1.03 1.03 0.0 0 1 96.52 82.22&#xA;  L 107.48 88.56&#xA;  A 1.03 1.03 0.0 0 1 108.00 89.46&#xA;  Z" fill="#ffffff"/>
</svg>