<?xml version="1.0" encoding="utf-8"?>
<svg xmlns="http://www.w3.org/2000/svg" version="1.1" viewBox="0.00 0.00 180.00 180.00">
<g fill="none" stroke-linecap="butt" stroke-width="2.00">
<path d="M 103.19 113.08&#xA;  Q 105.55 114.00 107.34 113.66&#xA;  A 0.66 0.65 80.3 0 0 107.86 112.92&#xA;  Q 106.68 104.67 104.99 100.25&#xA;  Q 88.90 58.15 48.27 38.63&#xA;  Q 47.00 38.02 45.76 38.34&#xA;  A 1.42 1.42 0.0 0 0 44.88 40.42&#xA;  C 51.28 51.59 56.44 65.06 56.77 77.60&#xA;  C 57.09 89.67 53.91 103.59 46.16 113.11&#xA;  Q 45.27 114.19 44.55 115.44&#xA;  A 1.44 1.44 0.0 0 0 45.42 117.55&#xA;  C 46.07 117.73 46.95 117.43 47.60 117.02&#xA;  C 64.79 106.34 84.50 105.82 103.19 113.08" stroke="#898d95"/>
<path d="M 126.73 112.26&#xA;  C 127.98 112.80 129.18 113.74 130.69 113.47&#xA;  A 1.59 1.58 74.8 0 0 131.89 111.37&#xA;  C 123.53 88.48 111.24 70.90 91.62 56.38&#xA;  Q 86.26 52.42 80.21 50.67&#xA;  C 79.14 50.36 78.05 50.61 77.67 51.69&#xA;  A 1.94 1.93 26.7 0 0 78.42 53.95&#xA;  C 98.09 67.09 107.27 89.10 114.05 110.74&#xA;  A 1.07 1.06 73.3 0 0 115.36 111.45&#xA;  Q 121.10 109.81 126.73 112.26" stroke="#898d95"/>
<path d="M 116.11 136.04&#xA;  A 0.28 0.28 0.0 0 1 116.19 135.56&#xA;  C 125.39 132.22 135.40 125.20 142.95 118.99&#xA;  C 143.89 118.22 143.98 117.40 143.77 116.27&#xA;  Q 143.68 115.79 143.19 115.76&#xA;  Q 140.41 115.62 138.75 115.74&#xA;  Q 88.22 119.20 38.07 122.31&#xA;  Q 35.15 122.50 36.54 125.06&#xA;  L 38.98 129.57&#xA;  A 1.62 1.61 57.7 0 1 38.52 131.64&#xA;  C 35.65 133.76 32.37 136.51 28.67 137.33&#xA;  Q 28.10 137.46 27.90 138.02&#xA;  Q 27.63 138.82 27.88 139.59&#xA;  Q 28.03 140.04 28.50 140.16&#xA;  C 32.43 141.16 39.61 135.25 42.89 133.10&#xA;  A 2.78 2.76 -41.2 0 1 46.20 133.31&#xA;  C 52.27 138.52 58.58 143.84 66.67 137.94&#xA;  C 70.31 135.28 74.73 131.68 78.46 134.81&#xA;  C 82.91 138.55 87.07 142.23 92.94 140.09&#xA;  C 97.39 138.46 101.32 132.02 106.44 133.86&#xA;  C 108.80 134.71 111.46 137.47 113.59 138.89&#xA;  C 120.27 143.36 125.09 139.51 130.34 135.34&#xA;  C 135.69 131.10 139.36 135.27 143.36 138.65&#xA;  Q 145.37 140.36 149.29 140.93&#xA;  A 1.69 1.69 0.0 0 0 151.20 139.49&#xA;  L 151.24 139.15&#xA;  A 1.11 1.09 10.9 0 0 150.41 137.94&#xA;  Q 147.49 137.21 146.29 136.45&#xA;  C 143.89 134.92 141.52 131.92 138.64 130.86&#xA;  C 131.81 128.34 128.46 132.78 123.49 136.18&#xA;  Q 119.60 138.84 116.11 136.04" stroke="#898d95"/>
<path d="M 51.03 44.81&#xA;  C 61.54 66.39 64.40 87.77 52.79 109.46&#xA;  Q 52.35 110.29 53.22 109.94&#xA;  C 70.67 103.06 86.21 103.77 103.43 109.50&#xA;  Q 104.02 109.70 103.87 109.09&#xA;  C 96.73 80.97 76.96 57.51 51.55 44.31&#xA;  Q 50.52 43.78 51.03 44.81" stroke="#898d95"/>
<path d="M 94.45 63.12&#xA;  C 104.38 76.13 111.74 91.13 116.32 106.93&#xA;  Q 116.38 107.15 116.61 107.17&#xA;  L 126.88 108.20&#xA;  A 0.11 0.11 0.0 0 0 126.99 108.04&#xA;  C 124.58 102.53 122.06 96.61 119.20 91.67&#xA;  Q 109.52 74.99 94.58 63.00&#xA;  Q 94.01 62.54 94.45 63.12" stroke="#898d95"/>
<path d="M 55.19 135.84&#xA;  C 65.73 142.46 68.94 123.25 81.72 133.00&#xA;  C 85.38 135.80 88.42 139.39 93.40 135.91&#xA;  C 98.72 132.18 102.40 127.63 109.60 131.73&#xA;  Q 111.03 132.54 112.57 133.33&#xA;  Q 113.03 133.56 113.49 133.33&#xA;  Q 125.10 127.70 135.74 120.39&#xA;  Q 137.22 119.37 135.43 119.49&#xA;  L 41.76 125.42&#xA;  Q 40.58 125.49 41.20 126.50&#xA;  L 42.16 128.09&#xA;  Q 42.73 129.03 43.83 129.08&#xA;  C 48.37 129.30 51.94 133.80 55.19 135.84" stroke="#898d95"/>
</g>
<path d="M 0.00 0.00&#xA;  L 180.00 0.00&#xA;  L 180.00 180.00&#xA;  L 0.00 180.00&#xA;  L 0.00 0.00&#xA;  Z&#xA;  M 103.19 113.08&#xA;  Q 105.55 114.00 107.34 113.66&#xA;  A 0.66 0.65 80.3 0 0 107.86 112.92&#xA;  Q 106.68 104.67 104.99 100.25&#xA;  Q 88.90 58.15 48.27 38.63&#xA;  Q 47.00 38.02 45.76 38.34&#xA;  A 1.42 1.42 0.0 0 0 44.88 40.42&#xA;  C 51.28 51.59 56.44 65.06 56.77 77.60&#xA;  C 57.09 89.67 53.91 103.59 46.16 113.11&#xA;  Q 45.27 114.19 44.55 115.44&#xA;  A 1.44 1.44 0.0 0 0 45.42 117.55&#xA;  C 46.07 117.73 46.95 117.43 47.60 117.02&#xA;  C 64.79 106.34 84.50 105.82 103.19 113.08&#xA;  Z&#xA;  M 126.73 112.26&#xA;  C 127.98 112.80 129.18 113.74 130.69 113.47&#xA;  A 1.59 1.58 74.8 0 0 131.89 111.37&#xA;  C 123.53 88.48 111.24 70.90 91.62 56.38&#xA;  Q 86.26 52.42 80.21 50.67&#xA;  C 79.14 50.36 78.05 50.61 77.67 51.69&#xA;  A 1.94 1.93 26.7 0 0 78.42 53.95&#xA;  C 98.09 67.09 107.27 89.10 114.05 110.74&#xA;  A 1.07 1.06 73.3 0 0 115.36 111.45&#xA;  Q 121.10 109.81 126.73 112.26&#xA;  Z&#xA;  M 116.11 136.04&#xA;  A 0.28 0.28 0.0 0 1 116.19 135.56&#xA;  C 125.39 132.22 135.40 125.20 142.95 118.99&#xA;  C 143.89 118.22 143.98 117.40 143.77 116.27&#xA;  Q 143.68 115.79 143.19 115.76&#xA;  Q 140.41 115.62 138.75 115.74&#xA;  Q 88.22 119.20 38.07 122.31&#xA;  Q 35.15 122.50 36.54 125.06&#xA;  L 38.98 129.57&#xA;  A 1.62 1.61 57.7 0 1 38.52 131.64&#xA;  C 35.65 133.76 32.37 136.51 28.67 137.33&#xA;  Q 28.10 137.46 27.90 138.02&#xA;  Q 27.63 138.82 27.88 139.59&#xA;  Q 28.03 140.04 28.50 140.16&#xA;  C 32.43 141.16 39.61 135.25 42.89 133.10&#xA;  A 2.78 2.76 -41.2 0 1 46.20 133.31&#xA;  C 52.27 138.52 58.58 143.84 66.67 137.94&#xA;  C 70.31 135.28 74.73 131.68 78.46 134.81&#xA;  C 82.91 138.55 87.07 142.23 92.94 140.09&#xA;  C 97.39 138.46 101.32 132.02 106.44 133.86&#xA;  C 108.80 134.71 111.46 137.47 113.59 138.89&#xA;  C 120.27 143.36 125.09 139.51 130.34 135.34&#xA;  C 135.69 131.10 139.36 135.27 143.36 138.65&#xA;  Q 145.37 140.36 149.29 140.93&#xA;  A 1.69 1.69 0.0 0 0 151.20 139.49&#xA;  L 151.24 139.15&#xA;  A 1.11 1.09 10.9 0 0 150.41 137.94&#xA;  Q 147.49 137.21 146.29 136.45&#xA;  C 143.89 134.92 141.52 131.92 138.64 130.86&#xA;  C 131.81 128.34 128.46 132.78 123.49 136.18&#xA;  Q 119.60 138.84 116.11 136.04&#xA;  Z" fill="#f7fafc"/>
<path d="M 103.19 113.08&#xA;  C 84.50 105.82 64.79 106.34 47.60 117.02&#xA;  C 46.95 117.43 46.07 117.73 45.42 117.55&#xA;  A 1.44 1.44 0.0 0 1 44.55 115.44&#xA;  Q 45.27 114.19 46.16 113.11&#xA;  C 53.91 103.59 57.09 89.67 56.77 77.60&#xA;  C 56.44 65.06 51.28 51.59 44.88 40.42&#xA;  A 1.42 1.42 0.0 0 1 45.76 38.34&#xA;  Q 47.00 38.02 48.27 38.63&#xA;  Q 88.90 58.15 104.99 100.25&#xA;  Q 106.68 104.67 107.86 112.92&#xA;  A 0.66 0.65 80.3 0 1 107.34 113.66&#xA;  Q 105.55 114.00 103.19 113.08&#xA;  Z&#xA;  M 51.03 44.81&#xA;  C 61.54 66.39 64.40 87.77 52.79 109.46&#xA;  Q 52.35 110.29 53.22 109.94&#xA;  C 70.67 103.06 86.21 103.77 103.43 109.50&#xA;  Q 104.02 109.70 103.87 109.09&#xA;  C 96.73 80.97 76.96 57.51 51.55 44.31&#xA;  Q 50.52 43.78 51.03 44.81&#xA;  Z" fill="#1a202d"/>
<path d="M 51.03 44.81&#xA;  Q 50.52 43.78 51.55 44.31&#xA;  C 76.96 57.51 96.73 80.97 103.87 109.09&#xA;  Q 104.02 109.70 103.43 109.50&#xA;  C 86.21 103.77 70.67 103.06 53.22 109.94&#xA;  Q 52.35 110.29 52.79 109.46&#xA;  C 64.40 87.77 61.54 66.39 51.03 44.81&#xA;  Z" fill="#f7fafc"/>
<path d="M 126.73 112.26&#xA;  Q 121.10 109.81 115.36 111.45&#xA;  A 1.07 1.06 73.3 0 1 114.05 110.74&#xA;  C 107.27 89.10 98.09 67.09 78.42 53.95&#xA;  A 1.94 1.93 26.7 0 1 77.67 51.69&#xA;  C 78.05 50.61 79.14 50.36 80.21 50.67&#xA;  Q 86.26 52.42 91.62 56.38&#xA;  C 111.24 70.90 123.53 88.48 131.89 111.37&#xA;  A 1.59 1.58 74.8 0 1 130.69 113.47&#xA;  C 129.18 113.74 127.98 112.80 126.73 112.26&#xA;  Z&#xA;  M 94.45 63.12&#xA;  C 104.38 76.13 111.74 91.13 116.32 106.93&#xA;  Q 116.38 107.15 116.61 107.17&#xA;  L 126.88 108.20&#xA;  A 0.11 0.11 0.0 0 0 126.99 108.04&#xA;  C 124.58 102.53 122.06 96.61 119.20 91.67&#xA;  Q 109.52 74.99 94.58 63.00&#xA;  Q 94.01 62.54 94.45 63.12&#xA;  Z" fill="#1a202d"/>
<path d="M 116.32 106.93&#xA;  C 111.74 91.13 104.38 76.13 94.45 63.12&#xA;  Q 94.01 62.54 94.58 63.00&#xA;  Q 109.52 74.99 119.20 91.67&#xA;  C 122.06 96.61 124.58 102.53 126.99 108.04&#xA;  A 0.11 0.11 0.0 0 1 126.88 108.20&#xA;  L 116.61 107.17&#xA;  Q 116.38 107.15 116.32 106.93&#xA;  Z" fill="#f7fafc"/>
<path d="M 116.11 136.04&#xA;  Q 119.60 138.84 123.49 136.18&#xA;  C 128.46 132.78 131.81 128.34 138.64 130.86&#xA;  C 141.52 131.92 143.89 134.92 146.29 136.45&#xA;  Q 147.49 137.21 150.41 137.94&#xA;  A 1.11 1.09 10.9 0 1 151.24 139.15&#xA;  L 151.20 139.49&#xA;  A 1.69 1.69 0.0 0 1 149.29 140.93&#xA;  Q 145.37 140.36 143.36 138.65&#xA;  C 139.36 135.27 135.69 131.10 130.34 135.34&#xA;  C 125.09 139.51 120.27 143.36 113.59 138.89&#xA;  C 111.46 137.47 108.80 134.71 106.44 133.86&#xA;  C 101.32 132.02 97.39 138.46 92.94 140.09&#xA;  C 87.07 142.23 82.91 138.55 78.46 134.81&#xA;  C 74.73 131.68 70.31 135.28 66.67 137.94&#xA;  C 58.58 143.84 52.27 138.52 46.20 133.31&#xA;  A 2.78 2.76 -41.2 0 0 42.89 133.10&#xA;  C 39.61 135.25 32.43 141.16 28.50 140.16&#xA;  Q 28.03 140.04 27.88 139.59&#xA;  Q 27.63 138.82 27.90 138.02&#xA;  Q 28.10 137.46 28.67 137.33&#xA;  C 32.37 136.51 35.65 133.76 38.52 131.64&#xA;  A 1.62 1.61 57.7 0 0 38.98 129.57&#xA;  L 36.54 125.06&#xA;  Q 35.15 122.50 38.07 122.31&#xA;  Q 88.22 119.20 138.75 115.74&#xA;  Q 140.41 115.62 143.19 115.76&#xA;  Q 143.68 115.79 143.77 116.27&#xA;  C 143.98 117.40 143.89 118.22 142.95 118.99&#xA;  C 135.40 125.20 125.39 132.22 116.19 135.56&#xA;  A 0.28 0.28 0.0 0 0 116.11 136.04&#xA;  Z&#xA;  M 55.19 135.84&#xA;  C 65.73 142.46 68.94 123.25 81.72 133.00&#xA;  C 85.38 135.80 88.42 139.39 93.40 135.91&#xA;  C 98.72 132.18 102.40 127.63 109.60 131.73&#xA;  Q 111.03 132.54 112.57 133.33&#xA;  Q 113.03 133.56 113.49 133.33&#xA;  Q 125.10 127.70 135.74 120.39&#xA;  Q 137.22 119.37 135.43 119.49&#xA;  L 41.76 125.42&#xA;  Q 40.58 125.49 41.20 126.50&#xA;  L 42.16 128.09&#xA;  Q 42.73 129.03 43.83 129.08&#xA;  C 48.37 129.30 51.94 133.80 55.19 135.84&#xA;  Z" fill="#1a202d"/>
<path d="M 81.72 133.00&#xA;  C 68.94 123.25 65.73 142.46 55.19 135.84&#xA;  C 51.94 133.80 48.37 129.30 43.83 129.08&#xA;  Q 42.73 129.03 42.16 128.09&#xA;  L 41.20 126.50&#xA;  Q 40.58 125.49 41.76 125.42&#xA;  L 135.43 119.49&#xA;  Q 137.22 119.37 135.74 120.39&#xA;  Q 125.10 127.70 113.49 133.33&#xA;  Q 113.03 133.56 112.57 133.33&#xA;  Q 111.03 132.54 109.60 131.73&#xA;  C 102.40 127.63 98.72 132.18 93.40 135.91&#xA;  C 88.42 139.39 85.38 135.80 81.72 133.00&#xA;  Z" fill="#f7fafc"/>
</svg>