<?xml version="1.0" encoding="utf-8"?>
<svg xmlns="http://www.w3.org/2000/svg" version="1.1" viewBox="0.00 0.00 512.00 512.00">
<g fill="none" stroke-linecap="butt" stroke-width="2.00">
<path d="M 393.38 73.25&#xA;  A 0.31 0.31 0.0 0 0 393.16 72.72&#xA;  L 280.89 72.72&#xA;  A 0.31 0.31 0.0 0 0 280.67 72.81&#xA;  L 97.36 256.12&#xA;  A 0.31 0.31 0.0 0 0 97.36 256.56&#xA;  L 153.49 312.70&#xA;  A 0.31 0.31 0.0 0 0 153.93 312.70&#xA;  L 393.38 73.25" stroke="#aae2fc"/>
<path d="M 238.58 284.57&#xA;  L 182.21 340.95&#xA;  Q 181.99 341.16 182.21 341.38&#xA;  L 238.55 397.73" stroke="#94dbfb"/>
<path d="M 238.55 397.73&#xA;  L 239.66 398.78" stroke="#8096a8"/>
<path d="M 239.66 398.78&#xA;  L 280.60 439.73&#xA;  Q 280.98 440.12 281.53 440.12&#xA;  L 393.41 440.11&#xA;  A 0.22 0.22 0.0 0 0 393.57 439.73&#xA;  L 295.50 341.66" stroke="#80abcd"/>
<path d="M 295.50 341.66&#xA;  Q 295.13 341.02 295.83 340.32&#xA;  Q 344.77 291.42 393.50 242.73&#xA;  Q 394.07 242.16 393.26 242.16&#xA;  L 281.68 242.16&#xA;  A 1.71 1.69 -67.2 0 0 280.48 242.66&#xA;  L 238.58 284.57" stroke="#aae2fc"/>
<path d="M 295.50 341.66&#xA;  Q 295.33 341.69 295.25 341.42" stroke="#2b8eca"/>
<path d="M 295.25 341.42&#xA;  Q 294.36 341.25 294.01 340.38&#xA;  Q 293.82 339.91 293.46 339.55&#xA;  L 238.58 284.57" stroke="#3fbef7"/>
<path d="M 239.66 398.78&#xA;  Q 240.45 397.07 241.86 396.59&#xA;  Q 252.45 392.97 263.09 389.21&#xA;  A 0.61 0.61 0.0 0 0 263.48 388.52&#xA;  Q 261.83 379.50 266.58 371.75&#xA;  Q 267.25 370.66 269.25 368.74&#xA;  Q 270.74 367.31 271.36 364.89" stroke="#014276"/>
<path d="M 295.25 341.42&#xA;  Q 295.10 341.41 294.95 341.40&#xA;  A 0.45 0.45 0.0 0 0 294.61 341.53&#xA;  L 271.36 364.89" stroke="#1587c9"/>
<path d="M 271.36 364.89&#xA;  L 238.55 397.73" stroke="#1572a3"/>
</g>
<path d="M 0.00 0.00&#xA;  L 512.00 0.00&#xA;  L 512.00 512.00&#xA;  L 0.00 512.00&#xA;  L 0.00 0.00&#xA;  Z&#xA;  M 393.38 73.25&#xA;  A 0.31 0.31 0.0 0 0 393.16 72.72&#xA;  L 280.89 72.72&#xA;  A 0.31 0.31 0.0 0 0 280.67 72.81&#xA;  L 97.36 256.12&#xA;  A 0.31 0.31 0.0 0 0 97.36 256.56&#xA;  L 153.49 312.70&#xA;  A 0.31 0.31 0.0 0 0 153.93 312.70&#xA;  L 393.38 73.25&#xA;  Z&#xA;  M 238.58 284.57&#xA;  L 182.21 340.95&#xA;  Q 181.99 341.16 182.21 341.38&#xA;  L 238.55 397.73&#xA;  L 239.66 398.78&#xA;  L 280.60 439.73&#xA;  Q 280.98 440.12 281.53 440.12&#xA;  L 393.41 440.11&#xA;  A 0.22 0.22 0.0 0 0 393.57 439.73&#xA;  L 295.50 341.66&#xA;  Q 295.13 341.02 295.83 340.32&#xA;  Q 344.77 291.42 393.50 242.73&#xA;  Q 394.07 242.16 393.26 242.16&#xA;  L 281.68 242.16&#xA;  A 1.71 1.69 -67.2 0 0 280.48 242.66&#xA;  L 238.58 284.57&#xA;  Z" fill="#ffffff"/>
<path d="M 393.38 73.25&#xA;  L 153.93 312.70&#xA;  A 0.31 0.31 0.0 0 1 153.49 312.70&#xA;  L 97.36 256.56&#xA;  A 0.31 0.31 0.0 0 1 97.36 256.12&#xA;  L 280.67 72.81&#xA;  A 0.31 0.31 0.0 0 1 280.89 72.72&#xA;  L 393.16 72.72&#xA;  A 0.31 0.31 0.0 0 1 393.38 73.25&#xA;  Z" fill="#54c5f8"/>
<path d="M 295.50 341.66&#xA;  Q 295.33 341.69 295.25 341.42&#xA;  Q 294.36 341.25 294.01 340.38&#xA;  Q 293.82 339.91 293.46 339.55&#xA;  L 238.58 284.57&#xA;  L 280.48 242.66&#xA;  A 1.71 1.69 -67.2 0 1 281.68 242.16&#xA;  L 393.26 242.16&#xA;  Q 394.07 242.16 393.50 242.73&#xA;  Q 344.77 291.42 295.83 340.32&#xA;  Q 295.13 341.02 295.50 341.66&#xA;  Z" fill="#54c5f8"/>
<path d="M 238.58 284.57&#xA;  L 293.46 339.55&#xA;  Q 293.82 339.91 294.01 340.38&#xA;  Q 294.36 341.25 295.25 341.42&#xA;  Q 295.10 341.41 294.95 341.40&#xA;  A 0.45 0.45 0.0 0 0 294.61 341.53&#xA;  L 271.36 364.89&#xA;  L 238.55 397.73&#xA;  L 182.21 341.38&#xA;  Q 181.99 341.16 182.21 340.95&#xA;  L 238.58 284.57&#xA;  Z" fill="#29b6f6"/>
<path d="M 295.25 341.42&#xA;  Q 295.33 341.69 295.50 341.66&#xA;  L 393.57 439.73&#xA;  A 0.22 0.22 0.0 0 1 393.41 440.11&#xA;  L 281.53 440.12&#xA;  Q 280.98 440.12 280.60 439.73&#xA;  L 239.66 398.78&#xA;  Q 240.45 397.07 241.86 396.59&#xA;  Q 252.45 392.97 263.09 389.21&#xA;  A 0.61 0.61 0.0 0 0 263.48 388.52&#xA;  Q 261.83 379.50 266.58 371.75&#xA;  Q 267.25 370.66 269.25 368.74&#xA;  Q 270.74 367.31 271.36 364.89&#xA;  L 294.61 341.53&#xA;  A 0.45 0.45 0.0 0 1 294.95 341.40&#xA;  Q 295.10 341.41 295.25 341.42&#xA;  Z" fill="#01579b"/>
<path d="M 271.36 364.89&#xA;  Q 270.74 367.31 269.25 368.74&#xA;  Q 267.25 370.66 266.58 371.75&#xA;  Q 261.83 379.50 263.48 388.52&#xA;  A 0.61 0.61 0.0 0 1 263.09 389.21&#xA;  Q 252.45 392.97 241.86 396.59&#xA;  Q 240.45 397.07 239.66 398.78&#xA;  L 238.55 397.73&#xA;  L 271.36 364.89&#xA;  Z" fill="#002d50"/>
</svg>