<?xml version="1.0" encoding="utf-8"?>
<svg xmlns="http://www.w3.org/2000/svg" version="1.1" viewBox="0.00 0.00 32.00 32.00">
<g fill="none" stroke-linecap="butt" stroke-width="2.00">
<path d="M 18.75 32.00&#xA;  Q 24.65 30.18 26.74 28.01&#xA;  C 36.96 17.43 30.88 -0.54 15.04 0.48&#xA;  C 4.84 1.14 -1.84 10.10 0.90 20.50&#xA;  C 2.79 27.64 7.22 29.66 13.57 32.00" stroke="#7c8bcf"/>
<path d="M 12.68 11.61&#xA;  C 14.63 9.16 19.77 9.84 19.94 13.30&#xA;  Q 20.16 17.56 20.31 21.97&#xA;  A 0.75 0.75 0.0 0 0 21.19 22.68&#xA;  L 21.44 22.63&#xA;  A 1.46 1.46 0.0 0 0 22.63 21.37&#xA;  C 23.30 15.69 23.53 6.71 15.15 7.40&#xA;  C 8.12 7.98 8.40 15.97 9.20 21.94&#xA;  A 0.87 0.87 0.0 0 0 10.19 22.68&#xA;  L 10.44 22.64&#xA;  A 1.30 1.30 0.0 0 0 11.54 21.37&#xA;  C 11.56 18.51 11.04 13.65 12.68 11.61" stroke="#a5b2de"/>
</g>
<path d="M 13.88 0.00&#xA;  L 19.82 0.00&#xA;  Q 28.56 2.14 32.00 11.25&#xA;  L 32.00 20.48&#xA;  Q 29.40 29.49 20.37 32.00&#xA;  L 18.75 32.00&#xA;  Q 24.65 30.18 26.74 28.01&#xA;  C 36.96 17.43 30.88 -0.54 15.04 0.48&#xA;  C 4.84 1.14 -1.84 10.10 0.90 20.50&#xA;  C 2.79 27.64 7.22 29.66 13.57 32.00&#xA;  L 11.40 32.00&#xA;  Q 1.90 29.15 0.00 18.83&#xA;  L 0.00 13.00&#xA;  Q 2.26 1.55 13.88 0.00&#xA;  Z" fill="#aeb0e2"/>
<path d="M 18.75 32.00&#xA;  L 13.57 32.00&#xA;  C 7.22 29.66 2.79 27.64 0.90 20.50&#xA;  C -1.84 10.10 4.84 1.14 15.04 0.48&#xA;  C 30.88 -0.54 36.96 17.43 26.74 28.01&#xA;  Q 24.65 30.18 18.75 32.00&#xA;  Z&#xA;  M 12.68 11.61&#xA;  C 14.63 9.16 19.77 9.84 19.94 13.30&#xA;  Q 20.16 17.56 20.31 21.97&#xA;  A 0.75 0.75 0.0 0 0 21.19 22.68&#xA;  L 21.44 22.63&#xA;  A 1.46 1.46 0.0 0 0 22.63 21.37&#xA;  C 23.30 15.69 23.53 6.71 15.15 7.40&#xA;  C 8.12 7.98 8.40 15.97 9.20 21.94&#xA;  A 0.87 0.87 0.0 0 0 10.19 22.68&#xA;  L 10.44 22.64&#xA;  A 1.30 1.30 0.0 0 0 11.54 21.37&#xA;  C 11.56 18.51 11.04 13.65 12.68 11.61&#xA;  Z" fill="#4a65bc"/>
<path d="M 19.94 13.30&#xA;  C 19.77 9.84 14.63 9.16 12.68 11.61&#xA;  C 11.04 13.65 11.56 18.51 11.54 21.37&#xA;  A 1.30 1.30 0.0 0 1 10.44 22.64&#xA;  L 10.19 22.68&#xA;  A 0.87 0.87 0.0 0 1 9.20 21.94&#xA;  C 8.40 15.97 8.12 7.98 15.15 7.40&#xA;  C 23.53 6.71 23.30 15.69 22.63 21.37&#xA;  A 1.46 1.46 0.0 0 1 21.44 22.63&#xA;  L 21.19 22.68&#xA;  A 0.75 0.75 0.0 0 1 20.31 21.97&#xA;  Q 20.16 17.56 19.94 13.30&#xA;  Z" fill="#fffeff"/>
</svg>