<?xml version="1.0" encoding="utf-8"?>
<svg xmlns="http://www.w3.org/2000/svg" version="1.1" viewBox="0.00 0.00 400.00 400.00">
<g fill="none" stroke-linecap="butt" stroke-width="2.00">
<path d="M 115.78 88.54&#xA;  C 98.13 102.57 96.82 127.64 114.19 142.73&#xA;  Q 114.49 142.98 114.73 142.67&#xA;  Q 135.83 114.87 166.26 97.73&#xA;  Q 167.02 97.30 166.47 96.63&#xA;  C 153.25 80.44 133.48 74.47 115.78 88.54" stroke="#808080"/>
<path d="M 233.58 97.48&#xA;  Q 264.27 114.68 285.54 142.68&#xA;  A 0.37 0.37 0.0 0 0 286.08 142.73&#xA;  Q 293.31 136.35 296.60 127.17&#xA;  C 304.03 106.46 288.37 83.90 267.36 80.88&#xA;  C 254.05 78.97 241.03 86.74 233.52 97.23&#xA;  Q 233.41 97.39 233.58 97.48" stroke="#808080"/>
<path d="M 151.27 192.01&#xA;  C 151.43 164.21 176.95 140.94 204.31 143.90&#xA;  C 248.08 148.63 264.55 202.71 232.40 231.74&#xA;  Q 218.31 244.46 198.18 244.00&#xA;  C 188.57 243.78 179.02 243.93 169.45 244.06&#xA;  A 0.46 0.45 -0.7 0 0 169.00 244.51&#xA;  L 169.00 277.23&#xA;  A 0.27 0.27 0.0 0 0 169.26 277.50&#xA;  Q 181.87 277.51 194.51 277.50&#xA;  Q 207.98 277.49 214.44 276.47&#xA;  C 249.61 270.92 279.08 242.55 284.27 207.26&#xA;  C 290.76 163.07 262.14 121.71 218.55 112.17&#xA;  Q 202.55 108.67 187.00 111.07&#xA;  C 151.80 116.51 122.12 145.75 116.35 180.81&#xA;  Q 115.27 187.40 115.46 200.76&#xA;  Q 116.07 243.53 115.66 280.50&#xA;  Q 115.40 303.95 115.52 318.68&#xA;  Q 115.53 319.20 116.05 319.23&#xA;  C 125.60 319.79 134.96 314.92 141.40 308.15&#xA;  C 149.60 299.52 150.99 289.52 150.99 277.66&#xA;  C 151.01 249.10 151.10 220.56 151.27 192.01" stroke="#808080"/>
<path d="M 219.37 193.85&#xA;  A 19.10 19.10 0.0 0 0 200.27 174.75&#xA;  A 19.10 19.10 0.0 0 0 181.17 193.85&#xA;  A 19.10 19.10 0.0 0 0 200.27 212.95&#xA;  A 19.10 19.10 0.0 0 0 219.37 193.85" stroke="#a1d5ac"/>
</g>
<path d="M 190.14 0.00&#xA;  L 210.22 0.00&#xA;  C 312.51 5.93 393.02 85.38 400.00 187.65&#xA;  L 400.00 212.47&#xA;  C 392.93 314.59 312.40 394.28 210.10 400.00&#xA;  L 190.03 400.00&#xA;  C 85.51 394.00 4.38 311.30 0.00 206.85&#xA;  L 0.00 193.03&#xA;  C 4.45 88.59 85.62 5.92 190.14 0.00&#xA;  Z&#xA;  M 115.78 88.54&#xA;  C 98.13 102.57 96.82 127.64 114.19 142.73&#xA;  Q 114.49 142.98 114.73 142.67&#xA;  Q 135.83 114.87 166.26 97.73&#xA;  Q 167.02 97.30 166.47 96.63&#xA;  C 153.25 80.44 133.48 74.47 115.78 88.54&#xA;  Z&#xA;  M 233.58 97.48&#xA;  Q 264.27 114.68 285.54 142.68&#xA;  A 0.37 0.37 0.0 0 0 286.08 142.73&#xA;  Q 293.31 136.35 296.60 127.17&#xA;  C 304.03 106.46 288.37 83.90 267.36 80.88&#xA;  C 254.05 78.97 241.03 86.74 233.52 97.23&#xA;  Q 233.41 97.39 233.58 97.48&#xA;  Z&#xA;  M 151.27 192.01&#xA;  C 151.43 164.21 176.95 140.94 204.31 143.90&#xA;  C 248.08 148.63 264.55 202.71 232.40 231.74&#xA;  Q 218.31 244.46 198.18 244.00&#xA;  C 188.57 243.78 179.02 243.93 169.45 244.06&#xA;  A 0.46 0.45 -0.7 0 0 169.00 244.51&#xA;  L 169.00 277.23&#xA;  A 0.27 0.27 0.0 0 0 169.26 277.50&#xA;  Q 181.87 277.51 194.51 277.50&#xA;  Q 207.98 277.49 214.44 276.47&#xA;  C 249.61 270.92 279.08 242.55 284.27 207.26&#xA;  C 290.76 163.07 262.14 121.71 218.55 112.17&#xA;  Q 202.55 108.67 187.00 111.07&#xA;  C 151.80 116.51 122.12 145.75 116.35 180.81&#xA;  Q 115.27 187.40 115.46 200.76&#xA;  Q 116.07 243.53 115.66 280.50&#xA;  Q 115.40 303.95 115.52 318.68&#xA;  Q 115.53 319.20 116.05 319.23&#xA;  C 125.60 319.79 134.96 314.92 141.40 308.15&#xA;  C 149.60 299.52 150.99 289.52 150.99 277.66&#xA;  C 151.01 249.10 151.10 220.56 151.27 192.01&#xA;  Z&#xA;  M 219.37 193.85&#xA;  A 19.10 19.10 0.0 0 0 200.27 174.75&#xA;  A 19.10 19.10 0.0 0 0 181.17 193.85&#xA;  A 19.10 19.10 0.0 0 0 200.27 212.95&#xA;  A 19.10 19.10 0.0 0 0 219.37 193.85&#xA;  Z" fill="#ffffff"/>
<path d="M 114.19 142.73&#xA;  C 96.82 127.64 98.13 102.57 115.78 88.54&#xA;  C 133.48 74.47 153.25 80.44 166.47 96.63&#xA;  Q 167.02 97.30 166.26 97.73&#xA;  Q 135.83 114.87 114.73 142.67&#xA;  Q 114.49 142.98 114.19 142.73&#xA;  Z" fill="#000000"/>
<path d="M 233.58 97.48&#xA;  Q 233.41 97.39 233.52 97.23&#xA;  C 241.03 86.74 254.05 78.97 267.36 80.88&#xA;  C 288.37 83.90 304.03 106.46 296.60 127.17&#xA;  Q 293.31 136.35 286.08 142.73&#xA;  A 0.37 0.37 0.0 0 1 285.54 142.68&#xA;  Q 264.27 114.68 233.58 97.48&#xA;  Z" fill="#000000"/>
<path d="M 204.31 143.90&#xA;  C 176.95 140.94 151.43 164.21 151.27 192.01&#xA;  C 151.10 220.56 151.01 249.10 150.99 277.66&#xA;  C 150.99 289.52 149.60 299.52 141.40 308.15&#xA;  C 134.96 314.92 125.60 319.79 116.05 319.23&#xA;  Q 115.53 319.20 115.52 318.68&#xA;  Q 115.40 303.95 115.66 280.50&#xA;  Q 116.07 243.53 115.46 200.76&#xA;  Q 115.27 187.40 116.35 180.81&#xA;  C 122.12 145.75 151.80 116.51 187.00 111.07&#xA;  Q 202.55 108.67 218.55 112.17&#xA;  C 262.14 121.71 290.76 163.07 284.27 207.26&#xA;  C 279.08 242.55 249.61 270.92 214.44 276.47&#xA;  Q 207.98 277.49 194.51 277.50&#xA;  Q 181.87 277.51 169.26 277.50&#xA;  A 0.27 0.27 0.0 0 1 169.00 277.23&#xA;  L 169.00 244.51&#xA;  A 0.46 0.45 -0.7 0 1 169.45 244.06&#xA;  C 179.02 243.93 188.57 243.78 198.18 244.00&#xA;  Q 218.31 244.46 232.40 231.74&#xA;  C 264.55 202.71 248.08 148.63 204.31 143.90&#xA;  Z" fill="#000000"/>
<circle cx="200.27" cy="193.85" fill="#42aa58" r="19.10"/>
</svg>