<?xml version="1.0" encoding="utf-8"?>
<svg xmlns="http://www.w3.org/2000/svg" version="1.1" viewBox="0.00 0.00 48.00 48.00">
<circle cx="37.33" cy="12.00" fill="#6444f5" r="5.31"/>
<path d="M 13.02 28.24&#xA;  L 13.02 37.00&#xA;  A 0.27 0.27 0.0 0 1 12.75 37.27&#xA;  L 8.26 37.26&#xA;  A 0.26 0.25 -0.0 0 1 8.00 37.01&#xA;  L 8.00 11.01&#xA;  A 0.27 0.27 0.0 0 1 8.27 10.74&#xA;  Q 13.73 10.70 19.25 10.77&#xA;  C 23.61 10.82 28.15 15.03 27.50 19.72&#xA;  C 26.40 27.53 19.69 27.32 13.63 27.60&#xA;  Q 13.02 27.62 13.02 28.24&#xA;  Z&#xA;  M 13.01 15.20&#xA;  L 13.01 23.06&#xA;  A 0.38 0.38 0.0 0 0 13.39 23.44&#xA;  L 17.95 23.44&#xA;  A 4.56 4.11 -0.0 0 0 22.51 19.33&#xA;  L 22.51 18.93&#xA;  A 4.56 4.11 0.0 0 0 17.95 14.82&#xA;  L 13.39 14.82&#xA;  A 0.38 0.38 0.0 0 0 13.01 15.20&#xA;  Z" fill="#1f2327"/>
</svg>