<?xml version="1.0" encoding="utf-8"?>
<svg xmlns="http://www.w3.org/2000/svg" version="1.1" viewBox="0.00 0.00 26.00 25.00">
<g fill="none" stroke-linecap="butt" stroke-width="2.00">
<path d="M 16.86 3.91&#xA;  Q 17.59 5.44 16.74 5.90&#xA;  Q 15.80 6.40 16.04 7.39" stroke="#8a2dff"/>
<path d="M 16.04 7.39&#xA;  C 4.30 4.43 -0.01 19.02 11.29 21.34" stroke="#db8dff"/>
<path d="M 11.29 21.34&#xA;  L 11.96 25.00" stroke="#8a2dff"/>
<path d="M 11.29 21.34&#xA;  Q 13.88 21.58 16.47 20.89&#xA;  Q 17.03 20.74 17.53 21.00&#xA;  L 18.19 21.35&#xA;  Q 18.79 21.67 18.85 20.99&#xA;  C 18.94 20.00 18.92 19.79 19.46 18.94&#xA;  Q 24.10 11.56 16.04 7.39" stroke="#ae9fff"/>
<path d="M 10.78 13.72&#xA;  L 7.97 13.93&#xA;  A 0.28 0.28 0.0 0 0 7.71 14.23&#xA;  L 7.74 14.65&#xA;  A 1.62 1.51 85.6 0 0 9.37 16.15&#xA;  L 9.73 16.12&#xA;  A 1.62 1.51 85.6 0 0 11.11 14.39&#xA;  L 11.08 13.97&#xA;  A 0.28 0.28 0.0 0 0 10.78 13.72" stroke="#85889e"/>
<path d="M 17.93 13.83&#xA;  L 14.95 13.87&#xA;  A 0.26 0.26 0.0 0 0 14.70 14.13&#xA;  L 14.70 14.39&#xA;  A 1.80 1.62 89.2 0 0 16.35 16.17&#xA;  L 16.61 16.17&#xA;  A 1.80 1.62 89.2 0 0 18.20 14.35&#xA;  L 18.20 14.09&#xA;  A 0.26 0.26 0.0 0 0 17.93 13.83" stroke="#85889e"/>
</g>
<path d="M 8.05 0.00&#xA;  L 8.97 0.00&#xA;  L 9.71 0.87&#xA;  A 0.64 0.63 -43.9 0 1 9.69 1.70&#xA;  Q 9.00 2.46 8.98 3.48&#xA;  Q 8.98 3.98 9.47 3.88&#xA;  Q 13.16 3.09 16.86 3.91&#xA;  Q 17.59 5.44 16.74 5.90&#xA;  Q 15.80 6.40 16.04 7.39&#xA;  C 4.30 4.43 -0.01 19.02 11.29 21.34&#xA;  L 11.96 25.00&#xA;  L 11.08 25.00&#xA;  Q 5.15 23.47 0.00 16.61&#xA;  L 0.00 11.31&#xA;  L 7.70 4.39&#xA;  Q 8.01 4.11 7.95 3.70&#xA;  Q 7.80 2.68 7.27 1.77&#xA;  A 0.90 0.90 0.0 0 1 7.25 0.90&#xA;  Q 7.54 0.35 8.05 0.00&#xA;  Z" fill="#b71bff"/>
<path d="M 17.06 0.00&#xA;  L 18.31 0.00&#xA;  Q 18.63 1.44 18.02 3.70&#xA;  A 0.89 0.89 0.0 0 0 18.46 4.71&#xA;  Q 21.74 6.42 23.57 9.62&#xA;  Q 23.81 10.04 24.25 10.21&#xA;  L 26.00 10.86&#xA;  L 26.00 16.73&#xA;  Q 20.43 23.78 14.63 25.00&#xA;  L 11.96 25.00&#xA;  L 11.29 21.34&#xA;  Q 13.88 21.58 16.47 20.89&#xA;  Q 17.03 20.74 17.53 21.00&#xA;  L 18.19 21.35&#xA;  Q 18.79 21.67 18.85 20.99&#xA;  C 18.94 20.00 18.92 19.79 19.46 18.94&#xA;  Q 24.10 11.56 16.04 7.39&#xA;  Q 15.80 6.40 16.74 5.90&#xA;  Q 17.59 5.44 16.86 3.91&#xA;  Q 16.81 2.68 16.26 1.73&#xA;  A 0.85 0.82 -48.0 0 1 16.23 0.92&#xA;  Q 16.51 0.34 17.06 0.00&#xA;  Z" fill="#5c3eff"/>
<path d="M 16.04 7.39&#xA;  Q 24.10 11.56 19.46 18.94&#xA;  C 18.92 19.79 18.94 20.00 18.85 20.99&#xA;  Q 18.79 21.67 18.19 21.35&#xA;  L 17.53 21.00&#xA;  Q 17.03 20.74 16.47 20.89&#xA;  Q 13.88 21.58 11.29 21.34&#xA;  C -0.01 19.02 4.30 4.43 16.04 7.39&#xA;  Z&#xA;  M 10.78 13.72&#xA;  L 7.97 13.93&#xA;  A 0.28 0.28 0.0 0 0 7.71 14.23&#xA;  L 7.74 14.65&#xA;  A 1.62 1.51 85.6 0 0 9.37 16.15&#xA;  L 9.73 16.12&#xA;  A 1.62 1.51 85.6 0 0 11.11 14.39&#xA;  L 11.08 13.97&#xA;  A 0.28 0.28 0.0 0 0 10.78 13.72&#xA;  Z&#xA;  M 17.93 13.83&#xA;  L 14.95 13.87&#xA;  A 0.26 0.26 0.0 0 0 14.70 14.13&#xA;  L 14.70 14.39&#xA;  A 1.80 1.62 89.2 0 0 16.35 16.17&#xA;  L 16.61 16.17&#xA;  A 1.80 1.62 89.2 0 0 18.20 14.35&#xA;  L 18.20 14.09&#xA;  A 0.26 0.26 0.0 0 0 17.93 13.83&#xA;  Z" fill="#ffffff"/>
<path d="M 10.78 13.72&#xA;  A 0.28 0.28 0.0 0 1 11.08 13.97&#xA;  L 11.11 14.39&#xA;  A 1.62 1.51 85.6 0 1 9.73 16.12&#xA;  L 9.37 16.15&#xA;  A 1.62 1.51 85.6 0 1 7.74 14.65&#xA;  L 7.71 14.23&#xA;  A 0.28 0.28 0.0 0 1 7.97 13.93&#xA;  L 10.78 13.72&#xA;  Z" fill="#0a113d"/>
<path d="M 17.93 13.83&#xA;  A 0.26 0.26 0.0 0 1 18.20 14.09&#xA;  L 18.20 14.35&#xA;  A 1.80 1.62 89.2 0 1 16.61 16.17&#xA;  L 16.35 16.17&#xA;  A 1.80 1.62 89.2 0 1 14.70 14.39&#xA;  L 14.70 14.13&#xA;  A 0.26 0.26 0.0 0 1 14.95 13.87&#xA;  L 17.93 13.83&#xA;  Z" fill="#0a113d"/>
</svg>