<?xml version="1.0" encoding="utf-8"?>
<svg xmlns="http://www.w3.org/2000/svg" version="1.1" viewBox="0.00 0.00 32.00 32.00">
<path d="M 23.83 4.18&#xA;  L 21.27 5.08&#xA;  A 1.54 1.53 -45.3 0 1 20.29 5.09&#xA;  Q 15.86 3.57 11.51 5.20&#xA;  Q 11.04 5.38 10.57 5.19&#xA;  C 8.69 4.41 4.74 2.50 4.05 6.00&#xA;  Q 3.75 7.54 5.16 10.23&#xA;  Q 5.40 10.69 5.21 11.17&#xA;  C 1.54 20.51 9.58 30.79 19.50 27.51&#xA;  C 26.32 25.27 29.87 18.11 27.02 11.40&#xA;  A 1.41 1.40 41.3 0 1 26.96 10.48&#xA;  L 27.75 7.69" fill="none" stroke="#df2d68" stroke-linecap="butt" stroke-opacity="0.584" stroke-width="2.00"/>
<path d="M 23.83 4.18&#xA;  L 21.27 5.08&#xA;  A 1.54 1.53 -45.3 0 1 20.29 5.09&#xA;  Q 15.86 3.57 11.51 5.20&#xA;  Q 11.04 5.38 10.57 5.19&#xA;  C 8.69 4.41 4.74 2.50 4.05 6.00&#xA;  Q 3.75 7.54 5.16 10.23&#xA;  Q 5.40 10.69 5.21 11.17&#xA;  C 1.54 20.51 9.58 30.79 19.50 27.51&#xA;  C 26.32 25.27 29.87 18.11 27.02 11.40&#xA;  A 1.41 1.40 41.3 0 1 26.96 10.48&#xA;  L 27.75 7.69&#xA;  C 29.36 9.45 28.94 10.91 29.34 13.06&#xA;  C 30.91 21.37 26.55 27.66 18.50 29.61&#xA;  Q 15.52 30.33 12.23 29.26&#xA;  Q 3.71 26.47 2.55 18.07&#xA;  Q 2.37 16.76 2.58 12.91&#xA;  C 2.85 7.86 0.97 2.02 8.75 2.51&#xA;  C 13.30 2.80 17.69 2.19 22.24 2.87&#xA;  Q 23.58 3.07 23.83 4.18&#xA;  Z" fill="#20080f" fill-opacity="0.169"/>
<path d="M 23.83 4.18&#xA;  Q 25.39 3.79 27.01 4.13&#xA;  Q 27.53 4.24 27.75 4.73&#xA;  Q 28.27 5.88 27.75 7.69&#xA;  L 26.96 10.48&#xA;  A 1.41 1.40 41.3 0 0 27.02 11.40&#xA;  C 29.87 18.11 26.32 25.27 19.50 27.51&#xA;  C 9.58 30.79 1.54 20.51 5.21 11.17&#xA;  Q 5.40 10.69 5.16 10.23&#xA;  Q 3.75 7.54 4.05 6.00&#xA;  C 4.74 2.50 8.69 4.41 10.57 5.19&#xA;  Q 11.04 5.38 11.51 5.20&#xA;  Q 15.86 3.57 20.29 5.09&#xA;  A 1.54 1.53 -45.3 0 0 21.27 5.08&#xA;  L 23.83 4.18&#xA;  Z" fill="#ff3377"/>
</svg>