<?xml version="1.0" encoding="utf-8"?>
<svg xmlns="http://www.w3.org/2000/svg" viewBox="0.00 0.00 48.00 48.00" version="1.1">
<path d="M 21.81 0.00&#xA;  L 26.34 0.00&#xA;  Q 44.92 3.14 48.00 21.82&#xA;  L 48.00 26.32&#xA;  Q 44.83 44.97 26.19 48.00&#xA;  L 21.65 48.00&#xA;  Q 3.09 44.86 0.00 26.19&#xA;  L 0.00 21.69&#xA;  Q 3.20 3.03 21.81 0.00&#xA;  Z&#xA;  M 26.69 7.37&#xA;  A 2.63 2.63 0.0 0 0 24.06 4.74&#xA;  L 23.94 4.74&#xA;  A 2.63 2.63 0.0 0 0 21.31 7.37&#xA;  L 21.31 40.63&#xA;  A 2.63 2.63 0.0 0 0 23.94 43.26&#xA;  L 24.06 43.26&#xA;  A 2.63 2.63 0.0 0 0 26.69 40.63&#xA;  L 26.69 7.37&#xA;  Z&#xA;  M 16.74 37.45&#xA;  L 16.74 11.52&#xA;  A 0.43 0.43 0.0 0 0 16.13 11.13&#xA;  Q 11.34 13.36 9.53 18.47&#xA;  Q 4.99 31.29 16.03 37.86&#xA;  A 0.47 0.47 0.0 0 0 16.74 37.45&#xA;  Z&#xA;  M 31.88 37.66&#xA;  C 35.76 36.18 38.52 32.28 39.36 28.27&#xA;  Q 41.79 16.61 31.90 11.13&#xA;  A 0.43 0.43 0.0 0 0 31.26 11.51&#xA;  L 31.25 37.22&#xA;  A 0.47 0.46 79.7 0 0 31.88 37.66&#xA;  Z" fill="#24292f"/>
</svg>