<?xml version="1.0" encoding="utf-8"?>
<svg xmlns="http://www.w3.org/2000/svg" version="1.1" viewBox="0.00 0.00 128.00 128.00">
<g fill="none" stroke-linecap="butt" stroke-width="2.00">
<path d="M 63.7191 121.4399&#xA;  A 56.78 54.87 89.9 0 0 118.4899 64.5642&#xA;  A 56.78 54.87 89.9 0 0 63.5209 7.8801&#xA;  A 56.78 54.87 89.9 0 0 8.7501 64.7558&#xA;  A 56.78 54.87 89.9 0 0 63.7191 121.4399" stroke="#717470"/>
<path d="M 45.56 32.05&#xA;  L 47.63 51.65" stroke="#6c6e69"/>
<path d="M 47.63 51.65&#xA;  C 48.07 70.52 73.87 72.75 78.79 55.50&#xA;  Q 80.01 51.24 81.48 35.00&#xA;  C 81.95 29.89 81.23 24.71 77.15 21.14" stroke="#414142"/>
<path d="M 77.15 21.14&#xA;  Q 72.02 16.34 65.43 16.60" stroke="#6c6e69"/>
<path d="M 65.43 16.60&#xA;  C 54.53 15.52 46.05 20.24 45.56 32.05" stroke="#7d807b"/>
<path d="M 65.43 16.60&#xA;  Q 63.81 18.41 59.27 19.49&#xA;  C 53.81 20.78 50.60 25.27 48.69 31.02&#xA;  Q 48.52 31.52 48.04 31.71&#xA;  Q 46.90 32.16 45.56 32.05" stroke="#e7ece0"/>
<path d="M 77.15 21.14&#xA;  Q 79.16 28.48 77.60 35.39" stroke="#aaaca7"/>
<path d="M 77.60 35.39&#xA;  Q 74.94 31.86 72.17 31.83&#xA;  Q 63.71 31.75 55.26 32.04&#xA;  C 45.73 32.37 45.97 45.84 55.00 45.98&#xA;  Q 62.74 46.09 70.50 46.06&#xA;  Q 75.03 46.04 77.17 42.92" stroke="#6c6e69"/>
<path d="M 77.17 42.92&#xA;  Q 78.88 56.45 67.76 63.15&#xA;  C 62.69 66.20 55.48 64.21 52.01 59.95&#xA;  Q 51.10 58.83 49.72 55.85&#xA;  Q 48.75 53.75 47.63 51.65" stroke="#aaaca7"/>
<path d="M 77.17 42.92&#xA;  Q 79.19 39.25 77.60 35.39" stroke="#414142"/>
<path d="M 52.53 71.91&#xA;  L 49.94 71.20" stroke="#414142"/>
<path d="M 49.94 71.20&#xA;  Q 45.28 69.90 41.56 71.35" stroke="#7d807b"/>
<path d="M 41.56 71.35&#xA;  C 37.49 73.92 38.27 78.71 38.79 83.61&#xA;  Q 40.32 98.15 41.60 112.72&#xA;  C 41.73 114.23 42.13 114.58 43.46 115.11&#xA;  Q 63.68 123.18 83.55 115.40&#xA;  Q 85.46 114.65 85.59 113.26&#xA;  Q 87.67 90.68 88.58 84.25&#xA;  Q 89.54 77.45 87.50 73.29" stroke="#414142"/>
<path d="M 87.50 73.29&#xA;  C 83.06 68.50 77.40 71.26 72.24 72.40" stroke="#7d807b"/>
<path d="M 72.24 72.40&#xA;  L 71.06 72.36&#xA;  A 0.56 0.56 0.0 0 1 70.60 71.52&#xA;  Q 71.62 69.80 72.06 67.78&#xA;  A 0.86 0.86 0.0 0 0 70.89 66.81&#xA;  C 65.05 69.25 61.28 68.21 55.38 67.09&#xA;  Q 54.87 66.99 54.66 67.47&#xA;  Q 54.41 68.00 54.53 68.61&#xA;  A 1.60 1.59 19.3 0 0 54.90 69.37&#xA;  Q 55.42 69.96 55.63 70.72&#xA;  Q 55.81 71.33 55.24 71.60&#xA;  Q 54.11 72.13 52.53 71.91" stroke="#1c1d1e"/>
<path d="M 72.24 72.40&#xA;  L 66.45 73.03" stroke="#979b95"/>
<path d="M 66.45 73.03&#xA;  L 56.28 72.75" stroke="#5a5c5c"/>
<path d="M 56.28 72.75&#xA;  L 52.05 72.34" stroke="#979b95"/>
<path d="M 52.05 72.34&#xA;  Q 52.66 72.28 52.53 71.91" stroke="#5a5c5c"/>
<path d="M 87.50 73.29&#xA;  L 87.11 80.22" stroke="#bcbfb9"/>
<path d="M 87.11 80.22&#xA;  Q 85.97 81.23 85.17 79.80&#xA;  C 84.14 77.96 83.99 74.54 80.63 74.36&#xA;  C 73.17 73.96 65.38 75.72 59.24 76.24&#xA;  Q 54.38 76.66 49.49 77.00&#xA;  Q 48.97 77.03 48.62 76.65&#xA;  C 47.07 74.98 46.13 74.07 43.74 74.72&#xA;  A 1.07 1.07 0.0 0 0 43.05 75.30&#xA;  Q 42.35 76.83 41.95 78.44&#xA;  Q 41.52 80.19 40.56 78.64" stroke="#e7ece0"/>
<path d="M 40.56 78.64&#xA;  Q 38.86 75.22 41.56 71.35" stroke="#bcbfb9"/>
<path d="M 49.94 71.20&#xA;  Q 46.50 70.99 52.05 72.34" stroke="#bcbfb9"/>
<path d="M 56.28 72.75&#xA;  C 59.77 73.02 62.68 73.82 66.45 73.03" stroke="#bcbfb9"/>
<path d="M 40.56 78.64&#xA;  Q 40.15 79.87 40.39 80.52&#xA;  C 43.15 88.18 47.68 99.62 53.30 106.96&#xA;  C 59.60 115.17 69.97 117.73 78.91 111.94&#xA;  A 1.42 1.41 -7.0 0 0 79.50 111.19&#xA;  C 80.14 109.37 80.89 107.60 81.30 105.70&#xA;  Q 84.04 92.93 87.11 80.22" stroke="#aaaca7"/>
<path d="M 32.71 69.40&#xA;  L 27.56 71.47" stroke="#6c6e69"/>
<path d="M 27.56 71.47&#xA;  Q 20.51 73.66 13.61 76.26&#xA;  Q 12.53 76.66 12.46 77.38&#xA;  Q 12.38 78.10 12.82 79.20" stroke="#7d807b"/>
<path d="M 12.82 79.20&#xA;  L 14.48 84.14" stroke="#6c6e69"/>
<path d="M 14.48 84.14&#xA;  Q 15.29 87.52 17.29 90.75&#xA;  A 1.20 1.20 0.0 0 0 18.75 91.23&#xA;  L 36.27 84.32&#xA;  A 0.77 0.76 74.2 0 0 36.74 83.47&#xA;  C 35.93 78.88 34.75 74.30 38.02 70.23&#xA;  A 0.55 0.55 0.0 0 0 37.73 69.35&#xA;  Q 34.24 68.42 32.71 69.40" stroke="#414142"/>
<path d="M 14.48 84.14&#xA;  Q 22.98 82.29 30.82 78.60&#xA;  Q 31.26 78.40 31.33 77.92&#xA;  L 32.71 69.40" stroke="#aaaca7"/>
<path d="M 12.82 79.20&#xA;  Q 21.23 77.36 28.66 73.53&#xA;  A 0.86 0.86 0.0 0 0 29.01 72.32&#xA;  Q 28.47 71.41 27.56 71.47" stroke="#e7ece0"/>
<path d="M 112.70 84.39&#xA;  L 114.28 79.76" stroke="#6c6e69"/>
<path d="M 114.28 79.76&#xA;  Q 114.96 78.54 114.85 77.28&#xA;  Q 114.80 76.75 114.29 76.57&#xA;  L 98.25 71.01" stroke="#7d807b"/>
<path d="M 98.25 71.01&#xA;  Q 97.95 70.68 96.86 70.22" stroke="#6c6e69"/>
<path d="M 96.86 70.22&#xA;  Q 93.69 67.95 89.62 69.36&#xA;  A 0.49 0.48 65.6 0 0 89.36 70.06&#xA;  Q 92.88 76.20 90.46 82.97&#xA;  A 1.18 1.17 -69.7 0 0 91.14 84.46&#xA;  L 109.29 91.46&#xA;  A 0.78 0.78 0.0 0 0 110.30 91.00&#xA;  L 112.70 84.39" stroke="#414142"/>
<path d="M 96.86 70.22&#xA;  Q 94.62 73.94 96.00 78.23&#xA;  Q 96.15 78.71 96.63 78.87&#xA;  L 112.70 84.39" stroke="#aaaca7"/>
<path d="M 98.25 71.01&#xA;  Q 97.73 71.14 97.50 71.45&#xA;  Q 97.21 71.86 97.55 72.23&#xA;  C 100.83 75.74 109.61 78.30 114.28 79.76" stroke="#e7ece0"/>
<path d="M 70.65 55.02&#xA;  L 55.15 55.08&#xA;  A 1.21 1.21 0.0 0 0 53.94 56.29&#xA;  L 53.95 56.81&#xA;  A 3.84 3.67 -0.2 0 0 57.80 60.47&#xA;  L 68.04 60.43&#xA;  A 3.84 3.67 -0.2 0 0 71.87 56.75&#xA;  L 71.86 56.23&#xA;  A 1.21 1.21 0.0 0 0 70.65 55.02" stroke="#6c6e69"/>
<path d="M 75.7697 38.8182&#xA;  A 4.31 4.31 0.0 0 0 71.4522 34.5157&#xA;  L 55.0922 34.5443&#xA;  A 4.31 4.31 0.0 0 0 50.7897 38.8618&#xA;  L 50.7903 39.2018&#xA;  A 4.31 4.31 0.0 0 0 55.1078 43.5043&#xA;  L 71.4678 43.4757&#xA;  A 4.31 4.31 0.0 0 0 75.7703 39.1582&#xA;  L 75.7697 38.8182" stroke="#800570"/>
</g>
<path d="M 65.0754 127.8137&#xA;  A 63.27 61.38 88.7 0 1 2.2758 65.9525&#xA;  A 63.27 61.38 88.7 0 1 62.2046 1.3063&#xA;  A 63.27 61.38 88.7 0 1 125.0042 63.1675&#xA;  A 63.27 61.38 88.7 0 1 65.0754 127.8137&#xA;  Z&#xA;  M 63.7191 121.4399&#xA;  A 56.78 54.87 89.9 0 0 118.4899 64.5642&#xA;  A 56.78 54.87 89.9 0 0 63.5209 7.8801&#xA;  A 56.78 54.87 89.9 0 0 8.7501 64.7558&#xA;  A 56.78 54.87 89.9 0 0 63.7191 121.4399&#xA;  Z" fill="#e0e5dc"/>
<path d="M 63.7191 121.4399&#xA;  A 56.78 54.87 89.9 0 1 8.7501 64.7558&#xA;  A 56.78 54.87 89.9 0 1 63.5209 7.8801&#xA;  A 56.78 54.87 89.9 0 1 118.4899 64.5642&#xA;  A 56.78 54.87 89.9 0 1 63.7191 121.4399&#xA;  Z&#xA;  M 45.56 32.05&#xA;  L 47.63 51.65&#xA;  C 48.07 70.52 73.87 72.75 78.79 55.50&#xA;  Q 80.01 51.24 81.48 35.00&#xA;  C 81.95 29.89 81.23 24.71 77.15 21.14&#xA;  Q 72.02 16.34 65.43 16.60&#xA;  C 54.53 15.52 46.05 20.24 45.56 32.05&#xA;  Z&#xA;  M 52.53 71.91&#xA;  L 49.94 71.20&#xA;  Q 45.28 69.90 41.56 71.35&#xA;  C 37.49 73.92 38.27 78.71 38.79 83.61&#xA;  Q 40.32 98.15 41.60 112.72&#xA;  C 41.73 114.23 42.13 114.58 43.46 115.11&#xA;  Q 63.68 123.18 83.55 115.40&#xA;  Q 85.46 114.65 85.59 113.26&#xA;  Q 87.67 90.68 88.58 84.25&#xA;  Q 89.54 77.45 87.50 73.29&#xA;  C 83.06 68.50 77.40 71.26 72.24 72.40&#xA;  L 71.06 72.36&#xA;  A 0.56 0.56 0.0 0 1 70.60 71.52&#xA;  Q 71.62 69.80 72.06 67.78&#xA;  A 0.86 0.86 0.0 0 0 70.89 66.81&#xA;  C 65.05 69.25 61.28 68.21 55.38 67.09&#xA;  Q 54.87 66.99 54.66 67.47&#xA;  Q 54.41 68.00 54.53 68.61&#xA;  A 1.60 1.59 19.3 0 0 54.90 69.37&#xA;  Q 55.42 69.96 55.63 70.72&#xA;  Q 55.81 71.33 55.24 71.60&#xA;  Q 54.11 72.13 52.53 71.91&#xA;  Z&#xA;  M 32.71 69.40&#xA;  L 27.56 71.47&#xA;  Q 20.51 73.66 13.61 76.26&#xA;  Q 12.53 76.66 12.46 77.38&#xA;  Q 12.38 78.10 12.82 79.20&#xA;  L 14.48 84.14&#xA;  Q 15.29 87.52 17.29 90.75&#xA;  A 1.20 1.20 0.0 0 0 18.75 91.23&#xA;  L 36.27 84.32&#xA;  A 0.77 0.76 74.2 0 0 36.74 83.47&#xA;  C 35.93 78.88 34.75 74.30 38.02 70.23&#xA;  A 0.55 0.55 0.0 0 0 37.73 69.35&#xA;  Q 34.24 68.42 32.71 69.40&#xA;  Z&#xA;  M 112.70 84.39&#xA;  L 114.28 79.76&#xA;  Q 114.96 78.54 114.85 77.28&#xA;  Q 114.80 76.75 114.29 76.57&#xA;  L 98.25 71.01&#xA;  Q 97.95 70.68 96.86 70.22&#xA;  Q 93.69 67.95 89.62 69.36&#xA;  A 0.49 0.48 65.6 0 0 89.36 70.06&#xA;  Q 92.88 76.20 90.46 82.97&#xA;  A 1.18 1.17 -69.7 0 0 91.14 84.46&#xA;  L 109.29 91.46&#xA;  A 0.78 0.78 0.0 0 0 110.30 91.00&#xA;  L 112.70 84.39&#xA;  Z" fill="#020204"/>
<path d="M 65.43 16.60&#xA;  Q 63.81 18.41 59.27 19.49&#xA;  C 53.81 20.78 50.60 25.27 48.69 31.02&#xA;  Q 48.52 31.52 48.04 31.71&#xA;  Q 46.90 32.16 45.56 32.05&#xA;  C 46.05 20.24 54.53 15.52 65.43 16.60&#xA;  Z" fill="#f8fef2"/>
<path d="M 65.43 16.60&#xA;  Q 72.02 16.34 77.15 21.14&#xA;  Q 79.16 28.48 77.60 35.39&#xA;  Q 74.94 31.86 72.17 31.83&#xA;  Q 63.71 31.75 55.26 32.04&#xA;  C 45.73 32.37 45.97 45.84 55.00 45.98&#xA;  Q 62.74 46.09 70.50 46.06&#xA;  Q 75.03 46.04 77.17 42.92&#xA;  Q 78.88 56.45 67.76 63.15&#xA;  C 62.69 66.20 55.48 64.21 52.01 59.95&#xA;  Q 51.10 58.83 49.72 55.85&#xA;  Q 48.75 53.75 47.63 51.65&#xA;  L 45.56 32.05&#xA;  Q 46.90 32.16 48.04 31.71&#xA;  Q 48.52 31.52 48.69 31.02&#xA;  C 50.60 25.27 53.81 20.78 59.27 19.49&#xA;  Q 63.81 18.41 65.43 16.60&#xA;  Z&#xA;  M 70.65 55.02&#xA;  L 55.15 55.08&#xA;  A 1.21 1.21 0.0 0 0 53.94 56.29&#xA;  L 53.95 56.81&#xA;  A 3.84 3.67 -0.2 0 0 57.80 60.47&#xA;  L 68.04 60.43&#xA;  A 3.84 3.67 -0.2 0 0 71.87 56.75&#xA;  L 71.86 56.23&#xA;  A 1.21 1.21 0.0 0 0 70.65 55.02&#xA;  Z" fill="#d5d9ce"/>
<path d="M 77.15 21.14&#xA;  C 81.23 24.71 81.95 29.89 81.48 35.00&#xA;  Q 80.01 51.24 78.79 55.50&#xA;  C 73.87 72.75 48.07 70.52 47.63 51.65&#xA;  Q 48.75 53.75 49.72 55.85&#xA;  Q 51.10 58.83 52.01 59.95&#xA;  C 55.48 64.21 62.69 66.20 67.76 63.15&#xA;  Q 78.88 56.45 77.17 42.92&#xA;  Q 79.19 39.25 77.60 35.39&#xA;  Q 79.16 28.48 77.15 21.14&#xA;  Z" fill="#7f7f80"/>
<path d="M 77.60 35.39&#xA;  Q 79.19 39.25 77.17 42.92&#xA;  Q 75.03 46.04 70.50 46.06&#xA;  Q 62.74 46.09 55.00 45.98&#xA;  C 45.97 45.84 45.73 32.37 55.26 32.04&#xA;  Q 63.71 31.75 72.17 31.83&#xA;  Q 74.94 31.86 77.60 35.39&#xA;  Z&#xA;  M 75.7697 38.8182&#xA;  A 4.31 4.31 0.0 0 0 71.4522 34.5157&#xA;  L 55.0922 34.5443&#xA;  A 4.31 4.31 0.0 0 0 50.7897 38.8618&#xA;  L 50.7903 39.2018&#xA;  A 4.31 4.31 0.0 0 0 55.1078 43.5043&#xA;  L 71.4678 43.4757&#xA;  A 4.31 4.31 0.0 0 0 75.7703 39.1582&#xA;  L 75.7697 38.8182&#xA;  Z" fill="#020204"/>
<rect fill="#fd07dc" height="8.96" rx="4.31" transform="translate(63.28,39.01) rotate(-0.1)" width="24.98" x="-12.49" y="-4.48"/>
<path d="M 70.65 55.02&#xA;  A 1.21 1.21 0.0 0 1 71.86 56.23&#xA;  L 71.87 56.75&#xA;  A 3.84 3.67 -0.2 0 1 68.04 60.43&#xA;  L 57.80 60.47&#xA;  A 3.84 3.67 -0.2 0 1 53.95 56.81&#xA;  L 53.94 56.29&#xA;  A 1.21 1.21 0.0 0 1 55.15 55.08&#xA;  L 70.65 55.02&#xA;  Z" fill="#020204"/>
<path d="M 72.24 72.40&#xA;  L 66.45 73.03&#xA;  L 56.28 72.75&#xA;  L 52.05 72.34&#xA;  Q 52.66 72.28 52.53 71.91&#xA;  Q 54.11 72.13 55.24 71.60&#xA;  Q 55.81 71.33 55.63 70.72&#xA;  Q 55.42 69.96 54.90 69.37&#xA;  A 1.60 1.59 19.3 0 1 54.53 68.61&#xA;  Q 54.41 68.00 54.66 67.47&#xA;  Q 54.87 66.99 55.38 67.09&#xA;  C 61.28 68.21 65.05 69.25 70.89 66.81&#xA;  A 0.86 0.86 0.0 0 1 72.06 67.78&#xA;  Q 71.62 69.80 70.60 71.52&#xA;  A 0.56 0.56 0.0 0 0 71.06 72.36&#xA;  L 72.24 72.40&#xA;  Z" fill="#353838"/>
<path d="M 14.48 84.14&#xA;  Q 22.98 82.29 30.82 78.60&#xA;  Q 31.26 78.40 31.33 77.92&#xA;  L 32.71 69.40&#xA;  Q 34.24 68.42 37.73 69.35&#xA;  A 0.55 0.55 0.0 0 1 38.02 70.23&#xA;  C 34.75 74.30 35.93 78.88 36.74 83.47&#xA;  A 0.77 0.76 74.2 0 1 36.27 84.32&#xA;  L 18.75 91.23&#xA;  A 1.20 1.20 0.0 0 1 17.29 90.75&#xA;  Q 15.29 87.52 14.48 84.14&#xA;  Z" fill="#7f7f80"/>
<path d="M 96.86 70.22&#xA;  Q 94.62 73.94 96.00 78.23&#xA;  Q 96.15 78.71 96.63 78.87&#xA;  L 112.70 84.39&#xA;  L 110.30 91.00&#xA;  A 0.78 0.78 0.0 0 1 109.29 91.46&#xA;  L 91.14 84.46&#xA;  A 1.18 1.17 -69.7 0 1 90.46 82.97&#xA;  Q 92.88 76.20 89.36 70.06&#xA;  A 0.49 0.48 65.6 0 1 89.62 69.36&#xA;  Q 93.69 67.95 96.86 70.22&#xA;  Z" fill="#7f7f80"/>
<path d="M 32.71 69.40&#xA;  L 31.33 77.92&#xA;  Q 31.26 78.40 30.82 78.60&#xA;  Q 22.98 82.29 14.48 84.14&#xA;  L 12.82 79.20&#xA;  Q 21.23 77.36 28.66 73.53&#xA;  A 0.86 0.86 0.0 0 0 29.01 72.32&#xA;  Q 28.47 71.41 27.56 71.47&#xA;  L 32.71 69.40&#xA;  Z" fill="#d5d9ce"/>
<path d="M 87.50 73.29&#xA;  L 87.11 80.22&#xA;  Q 85.97 81.23 85.17 79.80&#xA;  C 84.14 77.96 83.99 74.54 80.63 74.36&#xA;  C 73.17 73.96 65.38 75.72 59.24 76.24&#xA;  Q 54.38 76.66 49.49 77.00&#xA;  Q 48.97 77.03 48.62 76.65&#xA;  C 47.07 74.98 46.13 74.07 43.74 74.72&#xA;  A 1.07 1.07 0.0 0 0 43.05 75.30&#xA;  Q 42.35 76.83 41.95 78.44&#xA;  Q 41.52 80.19 40.56 78.64&#xA;  Q 38.86 75.22 41.56 71.35&#xA;  Q 45.28 69.90 49.94 71.20&#xA;  Q 46.50 70.99 52.05 72.34&#xA;  L 56.28 72.75&#xA;  C 59.77 73.02 62.68 73.82 66.45 73.03&#xA;  L 72.24 72.40&#xA;  C 77.40 71.26 83.06 68.50 87.50 73.29&#xA;  Z" fill="#f8fef2"/>
<path d="M 96.86 70.22&#xA;  Q 97.95 70.68 98.25 71.01&#xA;  Q 97.73 71.14 97.50 71.45&#xA;  Q 97.21 71.86 97.55 72.23&#xA;  C 100.83 75.74 109.61 78.30 114.28 79.76&#xA;  L 112.70 84.39&#xA;  L 96.63 78.87&#xA;  Q 96.15 78.71 96.00 78.23&#xA;  Q 94.62 73.94 96.86 70.22&#xA;  Z" fill="#d5d9ce"/>
<path d="M 98.25 71.01&#xA;  L 114.29 76.57&#xA;  Q 114.80 76.75 114.85 77.28&#xA;  Q 114.96 78.54 114.28 79.76&#xA;  C 109.61 78.30 100.83 75.74 97.55 72.23&#xA;  Q 97.21 71.86 97.50 71.45&#xA;  Q 97.73 71.14 98.25 71.01&#xA;  Z" fill="#f8fef2"/>
<path d="M 49.94 71.20&#xA;  L 52.53 71.91&#xA;  Q 52.66 72.28 52.05 72.34&#xA;  Q 46.50 70.99 49.94 71.20&#xA;  Z" fill="#7f7f80"/>
<path d="M 27.56 71.47&#xA;  Q 28.47 71.41 29.01 72.32&#xA;  A 0.86 0.86 0.0 0 1 28.66 73.53&#xA;  Q 21.23 77.36 12.82 79.20&#xA;  Q 12.38 78.10 12.46 77.38&#xA;  Q 12.53 76.66 13.61 76.26&#xA;  Q 20.51 73.66 27.56 71.47&#xA;  Z" fill="#f8fef2"/>
<path d="M 41.56 71.35&#xA;  Q 38.86 75.22 40.56 78.64&#xA;  Q 40.15 79.87 40.39 80.52&#xA;  C 43.15 88.18 47.68 99.62 53.30 106.96&#xA;  C 59.60 115.17 69.97 117.73 78.91 111.94&#xA;  A 1.42 1.41 -7.0 0 0 79.50 111.19&#xA;  C 80.14 109.37 80.89 107.60 81.30 105.70&#xA;  Q 84.04 92.93 87.11 80.22&#xA;  L 87.50 73.29&#xA;  Q 89.54 77.45 88.58 84.25&#xA;  Q 87.67 90.68 85.59 113.26&#xA;  Q 85.46 114.65 83.55 115.40&#xA;  Q 63.68 123.18 43.46 115.11&#xA;  C 42.13 114.58 41.73 114.23 41.60 112.72&#xA;  Q 40.32 98.15 38.79 83.61&#xA;  C 38.27 78.71 37.49 73.92 41.56 71.35&#xA;  Z" fill="#7f7f80"/>
<path d="M 56.28 72.75&#xA;  L 66.45 73.03&#xA;  C 62.68 73.82 59.77 73.02 56.28 72.75&#xA;  Z" fill="#7f7f80"/>
<path d="M 87.11 80.22&#xA;  Q 84.04 92.93 81.30 105.70&#xA;  C 80.89 107.60 80.14 109.37 79.50 111.19&#xA;  A 1.42 1.41 -7.0 0 1 78.91 111.94&#xA;  C 69.97 117.73 59.60 115.17 53.30 106.96&#xA;  C 47.68 99.62 43.15 88.18 40.39 80.52&#xA;  Q 40.15 79.87 40.56 78.64&#xA;  Q 41.52 80.19 41.95 78.44&#xA;  Q 42.35 76.83 43.05 75.30&#xA;  A 1.07 1.07 0.0 0 1 43.74 74.72&#xA;  C 46.13 74.07 47.07 74.98 48.62 76.65&#xA;  Q 48.97 77.03 49.49 77.00&#xA;  Q 54.38 76.66 59.24 76.24&#xA;  C 65.38 75.72 73.17 73.96 80.63 74.36&#xA;  C 83.99 74.54 84.14 77.96 85.17 79.80&#xA;  Q 85.97 81.23 87.11 80.22&#xA;  Z" fill="#d5d9ce"/>
</svg>