<?xml version="1.0" encoding="utf-8"?>
<svg xmlns="http://www.w3.org/2000/svg" version="1.1" viewBox="0.00 0.00 256.00 256.00">
<g fill="none" stroke-linecap="butt" stroke-width="2.00">
<path d="M 174.10 113.52&#xA;  A 0.75 0.75 0.0 0 1 173.35 112.77&#xA;  L 173.34 86.03&#xA;  A 0.75 0.75 0.0 0 1 174.09 85.28&#xA;  L 215.72 85.29&#xA;  A 0.75 0.75 0.0 0 0 216.47 84.54&#xA;  L 216.46 67.75&#xA;  A 0.75 0.75 0.0 0 0 215.71 67.00&#xA;  L 151.45 67.01&#xA;  A 0.75 0.75 0.0 0 0 150.70 67.76&#xA;  L 150.73 179.50&#xA;  A 0.75 0.75 0.0 0 0 151.48 180.25&#xA;  L 215.72 180.25&#xA;  A 0.75 0.75 0.0 0 0 216.47 179.50&#xA;  L 216.47 162.46&#xA;  A 0.75 0.75 0.0 0 0 215.72 161.71&#xA;  L 174.09 161.73&#xA;  A 0.75 0.75 0.0 0 1 173.34 160.98&#xA;  L 173.34 132.53&#xA;  A 0.75 0.75 0.0 0 1 174.09 131.78&#xA;  L 210.97 131.77&#xA;  A 0.75 0.75 0.0 0 0 211.72 131.02&#xA;  L 211.72 114.25&#xA;  A 0.75 0.75 0.0 0 0 210.97 113.50&#xA;  L 174.10 113.52" stroke="#878798"/>
<path d="M 69.72 136.07&#xA;  L 78.90 136.15&#xA;  Q 80.14 136.16 80.75 137.24&#xA;  L 104.86 179.81&#xA;  Q 105.11 180.25 105.61 180.25&#xA;  L 130.77 180.25&#xA;  A 0.36 0.35 74.7 0 0 131.07 179.71&#xA;  L 104.60 134.94&#xA;  A 0.50 0.49 -23.5 0 1 104.89 134.21&#xA;  C 138.04 124.81 138.85 79.93 106.21 69.53&#xA;  Q 98.93 67.21 94.50 67.20&#xA;  Q 70.84 67.16 47.50 67.23&#xA;  A 0.80 0.79 -90.0 0 0 46.71 68.03&#xA;  L 46.70 179.72&#xA;  Q 46.70 180.25 47.22 180.25&#xA;  L 68.71 180.25&#xA;  Q 69.42 180.25 69.42 179.54&#xA;  L 69.42 136.38&#xA;  A 0.31 0.30 -90.0 0 1 69.72 136.07" stroke="#878798"/>
<path d="M 69.48 86.17&#xA;  L 69.36 118.73&#xA;  A 0.28 0.28 0.0 0 0 69.64 119.01&#xA;  L 91.06 119.08&#xA;  A 15.42 14.51 0.2 0 0 106.53 104.62&#xA;  L 106.55 100.52&#xA;  A 15.42 14.51 0.2 0 0 91.18 85.96&#xA;  L 69.76 85.89&#xA;  A 0.28 0.28 0.0 0 0 69.48 86.17" stroke="#878798"/>
</g>
<path d="M 123.89 0.00&#xA;  L 134.04 0.00&#xA;  Q 153.99 1.14 170.01 6.79&#xA;  C 243.93 32.84 278.13 119.31 238.51 188.54&#xA;  C 214.32 230.80 168.54 255.67 119.70 252.09&#xA;  C 25.25 245.17 -28.22 140.14 21.83 59.45&#xA;  C 37.64 33.96 62.31 14.92 90.76 5.81&#xA;  Q 105.61 1.06 123.89 0.00&#xA;  Z&#xA;  M 174.10 113.52&#xA;  A 0.75 0.75 0.0 0 1 173.35 112.77&#xA;  L 173.34 86.03&#xA;  A 0.75 0.75 0.0 0 1 174.09 85.28&#xA;  L 215.72 85.29&#xA;  A 0.75 0.75 0.0 0 0 216.47 84.54&#xA;  L 216.46 67.75&#xA;  A 0.75 0.75 0.0 0 0 215.71 67.00&#xA;  L 151.45 67.01&#xA;  A 0.75 0.75 0.0 0 0 150.70 67.76&#xA;  L 150.73 179.50&#xA;  A 0.75 0.75 0.0 0 0 151.48 180.25&#xA;  L 215.72 180.25&#xA;  A 0.75 0.75 0.0 0 0 216.47 179.50&#xA;  L 216.47 162.46&#xA;  A 0.75 0.75 0.0 0 0 215.72 161.71&#xA;  L 174.09 161.73&#xA;  A 0.75 0.75 0.0 0 1 173.34 160.98&#xA;  L 173.34 132.53&#xA;  A 0.75 0.75 0.0 0 1 174.09 131.78&#xA;  L 210.97 131.77&#xA;  A 0.75 0.75 0.0 0 0 211.72 131.02&#xA;  L 211.72 114.25&#xA;  A 0.75 0.75 0.0 0 0 210.97 113.50&#xA;  L 174.10 113.52&#xA;  Z&#xA;  M 69.72 136.07&#xA;  L 78.90 136.15&#xA;  Q 80.14 136.16 80.75 137.24&#xA;  L 104.86 179.81&#xA;  Q 105.11 180.25 105.61 180.25&#xA;  L 130.77 180.25&#xA;  A 0.36 0.35 74.7 0 0 131.07 179.71&#xA;  L 104.60 134.94&#xA;  A 0.50 0.49 -23.5 0 1 104.89 134.21&#xA;  C 138.04 124.81 138.85 79.93 106.21 69.53&#xA;  Q 98.93 67.21 94.50 67.20&#xA;  Q 70.84 67.16 47.50 67.23&#xA;  A 0.80 0.79 -90.0 0 0 46.71 68.03&#xA;  L 46.70 179.72&#xA;  Q 46.70 180.25 47.22 180.25&#xA;  L 68.71 180.25&#xA;  Q 69.42 180.25 69.42 179.54&#xA;  L 69.42 136.38&#xA;  A 0.31 0.30 -90.0 0 1 69.72 136.07&#xA;  Z" fill="#0f0f31"/>
<path d="M 174.10 113.52&#xA;  L 210.97 113.50&#xA;  A 0.75 0.75 0.0 0 1 211.72 114.25&#xA;  L 211.72 131.02&#xA;  A 0.75 0.75 0.0 0 1 210.97 131.77&#xA;  L 174.09 131.78&#xA;  A 0.75 0.75 0.0 0 0 173.34 132.53&#xA;  L 173.34 160.98&#xA;  A 0.75 0.75 0.0 0 0 174.09 161.73&#xA;  L 215.72 161.71&#xA;  A 0.75 0.75 0.0 0 1 216.47 162.46&#xA;  L 216.47 179.50&#xA;  A 0.75 0.75 0.0 0 1 215.72 180.25&#xA;  L 151.48 180.25&#xA;  A 0.75 0.75 0.0 0 1 150.73 179.50&#xA;  L 150.70 67.76&#xA;  A 0.75 0.75 0.0 0 1 151.45 67.01&#xA;  L 215.71 67.00&#xA;  A 0.75 0.75 0.0 0 1 216.46 67.75&#xA;  L 216.47 84.54&#xA;  A 0.75 0.75 0.0 0 1 215.72 85.29&#xA;  L 174.09 85.28&#xA;  A 0.75 0.75 0.0 0 0 173.34 86.03&#xA;  L 173.35 112.77&#xA;  A 0.75 0.75 0.0 0 0 174.10 113.52&#xA;  Z" fill="#ffffff"/>
<path d="M 69.72 136.07&#xA;  A 0.31 0.30 -90.0 0 0 69.42 136.38&#xA;  L 69.42 179.54&#xA;  Q 69.42 180.25 68.71 180.25&#xA;  L 47.22 180.25&#xA;  Q 46.70 180.25 46.70 179.72&#xA;  L 46.71 68.03&#xA;  A 0.80 0.79 90.0 0 1 47.50 67.23&#xA;  Q 70.84 67.16 94.50 67.20&#xA;  Q 98.93 67.21 106.21 69.53&#xA;  C 138.85 79.93 138.04 124.81 104.89 134.21&#xA;  A 0.50 0.49 -23.5 0 0 104.60 134.94&#xA;  L 131.07 179.71&#xA;  A 0.36 0.35 74.7 0 1 130.77 180.25&#xA;  L 105.61 180.25&#xA;  Q 105.11 180.25 104.86 179.81&#xA;  L 80.75 137.24&#xA;  Q 80.14 136.16 78.90 136.15&#xA;  L 69.72 136.07&#xA;  Z&#xA;  M 69.48 86.17&#xA;  L 69.36 118.73&#xA;  A 0.28 0.28 0.0 0 0 69.64 119.01&#xA;  L 91.06 119.08&#xA;  A 15.42 14.51 0.2 0 0 106.53 104.62&#xA;  L 106.55 100.52&#xA;  A 15.42 14.51 0.2 0 0 91.18 85.96&#xA;  L 69.76 85.89&#xA;  A 0.28 0.28 0.0 0 0 69.48 86.17&#xA;  Z" fill="#ffffff"/>
<path d="M 69.48 86.17&#xA;  A 0.28 0.28 0.0 0 1 69.76 85.89&#xA;  L 91.18 85.96&#xA;  A 15.42 14.51 0.2 0 1 106.55 100.52&#xA;  L 106.53 104.62&#xA;  A 15.42 14.51 0.2 0 1 91.06 119.08&#xA;  L 69.64 119.01&#xA;  A 0.28 0.28 0.0 0 1 69.36 118.73&#xA;  L 69.48 86.17&#xA;  Z" fill="#0f0f31"/>
</svg>