<?xml version="1.0" encoding="utf-8"?>
<svg xmlns="http://www.w3.org/2000/svg" version="1.1" viewBox="0.00 0.00 52.00 52.00">
<g fill="none" stroke-linecap="butt" stroke-width="2.00">
<path d="M 21.08 30.19&#xA;  A 0.29 0.28 56.3 0 1 21.16 29.78&#xA;  C 28.69 25.13 25.73 15.62 17.24 15.15&#xA;  Q 11.94 14.86 6.46 15.04&#xA;  Q 6.00 15.06 6.00 15.52&#xA;  L 6.00 36.50&#xA;  A 0.26 0.25 -90.0 0 0 6.25 36.76&#xA;  L 10.92 36.73&#xA;  Q 11.13 36.73 11.13 36.52&#xA;  L 11.12 31.44&#xA;  Q 11.12 30.75 11.81 30.75&#xA;  L 15.43 30.75&#xA;  A 1.14 1.14 0.0 0 1 16.35 31.22&#xA;  L 20.16 36.59&#xA;  A 0.43 0.40 -16.5 0 0 20.50 36.76&#xA;  L 25.42 36.72&#xA;  A 0.20 0.20 0.0 0 0 25.58 36.40&#xA;  L 21.08 30.19" stroke="#80baff"/>
<path d="M 34.28 29.75&#xA;  L 45.24 29.75&#xA;  A 0.66 0.66 0.0 0 0 45.90 29.14&#xA;  C 46.50 21.78 38.81 17.47 32.61 20.73&#xA;  C 25.54 24.45 26.63 34.42 34.22 36.61&#xA;  Q 39.35 38.09 44.32 34.95&#xA;  A 0.61 0.61 0.0 0 0 44.45 34.02&#xA;  L 42.53 31.93&#xA;  Q 42.18 31.55 41.74 31.84&#xA;  Q 37.49 34.71 33.65 31.48&#xA;  Q 31.60 29.75 34.28 29.75" stroke="#80baff"/>
<path d="M 11.11 19.62&#xA;  L 11.13 26.18&#xA;  A 0.48 0.48 0.0 0 0 11.61 26.66&#xA;  L 16.14 26.65&#xA;  A 4.07 3.56 -0.1 0 0 20.20 23.08&#xA;  L 20.20 22.68&#xA;  A 4.07 3.56 -0.1 0 0 16.12 19.13&#xA;  L 11.59 19.14&#xA;  A 0.48 0.48 0.0 0 0 11.11 19.62" stroke="#80baff"/>
<path d="M 33.11 26.87&#xA;  L 41.05 26.89&#xA;  A 0.11 0.11 0.0 0 0 41.16 26.78&#xA;  L 41.16 26.71&#xA;  A 3.96 3.18 0.1 0 0 37.20 23.52&#xA;  L 36.96 23.52&#xA;  A 3.96 3.18 0.1 0 0 33.00 26.69&#xA;  L 33.00 26.76&#xA;  A 0.11 0.11 0.0 0 0 33.11 26.87" stroke="#80baff"/>
</g>
<path d="M 4.14 0.00&#xA;  L 48.23 0.00&#xA;  Q 51.03 1.14 52.00 4.14&#xA;  L 52.00 48.04&#xA;  Q 51.06 50.97 47.85 52.00&#xA;  L 3.77 52.00&#xA;  Q 0.97 50.87 0.00 47.86&#xA;  L 0.00 3.77&#xA;  Q 1.14 0.97 4.14 0.00&#xA;  Z&#xA;  M 21.08 30.19&#xA;  A 0.29 0.28 56.3 0 1 21.16 29.78&#xA;  C 28.69 25.13 25.73 15.62 17.24 15.15&#xA;  Q 11.94 14.86 6.46 15.04&#xA;  Q 6.00 15.06 6.00 15.52&#xA;  L 6.00 36.50&#xA;  A 0.26 0.25 -90.0 0 0 6.25 36.76&#xA;  L 10.92 36.73&#xA;  Q 11.13 36.73 11.13 36.52&#xA;  L 11.12 31.44&#xA;  Q 11.12 30.75 11.81 30.75&#xA;  L 15.43 30.75&#xA;  A 1.14 1.14 0.0 0 1 16.35 31.22&#xA;  L 20.16 36.59&#xA;  A 0.43 0.40 -16.5 0 0 20.50 36.76&#xA;  L 25.42 36.72&#xA;  A 0.20 0.20 0.0 0 0 25.58 36.40&#xA;  L 21.08 30.19&#xA;  Z&#xA;  M 34.28 29.75&#xA;  L 45.24 29.75&#xA;  A 0.66 0.66 0.0 0 0 45.90 29.14&#xA;  C 46.50 21.78 38.81 17.47 32.61 20.73&#xA;  C 25.54 24.45 26.63 34.42 34.22 36.61&#xA;  Q 39.35 38.09 44.32 34.95&#xA;  A 0.61 0.61 0.0 0 0 44.45 34.02&#xA;  L 42.53 31.93&#xA;  Q 42.18 31.55 41.74 31.84&#xA;  Q 37.49 34.71 33.65 31.48&#xA;  Q 31.60 29.75 34.28 29.75&#xA;  Z" fill="#0075ff"/>
<path d="M 21.08 30.19&#xA;  L 25.58 36.40&#xA;  A 0.20 0.20 0.0 0 1 25.42 36.72&#xA;  L 20.50 36.76&#xA;  A 0.43 0.40 -16.5 0 1 20.16 36.59&#xA;  L 16.35 31.22&#xA;  A 1.14 1.14 0.0 0 0 15.43 30.75&#xA;  L 11.81 30.75&#xA;  Q 11.12 30.75 11.12 31.44&#xA;  L 11.13 36.52&#xA;  Q 11.13 36.73 10.92 36.73&#xA;  L 6.25 36.76&#xA;  A 0.26 0.25 -90.0 0 1 6.00 36.50&#xA;  L 6.00 15.52&#xA;  Q 6.00 15.06 6.46 15.04&#xA;  Q 11.94 14.86 17.24 15.15&#xA;  C 25.73 15.62 28.69 25.13 21.16 29.78&#xA;  A 0.29 0.28 56.3 0 0 21.08 30.19&#xA;  Z&#xA;  M 11.11 19.62&#xA;  L 11.13 26.18&#xA;  A 0.48 0.48 0.0 0 0 11.61 26.66&#xA;  L 16.14 26.65&#xA;  A 4.07 3.56 -0.1 0 0 20.20 23.08&#xA;  L 20.20 22.68&#xA;  A 4.07 3.56 -0.1 0 0 16.12 19.13&#xA;  L 11.59 19.14&#xA;  A 0.48 0.48 0.0 0 0 11.11 19.62&#xA;  Z" fill="#ffffff"/>
<path d="M 11.11 19.62&#xA;  A 0.48 0.48 0.0 0 1 11.59 19.14&#xA;  L 16.12 19.13&#xA;  A 4.07 3.56 -0.1 0 1 20.20 22.68&#xA;  L 20.20 23.08&#xA;  A 4.07 3.56 -0.1 0 1 16.14 26.65&#xA;  L 11.61 26.66&#xA;  A 0.48 0.48 0.0 0 1 11.13 26.18&#xA;  L 11.11 19.62&#xA;  Z" fill="#0075ff"/>
<path d="M 34.28 29.75&#xA;  Q 31.60 29.75 33.65 31.48&#xA;  Q 37.49 34.71 41.74 31.84&#xA;  Q 42.18 31.55 42.53 31.93&#xA;  L 44.45 34.02&#xA;  A 0.61 0.61 0.0 0 1 44.32 34.95&#xA;  Q 39.35 38.09 34.22 36.61&#xA;  C 26.63 34.42 25.54 24.45 32.61 20.73&#xA;  C 38.81 17.47 46.50 21.78 45.90 29.14&#xA;  A 0.66 0.66 0.0 0 1 45.24 29.75&#xA;  L 34.28 29.75&#xA;  Z&#xA;  M 33.11 26.87&#xA;  L 41.05 26.89&#xA;  A 0.11 0.11 0.0 0 0 41.16 26.78&#xA;  L 41.16 26.71&#xA;  A 3.96 3.18 0.1 0 0 37.20 23.52&#xA;  L 36.96 23.52&#xA;  A 3.96 3.18 0.1 0 0 33.00 26.69&#xA;  L 33.00 26.76&#xA;  A 0.11 0.11 0.0 0 0 33.11 26.87&#xA;  Z" fill="#ffffff"/>
<path d="M 33.11 26.87&#xA;  A 0.11 0.11 0.0 0 1 33.00 26.76&#xA;  L 33.00 26.69&#xA;  A 3.96 3.18 0.1 0 1 36.96 23.52&#xA;  L 37.20 23.52&#xA;  A 3.96 3.18 0.1 0 1 41.16 26.71&#xA;  L 41.16 26.78&#xA;  A 0.11 0.11 0.0 0 1 41.05 26.89&#xA;  L 33.11 26.87&#xA;  Z" fill="#0075ff"/>
</svg>