<?xml version="1.0" encoding="utf-8"?>
<svg xmlns="http://www.w3.org/2000/svg" version="1.1" viewBox="0.00 0.00 65.00 65.00">
<g fill="none" stroke-linecap="butt" stroke-width="2.00">
<path d="M 0.98 0.62&#xA;  Q 1.01 31.65 0.88 63.50&#xA;  Q 0.88 63.90 1.36 64.46" stroke="#832eeb" stroke-opacity="0.549"/>
<path d="M 65.00 0.67&#xA;  L 0.98 0.62" stroke="#792bdb" stroke-opacity="0.808"/>
<path d="M 65.00 63.93&#xA;  Q 28.82 64.22 3.00 63.99&#xA;  Q 1.85 63.98 1.36 64.46" stroke="#7a2adb" stroke-opacity="0.769"/>
<path d="M 27.72 23.66&#xA;  C 34.58 17.66 30.50 7.59 21.48 7.48&#xA;  Q 14.59 7.40 7.70 7.55&#xA;  A 0.72 0.71 -0.8 0 0 7.00 8.26&#xA;  L 7.00 37.75&#xA;  Q 7.00 39.25 8.50 39.25&#xA;  L 12.50 39.25&#xA;  Q 14.00 39.25 14.00 37.75&#xA;  L 14.00 30.25&#xA;  Q 14.00 27.75 16.50 27.75&#xA;  L 20.50 27.75&#xA;  Q 23.25 27.76 23.25 30.50&#xA;  L 23.25 38.25&#xA;  Q 23.25 39.25 24.25 39.25&#xA;  L 29.06 39.24&#xA;  Q 29.99 39.24 30.00 38.31&#xA;  Q 30.03 33.36 29.97 28.00&#xA;  C 29.95 26.14 29.17 25.33 27.76 24.36&#xA;  Q 27.29 24.03 27.72 23.66" stroke="#c296ff"/>
<path d="M 48.98 50.26&#xA;  A 1.24 1.24 0.0 0 1 50.18 51.19&#xA;  L 51.46 56.31&#xA;  A 1.24 1.24 0.0 0 0 52.66 57.24&#xA;  L 57.41 57.26&#xA;  A 1.24 1.24 0.0 0 0 58.61 55.70&#xA;  L 50.77 25.92&#xA;  A 1.24 1.24 0.0 0 0 49.57 24.99&#xA;  L 40.28 25.00&#xA;  A 1.24 1.24 0.0 0 0 39.08 25.92&#xA;  L 31.26 55.70&#xA;  A 1.24 1.24 0.0 0 0 32.46 57.25&#xA;  L 37.23 57.25&#xA;  A 1.24 1.24 0.0 0 0 38.43 56.31&#xA;  L 39.71 51.17&#xA;  A 1.24 1.24 0.0 0 1 40.91 50.23&#xA;  L 48.98 50.26" stroke="#c296ff"/>
<path d="M 13.98 15.64&#xA;  L 13.98 19.74&#xA;  A 1.64 1.64 0.0 0 0 15.62 21.38&#xA;  L 20.22 21.38&#xA;  A 3.78 3.28 -0.0 0 0 24.00 18.10&#xA;  L 24.00 17.28&#xA;  A 3.78 3.28 0.0 0 0 20.22 14.00&#xA;  L 15.62 14.00&#xA;  A 1.64 1.64 0.0 0 0 13.98 15.64" stroke="#c296ff"/>
<path d="M 41.65 43.35&#xA;  A 0.30 0.30 0.0 0 0 41.94 43.72&#xA;  L 47.91 43.74&#xA;  A 0.30 0.30 0.0 0 0 48.20 43.37&#xA;  L 45.26 31.37&#xA;  A 0.30 0.30 0.0 0 0 44.68 31.36&#xA;  L 41.65 43.35" stroke="#c296ff"/>
</g>
<path d="M 0.00 0.00&#xA;  L 1.29 0.00&#xA;  Q 1.14 0.31 0.98 0.62&#xA;  Q 1.01 31.65 0.88 63.50&#xA;  Q 0.88 63.90 1.36 64.46&#xA;  Q 1.44 64.79 1.25 65.00&#xA;  L 0.00 65.00&#xA;  L 0.00 0.00&#xA;  Z" fill="#0c0317" fill-opacity="0.094"/>
<path d="M 1.29 0.00&#xA;  L 65.00 0.00&#xA;  L 65.00 0.67&#xA;  L 0.98 0.62&#xA;  Q 1.14 0.31 1.29 0.00&#xA;  Z" fill="#571fa0" fill-opacity="0.616"/>
<path d="M 0.98 0.62&#xA;  L 65.00 0.67&#xA;  L 65.00 63.93&#xA;  Q 28.82 64.22 3.00 63.99&#xA;  Q 1.85 63.98 1.36 64.46&#xA;  Q 0.88 63.90 0.88 63.50&#xA;  Q 1.01 31.65 0.98 0.62&#xA;  Z&#xA;  M 27.72 23.66&#xA;  C 34.58 17.66 30.50 7.59 21.48 7.48&#xA;  Q 14.59 7.40 7.70 7.55&#xA;  A 0.72 0.71 -0.8 0 0 7.00 8.26&#xA;  L 7.00 37.75&#xA;  Q 7.00 39.25 8.50 39.25&#xA;  L 12.50 39.25&#xA;  Q 14.00 39.25 14.00 37.75&#xA;  L 14.00 30.25&#xA;  Q 14.00 27.75 16.50 27.75&#xA;  L 20.50 27.75&#xA;  Q 23.25 27.76 23.25 30.50&#xA;  L 23.25 38.25&#xA;  Q 23.25 39.25 24.25 39.25&#xA;  L 29.06 39.24&#xA;  Q 29.99 39.24 30.00 38.31&#xA;  Q 30.03 33.36 29.97 28.00&#xA;  C 29.95 26.14 29.17 25.33 27.76 24.36&#xA;  Q 27.29 24.03 27.72 23.66&#xA;  Z&#xA;  M 48.98 50.26&#xA;  A 1.24 1.24 0.0 0 1 50.18 51.19&#xA;  L 51.46 56.31&#xA;  A 1.24 1.24 0.0 0 0 52.66 57.24&#xA;  L 57.41 57.26&#xA;  A 1.24 1.24 0.0 0 0 58.61 55.70&#xA;  L 50.77 25.92&#xA;  A 1.24 1.24 0.0 0 0 49.57 24.99&#xA;  L 40.28 25.00&#xA;  A 1.24 1.24 0.0 0 0 39.08 25.92&#xA;  L 31.26 55.70&#xA;  A 1.24 1.24 0.0 0 0 32.46 57.25&#xA;  L 37.23 57.25&#xA;  A 1.24 1.24 0.0 0 0 38.43 56.31&#xA;  L 39.71 51.17&#xA;  A 1.24 1.24 0.0 0 1 40.91 50.23&#xA;  L 48.98 50.26&#xA;  Z" fill="#8e32ff"/>
<path d="M 27.76 24.36&#xA;  C 29.17 25.33 29.95 26.14 29.97 28.00&#xA;  Q 30.03 33.36 30.00 38.31&#xA;  Q 29.99 39.24 29.06 39.24&#xA;  L 24.25 39.25&#xA;  Q 23.25 39.25 23.25 38.25&#xA;  L 23.25 30.50&#xA;  Q 23.25 27.76 20.50 27.75&#xA;  L 16.50 27.75&#xA;  Q 14.00 27.75 14.00 30.25&#xA;  L 14.00 37.75&#xA;  Q 14.00 39.25 12.50 39.25&#xA;  L 8.50 39.25&#xA;  Q 7.00 39.25 7.00 37.75&#xA;  L 7.00 8.26&#xA;  A 0.72 0.71 -0.8 0 1 7.70 7.55&#xA;  Q 14.59 7.40 21.48 7.48&#xA;  C 30.50 7.59 34.58 17.66 27.72 23.66&#xA;  Q 27.29 24.03 27.76 24.36&#xA;  Z&#xA;  M 13.98 15.64&#xA;  L 13.98 19.74&#xA;  A 1.64 1.64 0.0 0 0 15.62 21.38&#xA;  L 20.22 21.38&#xA;  A 3.78 3.28 -0.0 0 0 24.00 18.10&#xA;  L 24.00 17.28&#xA;  A 3.78 3.28 0.0 0 0 20.22 14.00&#xA;  L 15.62 14.00&#xA;  A 1.64 1.64 0.0 0 0 13.98 15.64&#xA;  Z" fill="#f5f9ff"/>
<path d="M 13.98 15.64&#xA;  A 1.64 1.64 0.0 0 1 15.62 14.00&#xA;  L 20.22 14.00&#xA;  A 3.78 3.28 0.0 0 1 24.00 17.28&#xA;  L 24.00 18.10&#xA;  A 3.78 3.28 0.0 0 1 20.22 21.38&#xA;  L 15.62 21.38&#xA;  A 1.64 1.64 0.0 0 1 13.98 19.74&#xA;  L 13.98 15.64&#xA;  Z" fill="#8e32ff"/>
<path d="M 48.98 50.26&#xA;  L 40.91 50.23&#xA;  A 1.24 1.24 0.0 0 0 39.71 51.17&#xA;  L 38.43 56.31&#xA;  A 1.24 1.24 0.0 0 1 37.23 57.25&#xA;  L 32.46 57.25&#xA;  A 1.24 1.24 0.0 0 1 31.26 55.70&#xA;  L 39.08 25.92&#xA;  A 1.24 1.24 0.0 0 1 40.28 25.00&#xA;  L 49.57 24.99&#xA;  A 1.24 1.24 0.0 0 1 50.77 25.92&#xA;  L 58.61 55.70&#xA;  A 1.24 1.24 0.0 0 1 57.41 57.26&#xA;  L 52.66 57.24&#xA;  A 1.24 1.24 0.0 0 1 51.46 56.31&#xA;  L 50.18 51.19&#xA;  A 1.24 1.24 0.0 0 0 48.98 50.26&#xA;  Z&#xA;  M 41.65 43.35&#xA;  A 0.30 0.30 0.0 0 0 41.94 43.72&#xA;  L 47.91 43.74&#xA;  A 0.30 0.30 0.0 0 0 48.20 43.37&#xA;  L 45.26 31.37&#xA;  A 0.30 0.30 0.0 0 0 44.68 31.36&#xA;  L 41.65 43.35&#xA;  Z" fill="#f5f9ff"/>
<path d="M 41.65 43.35&#xA;  L 44.68 31.36&#xA;  A 0.30 0.30 0.0 0 1 45.26 31.37&#xA;  L 48.20 43.37&#xA;  A 0.30 0.30 0.0 0 1 47.91 43.74&#xA;  L 41.94 43.72&#xA;  A 0.30 0.30 0.0 0 1 41.65 43.35&#xA;  Z" fill="#8e32ff"/>
<path d="M 65.00 63.93&#xA;  L 65.00 65.00&#xA;  L 1.25 65.00&#xA;  Q 1.44 64.79 1.36 64.46&#xA;  Q 1.85 63.98 3.00 63.99&#xA;  Q 28.82 64.22 65.00 63.93&#xA;  Z" fill="#541c99" fill-opacity="0.537"/>
</svg>