<?xml version="1.0" encoding="utf-8"?>
<svg xmlns="http://www.w3.org/2000/svg" version="1.1" viewBox="0.00 0.00 48.00 48.00">
<g fill="none" stroke-linecap="butt" stroke-width="2.00">
<path d="M 4.61 31.99&#xA;  Q 8.97 41.66 18.40 44.32&#xA;  C 37.97 49.82 53.23 26.75 40.61 10.87&#xA;  C 29.84 -2.67 9.01 1.62 3.89 18.02&#xA;  C 2.14 23.64 2.43 27.16 4.61 31.99" stroke="#0a0a0a"/>
<path d="M 29.47 25.74&#xA;  L 29.25 22.68&#xA;  Q 29.16 21.40 28.24 22.29&#xA;  Q 26.79 23.70 26.19 23.55" stroke="#0a7a5a"/>
<path d="M 26.19 23.55&#xA;  L 26.23 20.39&#xA;  Q 26.25 19.65 25.69 20.14&#xA;  L 20.34 24.89&#xA;  A 0.22 0.22 0.0 0 1 19.98 24.78&#xA;  L 19.85 24.22&#xA;  A 0.41 0.40 63.6 0 0 19.20 24.00&#xA;  L 17.26 25.56&#xA;  Q 16.04 26.55 16.12 24.98&#xA;  L 16.26 22.31&#xA;  Q 16.31 21.31 15.55 21.96&#xA;  L 5.64 30.30&#xA;  Q 4.67 31.12 5.94 31.12&#xA;  L 39.90 31.08&#xA;  Q 40.50 31.08 40.50 30.47&#xA;  L 40.51 16.49&#xA;  A 0.33 0.33 0.0 0 0 39.96 16.24&#xA;  L 29.47 25.74" stroke="#0a8a6f"/>
<path d="M 26.19 23.55&#xA;  Q 26.45 25.09 26.01 27.50&#xA;  A 0.49 0.49 0.0 0 0 26.81 27.97&#xA;  L 29.47 25.74" stroke="#00efb5"/>
</g>
<path d="M 21.85 0.00&#xA;  L 26.08 0.00&#xA;  Q 44.92 2.97 48.00 21.86&#xA;  L 48.00 26.11&#xA;  Q 45.13 45.02 25.97 48.00&#xA;  L 21.90 48.00&#xA;  Q 3.10 45.03 0.00 26.15&#xA;  L 0.00 21.91&#xA;  Q 3.04 3.03 21.85 0.00&#xA;  Z&#xA;  M 4.61 31.99&#xA;  Q 8.97 41.66 18.40 44.32&#xA;  C 37.97 49.82 53.23 26.75 40.61 10.87&#xA;  C 29.84 -2.67 9.01 1.62 3.89 18.02&#xA;  C 2.14 23.64 2.43 27.16 4.61 31.99&#xA;  Z" fill="#000000"/>
<path d="M 4.61 31.99&#xA;  C 2.43 27.16 2.14 23.64 3.89 18.02&#xA;  C 9.01 1.62 29.84 -2.67 40.61 10.87&#xA;  C 53.23 26.75 37.97 49.82 18.40 44.32&#xA;  Q 8.97 41.66 4.61 31.99&#xA;  Z&#xA;  M 29.47 25.74&#xA;  L 29.25 22.68&#xA;  Q 29.16 21.40 28.24 22.29&#xA;  Q 26.79 23.70 26.19 23.55&#xA;  L 26.23 20.39&#xA;  Q 26.25 19.65 25.69 20.14&#xA;  L 20.34 24.89&#xA;  A 0.22 0.22 0.0 0 1 19.98 24.78&#xA;  L 19.85 24.22&#xA;  A 0.41 0.40 63.6 0 0 19.20 24.00&#xA;  L 17.26 25.56&#xA;  Q 16.04 26.55 16.12 24.98&#xA;  L 16.26 22.31&#xA;  Q 16.31 21.31 15.55 21.96&#xA;  L 5.64 30.30&#xA;  Q 4.67 31.12 5.94 31.12&#xA;  L 39.90 31.08&#xA;  Q 40.50 31.08 40.50 30.47&#xA;  L 40.51 16.49&#xA;  A 0.33 0.33 0.0 0 0 39.96 16.24&#xA;  L 29.47 25.74&#xA;  Z" fill="#141414"/>
<path d="M 26.19 23.55&#xA;  Q 26.45 25.09 26.01 27.50&#xA;  A 0.49 0.49 0.0 0 0 26.81 27.97&#xA;  L 29.47 25.74&#xA;  L 39.96 16.24&#xA;  A 0.33 0.33 0.0 0 1 40.51 16.49&#xA;  L 40.50 30.47&#xA;  Q 40.50 31.08 39.90 31.08&#xA;  L 5.94 31.12&#xA;  Q 4.67 31.12 5.64 30.30&#xA;  L 15.55 21.96&#xA;  Q 16.31 21.31 16.26 22.31&#xA;  L 16.12 24.98&#xA;  Q 16.04 26.55 17.26 25.56&#xA;  L 19.20 24.00&#xA;  A 0.41 0.40 63.6 0 1 19.85 24.22&#xA;  L 19.98 24.78&#xA;  A 0.22 0.22 0.0 0 0 20.34 24.89&#xA;  L 25.69 20.14&#xA;  Q 26.25 19.65 26.23 20.39&#xA;  L 26.19 23.55&#xA;  Z" fill="#00ffca"/>
<path d="M 29.47 25.74&#xA;  L 26.81 27.97&#xA;  A 0.49 0.49 0.0 0 1 26.01 27.50&#xA;  Q 26.45 25.09 26.19 23.55&#xA;  Q 26.79 23.70 28.24 22.29&#xA;  Q 29.16 21.40 29.25 22.68&#xA;  L 29.47 25.74&#xA;  Z" fill="#00dfa0"/>
</svg>