<?xml version="1.0" encoding="utf-8"?>
<svg xmlns="http://www.w3.org/2000/svg" version="1.1" viewBox="0.00 0.00 100.00 100.00">
<g fill="none" stroke-linecap="butt" stroke-width="2.00">
<path d="M 22.67 33.13&#xA;  Q 22.38 33.74 21.74 32.97&#xA;  A 0.16 0.15 -36.8 0 1 21.78 32.74&#xA;  Q 22.00 32.60 21.84 32.19&#xA;  A 0.29 0.28 -10.2 0 0 21.57 32.01&#xA;  Q 15.72 32.29 9.95 32.48&#xA;  C 8.96 32.52 8.28 32.09 7.43 31.69&#xA;  Q 7.04 31.51 6.79 31.85&#xA;  Q 6.43 32.36 5.47 32.50" stroke="#9f4fff"/>
<path d="M 59.23 66.23&#xA;  L 57.77 64.31&#xA;  Q 57.07 63.40 57.17 64.57&#xA;  Q 57.21 65.12 56.86 65.55&#xA;  Q 56.56 65.91 56.10 65.90&#xA;  L 42.13 65.62" stroke="#a169ff"/>
</g>
<path d="M 22.67 33.13&#xA;  Q 22.38 33.74 21.74 32.97&#xA;  A 0.16 0.15 -36.8 0 1 21.78 32.74&#xA;  Q 22.00 32.60 21.84 32.19&#xA;  A 0.29 0.28 -10.2 0 0 21.57 32.01&#xA;  Q 15.72 32.29 9.95 32.48&#xA;  C 8.96 32.52 8.28 32.09 7.43 31.69&#xA;  Q 7.04 31.51 6.79 31.85&#xA;  Q 6.43 32.36 5.47 32.50&#xA;  C 6.33 23.37 13.53 16.87 22.15 14.73&#xA;  Q 38.88 10.57 54.03 18.24&#xA;  A 1.68 1.66 -76.7 0 1 54.94 19.73&#xA;  L 54.98 33.75&#xA;  Q 54.98 34.28 54.50 34.06&#xA;  Q 52.62 33.18 50.85 32.25&#xA;  C 44.30 28.77 27.12 23.88 22.67 33.13&#xA;  Z" fill="#9e41ff"/>
<path d="M 22.67 33.13&#xA;  C 19.79 47.32 61.16 38.93 59.23 66.23&#xA;  L 57.77 64.31&#xA;  Q 57.07 63.40 57.17 64.57&#xA;  Q 57.21 65.12 56.86 65.55&#xA;  Q 56.56 65.91 56.10 65.90&#xA;  L 42.13 65.62&#xA;  Q 42.30 62.13 39.32 60.17&#xA;  Q 36.60 58.38 32.37 57.13&#xA;  C 20.16 53.51 2.94 49.64 5.47 32.50&#xA;  Q 6.43 32.36 6.79 31.85&#xA;  Q 7.04 31.51 7.43 31.69&#xA;  C 8.28 32.09 8.96 32.52 9.95 32.48&#xA;  Q 15.72 32.29 21.57 32.01&#xA;  A 0.29 0.28 -10.2 0 1 21.84 32.19&#xA;  Q 22.00 32.60 21.78 32.74&#xA;  A 0.16 0.15 -36.8 0 0 21.74 32.97&#xA;  Q 22.38 33.74 22.67 33.13&#xA;  Z" fill="#a05cff"/>
<path d="M 42.13 65.62&#xA;  L 56.10 65.90&#xA;  Q 56.56 65.91 56.86 65.55&#xA;  Q 57.21 65.12 57.17 64.57&#xA;  Q 57.07 63.40 57.77 64.31&#xA;  L 59.23 66.23&#xA;  C 58.48 91.54 20.38 90.89 5.91 80.33&#xA;  A 1.03 1.03 0.0 0 1 5.49 79.50&#xA;  L 5.50 63.77&#xA;  Q 5.50 63.18 5.96 63.54&#xA;  C 14.86 70.46 23.72 73.86 34.99 71.99&#xA;  Q 40.65 71.05 42.13 65.62&#xA;  Z" fill="#a276ff"/>
<circle cx="83.99" cy="75.82" fill="#e80000" r="10.45"/>
</svg>