<?xml version="1.0" encoding="utf-8"?>
<svg xmlns="http://www.w3.org/2000/svg" version="1.1" viewBox="0.00 0.00 256.00 256.00">
<g fill="none" stroke-linecap="butt" stroke-width="2.00">
<path d="M 119.8126 87.4633&#xA;  A 11.38 11.38 0.0 0 0 108.3534 76.1630&#xA;  L 106.2535 76.1777&#xA;  A 11.38 11.38 0.0 0 0 94.9532 87.6368&#xA;  L 94.9874 92.5367&#xA;  A 11.38 11.38 0.0 0 0 106.4466 103.8370&#xA;  L 108.5465 103.8223&#xA;  A 11.38 11.38 0.0 0 0 119.8468 92.3632&#xA;  L 119.8126 87.4633" stroke="#808080"/>
<path d="M 155.3783 87.6035&#xA;  A 11.41 11.41 0.0 0 0 144.0082 76.1537&#xA;  L 141.9282 76.1465&#xA;  A 11.41 11.41 0.0 0 0 130.4785 87.5166&#xA;  L 130.4617 92.3165&#xA;  A 11.41 11.41 0.0 0 0 141.8318 103.7663&#xA;  L 143.9118 103.7735&#xA;  A 11.41 11.41 0.0 0 0 155.3615 92.4034&#xA;  L 155.3783 87.6035" stroke="#808080"/>
<path d="M 100.25 118.74&#xA;  C 100.34 113.12 98.02 110.86 92.54 110.66&#xA;  Q 85.57 110.40 85.33 117.98&#xA;  Q 84.93 130.63 85.62 148.74&#xA;  C 86.59 174.10 106.50 186.15 130.59 183.75&#xA;  C 145.04 182.31 157.59 175.30 162.30 161.04&#xA;  Q 164.25 155.15 164.66 141.26&#xA;  Q 165.04 128.29 164.61 116.98&#xA;  C 164.47 113.30 162.15 111.11 158.60 110.78&#xA;  C 153.17 110.27 149.27 112.47 149.82 118.65&#xA;  A 0.55 0.55 0.0 0 1 149.27 119.25&#xA;  L 100.75 119.25&#xA;  Q 100.24 119.25 100.25 118.74" stroke="#808080"/>
<path d="M 149.75 136.50&#xA;  L 100.49 136.50&#xA;  A 0.25 0.25 0.0 0 0 100.24 136.75&#xA;  L 100.24 143.52&#xA;  A 21.24 21.20 -0.0 0 0 121.48 164.72&#xA;  L 128.76 164.72&#xA;  A 21.24 21.20 0.0 0 0 150.00 143.52&#xA;  L 150.00 136.75&#xA;  A 0.25 0.25 0.0 0 0 149.75 136.50" stroke="#808080"/>
</g>
<path d="M 0.00 0.00&#xA;  L 256.00 0.00&#xA;  L 256.00 256.00&#xA;  L 0.00 256.00&#xA;  L 0.00 0.00&#xA;  Z&#xA;  M 119.8126 87.4633&#xA;  A 11.38 11.38 0.0 0 0 108.3534 76.1630&#xA;  L 106.2535 76.1777&#xA;  A 11.38 11.38 0.0 0 0 94.9532 87.6368&#xA;  L 94.9874 92.5367&#xA;  A 11.38 11.38 0.0 0 0 106.4466 103.8370&#xA;  L 108.5465 103.8223&#xA;  A 11.38 11.38 0.0 0 0 119.8468 92.3632&#xA;  L 119.8126 87.4633&#xA;  Z&#xA;  M 155.3783 87.6035&#xA;  A 11.41 11.41 0.0 0 0 144.0082 76.1537&#xA;  L 141.9282 76.1465&#xA;  A 11.41 11.41 0.0 0 0 130.4785 87.5166&#xA;  L 130.4617 92.3165&#xA;  A 11.41 11.41 0.0 0 0 141.8318 103.7663&#xA;  L 143.9118 103.7735&#xA;  A 11.41 11.41 0.0 0 0 155.3615 92.4034&#xA;  L 155.3783 87.6035&#xA;  Z&#xA;  M 100.25 118.74&#xA;  C 100.34 113.12 98.02 110.86 92.54 110.66&#xA;  Q 85.57 110.40 85.33 117.98&#xA;  Q 84.93 130.63 85.62 148.74&#xA;  C 86.59 174.10 106.50 186.15 130.59 183.75&#xA;  C 145.04 182.31 157.59 175.30 162.30 161.04&#xA;  Q 164.25 155.15 164.66 141.26&#xA;  Q 165.04 128.29 164.61 116.98&#xA;  C 164.47 113.30 162.15 111.11 158.60 110.78&#xA;  C 153.17 110.27 149.27 112.47 149.82 118.65&#xA;  A 0.55 0.55 0.0 0 1 149.27 119.25&#xA;  L 100.75 119.25&#xA;  Q 100.24 119.25 100.25 118.74&#xA;  Z" fill="#ffffff"/>
<rect fill="#000000" height="27.66" rx="11.38" transform="translate(107.40,90.00) rotate(-0.4)" width="24.86" x="-12.43" y="-13.83"/>
<rect fill="#000000" height="27.62" rx="11.41" transform="translate(142.92,89.96) rotate(0.2)" width="24.90" x="-12.45" y="-13.81"/>
<path d="M 100.75 119.25&#xA;  L 149.27 119.25&#xA;  A 0.55 0.55 0.0 0 0 149.82 118.65&#xA;  C 149.27 112.47 153.17 110.27 158.60 110.78&#xA;  C 162.15 111.11 164.47 113.30 164.61 116.98&#xA;  Q 165.04 128.29 164.66 141.26&#xA;  Q 164.25 155.15 162.30 161.04&#xA;  C 157.59 175.30 145.04 182.31 130.59 183.75&#xA;  C 106.50 186.15 86.59 174.10 85.62 148.74&#xA;  Q 84.93 130.63 85.33 117.98&#xA;  Q 85.57 110.40 92.54 110.66&#xA;  C 98.02 110.86 100.34 113.12 100.25 118.74&#xA;  Q 100.24 119.25 100.75 119.25&#xA;  Z&#xA;  M 149.75 136.50&#xA;  L 100.49 136.50&#xA;  A 0.25 0.25 0.0 0 0 100.24 136.75&#xA;  L 100.24 143.52&#xA;  A 21.24 21.20 -0.0 0 0 121.48 164.72&#xA;  L 128.76 164.72&#xA;  A 21.24 21.20 0.0 0 0 150.00 143.52&#xA;  L 150.00 136.75&#xA;  A 0.25 0.25 0.0 0 0 149.75 136.50&#xA;  Z" fill="#000000"/>
<path d="M 149.75 136.50&#xA;  A 0.25 0.25 0.0 0 1 150.00 136.75&#xA;  L 150.00 143.52&#xA;  A 21.24 21.20 -0.0 0 1 128.76 164.72&#xA;  L 121.48 164.72&#xA;  A 21.24 21.20 -0.0 0 1 100.24 143.52&#xA;  L 100.24 136.75&#xA;  A 0.25 0.25 0.0 0 1 100.49 136.50&#xA;  L 149.75 136.50&#xA;  Z" fill="#ffffff"/>
</svg>