<?xml version="1.0" encoding="utf-8"?>
<svg xmlns="http://www.w3.org/2000/svg" version="1.1" viewBox="0.00 0.00 260.00 260.00">
<g fill="none" stroke-linecap="butt" stroke-width="2.00">
<path d="M 94.6162 89.4960&#xA;  A 24.98 24.07 1.0 0 0 70.0601 64.9937&#xA;  A 24.98 24.07 1.0 0 0 44.6638 88.6240&#xA;  A 24.98 24.07 1.0 0 0 69.2199 113.1263&#xA;  A 24.98 24.07 1.0 0 0 94.6162 89.4960" stroke="#93a4f6"/>
<path d="M 146.08 122.39&#xA;  C 139.89 120.18 135.13 116.47 135.36 109.39&#xA;  C 135.81 95.59 151.35 92.84 162.04 93.12&#xA;  Q 176.10 93.49 187.71 101.59&#xA;  C 191.23 104.05 197.63 107.12 200.81 102.78&#xA;  C 209.58 90.79 191.09 82.49 181.99 79.55&#xA;  C 167.12 74.74 148.26 75.20 133.70 82.21&#xA;  C 120.40 88.62 112.34 101.52 114.53 116.02&#xA;  C 117.87 138.15 145.75 142.34 163.24 146.19&#xA;  C 171.57 148.02 184.91 151.55 183.20 162.76&#xA;  C 182.04 170.37 175.86 174.48 168.75 175.74&#xA;  C 154.40 178.29 138.77 176.03 126.19 167.69&#xA;  C 123.68 166.02 121.14 164.75 118.50 164.82&#xA;  C 112.63 164.97 110.44 172.38 112.25 176.94&#xA;  Q 113.37 179.76 117.45 182.49&#xA;  C 131.70 191.99 150.78 194.57 167.50 192.85&#xA;  C 185.97 190.95 205.18 179.57 204.77 158.50&#xA;  C 204.38 137.84 181.25 131.18 164.96 127.74&#xA;  Q 155.33 125.71 146.08 122.39" stroke="#7d879a"/>
</g>
<path d="M 258.04 129.01&#xA;  A 128.04 128.04 0.0 0 1 130.00 257.05&#xA;  A 128.04 128.04 0.0 0 1 1.96 129.01&#xA;  A 128.04 128.04 0.0 0 1 130.00 0.97&#xA;  A 128.04 128.04 0.0 0 1 258.04 129.01&#xA;  Z&#xA;  M 94.6162 89.4960&#xA;  A 24.98 24.07 1.0 0 0 70.0601 64.9937&#xA;  A 24.98 24.07 1.0 0 0 44.6638 88.6240&#xA;  A 24.98 24.07 1.0 0 0 69.2199 113.1263&#xA;  A 24.98 24.07 1.0 0 0 94.6162 89.4960&#xA;  Z&#xA;  M 146.08 122.39&#xA;  C 139.89 120.18 135.13 116.47 135.36 109.39&#xA;  C 135.81 95.59 151.35 92.84 162.04 93.12&#xA;  Q 176.10 93.49 187.71 101.59&#xA;  C 191.23 104.05 197.63 107.12 200.81 102.78&#xA;  C 209.58 90.79 191.09 82.49 181.99 79.55&#xA;  C 167.12 74.74 148.26 75.20 133.70 82.21&#xA;  C 120.40 88.62 112.34 101.52 114.53 116.02&#xA;  C 117.87 138.15 145.75 142.34 163.24 146.19&#xA;  C 171.57 148.02 184.91 151.55 183.20 162.76&#xA;  C 182.04 170.37 175.86 174.48 168.75 175.74&#xA;  C 154.40 178.29 138.77 176.03 126.19 167.69&#xA;  C 123.68 166.02 121.14 164.75 118.50 164.82&#xA;  C 112.63 164.97 110.44 172.38 112.25 176.94&#xA;  Q 113.37 179.76 117.45 182.49&#xA;  C 131.70 191.99 150.78 194.57 167.50 192.85&#xA;  C 185.97 190.95 205.18 179.57 204.77 158.50&#xA;  C 204.38 137.84 181.25 131.18 164.96 127.74&#xA;  Q 155.33 125.71 146.08 122.39&#xA;  Z" fill="#f9faff"/>
<ellipse cx="0.00" cy="0.00" fill="#2d4eed" rx="24.98" ry="24.07" transform="translate(69.64,89.06) rotate(1.0)"/>
<path d="M 146.08 122.39&#xA;  Q 155.33 125.71 164.96 127.74&#xA;  C 181.25 131.18 204.38 137.84 204.77 158.50&#xA;  C 205.18 179.57 185.97 190.95 167.50 192.85&#xA;  C 150.78 194.57 131.70 191.99 117.45 182.49&#xA;  Q 113.37 179.76 112.25 176.94&#xA;  C 110.44 172.38 112.63 164.97 118.50 164.82&#xA;  C 121.14 164.75 123.68 166.02 126.19 167.69&#xA;  C 138.77 176.03 154.40 178.29 168.75 175.74&#xA;  C 175.86 174.48 182.04 170.37 183.20 162.76&#xA;  C 184.91 151.55 171.57 148.02 163.24 146.19&#xA;  C 145.75 142.34 117.87 138.15 114.53 116.02&#xA;  C 112.34 101.52 120.40 88.62 133.70 82.21&#xA;  C 148.26 75.20 167.12 74.74 181.99 79.55&#xA;  C 191.09 82.49 209.58 90.79 200.81 102.78&#xA;  C 197.63 107.12 191.23 104.05 187.71 101.59&#xA;  Q 176.10 93.49 162.04 93.12&#xA;  C 151.35 92.84 135.81 95.59 135.36 109.39&#xA;  C 135.13 116.47 139.89 120.18 146.08 122.39&#xA;  Z" fill="#001434"/>
</svg>