<?xml version="1.0" encoding="utf-8"?>
<svg xmlns="http://www.w3.org/2000/svg" version="1.1" viewBox="0.00 0.00 512.00 512.00">
<g fill="none" stroke-linecap="butt" stroke-width="2.00">
<path d="M 482.58 26.24&#xA;  Q 482.49 26.98 481.97 27.50&#xA;  Q 450.49 59.04 418.99 90.44" stroke="#ff8e57"/>
<path d="M 418.99 90.44&#xA;  L 363.21 146.19" stroke="#ff844a"/>
<path d="M 363.21 146.19&#xA;  L 279.49 230.11" stroke="#ff7e41"/>
<path d="M 279.49 230.11&#xA;  L 265.04 244.38" stroke="#ff7434"/>
<path d="M 403.58 342.00&#xA;  Q 403.73 341.65 403.38 341.42&#xA;  Q 402.92 341.12 402.60 341.57&#xA;  Q 402.33 341.95 401.88 341.89&#xA;  Q 401.32 341.81 401.14 341.28&#xA;  Q 400.78 340.19 399.80 339.60&#xA;  Q 399.45 339.39 399.09 339.57&#xA;  Q 397.77 340.20 396.47 338.14&#xA;  A 2.32 2.30 27.0 0 1 396.11 337.05&#xA;  Q 396.00 335.42 394.31 335.85&#xA;  A 0.27 0.27 0.0 0 1 394.10 335.36&#xA;  L 394.96 334.81&#xA;  Q 395.28 334.60 395.00 334.34&#xA;  L 392.50 331.93&#xA;  A 0.14 0.14 0.0 0 0 392.27 331.98&#xA;  L 392.04 332.46&#xA;  Q 391.70 333.20 391.18 332.57&#xA;  Q 390.07 331.24 388.67 330.57&#xA;  Q 388.12 330.30 388.14 329.70&#xA;  Q 388.17 328.90 387.72 328.24&#xA;  A 0.44 0.44 0.0 0 0 386.98 328.26&#xA;  Q 386.73 328.69 386.28 328.64&#xA;  Q 385.94 328.60 386.05 328.27&#xA;  Q 386.24 327.76 386.07 327.39&#xA;  Q 385.83 326.88 385.27 326.88&#xA;  L 384.62 326.88&#xA;  Q 384.00 326.88 384.75 326.10&#xA;  Q 384.90 325.94 384.96 325.75&#xA;  Q 385.18 325.01 384.57 324.54&#xA;  Q 383.08 323.38 381.85 324.12&#xA;  Q 381.53 324.32 381.37 323.97&#xA;  Q 381.10 323.35 381.11 322.69&#xA;  Q 381.12 322.13 380.60 321.92&#xA;  L 379.82 321.61&#xA;  Q 379.42 321.46 379.28 321.05&#xA;  Q 378.64 319.21 376.74 318.65&#xA;  Q 376.18 318.49 376.63 318.12&#xA;  Q 376.92 317.88 376.88 317.54&#xA;  Q 376.82 316.88 376.28 317.26&#xA;  Q 376.03 317.44 375.77 317.54&#xA;  Q 375.36 317.69 375.37 317.26&#xA;  Q 375.38 317.00 375.65 316.88&#xA;  Q 376.37 316.56 375.21 316.21&#xA;  Q 372.51 315.39 370.31 313.56&#xA;  Q 370.11 313.39 370.29 313.20&#xA;  L 370.65 312.85&#xA;  A 0.38 0.38 0.0 0 0 370.47 312.21&#xA;  L 367.76 311.54&#xA;  Q 367.33 311.44 367.70 311.19&#xA;  Q 367.93 311.03 368.27 310.95&#xA;  Q 368.78 310.81 368.49 310.37&#xA;  Q 367.92 309.50 367.02 309.56&#xA;  Q 366.55 309.60 366.16 309.36&#xA;  Q 364.65 308.43 363.89 306.89&#xA;  Q 363.61 306.35 363.04 306.15&#xA;  Q 362.17 305.85 361.62 305.10&#xA;  A 0.29 0.29 0.0 0 0 361.25 305.02&#xA;  L 361.00 305.16&#xA;  Q 360.53 305.40 360.37 304.91&#xA;  Q 360.04 303.93 358.99 303.66&#xA;  Q 358.51 303.53 358.36 303.06&#xA;  Q 358.16 302.45 358.00 302.25&#xA;  Q 357.50 301.66 356.88 301.94&#xA;  Q 356.46 302.13 356.37 301.68&#xA;  Q 356.22 300.94 355.52 300.65&#xA;  Q 355.09 300.47 355.09 300.00&#xA;  C 355.11 298.18 352.77 296.64 351.50 295.51&#xA;  Q 351.34 295.37 351.23 295.55&#xA;  Q 351.15 295.67 351.00 295.61&#xA;  Q 350.16 295.28 350.14 295.25&#xA;  Q 349.71 294.55 350.10 293.93&#xA;  Q 350.36 293.53 350.02 293.21&#xA;  C 347.82 291.18 345.49 288.04 342.68 287.08&#xA;  Q 342.23 286.92 342.06 286.48&#xA;  Q 341.28 284.52 339.45 283.31&#xA;  C 338.68 282.80 338.60 282.04 337.94 281.49&#xA;  Q 336.55 280.33 334.74 280.01&#xA;  Q 334.29 279.93 333.94 279.64&#xA;  L 332.81 278.72&#xA;  Q 332.50 278.46 332.14 278.66&#xA;  Q 331.96 278.77 331.76 278.77&#xA;  Q 331.17 278.79 331.13 278.21&#xA;  Q 330.99 276.64 329.71 275.75&#xA;  Q 329.27 275.44 329.05 275.93&#xA;  Q 328.98 276.07 328.93 276.20&#xA;  A 0.44 0.44 0.0 0 1 328.15 276.29&#xA;  L 325.27 272.01&#xA;  Q 324.93 271.50 324.35 271.27&#xA;  L 323.12 270.78&#xA;  Q 322.69 270.61 322.34 270.32&#xA;  L 320.89 269.11&#xA;  Q 320.50 268.78 320.00 268.89&#xA;  Q 319.70 268.95 319.51 268.78&#xA;  Q 319.18 268.47 319.54 268.20&#xA;  Q 319.78 268.03 319.87 267.78&#xA;  Q 320.16 267.02 319.39 267.29&#xA;  Q 318.24 267.70 318.09 266.65&#xA;  A 0.65 0.64 -83.1 0 0 317.72 266.17&#xA;  Q 315.27 265.14 315.29 263.84&#xA;  Q 315.30 263.14 315.27 263.19&#xA;  Q 315.06 263.58 314.75 263.62&#xA;  Q 313.98 263.73 313.74 263.52&#xA;  Q 313.16 263.00 313.39 262.23&#xA;  Q 313.47 262.00 313.49 261.99&#xA;  L 313.74 261.85&#xA;  Q 314.04 261.69 313.79 261.46&#xA;  L 310.50 258.47&#xA;  Q 310.18 258.17 309.75 258.13&#xA;  Q 308.80 258.03 308.08 257.50&#xA;  Q 308.04 257.47 306.89 255.68&#xA;  Q 306.28 254.73 304.90 254.83&#xA;  A 0.55 0.54 -4.3 0 1 304.32 254.34&#xA;  Q 304.20 253.24 303.39 252.84&#xA;  C 301.83 252.08 301.05 251.39 299.99 250.03&#xA;  Q 299.68 249.62 299.16 249.62&#xA;  Q 299.02 249.62 298.88 249.63&#xA;  Q 298.73 249.63 298.73 249.48&#xA;  Q 298.73 249.12 298.94 248.84&#xA;  A 0.62 0.62 0.0 0 0 298.36 247.84&#xA;  Q 297.02 248.04 295.76 247.65&#xA;  Q 295.12 247.45 295.78 247.35&#xA;  Q 296.38 247.27 296.87 246.88&#xA;  Q 297.33 246.50 296.88 246.12&#xA;  Q 296.32 245.66 295.49 245.86&#xA;  Q 294.87 246.02 294.44 245.74&#xA;  Q 293.87 245.37 294.50 245.12&#xA;  Q 295.44 244.75 295.00 243.58&#xA;  Q 294.83 243.15 294.47 242.86&#xA;  L 293.54 242.11&#xA;  A 0.37 0.36 22.7 0 0 292.95 242.35&#xA;  L 292.81 243.47&#xA;  Q 292.74 244.09 292.32 243.62&#xA;  Q 291.98 243.24 292.15 242.69&#xA;  A 0.50 0.50 0.0 0 0 291.83 242.07&#xA;  Q 291.20 241.88 291.01 241.29&#xA;  A 0.65 0.64 -13.1 0 0 290.31 240.86&#xA;  Q 289.39 240.97 288.52 240.79&#xA;  A 0.59 0.59 0.0 0 1 288.09 240.03&#xA;  Q 288.43 239.03 287.52 238.87&#xA;  Q 286.99 238.78 287.11 238.26&#xA;  Q 287.30 237.43 286.66 236.89&#xA;  Q 286.27 236.57 286.15 236.09&#xA;  Q 285.86 234.86 284.71 234.09&#xA;  Q 284.15 233.71 283.96 234.37&#xA;  Q 283.81 234.89 283.88 235.48&#xA;  Q 283.88 235.48 283.75 235.75&#xA;  Q 283.63 236.00 283.31 235.79&#xA;  A 0.23 0.21 15.7 0 1 283.21 235.63&#xA;  Q 283.08 233.87 281.46 232.91&#xA;  Q 280.91 232.58 281.37 232.13&#xA;  L 281.62 231.88&#xA;  Q 282.23 231.26 281.39 231.04&#xA;  Q 280.34 230.77 279.49 230.11" stroke="#ff9461"/>
<path d="M 477.26 250.02&#xA;  Q 477.05 249.97 476.85 249.72&#xA;  Q 476.69 249.53 476.60 249.75&#xA;  Q 476.55 249.89 476.49 250.02&#xA;  A 0.14 0.14 0.0 0 1 476.24 250.01&#xA;  L 475.67 248.53&#xA;  Q 475.55 248.23 475.25 248.36&#xA;  Q 475.07 248.44 475.02 248.61&#xA;  Q 474.84 249.16 474.33 248.88&#xA;  Q 472.49 247.83 472.90 245.79&#xA;  Q 473.05 245.09 472.41 245.41&#xA;  Q 471.50 245.88 470.95 246.68&#xA;  Q 470.64 247.13 470.25 246.75&#xA;  L 470.01 246.51&#xA;  A 0.18 0.17 -50.8 0 1 469.99 246.29&#xA;  Q 470.17 246.00 470.44 245.91&#xA;  Q 471.07 245.71 470.62 245.23&#xA;  Q 469.66 244.18 468.30 243.88&#xA;  Q 467.74 243.75 468.01 243.25&#xA;  L 468.36 242.62&#xA;  A 0.34 0.34 0.0 0 0 468.01 242.12&#xA;  Q 467.50 242.21 467.13 241.91&#xA;  A 0.70 0.68 20.5 0 1 466.88 241.38&#xA;  L 466.88 240.60&#xA;  A 0.31 0.30 -22.7 0 0 466.36 240.39&#xA;  L 465.90 240.84&#xA;  Q 465.57 241.18 465.22 240.84&#xA;  L 462.77 238.42&#xA;  Q 462.41 238.06 461.89 237.99&#xA;  L 460.56 237.82&#xA;  Q 459.88 237.74 459.88 237.05&#xA;  L 459.88 236.00&#xA;  A 1.75 1.58 83.3 0 0 457.89 234.26&#xA;  Q 457.55 234.35 457.20 233.67&#xA;  Q 457.11 233.49 457.15 233.32&#xA;  Q 457.20 233.08 457.34 232.89&#xA;  Q 457.61 232.54 457.21 232.37&#xA;  Q 456.60 232.10 455.98 232.11&#xA;  Q 455.50 232.11 455.16 231.77&#xA;  L 453.19 229.80&#xA;  Q 452.88 229.49 452.88 229.06&#xA;  L 452.88 227.75&#xA;  A 0.37 0.37 0.0 0 0 452.25 227.49&#xA;  L 451.87 227.88&#xA;  Q 451.35 228.39 451.03 227.74&#xA;  Q 450.53 226.72 449.44 226.86&#xA;  A 0.38 0.38 0.0 0 1 449.29 226.12&#xA;  Q 449.75 225.98 449.63 225.50&#xA;  A 0.29 0.01 75.5 0 0 449.56 225.25&#xA;  Q 447.91 223.55 446.68 223.23&#xA;  Q 446.08 223.07 445.91 222.91&#xA;  Q 445.56 222.57 445.63 221.97&#xA;  A 0.86 0.83 21.3 0 0 445.28 221.20&#xA;  Q 443.81 220.17 442.23 219.26&#xA;  Q 441.79 219.01 441.61 218.20&#xA;  Q 441.51 217.74 441.08 217.94&#xA;  Q 440.28 218.30 439.43 217.79&#xA;  A 0.94 0.93 16.1 0 1 438.97 216.97&#xA;  Q 438.97 216.40 438.58 216.14&#xA;  Q 438.11 215.83 437.94 215.29&#xA;  L 437.61 214.26&#xA;  Q 437.52 213.98 437.39 214.24&#xA;  Q 437.23 214.55 436.97 214.69&#xA;  Q 436.22 215.09 435.62 214.73&#xA;  Q 435.35 214.56 435.50 214.29&#xA;  L 435.66 213.99&#xA;  Q 435.83 213.67 435.58 213.40&#xA;  L 433.42 211.20&#xA;  Q 433.34 211.12 433.22 211.12&#xA;  Q 433.07 211.12 432.92 211.13&#xA;  A 0.61 0.60 -18.1 0 1 432.38 210.86&#xA;  L 430.57 208.05&#xA;  Q 430.37 207.74 430.06 207.94&#xA;  Q 429.65 208.23 429.25 207.96&#xA;  Q 429.02 207.82 428.91 207.47&#xA;  Q 428.84 207.22 428.77 206.98&#xA;  Q 428.62 206.48 428.11 206.39&#xA;  Q 427.36 206.27 426.87 206.77&#xA;  Q 426.64 207.01 426.35 206.82&#xA;  Q 426.17 206.69 426.13 206.50&#xA;  Q 426.09 206.32 426.30 206.03&#xA;  Q 427.21 204.77 425.85 203.89&#xA;  Q 424.75 203.18 423.43 203.08&#xA;  Q 422.88 203.04 422.88 202.49&#xA;  L 422.88 201.73&#xA;  Q 422.88 201.27 422.43 201.37&#xA;  Q 421.44 201.58 420.83 200.83&#xA;  Q 420.44 200.35 420.78 199.83&#xA;  Q 420.96 199.54 420.62 199.23&#xA;  Q 420.45 199.08 420.35 199.29&#xA;  Q 420.22 199.58 419.96 199.78&#xA;  A 0.61 0.61 0.0 0 1 418.99 199.46&#xA;  Q 418.75 198.55 417.75 198.94&#xA;  Q 417.42 199.07 417.26 198.75&#xA;  Q 417.19 198.63 417.13 198.49&#xA;  A 0.42 0.42 0.0 0 1 417.51 197.88&#xA;  L 418.20 197.88&#xA;  A 0.26 0.25 56.9 0 0 418.30 197.39&#xA;  Q 417.84 197.18 417.53 196.76&#xA;  Q 417.20 196.33 416.67 196.38&#xA;  Q 415.07 196.52 414.82 194.95&#xA;  Q 414.74 194.43 414.22 194.38&#xA;  Q 412.45 194.23 412.64 192.51&#xA;  A 0.81 0.80 -76.6 0 0 412.14 191.68&#xA;  Q 410.75 191.14 409.27 191.13&#xA;  Q 408.45 191.13 408.26 190.57&#xA;  Q 408.08 190.05 408.59 189.85&#xA;  L 409.22 189.60&#xA;  Q 409.80 189.37 409.21 189.16&#xA;  Q 408.98 189.08 408.72 189.05&#xA;  Q 408.39 189.00 408.18 188.74&#xA;  L 405.71 185.59&#xA;  Q 405.44 185.24 405.16 185.59&#xA;  Q 404.87 185.95 404.47 185.86&#xA;  A 0.42 0.41 3.6 0 1 404.13 185.48&#xA;  Q 404.09 185.08 404.39 184.86&#xA;  Q 404.79 184.58 404.46 184.23&#xA;  Q 404.15 183.92 403.49 184.09&#xA;  Q 402.27 184.40 401.93 183.50&#xA;  Q 401.81 183.20 402.04 182.96&#xA;  L 402.26 182.74&#xA;  Q 402.62 182.39 402.11 182.39&#xA;  Q 400.74 182.40 400.64 181.00&#xA;  Q 400.60 180.40 400.00 180.38&#xA;  Q 398.98 180.35 398.07 179.90&#xA;  Q 397.73 179.72 397.94 179.39&#xA;  L 398.10 179.15&#xA;  Q 398.24 178.92 398.16 178.67&#xA;  Q 397.81 177.57 397.23 177.99&#xA;  Q 396.75 178.35 396.29 177.96&#xA;  Q 395.40 177.22 394.90 176.24&#xA;  Q 394.68 175.80 394.38 175.42&#xA;  Q 394.07 175.05 393.72 174.72&#xA;  Q 393.44 174.46 393.22 174.78&#xA;  Q 392.97 175.14 392.50 175.13&#xA;  A 0.65 0.65 0.0 0 1 391.87 174.50&#xA;  Q 391.86 174.01 392.25 173.76&#xA;  Q 393.17 173.20 392.25 173.35&#xA;  Q 391.42 173.49 390.76 173.14&#xA;  A 3.09 1.61 25.9 0 1 388.81 170.52&#xA;  Q 389.01 169.97 388.43 169.62&#xA;  Q 388.09 169.42 387.70 169.38&#xA;  Q 387.22 169.34 386.89 168.91&#xA;  Q 386.57 168.49 386.05 168.40&#xA;  Q 385.14 168.24 384.85 167.39&#xA;  Q 384.75 167.12 384.47 167.12&#xA;  L 384.01 167.12&#xA;  Q 383.49 167.12 383.19 166.70&#xA;  Q 382.58 165.86 381.55 165.84&#xA;  Q 380.77 165.83 381.32 165.29&#xA;  L 381.80 164.80&#xA;  Q 381.94 164.67 381.86 164.49&#xA;  Q 381.79 164.34 381.64 164.25&#xA;  Q 381.41 164.09 381.21 164.29&#xA;  L 380.87 164.62&#xA;  Q 380.50 164.99 380.13 164.62&#xA;  L 379.23 163.73&#xA;  A 0.40 0.39 -31.3 0 1 379.39 163.08&#xA;  L 380.24 162.78&#xA;  Q 380.83 162.58 380.39 162.14&#xA;  L 379.87 161.62&#xA;  Q 379.50 161.24 379.13 161.63&#xA;  Q 378.31 162.50 377.17 161.96&#xA;  A 0.64 0.64 0.0 0 1 376.84 161.19&#xA;  Q 377.19 160.12 376.46 160.10&#xA;  Q 375.83 160.08 375.88 159.45&#xA;  Q 376.08 157.15 373.84 157.12&#xA;  Q 373.36 157.11 373.02 156.76&#xA;  L 369.89 153.49&#xA;  Q 369.70 153.29 369.00 153.77&#xA;  Q 368.87 153.86 368.73 154.03&#xA;  A 0.42 0.42 0.0 0 1 367.98 153.85&#xA;  L 367.84 152.92&#xA;  Q 367.80 152.65 367.65 152.43&#xA;  Q 367.01 151.45 366.12 150.83&#xA;  Q 365.82 150.62 365.99 150.30&#xA;  L 366.15 150.00&#xA;  Q 366.40 149.54 365.90 149.40&#xA;  Q 364.30 148.95 362.99 147.96&#xA;  Q 362.64 147.70 362.93 147.37&#xA;  Q 363.50 146.72 363.21 146.19" stroke="#ffa477"/>
<path d="M 348.59 397.01&#xA;  Q 348.70 396.28 347.68 396.66&#xA;  Q 347.34 396.79 347.13 396.50&#xA;  Q 346.81 396.06 346.28 396.08&#xA;  Q 345.92 396.10 345.64 395.88&#xA;  Q 344.10 394.64 342.83 393.18&#xA;  Q 342.57 392.88 342.18 392.88&#xA;  L 341.52 392.88&#xA;  Q 340.98 392.88 341.09 392.36&#xA;  Q 341.20 391.86 341.05 391.40&#xA;  Q 340.89 390.88 340.34 390.88&#xA;  L 339.79 390.88&#xA;  Q 339.40 390.88 339.18 390.55&#xA;  Q 338.68 389.81 337.71 389.68&#xA;  A 0.69 0.69 0.0 0 1 337.12 389.10&#xA;  Q 337.02 388.44 337.39 387.88&#xA;  Q 337.67 387.44 337.24 387.14&#xA;  Q 336.75 386.80 336.16 386.87&#xA;  Q 335.65 386.93 335.24 386.62&#xA;  Q 333.75 385.48 332.86 383.39&#xA;  Q 332.56 382.68 331.59 382.90&#xA;  A 0.38 0.38 0.0 0 1 331.12 382.53&#xA;  L 331.12 381.95&#xA;  Q 331.12 381.49 330.81 381.14&#xA;  Q 329.83 380.05 328.45 379.81&#xA;  Q 327.94 379.72 327.89 379.20&#xA;  Q 327.83 378.52 327.70 377.85&#xA;  Q 327.61 377.41 327.35 377.24&#xA;  Q 327.02 377.02 326.58 377.11&#xA;  Q 326.45 377.14 326.00 377.51&#xA;  Q 325.86 377.62 325.74 377.81&#xA;  A 0.34 0.34 0.0 0 1 325.11 377.60&#xA;  Q 325.28 375.90 323.75 375.87&#xA;  Q 323.16 375.86 323.12 375.26&#xA;  Q 323.10 374.86 322.86 374.51&#xA;  Q 322.56 374.08 322.12 374.35&#xA;  Q 321.45 374.77 320.63 374.61&#xA;  Q 320.12 374.51 320.12 373.99&#xA;  L 320.12 371.72&#xA;  A 0.60 0.59 -4.6 0 0 319.43 371.14&#xA;  Q 318.81 371.24 318.32 370.93&#xA;  A 1.00 0.99 -81.6 0 1 317.88 370.33&#xA;  Q 317.66 369.50 316.83 369.88&#xA;  A 0.65 0.64 61.8 0 1 316.02 369.63&#xA;  Q 315.12 368.15 313.48 367.84&#xA;  Q 312.89 367.72 313.09 367.15&#xA;  L 313.22 366.79&#xA;  Q 313.37 366.39 313.08 366.08&#xA;  Q 311.88 364.75 310.01 365.18&#xA;  A 0.76 0.76 0.0 0 1 309.10 364.25&#xA;  Q 309.15 364.06 309.28 363.95&#xA;  Q 310.10 363.20 309.22 363.14&#xA;  Q 308.70 363.11 308.77 362.40&#xA;  A 0.66 0.64 -75.3 0 0 308.40 361.75&#xA;  Q 306.98 361.10 305.87 360.00&#xA;  Q 305.55 359.68 305.14 359.85&#xA;  Q 304.82 359.98 304.51 359.87&#xA;  Q 304.25 359.77 303.90 359.22&#xA;  Q 303.15 358.01 301.56 357.96&#xA;  A 0.46 0.45 87.0 0 1 301.12 357.56&#xA;  Q 301.07 357.24 301.22 356.97&#xA;  Q 301.47 356.50 300.98 356.26&#xA;  L 299.88 355.72&#xA;  Q 299.62 355.60 299.62 355.31&#xA;  Q 299.62 355.15 299.62 355.00&#xA;  Q 299.62 354.96 298.99 354.39&#xA;  Q 298.70 354.14 298.63 353.74&#xA;  A 1.10 1.10 0.0 0 0 298.03 352.93&#xA;  Q 296.48 352.19 295.27 351.01&#xA;  Q 294.96 350.71 294.89 350.28&#xA;  Q 294.76 349.43 294.05 349.19&#xA;  Q 293.58 349.02 293.24 348.65&#xA;  L 290.28 345.40&#xA;  A 0.65 0.65 0.0 0 0 289.23 345.51&#xA;  Q 288.97 345.96 288.52 345.89&#xA;  Q 287.99 345.82 288.09 345.30&#xA;  Q 288.27 344.37 287.96 343.52&#xA;  A 0.43 0.43 0.0 0 0 287.18 343.46&#xA;  L 286.89 343.99&#xA;  Q 286.68 344.36 286.40 344.04&#xA;  Q 285.85 343.40 286.46 342.99&#xA;  Q 287.03 342.61 286.48 342.20&#xA;  L 283.79 340.21&#xA;  Q 283.34 339.88 283.20 339.34&#xA;  Q 282.66 337.35 280.68 336.80&#xA;  Q 280.20 336.67 280.12 336.18&#xA;  Q 280.06 335.77 279.81 335.48&#xA;  Q 279.53 335.16 278.69 335.03&#xA;  Q 276.13 334.65 275.99 331.95&#xA;  A 1.09 1.06 -67.9 0 0 275.72 331.29&#xA;  L 273.87 329.18&#xA;  Q 273.57 328.84 273.19 329.09&#xA;  Q 272.89 329.29 272.88 329.56&#xA;  A 0.37 0.37 0.0 0 1 272.16 329.64&#xA;  L 271.77 328.30&#xA;  A 0.61 0.61 0.0 0 0 271.10 327.87&#xA;  Q 269.98 328.04 269.89 326.97&#xA;  Q 269.81 326.15 269.12 326.60&#xA;  Q 268.92 326.72 268.70 326.77&#xA;  Q 268.15 326.90 267.94 326.37&#xA;  Q 267.81 326.05 267.51 325.87&#xA;  Q 267.02 325.57 267.11 325.00&#xA;  Q 267.29 323.83 266.78 322.80&#xA;  A 0.38 0.37 -49.0 0 0 266.09 322.85&#xA;  L 265.79 323.73&#xA;  A 0.36 0.36 0.0 0 1 265.09 323.55&#xA;  Q 265.22 322.79 265.01 322.09&#xA;  Q 264.84 321.53 264.29 321.37&#xA;  L 262.53 320.88&#xA;  Q 262.10 320.76 262.22 320.32&#xA;  Q 262.31 319.98 262.51 319.73&#xA;  Q 262.89 319.25 262.30 319.08&#xA;  Q 261.01 318.70 259.63 318.90&#xA;  Q 259.48 318.92 259.37 318.87&#xA;  Q 259.11 318.74 259.11 318.47&#xA;  A 0.33 0.33 0.0 0 1 259.43 318.13&#xA;  Q 259.60 318.12 259.74 317.99&#xA;  Q 260.26 317.51 260.00 317.25&#xA;  L 259.74 317.00&#xA;  Q 259.49 316.75 259.15 316.83&#xA;  Q 257.30 317.28 256.31 315.70&#xA;  Q 256.03 315.26 256.12 314.74&#xA;  Q 256.24 314.00 255.99 313.34&#xA;  Q 255.79 312.80 255.26 313.05&#xA;  Q 255.04 313.16 254.95 313.34&#xA;  Q 254.67 313.92 254.13 313.58&#xA;  Q 253.00 312.86 253.10 311.55&#xA;  Q 253.15 310.88 252.47 310.88&#xA;  L 251.00 310.88&#xA;  Q 250.75 310.88 250.50 310.76&#xA;  Q 250.30 310.66 250.40 310.44&#xA;  Q 250.54 310.13 250.87 310.13&#xA;  Q 251.41 310.13 251.85 309.78&#xA;  Q 252.41 309.31 251.73 309.04&#xA;  Q 250.80 308.67 249.72 308.99&#xA;  A 0.44 0.43 -18.4 0 1 249.18 308.73&#xA;  Q 248.87 307.93 248.11 307.72&#xA;  A 0.20 0.19 1.0 0 0 247.87 307.95&#xA;  Q 247.93 308.21 248.12 308.37&#xA;  Q 248.55 308.72 247.95 308.46&#xA;  Q 247.49 308.26 247.13 308.47" stroke="#ff8146"/>
<path d="M 483.23 150.62&#xA;  Q 481.78 151.49 481.09 148.95&#xA;  Q 480.95 148.46 480.59 148.11&#xA;  Q 479.99 147.51 479.85 146.66&#xA;  Q 479.79 146.25 479.41 146.08&#xA;  Q 479.05 145.92 478.91 145.54&#xA;  Q 478.65 144.84 478.12 145.37&#xA;  L 477.88 145.61&#xA;  Q 477.24 146.26 476.96 145.39&#xA;  Q 476.68 144.48 477.23 144.00&#xA;  Q 477.60 143.68 477.30 143.29&#xA;  Q 477.10 143.04 476.80 143.10&#xA;  Q 476.31 143.19 476.04 143.60&#xA;  Q 475.55 144.32 474.74 144.11&#xA;  Q 473.78 143.86 473.90 142.66&#xA;  A 0.67 0.65 13.3 0 0 473.47 141.98&#xA;  Q 472.64 141.66 472.90 140.76&#xA;  Q 473.06 140.20 472.48 140.11&#xA;  L 470.56 139.81&#xA;  A 0.38 0.38 0.0 0 1 470.35 139.16&#xA;  L 470.89 138.62&#xA;  A 0.20 0.20 0.0 0 0 470.78 138.28&#xA;  Q 468.48 137.90 467.61 135.73&#xA;  Q 467.44 135.30 467.12 135.63&#xA;  L 466.75 135.99&#xA;  A 0.45 0.45 0.0 0 1 466.00 135.79&#xA;  Q 465.77 134.88 465.91 133.90&#xA;  Q 465.99 133.35 465.55 133.03&#xA;  L 460.44 129.25&#xA;  Q 460.12 129.01 459.74 128.91&#xA;  Q 458.82 128.67 458.85 127.61&#xA;  C 458.86 127.38 458.77 127.08 458.66 126.93&#xA;  Q 458.40 126.58 458.16 126.95&#xA;  L 457.84 127.45&#xA;  Q 457.47 128.01 457.11 127.45&#xA;  Q 456.93 127.16 456.89 126.83&#xA;  Q 456.83 126.29 456.39 125.96&#xA;  Q 455.58 125.34 455.91 124.27&#xA;  A 0.89 0.89 0.0 0 0 455.05 123.12&#xA;  L 454.50 123.12&#xA;  A 0.66 0.66 0.0 0 1 453.91 122.17&#xA;  Q 454.04 121.91 454.29 121.72&#xA;  Q 454.63 121.46 454.63 121.03&#xA;  L 454.63 120.54&#xA;  Q 454.63 120.12 454.39 120.46&#xA;  Q 453.69 121.42 452.58 121.99&#xA;  Q 451.88 122.35 451.88 121.56&#xA;  L 451.88 121.00&#xA;  A 1.51 1.36 83.4 0 0 450.17 119.49&#xA;  Q 450.03 119.53 449.89 119.91&#xA;  Q 449.60 120.71 449.14 119.99&#xA;  Q 448.78 119.44 448.89 118.78&#xA;  A 0.58 0.57 -88.4 0 0 448.27 118.12&#xA;  Q 447.41 118.19 447.00 117.44&#xA;  Q 446.75 116.98 446.22 116.94&#xA;  Q 445.87 116.91 445.56 116.77&#xA;  Q 445.11 116.57 445.45 116.21&#xA;  Q 445.64 116.00 445.79 115.77&#xA;  Q 445.89 115.61 445.88 115.47&#xA;  Q 445.86 115.29 445.73 115.20&#xA;  Q 445.40 114.96 445.26 115.34&#xA;  Q 445.08 115.81 444.71 115.88&#xA;  Q 444.46 115.93 444.17 115.71&#xA;  Q 442.86 114.74 443.65 113.66&#xA;  Q 444.07 113.08 443.35 113.13&#xA;  Q 442.80 113.18 442.26 113.02&#xA;  A 0.61 0.61 0.0 0 1 441.86 112.26&#xA;  Q 442.01 111.81 441.74 111.50&#xA;  Q 441.36 111.04 441.00 111.51&#xA;  Q 440.51 112.15 439.88 111.66&#xA;  A 0.34 0.33 -53.0 0 1 439.82 111.19&#xA;  Q 439.97 110.98 439.87 110.72&#xA;  Q 439.69 110.26 439.21 110.12&#xA;  Q 436.66 109.37 436.87 106.70&#xA;  A 0.34 0.33 -20.4 0 0 436.30 106.44&#xA;  Q 436.19 106.55 436.08 106.66&#xA;  Q 435.70 107.05 435.26 106.73&#xA;  C 434.32 106.05 434.01 104.82 433.27 104.34&#xA;  Q 432.49 103.85 431.57 104.32&#xA;  Q 431.09 104.57 431.15 104.04&#xA;  Q 431.21 103.55 430.96 103.15&#xA;  Q 430.79 102.87 430.45 102.87&#xA;  L 429.74 102.87&#xA;  Q 428.98 102.87 428.87 102.12&#xA;  Q 428.77 101.51 429.16 101.07&#xA;  A 0.46 0.46 0.0 0 1 429.91 101.15&#xA;  L 430.24 101.76&#xA;  Q 430.32 101.92 430.38 101.90&#xA;  L 430.68 101.79&#xA;  Q 430.91 101.71 430.89 101.47&#xA;  Q 430.79 100.16 429.58 100.10&#xA;  A 0.74 0.73 83.1 0 1 428.92 99.58&#xA;  Q 428.72 98.89 427.96 99.14&#xA;  A 0.77 0.76 -26.0 0 1 427.09 98.85&#xA;  Q 426.47 97.97 425.43 97.84&#xA;  Q 424.88 97.77 424.88 97.22&#xA;  L 424.88 96.75&#xA;  Q 424.88 96.12 424.25 96.12&#xA;  L 422.97 96.12&#xA;  Q 422.42 96.12 422.07 95.70&#xA;  Q 420.60 93.99 418.48 93.09&#xA;  Q 417.84 92.82 418.29 92.30&#xA;  Q 419.50 90.90 418.99 90.44" stroke="#ffb38d"/>
</g>
<path d="M 482.58 26.24&#xA;  Q 482.49 26.98 481.97 27.50&#xA;  Q 450.49 59.04 418.99 90.44&#xA;  L 363.21 146.19&#xA;  L 279.49 230.11&#xA;  L 265.04 244.38&#xA;  Q 253.96 253.72 239.90 257.42&#xA;  C 223.09 261.85 205.19 262.48 187.90 262.49&#xA;  Q 99.36 262.52 10.93 262.49&#xA;  A 0.17 0.17 0.0 0 1 10.81 262.20&#xA;  Q 105.02 167.99 199.33 73.81&#xA;  C 206.15 67.00 213.43 59.33 220.19 53.78&#xA;  Q 247.94 30.98 283.65 26.90&#xA;  Q 290.38 26.14 303.61 26.14&#xA;  Q 388.56 26.19 473.50 26.10&#xA;  Q 478.00 26.10 482.58 26.24&#xA;  Z" fill="#ff5e14"/>
<path d="M 482.58 26.24&#xA;  Q 482.70 26.17 482.84 26.18&#xA;  Q 483.17 26.21 483.17 26.54&#xA;  L 483.23 150.62&#xA;  Q 481.78 151.49 481.09 148.95&#xA;  Q 480.95 148.46 480.59 148.11&#xA;  Q 479.99 147.51 479.85 146.66&#xA;  Q 479.79 146.25 479.41 146.08&#xA;  Q 479.05 145.92 478.91 145.54&#xA;  Q 478.65 144.84 478.12 145.37&#xA;  L 477.88 145.61&#xA;  Q 477.24 146.26 476.96 145.39&#xA;  Q 476.68 144.48 477.23 144.00&#xA;  Q 477.60 143.68 477.30 143.29&#xA;  Q 477.10 143.04 476.80 143.10&#xA;  Q 476.31 143.19 476.04 143.60&#xA;  Q 475.55 144.32 474.74 144.11&#xA;  Q 473.78 143.86 473.90 142.66&#xA;  A 0.67 0.65 13.3 0 0 473.47 141.98&#xA;  Q 472.64 141.66 472.90 140.76&#xA;  Q 473.06 140.20 472.48 140.11&#xA;  L 470.56 139.81&#xA;  A 0.38 0.38 0.0 0 1 470.35 139.16&#xA;  L 470.89 138.62&#xA;  A 0.20 0.20 0.0 0 0 470.78 138.28&#xA;  Q 468.48 137.90 467.61 135.73&#xA;  Q 467.44 135.30 467.12 135.63&#xA;  L 466.75 135.99&#xA;  A 0.45 0.45 0.0 0 1 466.00 135.79&#xA;  Q 465.77 134.88 465.91 133.90&#xA;  Q 465.99 133.35 465.55 133.03&#xA;  L 460.44 129.25&#xA;  Q 460.12 129.01 459.74 128.91&#xA;  Q 458.82 128.67 458.85 127.61&#xA;  C 458.86 127.38 458.77 127.08 458.66 126.93&#xA;  Q 458.40 126.58 458.16 126.95&#xA;  L 457.84 127.45&#xA;  Q 457.47 128.01 457.11 127.45&#xA;  Q 456.93 127.16 456.89 126.83&#xA;  Q 456.83 126.29 456.39 125.96&#xA;  Q 455.58 125.34 455.91 124.27&#xA;  A 0.89 0.89 0.0 0 0 455.05 123.12&#xA;  L 454.50 123.12&#xA;  A 0.66 0.66 0.0 0 1 453.91 122.17&#xA;  Q 454.04 121.91 454.29 121.72&#xA;  Q 454.63 121.46 454.63 121.03&#xA;  L 454.63 120.54&#xA;  Q 454.63 120.12 454.39 120.46&#xA;  Q 453.69 121.42 452.58 121.99&#xA;  Q 451.88 122.35 451.88 121.56&#xA;  L 451.88 121.00&#xA;  A 1.51 1.36 83.4 0 0 450.17 119.49&#xA;  Q 450.03 119.53 449.89 119.91&#xA;  Q 449.60 120.71 449.14 119.99&#xA;  Q 448.78 119.44 448.89 118.78&#xA;  A 0.58 0.57 -88.4 0 0 448.27 118.12&#xA;  Q 447.41 118.19 447.00 117.44&#xA;  Q 446.75 116.98 446.22 116.94&#xA;  Q 445.87 116.91 445.56 116.77&#xA;  Q 445.11 116.57 445.45 116.21&#xA;  Q 445.64 116.00 445.79 115.77&#xA;  Q 445.89 115.61 445.88 115.47&#xA;  Q 445.86 115.29 445.73 115.20&#xA;  Q 445.40 114.96 445.26 115.34&#xA;  Q 445.08 115.81 444.71 115.88&#xA;  Q 444.46 115.93 444.17 115.71&#xA;  Q 442.86 114.74 443.65 113.66&#xA;  Q 444.07 113.08 443.35 113.13&#xA;  Q 442.80 113.18 442.26 113.02&#xA;  A 0.61 0.61 0.0 0 1 441.86 112.26&#xA;  Q 442.01 111.81 441.74 111.50&#xA;  Q 441.36 111.04 441.00 111.51&#xA;  Q 440.51 112.15 439.88 111.66&#xA;  A 0.34 0.33 -53.0 0 1 439.82 111.19&#xA;  Q 439.97 110.98 439.87 110.72&#xA;  Q 439.69 110.26 439.21 110.12&#xA;  Q 436.66 109.37 436.87 106.70&#xA;  A 0.34 0.33 -20.4 0 0 436.30 106.44&#xA;  Q 436.19 106.55 436.08 106.66&#xA;  Q 435.70 107.05 435.26 106.73&#xA;  C 434.32 106.05 434.01 104.82 433.27 104.34&#xA;  Q 432.49 103.85 431.57 104.32&#xA;  Q 431.09 104.57 431.15 104.04&#xA;  Q 431.21 103.55 430.96 103.15&#xA;  Q 430.79 102.87 430.45 102.87&#xA;  L 429.74 102.87&#xA;  Q 428.98 102.87 428.87 102.12&#xA;  Q 428.77 101.51 429.16 101.07&#xA;  A 0.46 0.46 0.0 0 1 429.91 101.15&#xA;  L 430.24 101.76&#xA;  Q 430.32 101.92 430.38 101.90&#xA;  L 430.68 101.79&#xA;  Q 430.91 101.71 430.89 101.47&#xA;  Q 430.79 100.16 429.58 100.10&#xA;  A 0.74 0.73 83.1 0 1 428.92 99.58&#xA;  Q 428.72 98.89 427.96 99.14&#xA;  A 0.77 0.76 -26.0 0 1 427.09 98.85&#xA;  Q 426.47 97.97 425.43 97.84&#xA;  Q 424.88 97.77 424.88 97.22&#xA;  L 424.88 96.75&#xA;  Q 424.88 96.12 424.25 96.12&#xA;  L 422.97 96.12&#xA;  Q 422.42 96.12 422.07 95.70&#xA;  Q 420.60 93.99 418.48 93.09&#xA;  Q 417.84 92.82 418.29 92.30&#xA;  Q 419.50 90.90 418.99 90.44&#xA;  Q 450.49 59.04 481.97 27.50&#xA;  Q 482.49 26.98 482.58 26.24&#xA;  Z" fill="#ffbd9a"/>
<path d="M 418.99 90.44&#xA;  Q 419.50 90.90 418.29 92.30&#xA;  Q 417.84 92.82 418.48 93.09&#xA;  Q 420.60 93.99 422.07 95.70&#xA;  Q 422.42 96.12 422.97 96.12&#xA;  L 424.25 96.12&#xA;  Q 424.88 96.12 424.88 96.75&#xA;  L 424.88 97.22&#xA;  Q 424.88 97.77 425.43 97.84&#xA;  Q 426.47 97.97 427.09 98.85&#xA;  A 0.77 0.76 -26.0 0 0 427.96 99.14&#xA;  Q 428.72 98.89 428.92 99.58&#xA;  A 0.74 0.73 83.1 0 0 429.58 100.10&#xA;  Q 430.79 100.16 430.89 101.47&#xA;  Q 430.91 101.71 430.68 101.79&#xA;  L 430.38 101.90&#xA;  Q 430.32 101.92 430.24 101.76&#xA;  L 429.91 101.15&#xA;  A 0.46 0.46 0.0 0 0 429.16 101.07&#xA;  Q 428.77 101.51 428.87 102.12&#xA;  Q 428.98 102.87 429.74 102.87&#xA;  L 430.45 102.87&#xA;  Q 430.79 102.87 430.96 103.15&#xA;  Q 431.21 103.55 431.15 104.04&#xA;  Q 431.09 104.57 431.57 104.32&#xA;  Q 432.49 103.85 433.27 104.34&#xA;  C 434.01 104.82 434.32 106.05 435.26 106.73&#xA;  Q 435.70 107.05 436.08 106.66&#xA;  Q 436.19 106.55 436.30 106.44&#xA;  A 0.34 0.33 -20.4 0 1 436.87 106.70&#xA;  Q 436.66 109.37 439.21 110.12&#xA;  Q 439.69 110.26 439.87 110.72&#xA;  Q 439.97 110.98 439.82 111.19&#xA;  A 0.34 0.33 -53.0 0 0 439.88 111.66&#xA;  Q 440.51 112.15 441.00 111.51&#xA;  Q 441.36 111.04 441.74 111.50&#xA;  Q 442.01 111.81 441.86 112.26&#xA;  A 0.61 0.61 0.0 0 0 442.26 113.02&#xA;  Q 442.80 113.18 443.35 113.13&#xA;  Q 444.07 113.08 443.65 113.66&#xA;  Q 442.86 114.74 444.17 115.71&#xA;  Q 444.46 115.93 444.71 115.88&#xA;  Q 445.08 115.81 445.26 115.34&#xA;  Q 445.40 114.96 445.73 115.20&#xA;  Q 445.86 115.29 445.88 115.47&#xA;  Q 445.89 115.61 445.79 115.77&#xA;  Q 445.64 116.00 445.45 116.21&#xA;  Q 445.11 116.57 445.56 116.77&#xA;  Q 445.87 116.91 446.22 116.94&#xA;  Q 446.75 116.98 447.00 117.44&#xA;  Q 447.41 118.19 448.27 118.12&#xA;  A 0.58 0.57 -88.4 0 1 448.89 118.78&#xA;  Q 448.78 119.44 449.14 119.99&#xA;  Q 449.60 120.71 449.89 119.91&#xA;  Q 450.03 119.53 450.17 119.49&#xA;  A 1.51 1.36 83.4 0 1 451.88 121.00&#xA;  L 451.88 121.56&#xA;  Q 451.88 122.35 452.58 121.99&#xA;  Q 453.69 121.42 454.39 120.46&#xA;  Q 454.63 120.12 454.63 120.54&#xA;  L 454.63 121.03&#xA;  Q 454.63 121.46 454.29 121.72&#xA;  Q 454.04 121.91 453.91 122.17&#xA;  A 0.66 0.66 0.0 0 0 454.50 123.12&#xA;  L 455.05 123.12&#xA;  A 0.89 0.89 0.0 0 1 455.91 124.27&#xA;  Q 455.58 125.34 456.39 125.96&#xA;  Q 456.83 126.29 456.89 126.83&#xA;  Q 456.93 127.16 457.11 127.45&#xA;  Q 457.47 128.01 457.84 127.45&#xA;  L 458.16 126.95&#xA;  Q 458.40 126.58 458.66 126.93&#xA;  C 458.77 127.08 458.86 127.38 458.85 127.61&#xA;  Q 458.82 128.67 459.74 128.91&#xA;  Q 460.12 129.01 460.44 129.25&#xA;  L 465.55 133.03&#xA;  Q 465.99 133.35 465.91 133.90&#xA;  Q 465.77 134.88 466.00 135.79&#xA;  A 0.45 0.45 0.0 0 0 466.75 135.99&#xA;  L 467.12 135.63&#xA;  Q 467.44 135.30 467.61 135.73&#xA;  Q 468.48 137.90 470.78 138.28&#xA;  A 0.20 0.20 0.0 0 1 470.89 138.62&#xA;  L 470.35 139.16&#xA;  A 0.38 0.38 0.0 0 0 470.56 139.81&#xA;  L 472.48 140.11&#xA;  Q 473.06 140.20 472.90 140.76&#xA;  Q 472.64 141.66 473.47 141.98&#xA;  A 0.67 0.65 13.3 0 1 473.90 142.66&#xA;  Q 473.78 143.86 474.74 144.11&#xA;  Q 475.55 144.32 476.04 143.60&#xA;  Q 476.31 143.19 476.80 143.10&#xA;  Q 477.10 143.04 477.30 143.29&#xA;  Q 477.60 143.68 477.23 144.00&#xA;  Q 476.68 144.48 476.96 145.39&#xA;  Q 477.24 146.26 477.88 145.61&#xA;  L 478.12 145.37&#xA;  Q 478.65 144.84 478.91 145.54&#xA;  Q 479.05 145.92 479.41 146.08&#xA;  Q 479.79 146.25 479.85 146.66&#xA;  Q 479.99 147.51 480.59 148.11&#xA;  Q 480.95 148.46 481.09 148.95&#xA;  Q 481.78 151.49 483.23 150.62&#xA;  Q 483.27 182.58 483.25 214.75&#xA;  Q 483.24 231.69 477.26 250.02&#xA;  Q 477.05 249.97 476.85 249.72&#xA;  Q 476.69 249.53 476.60 249.75&#xA;  Q 476.55 249.89 476.49 250.02&#xA;  A 0.14 0.14 0.0 0 1 476.24 250.01&#xA;  L 475.67 248.53&#xA;  Q 475.55 248.23 475.25 248.36&#xA;  Q 475.07 248.44 475.02 248.61&#xA;  Q 474.84 249.16 474.33 248.88&#xA;  Q 472.49 247.83 472.90 245.79&#xA;  Q 473.05 245.09 472.41 245.41&#xA;  Q 471.50 245.88 470.95 246.68&#xA;  Q 470.64 247.13 470.25 246.75&#xA;  L 470.01 246.51&#xA;  A 0.18 0.17 -50.8 0 1 469.99 246.29&#xA;  Q 470.17 246.00 470.44 245.91&#xA;  Q 471.07 245.71 470.62 245.23&#xA;  Q 469.66 244.18 468.30 243.88&#xA;  Q 467.74 243.75 468.01 243.25&#xA;  L 468.36 242.62&#xA;  A 0.34 0.34 0.0 0 0 468.01 242.12&#xA;  Q 467.50 242.21 467.13 241.91&#xA;  A 0.70 0.68 20.5 0 1 466.88 241.38&#xA;  L 466.88 240.60&#xA;  A 0.31 0.30 -22.7 0 0 466.36 240.39&#xA;  L 465.90 240.84&#xA;  Q 465.57 241.18 465.22 240.84&#xA;  L 462.77 238.42&#xA;  Q 462.41 238.06 461.89 237.99&#xA;  L 460.56 237.82&#xA;  Q 459.88 237.74 459.88 237.05&#xA;  L 459.88 236.00&#xA;  A 1.75 1.58 83.3 0 0 457.89 234.26&#xA;  Q 457.55 234.35 457.20 233.67&#xA;  Q 457.11 233.49 457.15 233.32&#xA;  Q 457.20 233.08 457.34 232.89&#xA;  Q 457.61 232.54 457.21 232.37&#xA;  Q 456.60 232.10 455.98 232.11&#xA;  Q 455.50 232.11 455.16 231.77&#xA;  L 453.19 229.80&#xA;  Q 452.88 229.49 452.88 229.06&#xA;  L 452.88 227.75&#xA;  A 0.37 0.37 0.0 0 0 452.25 227.49&#xA;  L 451.87 227.88&#xA;  Q 451.35 228.39 451.03 227.74&#xA;  Q 450.53 226.72 449.44 226.86&#xA;  A 0.38 0.38 0.0 0 1 449.29 226.12&#xA;  Q 449.75 225.98 449.63 225.50&#xA;  A 0.29 0.01 75.5 0 0 449.56 225.25&#xA;  Q 447.91 223.55 446.68 223.23&#xA;  Q 446.08 223.07 445.91 222.91&#xA;  Q 445.56 222.57 445.63 221.97&#xA;  A 0.86 0.83 21.3 0 0 445.28 221.20&#xA;  Q 443.81 220.17 442.23 219.26&#xA;  Q 441.79 219.01 441.61 218.20&#xA;  Q 441.51 217.74 441.08 217.94&#xA;  Q 440.28 218.30 439.43 217.79&#xA;  A 0.94 0.93 16.1 0 1 438.97 216.97&#xA;  Q 438.97 216.40 438.58 216.14&#xA;  Q 438.11 215.83 437.94 215.29&#xA;  L 437.61 214.26&#xA;  Q 437.52 213.98 437.39 214.24&#xA;  Q 437.23 214.55 436.97 214.69&#xA;  Q 436.22 215.09 435.62 214.73&#xA;  Q 435.35 214.56 435.50 214.29&#xA;  L 435.66 213.99&#xA;  Q 435.83 213.67 435.58 213.40&#xA;  L 433.42 211.20&#xA;  Q 433.34 211.12 433.22 211.12&#xA;  Q 433.07 211.12 432.92 211.13&#xA;  A 0.61 0.60 -18.1 0 1 432.38 210.86&#xA;  L 430.57 208.05&#xA;  Q 430.37 207.74 430.06 207.94&#xA;  Q 429.65 208.23 429.25 207.96&#xA;  Q 429.02 207.82 428.91 207.47&#xA;  Q 428.84 207.22 428.77 206.98&#xA;  Q 428.62 206.48 428.11 206.39&#xA;  Q 427.36 206.27 426.87 206.77&#xA;  Q 426.64 207.01 426.35 206.82&#xA;  Q 426.17 206.69 426.13 206.50&#xA;  Q 426.09 206.32 426.30 206.03&#xA;  Q 427.21 204.77 425.85 203.89&#xA;  Q 424.75 203.18 423.43 203.08&#xA;  Q 422.88 203.04 422.88 202.49&#xA;  L 422.88 201.73&#xA;  Q 422.88 201.27 422.43 201.37&#xA;  Q 421.44 201.58 420.83 200.83&#xA;  Q 420.44 200.35 420.78 199.83&#xA;  Q 420.96 199.54 420.62 199.23&#xA;  Q 420.45 199.08 420.35 199.29&#xA;  Q 420.22 199.58 419.96 199.78&#xA;  A 0.61 0.61 0.0 0 1 418.99 199.46&#xA;  Q 418.75 198.55 417.75 198.94&#xA;  Q 417.42 199.07 417.26 198.75&#xA;  Q 417.19 198.63 417.13 198.49&#xA;  A 0.42 0.42 0.0 0 1 417.51 197.88&#xA;  L 418.20 197.88&#xA;  A 0.26 0.25 56.9 0 0 418.30 197.39&#xA;  Q 417.84 197.18 417.53 196.76&#xA;  Q 417.20 196.33 416.67 196.38&#xA;  Q 415.07 196.52 414.82 194.95&#xA;  Q 414.74 194.43 414.22 194.38&#xA;  Q 412.45 194.23 412.64 192.51&#xA;  A 0.81 0.80 -76.6 0 0 412.14 191.68&#xA;  Q 410.75 191.14 409.27 191.13&#xA;  Q 408.45 191.13 408.26 190.57&#xA;  Q 408.08 190.05 408.59 189.85&#xA;  L 409.22 189.60&#xA;  Q 409.80 189.37 409.21 189.16&#xA;  Q 408.98 189.08 408.72 189.05&#xA;  Q 408.39 189.00 408.18 188.74&#xA;  L 405.71 185.59&#xA;  Q 405.44 185.24 405.16 185.59&#xA;  Q 404.87 185.95 404.47 185.86&#xA;  A 0.42 0.41 3.6 0 1 404.13 185.48&#xA;  Q 404.09 185.08 404.39 184.86&#xA;  Q 404.79 184.58 404.46 184.23&#xA;  Q 404.15 183.92 403.49 184.09&#xA;  Q 402.27 184.40 401.93 183.50&#xA;  Q 401.81 183.20 402.04 182.96&#xA;  L 402.26 182.74&#xA;  Q 402.62 182.39 402.11 182.39&#xA;  Q 400.74 182.40 400.64 181.00&#xA;  Q 400.60 180.40 400.00 180.38&#xA;  Q 398.98 180.35 398.07 179.90&#xA;  Q 397.73 179.72 397.94 179.39&#xA;  L 398.10 179.15&#xA;  Q 398.24 178.92 398.16 178.67&#xA;  Q 397.81 177.57 397.23 177.99&#xA;  Q 396.75 178.35 396.29 177.96&#xA;  Q 395.40 177.22 394.90 176.24&#xA;  Q 394.68 175.80 394.38 175.42&#xA;  Q 394.07 175.05 393.72 174.72&#xA;  Q 393.44 174.46 393.22 174.78&#xA;  Q 392.97 175.14 392.50 175.13&#xA;  A 0.65 0.65 0.0 0 1 391.87 174.50&#xA;  Q 391.86 174.01 392.25 173.76&#xA;  Q 393.17 173.20 392.25 173.35&#xA;  Q 391.42 173.49 390.76 173.14&#xA;  A 3.09 1.61 25.9 0 1 388.81 170.52&#xA;  Q 389.01 169.97 388.43 169.62&#xA;  Q 388.09 169.42 387.70 169.38&#xA;  Q 387.22 169.34 386.89 168.91&#xA;  Q 386.57 168.49 386.05 168.40&#xA;  Q 385.14 168.24 384.85 167.39&#xA;  Q 384.75 167.12 384.47 167.12&#xA;  L 384.01 167.12&#xA;  Q 383.49 167.12 383.19 166.70&#xA;  Q 382.58 165.86 381.55 165.84&#xA;  Q 380.77 165.83 381.32 165.29&#xA;  L 381.80 164.80&#xA;  Q 381.94 164.67 381.86 164.49&#xA;  Q 381.79 164.34 381.64 164.25&#xA;  Q 381.41 164.09 381.21 164.29&#xA;  L 380.87 164.62&#xA;  Q 380.50 164.99 380.13 164.62&#xA;  L 379.23 163.73&#xA;  A 0.40 0.39 -31.3 0 1 379.39 163.08&#xA;  L 380.24 162.78&#xA;  Q 380.83 162.58 380.39 162.14&#xA;  L 379.87 161.62&#xA;  Q 379.50 161.24 379.13 161.63&#xA;  Q 378.31 162.50 377.17 161.96&#xA;  A 0.64 0.64 0.0 0 1 376.84 161.19&#xA;  Q 377.19 160.12 376.46 160.10&#xA;  Q 375.83 160.08 375.88 159.45&#xA;  Q 376.08 157.15 373.84 157.12&#xA;  Q 373.36 157.11 373.02 156.76&#xA;  L 369.89 153.49&#xA;  Q 369.70 153.29 369.00 153.77&#xA;  Q 368.87 153.86 368.73 154.03&#xA;  A 0.42 0.42 0.0 0 1 367.98 153.85&#xA;  L 367.84 152.92&#xA;  Q 367.80 152.65 367.65 152.43&#xA;  Q 367.01 151.45 366.12 150.83&#xA;  Q 365.82 150.62 365.99 150.30&#xA;  L 366.15 150.00&#xA;  Q 366.40 149.54 365.90 149.40&#xA;  Q 364.30 148.95 362.99 147.96&#xA;  Q 362.64 147.70 362.93 147.37&#xA;  Q 363.50 146.72 363.21 146.19&#xA;  L 418.99 90.44&#xA;  Z" fill="#ffa97f"/>
<path d="M 363.21 146.19&#xA;  Q 363.50 146.72 362.93 147.37&#xA;  Q 362.64 147.70 362.99 147.96&#xA;  Q 364.30 148.95 365.90 149.40&#xA;  Q 366.40 149.54 366.15 150.00&#xA;  L 365.99 150.30&#xA;  Q 365.82 150.62 366.12 150.83&#xA;  Q 367.01 151.45 367.65 152.43&#xA;  Q 367.80 152.65 367.84 152.92&#xA;  L 367.98 153.85&#xA;  A 0.42 0.42 0.0 0 0 368.73 154.03&#xA;  Q 368.87 153.86 369.00 153.77&#xA;  Q 369.70 153.29 369.89 153.49&#xA;  L 373.02 156.76&#xA;  Q 373.36 157.11 373.84 157.12&#xA;  Q 376.08 157.15 375.88 159.45&#xA;  Q 375.83 160.08 376.46 160.10&#xA;  Q 377.19 160.12 376.84 161.19&#xA;  A 0.64 0.64 0.0 0 0 377.17 161.96&#xA;  Q 378.31 162.50 379.13 161.63&#xA;  Q 379.50 161.24 379.87 161.62&#xA;  L 380.39 162.14&#xA;  Q 380.83 162.58 380.24 162.78&#xA;  L 379.39 163.08&#xA;  A 0.40 0.39 -31.3 0 0 379.23 163.73&#xA;  L 380.13 164.62&#xA;  Q 380.50 164.99 380.87 164.62&#xA;  L 381.21 164.29&#xA;  Q 381.41 164.09 381.64 164.25&#xA;  Q 381.79 164.34 381.86 164.49&#xA;  Q 381.94 164.67 381.80 164.80&#xA;  L 381.32 165.29&#xA;  Q 380.77 165.83 381.55 165.84&#xA;  Q 382.58 165.86 383.19 166.70&#xA;  Q 383.49 167.12 384.01 167.12&#xA;  L 384.47 167.12&#xA;  Q 384.75 167.12 384.85 167.39&#xA;  Q 385.14 168.24 386.05 168.40&#xA;  Q 386.57 168.49 386.89 168.91&#xA;  Q 387.22 169.34 387.70 169.38&#xA;  Q 388.09 169.42 388.43 169.62&#xA;  Q 389.01 169.97 388.81 170.52&#xA;  A 3.09 1.61 25.9 0 0 390.76 173.14&#xA;  Q 391.42 173.49 392.25 173.35&#xA;  Q 393.17 173.20 392.25 173.76&#xA;  Q 391.86 174.01 391.87 174.50&#xA;  A 0.65 0.65 0.0 0 0 392.50 175.13&#xA;  Q 392.97 175.14 393.22 174.78&#xA;  Q 393.44 174.46 393.72 174.72&#xA;  Q 394.07 175.05 394.38 175.42&#xA;  Q 394.68 175.80 394.90 176.24&#xA;  Q 395.40 177.22 396.29 177.96&#xA;  Q 396.75 178.35 397.23 177.99&#xA;  Q 397.81 177.57 398.16 178.67&#xA;  Q 398.24 178.92 398.10 179.15&#xA;  L 397.94 179.39&#xA;  Q 397.73 179.72 398.07 179.90&#xA;  Q 398.98 180.35 400.00 180.38&#xA;  Q 400.60 180.40 400.64 181.00&#xA;  Q 400.74 182.40 402.11 182.39&#xA;  Q 402.62 182.39 402.26 182.74&#xA;  L 402.04 182.96&#xA;  Q 401.81 183.20 401.93 183.50&#xA;  Q 402.27 184.40 403.49 184.09&#xA;  Q 404.15 183.92 404.46 184.23&#xA;  Q 404.79 184.58 404.39 184.86&#xA;  Q 404.09 185.08 404.13 185.48&#xA;  A 0.42 0.41 3.6 0 0 404.47 185.86&#xA;  Q 404.87 185.95 405.16 185.59&#xA;  Q 405.44 185.24 405.71 185.59&#xA;  L 408.18 188.74&#xA;  Q 408.39 189.00 408.72 189.05&#xA;  Q 408.98 189.08 409.21 189.16&#xA;  Q 409.80 189.37 409.22 189.60&#xA;  L 408.59 189.85&#xA;  Q 408.08 190.05 408.26 190.57&#xA;  Q 408.45 191.13 409.27 191.13&#xA;  Q 410.75 191.14 412.14 191.68&#xA;  A 0.81 0.80 -76.6 0 1 412.64 192.51&#xA;  Q 412.45 194.23 414.22 194.38&#xA;  Q 414.74 194.43 414.82 194.95&#xA;  Q 415.07 196.52 416.67 196.38&#xA;  Q 417.20 196.33 417.53 196.76&#xA;  Q 417.84 197.18 418.30 197.39&#xA;  A 0.26 0.25 56.9 0 1 418.20 197.88&#xA;  L 417.51 197.88&#xA;  A 0.42 0.42 0.0 0 0 417.13 198.49&#xA;  Q 417.19 198.63 417.26 198.75&#xA;  Q 417.42 199.07 417.75 198.94&#xA;  Q 418.75 198.55 418.99 199.46&#xA;  A 0.61 0.61 0.0 0 0 419.96 199.78&#xA;  Q 420.22 199.58 420.35 199.29&#xA;  Q 420.45 199.08 420.62 199.23&#xA;  Q 420.96 199.54 420.78 199.83&#xA;  Q 420.44 200.35 420.83 200.83&#xA;  Q 421.44 201.58 422.43 201.37&#xA;  Q 422.88 201.27 422.88 201.73&#xA;  L 422.88 202.49&#xA;  Q 422.88 203.04 423.43 203.08&#xA;  Q 424.75 203.18 425.85 203.89&#xA;  Q 427.21 204.77 426.30 206.03&#xA;  Q 426.09 206.32 426.13 206.50&#xA;  Q 426.17 206.69 426.35 206.82&#xA;  Q 426.64 207.01 426.87 206.77&#xA;  Q 427.36 206.27 428.11 206.39&#xA;  Q 428.62 206.48 428.77 206.98&#xA;  Q 428.84 207.22 428.91 207.47&#xA;  Q 429.02 207.82 429.25 207.96&#xA;  Q 429.65 208.23 430.06 207.94&#xA;  Q 430.37 207.74 430.57 208.05&#xA;  L 432.38 210.86&#xA;  A 0.61 0.60 -18.1 0 0 432.92 211.13&#xA;  Q 433.07 211.12 433.22 211.12&#xA;  Q 433.34 211.12 433.42 211.20&#xA;  L 435.58 213.40&#xA;  Q 435.83 213.67 435.66 213.99&#xA;  L 435.50 214.29&#xA;  Q 435.35 214.56 435.62 214.73&#xA;  Q 436.22 215.09 436.97 214.69&#xA;  Q 437.23 214.55 437.39 214.24&#xA;  Q 437.52 213.98 437.61 214.26&#xA;  L 437.94 215.29&#xA;  Q 438.11 215.83 438.58 216.14&#xA;  Q 438.97 216.40 438.97 216.97&#xA;  A 0.94 0.93 16.1 0 0 439.43 217.79&#xA;  Q 440.28 218.30 441.08 217.94&#xA;  Q 441.51 217.74 441.61 218.20&#xA;  Q 441.79 219.01 442.23 219.26&#xA;  Q 443.81 220.17 445.28 221.20&#xA;  A 0.86 0.83 21.3 0 1 445.63 221.97&#xA;  Q 445.56 222.57 445.91 222.91&#xA;  Q 446.08 223.07 446.68 223.23&#xA;  Q 447.91 223.55 449.56 225.25&#xA;  A 0.29 0.01 75.5 0 1 449.63 225.50&#xA;  Q 449.75 225.98 449.29 226.12&#xA;  A 0.38 0.38 0.0 0 0 449.44 226.86&#xA;  Q 450.53 226.72 451.03 227.74&#xA;  Q 451.35 228.39 451.87 227.88&#xA;  L 452.25 227.49&#xA;  A 0.37 0.37 0.0 0 1 452.88 227.75&#xA;  L 452.88 229.06&#xA;  Q 452.88 229.49 453.19 229.80&#xA;  L 455.16 231.77&#xA;  Q 455.50 232.11 455.98 232.11&#xA;  Q 456.60 232.10 457.21 232.37&#xA;  Q 457.61 232.54 457.34 232.89&#xA;  Q 457.20 233.08 457.15 233.32&#xA;  Q 457.11 233.49 457.20 233.67&#xA;  Q 457.55 234.35 457.89 234.26&#xA;  A 1.75 1.58 83.3 0 1 459.88 236.00&#xA;  L 459.88 237.05&#xA;  Q 459.88 237.74 460.56 237.82&#xA;  L 461.89 237.99&#xA;  Q 462.41 238.06 462.77 238.42&#xA;  L 465.22 240.84&#xA;  Q 465.57 241.18 465.90 240.84&#xA;  L 466.36 240.39&#xA;  A 0.31 0.30 -22.7 0 1 466.88 240.60&#xA;  L 466.88 241.38&#xA;  A 0.70 0.68 20.5 0 0 467.13 241.91&#xA;  Q 467.50 242.21 468.01 242.12&#xA;  A 0.34 0.34 0.0 0 1 468.36 242.62&#xA;  L 468.01 243.25&#xA;  Q 467.74 243.75 468.30 243.88&#xA;  Q 469.66 244.18 470.62 245.23&#xA;  Q 471.07 245.71 470.44 245.91&#xA;  Q 470.17 246.00 469.99 246.29&#xA;  A 0.18 0.17 -50.8 0 0 470.01 246.51&#xA;  L 470.25 246.75&#xA;  Q 470.64 247.13 470.95 246.68&#xA;  Q 471.50 245.88 472.41 245.41&#xA;  Q 473.05 245.09 472.90 245.79&#xA;  Q 472.49 247.83 474.33 248.88&#xA;  Q 474.84 249.16 475.02 248.61&#xA;  Q 475.07 248.44 475.25 248.36&#xA;  Q 475.55 248.23 475.67 248.53&#xA;  L 476.24 250.01&#xA;  A 0.14 0.14 0.0 0 0 476.49 250.02&#xA;  Q 476.55 249.89 476.60 249.75&#xA;  Q 476.69 249.53 476.85 249.72&#xA;  Q 477.05 249.97 477.26 250.02&#xA;  Q 470.73 269.49 458.45 285.63&#xA;  Q 454.20 291.22 445.06 300.45&#xA;  Q 424.41 321.31 403.58 342.00&#xA;  Q 403.73 341.65 403.38 341.42&#xA;  Q 402.92 341.12 402.60 341.57&#xA;  Q 402.33 341.95 401.88 341.89&#xA;  Q 401.32 341.81 401.14 341.28&#xA;  Q 400.78 340.19 399.80 339.60&#xA;  Q 399.45 339.39 399.09 339.57&#xA;  Q 397.77 340.20 396.47 338.14&#xA;  A 2.32 2.30 27.0 0 1 396.11 337.05&#xA;  Q 396.00 335.42 394.31 335.85&#xA;  A 0.27 0.27 0.0 0 1 394.10 335.36&#xA;  L 394.96 334.81&#xA;  Q 395.28 334.60 395.00 334.34&#xA;  L 392.50 331.93&#xA;  A 0.14 0.14 0.0 0 0 392.27 331.98&#xA;  L 392.04 332.46&#xA;  Q 391.70 333.20 391.18 332.57&#xA;  Q 390.07 331.24 388.67 330.57&#xA;  Q 388.12 330.30 388.14 329.70&#xA;  Q 388.17 328.90 387.72 328.24&#xA;  A 0.44 0.44 0.0 0 0 386.98 328.26&#xA;  Q 386.73 328.69 386.28 328.64&#xA;  Q 385.94 328.60 386.05 328.27&#xA;  Q 386.24 327.76 386.07 327.39&#xA;  Q 385.83 326.88 385.27 326.88&#xA;  L 384.62 326.88&#xA;  Q 384.00 326.88 384.75 326.10&#xA;  Q 384.90 325.94 384.96 325.75&#xA;  Q 385.18 325.01 384.57 324.54&#xA;  Q 383.08 323.38 381.85 324.12&#xA;  Q 381.53 324.32 381.37 323.97&#xA;  Q 381.10 323.35 381.11 322.69&#xA;  Q 381.12 322.13 380.60 321.92&#xA;  L 379.82 321.61&#xA;  Q 379.42 321.46 379.28 321.05&#xA;  Q 378.64 319.21 376.74 318.65&#xA;  Q 376.18 318.49 376.63 318.12&#xA;  Q 376.92 317.88 376.88 317.54&#xA;  Q 376.82 316.88 376.28 317.26&#xA;  Q 376.03 317.44 375.77 317.54&#xA;  Q 375.36 317.69 375.37 317.26&#xA;  Q 375.38 317.00 375.65 316.88&#xA;  Q 376.37 316.56 375.21 316.21&#xA;  Q 372.51 315.39 370.31 313.56&#xA;  Q 370.11 313.39 370.29 313.20&#xA;  L 370.65 312.85&#xA;  A 0.38 0.38 0.0 0 0 370.47 312.21&#xA;  L 367.76 311.54&#xA;  Q 367.33 311.44 367.70 311.19&#xA;  Q 367.93 311.03 368.27 310.95&#xA;  Q 368.78 310.81 368.49 310.37&#xA;  Q 367.92 309.50 367.02 309.56&#xA;  Q 366.55 309.60 366.16 309.36&#xA;  Q 364.65 308.43 363.89 306.89&#xA;  Q 363.61 306.35 363.04 306.15&#xA;  Q 362.17 305.85 361.62 305.10&#xA;  A 0.29 0.29 0.0 0 0 361.25 305.02&#xA;  L 361.00 305.16&#xA;  Q 360.53 305.40 360.37 304.91&#xA;  Q 360.04 303.93 358.99 303.66&#xA;  Q 358.51 303.53 358.36 303.06&#xA;  Q 358.16 302.45 358.00 302.25&#xA;  Q 357.50 301.66 356.88 301.94&#xA;  Q 356.46 302.13 356.37 301.68&#xA;  Q 356.22 300.94 355.52 300.65&#xA;  Q 355.09 300.47 355.09 300.00&#xA;  C 355.11 298.18 352.77 296.64 351.50 295.51&#xA;  Q 351.34 295.37 351.23 295.55&#xA;  Q 351.15 295.67 351.00 295.61&#xA;  Q 350.16 295.28 350.14 295.25&#xA;  Q 349.71 294.55 350.10 293.93&#xA;  Q 350.36 293.53 350.02 293.21&#xA;  C 347.82 291.18 345.49 288.04 342.68 287.08&#xA;  Q 342.23 286.92 342.06 286.48&#xA;  Q 341.28 284.52 339.45 283.31&#xA;  C 338.68 282.80 338.60 282.04 337.94 281.49&#xA;  Q 336.55 280.33 334.74 280.01&#xA;  Q 334.29 279.93 333.94 279.64&#xA;  L 332.81 278.72&#xA;  Q 332.50 278.46 332.14 278.66&#xA;  Q 331.96 278.77 331.76 278.77&#xA;  Q 331.17 278.79 331.13 278.21&#xA;  Q 330.99 276.64 329.71 275.75&#xA;  Q 329.27 275.44 329.05 275.93&#xA;  Q 328.98 276.07 328.93 276.20&#xA;  A 0.44 0.44 0.0 0 1 328.15 276.29&#xA;  L 325.27 272.01&#xA;  Q 324.93 271.50 324.35 271.27&#xA;  L 323.12 270.78&#xA;  Q 322.69 270.61 322.34 270.32&#xA;  L 320.89 269.11&#xA;  Q 320.50 268.78 320.00 268.89&#xA;  Q 319.70 268.95 319.51 268.78&#xA;  Q 319.18 268.47 319.54 268.20&#xA;  Q 319.78 268.03 319.87 267.78&#xA;  Q 320.16 267.02 319.39 267.29&#xA;  Q 318.24 267.70 318.09 266.65&#xA;  A 0.65 0.64 -83.1 0 0 317.72 266.17&#xA;  Q 315.27 265.14 315.29 263.84&#xA;  Q 315.30 263.14 315.27 263.19&#xA;  Q 315.06 263.58 314.75 263.62&#xA;  Q 313.98 263.73 313.74 263.52&#xA;  Q 313.16 263.00 313.39 262.23&#xA;  Q 313.47 262.00 313.49 261.99&#xA;  L 313.74 261.85&#xA;  Q 314.04 261.69 313.79 261.46&#xA;  L 310.50 258.47&#xA;  Q 310.18 258.17 309.75 258.13&#xA;  Q 308.80 258.03 308.08 257.50&#xA;  Q 308.04 257.47 306.89 255.68&#xA;  Q 306.28 254.73 304.90 254.83&#xA;  A 0.55 0.54 -4.3 0 1 304.32 254.34&#xA;  Q 304.20 253.24 303.39 252.84&#xA;  C 301.83 252.08 301.05 251.39 299.99 250.03&#xA;  Q 299.68 249.62 299.16 249.62&#xA;  Q 299.02 249.62 298.88 249.63&#xA;  Q 298.73 249.63 298.73 249.48&#xA;  Q 298.73 249.12 298.94 248.84&#xA;  A 0.62 0.62 0.0 0 0 298.36 247.84&#xA;  Q 297.02 248.04 295.76 247.65&#xA;  Q 295.12 247.45 295.78 247.35&#xA;  Q 296.38 247.27 296.87 246.88&#xA;  Q 297.33 246.50 296.88 246.12&#xA;  Q 296.32 245.66 295.49 245.86&#xA;  Q 294.87 246.02 294.44 245.74&#xA;  Q 293.87 245.37 294.50 245.12&#xA;  Q 295.44 244.75 295.00 243.58&#xA;  Q 294.83 243.15 294.47 242.86&#xA;  L 293.54 242.11&#xA;  A 0.37 0.36 22.7 0 0 292.95 242.35&#xA;  L 292.81 243.47&#xA;  Q 292.74 244.09 292.32 243.62&#xA;  Q 291.98 243.24 292.15 242.69&#xA;  A 0.50 0.50 0.0 0 0 291.83 242.07&#xA;  Q 291.20 241.88 291.01 241.29&#xA;  A 0.65 0.64 -13.1 0 0 290.31 240.86&#xA;  Q 289.39 240.97 288.52 240.79&#xA;  A 0.59 0.59 0.0 0 1 288.09 240.03&#xA;  Q 288.43 239.03 287.52 238.87&#xA;  Q 286.99 238.78 287.11 238.26&#xA;  Q 287.30 237.43 286.66 236.89&#xA;  Q 286.27 236.57 286.15 236.09&#xA;  Q 285.86 234.86 284.71 234.09&#xA;  Q 284.15 233.71 283.96 234.37&#xA;  Q 283.81 234.89 283.88 235.48&#xA;  Q 283.88 235.48 283.75 235.75&#xA;  Q 283.63 236.00 283.31 235.79&#xA;  A 0.23 0.21 15.7 0 1 283.21 235.63&#xA;  Q 283.08 233.87 281.46 232.91&#xA;  Q 280.91 232.58 281.37 232.13&#xA;  L 281.62 231.88&#xA;  Q 282.23 231.26 281.39 231.04&#xA;  Q 280.34 230.77 279.49 230.11&#xA;  L 363.21 146.19&#xA;  Z" fill="#ff9e6e"/>
<path d="M 279.49 230.11&#xA;  Q 280.34 230.77 281.39 231.04&#xA;  Q 282.23 231.26 281.62 231.88&#xA;  L 281.37 232.13&#xA;  Q 280.91 232.58 281.46 232.91&#xA;  Q 283.08 233.87 283.21 235.63&#xA;  A 0.23 0.21 15.7 0 0 283.31 235.79&#xA;  Q 283.63 236.00 283.75 235.75&#xA;  Q 283.88 235.48 283.88 235.48&#xA;  Q 283.81 234.89 283.96 234.37&#xA;  Q 284.15 233.71 284.71 234.09&#xA;  Q 285.86 234.86 286.15 236.09&#xA;  Q 286.27 236.57 286.66 236.89&#xA;  Q 287.30 237.43 287.11 238.26&#xA;  Q 286.99 238.78 287.52 238.87&#xA;  Q 288.43 239.03 288.09 240.03&#xA;  A 0.59 0.59 0.0 0 0 288.52 240.79&#xA;  Q 289.39 240.97 290.31 240.86&#xA;  A 0.65 0.64 -13.1 0 1 291.01 241.29&#xA;  Q 291.20 241.88 291.83 242.07&#xA;  A 0.50 0.50 0.0 0 1 292.15 242.69&#xA;  Q 291.98 243.24 292.32 243.62&#xA;  Q 292.74 244.09 292.81 243.47&#xA;  L 292.95 242.35&#xA;  A 0.37 0.36 22.7 0 1 293.54 242.11&#xA;  L 294.47 242.86&#xA;  Q 294.83 243.15 295.00 243.58&#xA;  Q 295.44 244.75 294.50 245.12&#xA;  Q 293.87 245.37 294.44 245.74&#xA;  Q 294.87 246.02 295.49 245.86&#xA;  Q 296.32 245.66 296.88 246.12&#xA;  Q 297.33 246.50 296.87 246.88&#xA;  Q 296.38 247.27 295.78 247.35&#xA;  Q 295.12 247.45 295.76 247.65&#xA;  Q 297.02 248.04 298.36 247.84&#xA;  A 0.62 0.62 0.0 0 1 298.94 248.84&#xA;  Q 298.73 249.12 298.73 249.48&#xA;  Q 298.73 249.63 298.88 249.63&#xA;  Q 299.02 249.62 299.16 249.62&#xA;  Q 299.68 249.62 299.99 250.03&#xA;  C 301.05 251.39 301.83 252.08 303.39 252.84&#xA;  Q 304.20 253.24 304.32 254.34&#xA;  A 0.55 0.54 -4.3 0 0 304.90 254.83&#xA;  Q 306.28 254.73 306.89 255.68&#xA;  Q 308.04 257.47 308.08 257.50&#xA;  Q 308.80 258.03 309.75 258.13&#xA;  Q 310.18 258.17 310.50 258.47&#xA;  L 313.79 261.46&#xA;  Q 314.04 261.69 313.74 261.85&#xA;  L 313.49 261.99&#xA;  Q 313.47 262.00 313.39 262.23&#xA;  Q 313.16 263.00 313.74 263.52&#xA;  Q 313.98 263.73 314.75 263.62&#xA;  Q 315.06 263.58 315.27 263.19&#xA;  Q 315.30 263.14 315.29 263.84&#xA;  Q 315.27 265.14 317.72 266.17&#xA;  A 0.65 0.64 -83.1 0 1 318.09 266.65&#xA;  Q 318.24 267.70 319.39 267.29&#xA;  Q 320.16 267.02 319.87 267.78&#xA;  Q 319.78 268.03 319.54 268.20&#xA;  Q 319.18 268.47 319.51 268.78&#xA;  Q 319.70 268.95 320.00 268.89&#xA;  Q 320.50 268.78 320.89 269.11&#xA;  L 322.34 270.32&#xA;  Q 322.69 270.61 323.12 270.78&#xA;  L 324.35 271.27&#xA;  Q 324.93 271.50 325.27 272.01&#xA;  L 328.15 276.29&#xA;  A 0.44 0.44 0.0 0 0 328.93 276.20&#xA;  Q 328.98 276.07 329.05 275.93&#xA;  Q 329.27 275.44 329.71 275.75&#xA;  Q 330.99 276.64 331.13 278.21&#xA;  Q 331.17 278.79 331.76 278.77&#xA;  Q 331.96 278.77 332.14 278.66&#xA;  Q 332.50 278.46 332.81 278.72&#xA;  L 333.94 279.64&#xA;  Q 334.29 279.93 334.74 280.01&#xA;  Q 336.55 280.33 337.94 281.49&#xA;  C 338.60 282.04 338.68 282.80 339.45 283.31&#xA;  Q 341.28 284.52 342.06 286.48&#xA;  Q 342.23 286.92 342.68 287.08&#xA;  C 345.49 288.04 347.82 291.18 350.02 293.21&#xA;  Q 350.36 293.53 350.10 293.93&#xA;  Q 349.71 294.55 350.14 295.25&#xA;  Q 350.16 295.28 351.00 295.61&#xA;  Q 351.15 295.67 351.23 295.55&#xA;  Q 351.34 295.37 351.50 295.51&#xA;  C 352.77 296.64 355.11 298.18 355.09 300.00&#xA;  Q 355.09 300.47 355.52 300.65&#xA;  Q 356.22 300.94 356.37 301.68&#xA;  Q 356.46 302.13 356.88 301.94&#xA;  Q 357.50 301.66 358.00 302.25&#xA;  Q 358.16 302.45 358.36 303.06&#xA;  Q 358.51 303.53 358.99 303.66&#xA;  Q 360.04 303.93 360.37 304.91&#xA;  Q 360.53 305.40 361.00 305.16&#xA;  L 361.25 305.02&#xA;  A 0.29 0.29 0.0 0 1 361.62 305.10&#xA;  Q 362.17 305.85 363.04 306.15&#xA;  Q 363.61 306.35 363.89 306.89&#xA;  Q 364.65 308.43 366.16 309.36&#xA;  Q 366.55 309.60 367.02 309.56&#xA;  Q 367.92 309.50 368.49 310.37&#xA;  Q 368.78 310.81 368.27 310.95&#xA;  Q 367.93 311.03 367.70 311.19&#xA;  Q 367.33 311.44 367.76 311.54&#xA;  L 370.47 312.21&#xA;  A 0.38 0.38 0.0 0 1 370.65 312.85&#xA;  L 370.29 313.20&#xA;  Q 370.11 313.39 370.31 313.56&#xA;  Q 372.51 315.39 375.21 316.21&#xA;  Q 376.37 316.56 375.65 316.88&#xA;  Q 375.38 317.00 375.37 317.26&#xA;  Q 375.36 317.69 375.77 317.54&#xA;  Q 376.03 317.44 376.28 317.26&#xA;  Q 376.82 316.88 376.88 317.54&#xA;  Q 376.92 317.88 376.63 318.12&#xA;  Q 376.18 318.49 376.74 318.65&#xA;  Q 378.64 319.21 379.28 321.05&#xA;  Q 379.42 321.46 379.82 321.61&#xA;  L 380.60 321.92&#xA;  Q 381.12 322.13 381.11 322.69&#xA;  Q 381.10 323.35 381.37 323.97&#xA;  Q 381.53 324.32 381.85 324.12&#xA;  Q 383.08 323.38 384.57 324.54&#xA;  Q 385.18 325.01 384.96 325.75&#xA;  Q 384.90 325.94 384.75 326.10&#xA;  Q 384.00 326.88 384.62 326.88&#xA;  L 385.27 326.88&#xA;  Q 385.83 326.88 386.07 327.39&#xA;  Q 386.24 327.76 386.05 328.27&#xA;  Q 385.94 328.60 386.28 328.64&#xA;  Q 386.73 328.69 386.98 328.26&#xA;  A 0.44 0.44 0.0 0 1 387.72 328.24&#xA;  Q 388.17 328.90 388.14 329.70&#xA;  Q 388.12 330.30 388.67 330.57&#xA;  Q 390.07 331.24 391.18 332.57&#xA;  Q 391.70 333.20 392.04 332.46&#xA;  L 392.27 331.98&#xA;  A 0.14 0.14 0.0 0 1 392.50 331.93&#xA;  L 395.00 334.34&#xA;  Q 395.28 334.60 394.96 334.81&#xA;  L 394.10 335.36&#xA;  A 0.27 0.27 0.0 0 0 394.31 335.85&#xA;  Q 396.00 335.42 396.11 337.05&#xA;  A 2.32 2.30 27.0 0 0 396.47 338.14&#xA;  Q 397.77 340.20 399.09 339.57&#xA;  Q 399.45 339.39 399.80 339.60&#xA;  Q 400.78 340.19 401.14 341.28&#xA;  Q 401.32 341.81 401.88 341.89&#xA;  Q 402.33 341.95 402.60 341.57&#xA;  Q 402.92 341.12 403.38 341.42&#xA;  Q 403.73 341.65 403.58 342.00&#xA;  L 348.59 397.01&#xA;  Q 348.70 396.28 347.68 396.66&#xA;  Q 347.34 396.79 347.13 396.50&#xA;  Q 346.81 396.06 346.28 396.08&#xA;  Q 345.92 396.10 345.64 395.88&#xA;  Q 344.10 394.64 342.83 393.18&#xA;  Q 342.57 392.88 342.18 392.88&#xA;  L 341.52 392.88&#xA;  Q 340.98 392.88 341.09 392.36&#xA;  Q 341.20 391.86 341.05 391.40&#xA;  Q 340.89 390.88 340.34 390.88&#xA;  L 339.79 390.88&#xA;  Q 339.40 390.88 339.18 390.55&#xA;  Q 338.68 389.81 337.71 389.68&#xA;  A 0.69 0.69 0.0 0 1 337.12 389.10&#xA;  Q 337.02 388.44 337.39 387.88&#xA;  Q 337.67 387.44 337.24 387.14&#xA;  Q 336.75 386.80 336.16 386.87&#xA;  Q 335.65 386.93 335.24 386.62&#xA;  Q 333.75 385.48 332.86 383.39&#xA;  Q 332.56 382.68 331.59 382.90&#xA;  A 0.38 0.38 0.0 0 1 331.12 382.53&#xA;  L 331.12 381.95&#xA;  Q 331.12 381.49 330.81 381.14&#xA;  Q 329.83 380.05 328.45 379.81&#xA;  Q 327.94 379.72 327.89 379.20&#xA;  Q 327.83 378.52 327.70 377.85&#xA;  Q 327.61 377.41 327.35 377.24&#xA;  Q 327.02 377.02 326.58 377.11&#xA;  Q 326.45 377.14 326.00 377.51&#xA;  Q 325.86 377.62 325.74 377.81&#xA;  A 0.34 0.34 0.0 0 1 325.11 377.60&#xA;  Q 325.28 375.90 323.75 375.87&#xA;  Q 323.16 375.86 323.12 375.26&#xA;  Q 323.10 374.86 322.86 374.51&#xA;  Q 322.56 374.08 322.12 374.35&#xA;  Q 321.45 374.77 320.63 374.61&#xA;  Q 320.12 374.51 320.12 373.99&#xA;  L 320.12 371.72&#xA;  A 0.60 0.59 -4.6 0 0 319.43 371.14&#xA;  Q 318.81 371.24 318.32 370.93&#xA;  A 1.00 0.99 -81.6 0 1 317.88 370.33&#xA;  Q 317.66 369.50 316.83 369.88&#xA;  A 0.65 0.64 61.8 0 1 316.02 369.63&#xA;  Q 315.12 368.15 313.48 367.84&#xA;  Q 312.89 367.72 313.09 367.15&#xA;  L 313.22 366.79&#xA;  Q 313.37 366.39 313.08 366.08&#xA;  Q 311.88 364.75 310.01 365.18&#xA;  A 0.76 0.76 0.0 0 1 309.10 364.25&#xA;  Q 309.15 364.06 309.28 363.95&#xA;  Q 310.10 363.20 309.22 363.14&#xA;  Q 308.70 363.11 308.77 362.40&#xA;  A 0.66 0.64 -75.3 0 0 308.40 361.75&#xA;  Q 306.98 361.10 305.87 360.00&#xA;  Q 305.55 359.68 305.14 359.85&#xA;  Q 304.82 359.98 304.51 359.87&#xA;  Q 304.25 359.77 303.90 359.22&#xA;  Q 303.15 358.01 301.56 357.96&#xA;  A 0.46 0.45 87.0 0 1 301.12 357.56&#xA;  Q 301.07 357.24 301.22 356.97&#xA;  Q 301.47 356.50 300.98 356.26&#xA;  L 299.88 355.72&#xA;  Q 299.62 355.60 299.62 355.31&#xA;  Q 299.62 355.15 299.62 355.00&#xA;  Q 299.62 354.96 298.99 354.39&#xA;  Q 298.70 354.14 298.63 353.74&#xA;  A 1.10 1.10 0.0 0 0 298.03 352.93&#xA;  Q 296.48 352.19 295.27 351.01&#xA;  Q 294.96 350.71 294.89 350.28&#xA;  Q 294.76 349.43 294.05 349.19&#xA;  Q 293.58 349.02 293.24 348.65&#xA;  L 290.28 345.40&#xA;  A 0.65 0.65 0.0 0 0 289.23 345.51&#xA;  Q 288.97 345.96 288.52 345.89&#xA;  Q 287.99 345.82 288.09 345.30&#xA;  Q 288.27 344.37 287.96 343.52&#xA;  A 0.43 0.43 0.0 0 0 287.18 343.46&#xA;  L 286.89 343.99&#xA;  Q 286.68 344.36 286.40 344.04&#xA;  Q 285.85 343.40 286.46 342.99&#xA;  Q 287.03 342.61 286.48 342.20&#xA;  L 283.79 340.21&#xA;  Q 283.34 339.88 283.20 339.34&#xA;  Q 282.66 337.35 280.68 336.80&#xA;  Q 280.20 336.67 280.12 336.18&#xA;  Q 280.06 335.77 279.81 335.48&#xA;  Q 279.53 335.16 278.69 335.03&#xA;  Q 276.13 334.65 275.99 331.95&#xA;  A 1.09 1.06 -67.9 0 0 275.72 331.29&#xA;  L 273.87 329.18&#xA;  Q 273.57 328.84 273.19 329.09&#xA;  Q 272.89 329.29 272.88 329.56&#xA;  A 0.37 0.37 0.0 0 1 272.16 329.64&#xA;  L 271.77 328.30&#xA;  A 0.61 0.61 0.0 0 0 271.10 327.87&#xA;  Q 269.98 328.04 269.89 326.97&#xA;  Q 269.81 326.15 269.12 326.60&#xA;  Q 268.92 326.72 268.70 326.77&#xA;  Q 268.15 326.90 267.94 326.37&#xA;  Q 267.81 326.05 267.51 325.87&#xA;  Q 267.02 325.57 267.11 325.00&#xA;  Q 267.29 323.83 266.78 322.80&#xA;  A 0.38 0.37 -49.0 0 0 266.09 322.85&#xA;  L 265.79 323.73&#xA;  A 0.36 0.36 0.0 0 1 265.09 323.55&#xA;  Q 265.22 322.79 265.01 322.09&#xA;  Q 264.84 321.53 264.29 321.37&#xA;  L 262.53 320.88&#xA;  Q 262.10 320.76 262.22 320.32&#xA;  Q 262.31 319.98 262.51 319.73&#xA;  Q 262.89 319.25 262.30 319.08&#xA;  Q 261.01 318.70 259.63 318.90&#xA;  Q 259.48 318.92 259.37 318.87&#xA;  Q 259.11 318.74 259.11 318.47&#xA;  A 0.33 0.33 0.0 0 1 259.43 318.13&#xA;  Q 259.60 318.12 259.74 317.99&#xA;  Q 260.26 317.51 260.00 317.25&#xA;  L 259.74 317.00&#xA;  Q 259.49 316.75 259.15 316.83&#xA;  Q 257.30 317.28 256.31 315.70&#xA;  Q 256.03 315.26 256.12 314.74&#xA;  Q 256.24 314.00 255.99 313.34&#xA;  Q 255.79 312.80 255.26 313.05&#xA;  Q 255.04 313.16 254.95 313.34&#xA;  Q 254.67 313.92 254.13 313.58&#xA;  Q 253.00 312.86 253.10 311.55&#xA;  Q 253.15 310.88 252.47 310.88&#xA;  L 251.00 310.88&#xA;  Q 250.75 310.88 250.50 310.76&#xA;  Q 250.30 310.66 250.40 310.44&#xA;  Q 250.54 310.13 250.87 310.13&#xA;  Q 251.41 310.13 251.85 309.78&#xA;  Q 252.41 309.31 251.73 309.04&#xA;  Q 250.80 308.67 249.72 308.99&#xA;  A 0.44 0.43 -18.4 0 1 249.18 308.73&#xA;  Q 248.87 307.93 248.11 307.72&#xA;  A 0.20 0.19 1.0 0 0 247.87 307.95&#xA;  Q 247.93 308.21 248.12 308.37&#xA;  Q 248.55 308.72 247.95 308.46&#xA;  Q 247.49 308.26 247.13 308.47&#xA;  C 247.51 286.18 250.23 262.07 265.04 244.38&#xA;  L 279.49 230.11&#xA;  Z" fill="#ff8a53"/>
<path d="M 348.59 397.01&#xA;  L 247.25 498.63&#xA;  A 0.22 0.22 0.0 0 1 246.88 498.47&#xA;  L 247.13 308.47&#xA;  Q 247.49 308.26 247.95 308.46&#xA;  Q 248.55 308.72 248.12 308.37&#xA;  Q 247.93 308.21 247.87 307.95&#xA;  A 0.20 0.19 1.0 0 1 248.11 307.72&#xA;  Q 248.87 307.93 249.18 308.73&#xA;  A 0.44 0.43 -18.4 0 0 249.72 308.99&#xA;  Q 250.80 308.67 251.73 309.04&#xA;  Q 252.41 309.31 251.85 309.78&#xA;  Q 251.41 310.13 250.87 310.13&#xA;  Q 250.54 310.13 250.40 310.44&#xA;  Q 250.30 310.66 250.50 310.76&#xA;  Q 250.75 310.88 251.00 310.88&#xA;  L 252.47 310.88&#xA;  Q 253.15 310.88 253.10 311.55&#xA;  Q 253.00 312.86 254.13 313.58&#xA;  Q 254.67 313.92 254.95 313.34&#xA;  Q 255.04 313.16 255.26 313.05&#xA;  Q 255.79 312.80 255.99 313.34&#xA;  Q 256.24 314.00 256.12 314.74&#xA;  Q 256.03 315.26 256.31 315.70&#xA;  Q 257.30 317.28 259.15 316.83&#xA;  Q 259.49 316.75 259.74 317.00&#xA;  L 260.00 317.25&#xA;  Q 260.26 317.51 259.74 317.99&#xA;  Q 259.60 318.12 259.43 318.13&#xA;  A 0.33 0.33 0.0 0 0 259.11 318.47&#xA;  Q 259.11 318.74 259.37 318.87&#xA;  Q 259.48 318.92 259.63 318.90&#xA;  Q 261.01 318.70 262.30 319.08&#xA;  Q 262.89 319.25 262.51 319.73&#xA;  Q 262.31 319.98 262.22 320.32&#xA;  Q 262.10 320.76 262.53 320.88&#xA;  L 264.29 321.37&#xA;  Q 264.84 321.53 265.01 322.09&#xA;  Q 265.22 322.79 265.09 323.55&#xA;  A 0.36 0.36 0.0 0 0 265.79 323.73&#xA;  L 266.09 322.85&#xA;  A 0.38 0.37 -49.0 0 1 266.78 322.80&#xA;  Q 267.29 323.83 267.11 325.00&#xA;  Q 267.02 325.57 267.51 325.87&#xA;  Q 267.81 326.05 267.94 326.37&#xA;  Q 268.15 326.90 268.70 326.77&#xA;  Q 268.92 326.72 269.12 326.60&#xA;  Q 269.81 326.15 269.89 326.97&#xA;  Q 269.98 328.04 271.10 327.87&#xA;  A 0.61 0.61 0.0 0 1 271.77 328.30&#xA;  L 272.16 329.64&#xA;  A 0.37 0.37 0.0 0 0 272.88 329.56&#xA;  Q 272.89 329.29 273.19 329.09&#xA;  Q 273.57 328.84 273.87 329.18&#xA;  L 275.72 331.29&#xA;  A 1.09 1.06 -67.9 0 1 275.99 331.95&#xA;  Q 276.13 334.65 278.69 335.03&#xA;  Q 279.53 335.16 279.81 335.48&#xA;  Q 280.06 335.77 280.12 336.18&#xA;  Q 280.20 336.67 280.68 336.80&#xA;  Q 282.66 337.35 283.20 339.34&#xA;  Q 283.34 339.88 283.79 340.21&#xA;  L 286.48 342.20&#xA;  Q 287.03 342.61 286.46 342.99&#xA;  Q 285.85 343.40 286.40 344.04&#xA;  Q 286.68 344.36 286.89 343.99&#xA;  L 287.18 343.46&#xA;  A 0.43 0.43 0.0 0 1 287.96 343.52&#xA;  Q 288.27 344.37 288.09 345.30&#xA;  Q 287.99 345.82 288.52 345.89&#xA;  Q 288.97 345.96 289.23 345.51&#xA;  A 0.65 0.65 0.0 0 1 290.28 345.40&#xA;  L 293.24 348.65&#xA;  Q 293.58 349.02 294.05 349.19&#xA;  Q 294.76 349.43 294.89 350.28&#xA;  Q 294.96 350.71 295.27 351.01&#xA;  Q 296.48 352.19 298.03 352.93&#xA;  A 1.10 1.10 0.0 0 1 298.63 353.74&#xA;  Q 298.70 354.14 298.99 354.39&#xA;  Q 299.62 354.96 299.62 355.00&#xA;  Q 299.62 355.15 299.62 355.31&#xA;  Q 299.62 355.60 299.88 355.72&#xA;  L 300.98 356.26&#xA;  Q 301.47 356.50 301.22 356.97&#xA;  Q 301.07 357.24 301.12 357.56&#xA;  A 0.46 0.45 87.0 0 0 301.56 357.96&#xA;  Q 303.15 358.01 303.90 359.22&#xA;  Q 304.25 359.77 304.51 359.87&#xA;  Q 304.82 359.98 305.14 359.85&#xA;  Q 305.55 359.68 305.87 360.00&#xA;  Q 306.98 361.10 308.40 361.75&#xA;  A 0.66 0.64 -75.3 0 1 308.77 362.40&#xA;  Q 308.70 363.11 309.22 363.14&#xA;  Q 310.10 363.20 309.28 363.95&#xA;  Q 309.15 364.06 309.10 364.25&#xA;  A 0.76 0.76 0.0 0 0 310.01 365.18&#xA;  Q 311.88 364.75 313.08 366.08&#xA;  Q 313.37 366.39 313.22 366.79&#xA;  L 313.09 367.15&#xA;  Q 312.89 367.72 313.48 367.84&#xA;  Q 315.12 368.15 316.02 369.63&#xA;  A 0.65 0.64 61.8 0 0 316.83 369.88&#xA;  Q 317.66 369.50 317.88 370.33&#xA;  A 1.00 0.99 -81.6 0 0 318.32 370.93&#xA;  Q 318.81 371.24 319.43 371.14&#xA;  A 0.60 0.59 -4.6 0 1 320.12 371.72&#xA;  L 320.12 373.99&#xA;  Q 320.12 374.51 320.63 374.61&#xA;  Q 321.45 374.77 322.12 374.35&#xA;  Q 322.56 374.08 322.86 374.51&#xA;  Q 323.10 374.86 323.12 375.26&#xA;  Q 323.16 375.86 323.75 375.87&#xA;  Q 325.28 375.90 325.11 377.60&#xA;  A 0.34 0.34 0.0 0 0 325.74 377.81&#xA;  Q 325.86 377.62 326.00 377.51&#xA;  Q 326.45 377.14 326.58 377.11&#xA;  Q 327.02 377.02 327.35 377.24&#xA;  Q 327.61 377.41 327.70 377.85&#xA;  Q 327.83 378.52 327.89 379.20&#xA;  Q 327.94 379.72 328.45 379.81&#xA;  Q 329.83 380.05 330.81 381.14&#xA;  Q 331.12 381.49 331.12 381.95&#xA;  L 331.12 382.53&#xA;  A 0.38 0.38 0.0 0 0 331.59 382.90&#xA;  Q 332.56 382.68 332.86 383.39&#xA;  Q 333.75 385.48 335.24 386.62&#xA;  Q 335.65 386.93 336.16 386.87&#xA;  Q 336.75 386.80 337.24 387.14&#xA;  Q 337.67 387.44 337.39 387.88&#xA;  Q 337.02 388.44 337.12 389.10&#xA;  A 0.69 0.69 0.0 0 0 337.71 389.68&#xA;  Q 338.68 389.81 339.18 390.55&#xA;  Q 339.40 390.88 339.79 390.88&#xA;  L 340.34 390.88&#xA;  Q 340.89 390.88 341.05 391.40&#xA;  Q 341.20 391.86 341.09 392.36&#xA;  Q 340.98 392.88 341.52 392.88&#xA;  L 342.18 392.88&#xA;  Q 342.57 392.88 342.83 393.18&#xA;  Q 344.10 394.64 345.64 395.88&#xA;  Q 345.92 396.10 346.28 396.08&#xA;  Q 346.81 396.06 347.13 396.50&#xA;  Q 347.34 396.79 347.68 396.66&#xA;  Q 348.70 396.28 348.59 397.01&#xA;  Z" fill="#ff7839"/>
</svg>