<?xml version="1.0" encoding="utf-8"?>
<svg xmlns="http://www.w3.org/2000/svg" version="1.1" viewBox="0.00 0.00 64.00 64.00">
<g fill="none" stroke-linecap="butt" stroke-width="2.00">
<path d="M 15.85 7.23&#xA;  C 7.43 7.67 5.51 15.11 7.85 21.91&#xA;  Q 8.01 22.39 7.82 22.85&#xA;  Q 6.24 26.67 9.54 28.37&#xA;  C 11.14 29.20 11.53 30.00 12.21 31.50&#xA;  Q 12.42 31.97 12.13 32.40&#xA;  C 8.33 38.15 3.80 48.87 10.12 54.16&#xA;  C 16.51 59.51 25.31 53.99 31.16 50.98&#xA;  A 0.82 0.81 48.7 0 1 32.01 51.04&#xA;  Q 37.46 54.84 43.95 56.15&#xA;  C 45.41 56.45 45.99 57.71 47.24 58.14&#xA;  C 49.48 58.93 50.68 57.64 51.95 55.77&#xA;  Q 52.76 54.57 54.29 52.51&#xA;  C 57.02 48.85 55.67 42.46 54.00 38.51" stroke="#80807f"/>
<path d="M 54.00 38.51&#xA;  Q 55.82 31.93 54.09 24.89" stroke="#fff6ea"/>
<path d="M 54.09 24.89&#xA;  C 56.62 17.84 57.67 9.58 48.52 7.57&#xA;  Q 48.02 7.46 47.70 7.07&#xA;  Q 46.47 5.59 44.84 5.06" stroke="#80807f"/>
<path d="M 44.84 5.06&#xA;  Q 34.28 3.29 23.85 4.41&#xA;  C 22.92 4.52 22.60 5.06 21.46 4.92&#xA;  Q 17.83 4.48 15.85 7.23" stroke="#fffbf3"/>
<path d="M 44.84 5.06&#xA;  Q 41.99 5.78 40.99 7.77&#xA;  Q 40.78 8.18 40.36 8.38&#xA;  L 31.75 12.43&#xA;  Q 31.28 12.65 30.83 12.40&#xA;  C 26.21 9.85 21.16 7.34 15.85 7.23" stroke="#7f7b74"/>
<path d="M 54.09 24.89&#xA;  Q 53.59 26.97 51.53 23.17&#xA;  Q 51.29 22.73 51.47 22.26&#xA;  C 52.87 18.40 53.86 12.29 48.55 10.93&#xA;  Q 48.05 10.80 47.71 11.19&#xA;  Q 44.93 14.31 41.61 11.61&#xA;  A 0.50 0.50 0.0 0 0 41.09 11.55&#xA;  L 34.56 14.56&#xA;  A 0.17 0.17 0.0 0 0 34.53 14.85&#xA;  Q 47.29 24.27 54.00 38.51" stroke="#7f776b"/>
<path d="M 21.22 37.80&#xA;  L 25.93 42.58" stroke="#736971"/>
<path d="M 25.93 42.58&#xA;  Q 23.90 45.10 21.84 43.18&#xA;  Q 17.87 39.46 14.77 35.12&#xA;  A 0.30 0.30 0.0 0 0 14.27 35.14&#xA;  C 10.96 40.68 5.38 56.27 19.30 52.42&#xA;  Q 27.88 50.05 35.07 43.94" stroke="#7f776b"/>
<path d="M 35.07 43.94&#xA;  Q 41.44 39.02 46.16 32.05&#xA;  A 0.59 0.57 45.2 0 0 46.15 31.38&#xA;  Q 40.23 22.92 31.75 17.02&#xA;  Q 31.49 16.84 31.23 17.01&#xA;  Q 25.31 21.02 20.86 26.19" stroke="#736971"/>
<path d="M 20.86 26.19&#xA;  Q 19.50 25.83 18.99 23.59&#xA;  Q 18.87 23.06 19.27 22.70&#xA;  L 27.85 14.99&#xA;  Q 28.17 14.70 27.80 14.47&#xA;  Q 23.32 11.67 18.18 10.80&#xA;  C 11.05 9.59 9.13 14.72 10.95 20.76&#xA;  Q 11.10 21.25 11.59 21.37&#xA;  Q 15.01 22.21 14.81 25.73&#xA;  A 1.60 1.60 0.0 0 1 14.43 26.68&#xA;  L 14.11 27.06&#xA;  A 0.84 0.83 -40.0 0 0 14.02 27.99&#xA;  Q 16.93 33.32 21.22 37.80" stroke="#7f776b"/>
<path d="M 20.86 26.19&#xA;  Q 20.40 28.92 19.89 31.68&#xA;  Q 19.57 33.40 20.01 34.80&#xA;  Q 20.48 36.27 21.22 37.80" stroke="#f2dfdc"/>
<path d="M 35.07 43.94&#xA;  C 32.80 43.96 30.71 44.18 28.52 43.32&#xA;  Q 27.24 42.82 25.93 42.58" stroke="#f2dfdc"/>
<path d="M 48.69 50.74&#xA;  L 50.46 51.54&#xA;  Q 51.07 51.81 51.37 51.22&#xA;  C 54.06 45.95 51.38 39.84 48.61 35.18&#xA;  A 0.31 0.31 0.0 0 0 48.10 35.15&#xA;  Q 42.40 42.72 34.82 48.42&#xA;  Q 34.44 48.71 34.85 48.96&#xA;  Q 39.31 51.61 44.41 52.66&#xA;  Q 44.96 52.77 45.30 52.33&#xA;  Q 46.45 50.85 48.33 50.68&#xA;  A 0.69 0.67 -34.6 0 1 48.69 50.74" stroke="#7f776b"/>
<path d="M 37.11 31.80&#xA;  A 5.44 5.44 0.0 0 0 31.67 26.36&#xA;  A 5.44 5.44 0.0 0 0 26.23 31.80&#xA;  A 5.44 5.44 0.0 0 0 31.67 37.24&#xA;  A 5.44 5.44 0.0 0 0 37.11 31.80" stroke="#736971"/>
</g>
<path d="M 0.00 0.00&#xA;  L 64.00 0.00&#xA;  L 64.00 64.00&#xA;  L 0.00 64.00&#xA;  L 0.00 0.00&#xA;  Z&#xA;  M 15.85 7.23&#xA;  C 7.43 7.67 5.51 15.11 7.85 21.91&#xA;  Q 8.01 22.39 7.82 22.85&#xA;  Q 6.24 26.67 9.54 28.37&#xA;  C 11.14 29.20 11.53 30.00 12.21 31.50&#xA;  Q 12.42 31.97 12.13 32.40&#xA;  C 8.33 38.15 3.80 48.87 10.12 54.16&#xA;  C 16.51 59.51 25.31 53.99 31.16 50.98&#xA;  A 0.82 0.81 48.7 0 1 32.01 51.04&#xA;  Q 37.46 54.84 43.95 56.15&#xA;  C 45.41 56.45 45.99 57.71 47.24 58.14&#xA;  C 49.48 58.93 50.68 57.64 51.95 55.77&#xA;  Q 52.76 54.57 54.29 52.51&#xA;  C 57.02 48.85 55.67 42.46 54.00 38.51&#xA;  Q 55.82 31.93 54.09 24.89&#xA;  C 56.62 17.84 57.67 9.58 48.52 7.57&#xA;  Q 48.02 7.46 47.70 7.07&#xA;  Q 46.47 5.59 44.84 5.06&#xA;  Q 34.28 3.29 23.85 4.41&#xA;  C 22.92 4.52 22.60 5.06 21.46 4.92&#xA;  Q 17.83 4.48 15.85 7.23&#xA;  Z" fill="#fffffe"/>
<path d="M 44.84 5.06&#xA;  Q 41.99 5.78 40.99 7.77&#xA;  Q 40.78 8.18 40.36 8.38&#xA;  L 31.75 12.43&#xA;  Q 31.28 12.65 30.83 12.40&#xA;  C 26.21 9.85 21.16 7.34 15.85 7.23&#xA;  Q 17.83 4.48 21.46 4.92&#xA;  C 22.60 5.06 22.92 4.52 23.85 4.41&#xA;  Q 34.28 3.29 44.84 5.06&#xA;  Z" fill="#fef6e8"/>
<path d="M 44.84 5.06&#xA;  Q 46.47 5.59 47.70 7.07&#xA;  Q 48.02 7.46 48.52 7.57&#xA;  C 57.67 9.58 56.62 17.84 54.09 24.89&#xA;  Q 53.59 26.97 51.53 23.17&#xA;  Q 51.29 22.73 51.47 22.26&#xA;  C 52.87 18.40 53.86 12.29 48.55 10.93&#xA;  Q 48.05 10.80 47.71 11.19&#xA;  Q 44.93 14.31 41.61 11.61&#xA;  A 0.50 0.50 0.0 0 0 41.09 11.55&#xA;  L 34.56 14.56&#xA;  A 0.17 0.17 0.0 0 0 34.53 14.85&#xA;  Q 47.29 24.27 54.00 38.51&#xA;  C 55.67 42.46 57.02 48.85 54.29 52.51&#xA;  Q 52.76 54.57 51.95 55.77&#xA;  C 50.68 57.64 49.48 58.93 47.24 58.14&#xA;  C 45.99 57.71 45.41 56.45 43.95 56.15&#xA;  Q 37.46 54.84 32.01 51.04&#xA;  A 0.82 0.81 48.7 0 0 31.16 50.98&#xA;  C 25.31 53.99 16.51 59.51 10.12 54.16&#xA;  C 3.80 48.87 8.33 38.15 12.13 32.40&#xA;  Q 12.42 31.97 12.21 31.50&#xA;  C 11.53 30.00 11.14 29.20 9.54 28.37&#xA;  Q 6.24 26.67 7.82 22.85&#xA;  Q 8.01 22.39 7.85 21.91&#xA;  C 5.51 15.11 7.43 7.67 15.85 7.23&#xA;  C 21.16 7.34 26.21 9.85 30.83 12.40&#xA;  Q 31.28 12.65 31.75 12.43&#xA;  L 40.36 8.38&#xA;  Q 40.78 8.18 40.99 7.77&#xA;  Q 41.99 5.78 44.84 5.06&#xA;  Z&#xA;  M 21.22 37.80&#xA;  L 25.93 42.58&#xA;  Q 23.90 45.10 21.84 43.18&#xA;  Q 17.87 39.46 14.77 35.12&#xA;  A 0.30 0.30 0.0 0 0 14.27 35.14&#xA;  C 10.96 40.68 5.38 56.27 19.30 52.42&#xA;  Q 27.88 50.05 35.07 43.94&#xA;  Q 41.44 39.02 46.16 32.05&#xA;  A 0.59 0.57 45.2 0 0 46.15 31.38&#xA;  Q 40.23 22.92 31.75 17.02&#xA;  Q 31.49 16.84 31.23 17.01&#xA;  Q 25.31 21.02 20.86 26.19&#xA;  Q 19.50 25.83 18.99 23.59&#xA;  Q 18.87 23.06 19.27 22.70&#xA;  L 27.85 14.99&#xA;  Q 28.17 14.70 27.80 14.47&#xA;  Q 23.32 11.67 18.18 10.80&#xA;  C 11.05 9.59 9.13 14.72 10.95 20.76&#xA;  Q 11.10 21.25 11.59 21.37&#xA;  Q 15.01 22.21 14.81 25.73&#xA;  A 1.60 1.60 0.0 0 1 14.43 26.68&#xA;  L 14.11 27.06&#xA;  A 0.84 0.83 -40.0 0 0 14.02 27.99&#xA;  Q 16.93 33.32 21.22 37.80&#xA;  Z&#xA;  M 48.69 50.74&#xA;  L 50.46 51.54&#xA;  Q 51.07 51.81 51.37 51.22&#xA;  C 54.06 45.95 51.38 39.84 48.61 35.18&#xA;  A 0.31 0.31 0.0 0 0 48.10 35.15&#xA;  Q 42.40 42.72 34.82 48.42&#xA;  Q 34.44 48.71 34.85 48.96&#xA;  Q 39.31 51.61 44.41 52.66&#xA;  Q 44.96 52.77 45.30 52.33&#xA;  Q 46.45 50.85 48.33 50.68&#xA;  A 0.69 0.67 -34.6 0 1 48.69 50.74&#xA;  Z" fill="#000000"/>
<path d="M 20.86 26.19&#xA;  Q 20.40 28.92 19.89 31.68&#xA;  Q 19.57 33.40 20.01 34.80&#xA;  Q 20.48 36.27 21.22 37.80&#xA;  Q 16.93 33.32 14.02 27.99&#xA;  A 0.84 0.83 -40.0 0 1 14.11 27.06&#xA;  L 14.43 26.68&#xA;  A 1.60 1.60 0.0 0 0 14.81 25.73&#xA;  Q 15.01 22.21 11.59 21.37&#xA;  Q 11.10 21.25 10.95 20.76&#xA;  C 9.13 14.72 11.05 9.59 18.18 10.80&#xA;  Q 23.32 11.67 27.80 14.47&#xA;  Q 28.17 14.70 27.85 14.99&#xA;  L 19.27 22.70&#xA;  Q 18.87 23.06 18.99 23.59&#xA;  Q 19.50 25.83 20.86 26.19&#xA;  Z" fill="#feedd6"/>
<path d="M 54.09 24.89&#xA;  Q 55.82 31.93 54.00 38.51&#xA;  Q 47.29 24.27 34.53 14.85&#xA;  A 0.17 0.17 0.0 0 1 34.56 14.56&#xA;  L 41.09 11.55&#xA;  A 0.50 0.50 0.0 0 1 41.61 11.61&#xA;  Q 44.93 14.31 47.71 11.19&#xA;  Q 48.05 10.80 48.55 10.93&#xA;  C 53.86 12.29 52.87 18.40 51.47 22.26&#xA;  Q 51.29 22.73 51.53 23.17&#xA;  Q 53.59 26.97 54.09 24.89&#xA;  Z" fill="#feedd6"/>
<path d="M 35.07 43.94&#xA;  C 32.80 43.96 30.71 44.18 28.52 43.32&#xA;  Q 27.24 42.82 25.93 42.58&#xA;  L 21.22 37.80&#xA;  Q 20.48 36.27 20.01 34.80&#xA;  Q 19.57 33.40 19.89 31.68&#xA;  Q 20.40 28.92 20.86 26.19&#xA;  Q 25.31 21.02 31.23 17.01&#xA;  Q 31.49 16.84 31.75 17.02&#xA;  Q 40.23 22.92 46.15 31.38&#xA;  A 0.59 0.57 45.2 0 1 46.16 32.05&#xA;  Q 41.44 39.02 35.07 43.94&#xA;  Z&#xA;  M 37.11 31.80&#xA;  A 5.44 5.44 0.0 0 0 31.67 26.36&#xA;  A 5.44 5.44 0.0 0 0 26.23 31.80&#xA;  A 5.44 5.44 0.0 0 0 31.67 37.24&#xA;  A 5.44 5.44 0.0 0 0 37.11 31.80&#xA;  Z" fill="#e5d1e2"/>
<circle cx="31.67" cy="31.80" fill="#000000" r="5.44"/>
<path d="M 25.93 42.58&#xA;  Q 27.24 42.82 28.52 43.32&#xA;  C 30.71 44.18 32.80 43.96 35.07 43.94&#xA;  Q 27.88 50.05 19.30 52.42&#xA;  C 5.38 56.27 10.96 40.68 14.27 35.14&#xA;  A 0.30 0.30 0.0 0 1 14.77 35.12&#xA;  Q 17.87 39.46 21.84 43.18&#xA;  Q 23.90 45.10 25.93 42.58&#xA;  Z" fill="#feedd6"/>
<path d="M 48.33 50.68&#xA;  Q 46.45 50.85 45.30 52.33&#xA;  Q 44.96 52.77 44.41 52.66&#xA;  Q 39.31 51.61 34.85 48.96&#xA;  Q 34.44 48.71 34.82 48.42&#xA;  Q 42.40 42.72 48.10 35.15&#xA;  A 0.31 0.31 0.0 0 1 48.61 35.18&#xA;  C 51.38 39.84 54.06 45.95 51.37 51.22&#xA;  Q 51.07 51.81 50.46 51.54&#xA;  L 48.69 50.74&#xA;  A 0.69 0.67 -34.6 0 0 48.33 50.68&#xA;  Z" fill="#feedd6"/>
</svg>