<?xml version="1.0" encoding="utf-8"?>
<svg xmlns="http://www.w3.org/2000/svg" version="1.1" viewBox="0.00 0.00 128.00 128.00">
<path d="M 62.57 0.00&#xA;  L 66.22 0.00&#xA;  Q 87.61 5.96 108.92 11.94&#xA;  C 111.60 12.70 114.82 14.76 115.60 17.18&#xA;  Q 119.00 27.72 128.00 61.82&#xA;  L 128.00 66.33&#xA;  Q 122.53 86.88 116.67 107.42&#xA;  C 115.25 112.39 113.90 114.89 109.00 116.27&#xA;  Q 87.59 122.31 66.25 128.00&#xA;  L 61.49 128.00&#xA;  Q 40.34 122.30 19.27 116.22&#xA;  C 16.66 115.46 13.19 113.36 12.53 111.01&#xA;  Q 6.25 88.59 0.00 66.10&#xA;  L 0.00 62.46&#xA;  Q 7.04 36.19 12.20 18.47&#xA;  C 13.32 14.62 15.78 12.97 19.76 11.83&#xA;  Q 41.14 5.70 62.57 0.00&#xA;  Z&#xA;  M 111.8197 71.3166&#xA;  A 10.22 10.22 0.0 0 0 111.8197 56.8634&#xA;  L 71.3166 16.3603&#xA;  A 10.22 10.22 0.0 0 0 56.8634 16.3603&#xA;  L 16.3603 56.8634&#xA;  A 10.22 10.22 0.0 0 0 16.3603 71.3166&#xA;  L 56.8634 111.8197&#xA;  A 10.22 10.22 0.0 0 0 71.3166 111.8197&#xA;  L 111.8197 71.3166&#xA;  Z" fill="#ee01ec"/>
</svg>