<?xml version="1.0" encoding="utf-8"?>
<svg xmlns="http://www.w3.org/2000/svg" version="1.1" viewBox="0.00 0.00 500.00 500.00">
<g fill="none" stroke-linecap="butt" stroke-width="2.00">
<path d="M 149.03 148.35&#xA;  C 123.65 150.65 100.54 161.52 86.72 183.44" stroke="#84b7f4"/>
<path d="M 86.72 183.44&#xA;  Q 80.19 194.14 77.47 206.22" stroke="#7db3f4"/>
<path d="M 77.47 206.22&#xA;  Q 75.08 215.59 75.23 226.43" stroke="#71aef4"/>
<path d="M 75.23 226.43&#xA;  L 110.73 226.48" stroke="#84b7f4"/>
<path d="M 110.73 226.48&#xA;  L 138.97 226.55" stroke="#7db3f4"/>
<path d="M 138.97 226.55&#xA;  L 153.12 226.50&#xA;  Q 153.96 226.50 153.95 227.34&#xA;  Q 153.92 248.45 153.98 269.25&#xA;  Q 154.03 282.84 155.06 289.19&#xA;  C 160.76 324.34 189.26 349.38 224.82 352.20" stroke="#71aef4"/>
<path d="M 224.82 352.20&#xA;  L 231.76 352.77&#xA;  A 0.66 0.66 0.0 0 0 232.47 352.10&#xA;  Q 231.73 301.52 231.44 251.00&#xA;  Q 231.39 242.68 232.92 232.33" stroke="#7db3f4"/>
<path d="M 232.92 232.33&#xA;  Q 237.31 197.83 259.88 172.90" stroke="#71aef4"/>
<path d="M 259.88 172.90&#xA;  Q 274.91 157.83 292.94 148.92&#xA;  Q 294.70 148.05 292.74 148.05&#xA;  L 221.96 148.01" stroke="#68a9f4"/>
<path d="M 221.96 148.01&#xA;  L 177.81 148.05" stroke="#71aef4"/>
<path d="M 177.81 148.05&#xA;  L 149.03 148.35" stroke="#7db3f4"/>
<path d="M 177.81 148.05&#xA;  Q 178.75 148.00 178.89 149.39&#xA;  Q 178.96 149.96 178.38 150.00&#xA;  Q 176.98 150.11 176.18 151.34&#xA;  Q 175.88 151.81 175.32 151.85&#xA;  Q 174.26 151.94 173.68 152.87&#xA;  Q 173.53 153.12 173.24 153.12&#xA;  L 172.71 153.12&#xA;  A 0.91 0.88 -72.5 0 0 171.97 153.52&#xA;  Q 171.55 154.17 170.79 154.13&#xA;  Q 170.39 154.11 170.10 154.39&#xA;  L 168.63 155.87&#xA;  Q 168.33 156.16 167.92 156.11&#xA;  Q 167.22 156.03 166.85 156.66&#xA;  A 0.93 0.92 17.1 0 1 165.97 157.12&#xA;  Q 165.21 157.04 164.80 157.68&#xA;  Q 164.52 158.10 164.03 158.21&#xA;  C 162.80 158.47 161.70 160.22 160.77 160.12&#xA;  Q 160.27 160.06 160.00 160.48&#xA;  Q 159.61 161.08 158.88 161.15&#xA;  Q 158.28 161.21 157.86 161.64&#xA;  L 156.99 162.50&#xA;  A 1.18 1.17 -70.0 0 1 156.27 162.84&#xA;  C 155.04 162.98 154.88 164.17 153.77 164.15&#xA;  Q 153.26 164.14 152.95 164.56&#xA;  Q 152.57 165.09 151.88 165.15&#xA;  Q 151.28 165.21 150.86 165.64&#xA;  L 149.99 166.50&#xA;  A 1.23 1.22 -70.8 0 1 149.27 166.85&#xA;  C 148.04 166.98 147.88 168.17 146.77 168.15&#xA;  Q 146.25 168.14 145.95 168.56&#xA;  Q 145.56 169.09 144.86 169.16&#xA;  Q 144.29 169.21 143.88 169.62&#xA;  L 142.63 170.87&#xA;  Q 142.33 171.16 141.92 171.11&#xA;  Q 141.22 171.03 140.85 171.66&#xA;  A 0.93 0.92 17.1 0 1 139.97 172.12&#xA;  Q 139.21 172.04 138.80 172.68&#xA;  Q 138.52 173.10 138.03 173.21&#xA;  C 136.80 173.47 135.70 175.22 134.77 175.12&#xA;  Q 134.27 175.06 134.00 175.49&#xA;  Q 133.61 176.08 132.88 176.15&#xA;  Q 132.28 176.21 131.86 176.64&#xA;  L 131.12 177.37&#xA;  A 1.63 1.63 0.0 0 1 130.33 177.82&#xA;  Q 129.40 178.06 128.73 178.76&#xA;  A 1.04 1.01 21.8 0 1 127.96 179.08&#xA;  Q 127.15 179.08 126.75 179.76&#xA;  Q 126.48 180.24 125.94 180.12&#xA;  Q 125.48 180.01 125.15 180.40&#xA;  Q 123.34 182.48 120.60 183.18&#xA;  Q 120.14 183.29 119.88 183.69&#xA;  Q 119.37 184.47 118.44 184.38&#xA;  A 0.73 0.73 0.0 0 0 117.76 184.71&#xA;  C 116.84 186.16 115.74 185.87 114.64 186.80&#xA;  Q 114.27 187.12 113.79 187.10&#xA;  Q 113.15 187.08 112.86 187.70&#xA;  Q 112.65 188.15 112.17 188.24&#xA;  Q 110.56 188.53 109.62 189.90&#xA;  Q 109.47 190.12 109.20 190.12&#xA;  L 108.76 190.12&#xA;  Q 108.20 190.12 107.90 190.58&#xA;  Q 107.51 191.19 106.75 191.13&#xA;  A 0.79 0.78 -64.7 0 0 106.13 191.36&#xA;  L 105.00 192.50&#xA;  A 1.29 1.25 -69.7 0 1 104.27 192.85&#xA;  C 103.04 192.98 102.88 194.17 101.77 194.15&#xA;  Q 101.25 194.14 100.95 194.56&#xA;  Q 100.56 195.09 99.86 195.16&#xA;  Q 99.29 195.21 98.88 195.62&#xA;  L 97.63 196.87&#xA;  Q 97.33 197.16 96.92 197.11&#xA;  Q 96.22 197.03 95.85 197.66&#xA;  A 0.93 0.92 17.1 0 1 94.97 198.12&#xA;  Q 94.21 198.04 93.80 198.68&#xA;  Q 93.52 199.10 93.03 199.21&#xA;  C 91.80 199.47 90.70 201.22 89.77 201.12&#xA;  Q 89.27 201.06 89.00 201.48&#xA;  Q 88.61 202.08 87.88 202.15&#xA;  Q 87.28 202.21 86.86 202.64&#xA;  L 86.09 203.40&#xA;  A 1.61 1.58 -71.4 0 1 85.21 203.85&#xA;  Q 84.28 203.99 83.73 204.79&#xA;  A 0.79 0.79 0.0 0 1 82.97 205.12&#xA;  Q 82.27 205.01 81.90 205.59&#xA;  Q 81.61 206.03 81.09 206.07&#xA;  Q 79.96 206.17 79.38 207.11&#xA;  Q 78.53 208.51 78.21 206.97&#xA;  Q 78.17 206.76 77.47 206.22" stroke="#d1e3f2"/>
<path d="M 86.72 183.44&#xA;  Q 88.42 184.60 89.22 183.49&#xA;  Q 89.45 183.17 89.84 183.15&#xA;  Q 90.07 183.14 90.28 183.07&#xA;  C 91.08 182.81 91.18 181.97 92.31 181.81&#xA;  Q 92.75 181.75 93.08 181.44&#xA;  L 94.14 180.45&#xA;  Q 94.46 180.15 94.91 180.13&#xA;  Q 95.59 180.10 95.98 179.52&#xA;  A 0.88 0.88 0.0 0 1 96.72 179.12&#xA;  L 97.26 179.12&#xA;  Q 97.83 179.12 98.07 178.60&#xA;  Q 98.57 177.48 99.81 177.33&#xA;  Q 100.22 177.27 100.52 176.98&#xA;  L 101.11 176.39&#xA;  Q 101.44 176.06 101.91 176.13&#xA;  Q 102.62 176.24 103.02 175.73&#xA;  Q 103.25 175.44 103.60 175.35&#xA;  Q 105.11 174.94 105.84 173.59&#xA;  A 0.92 0.92 0.0 0 1 106.74 173.11&#xA;  Q 107.58 173.19 108.01 172.47&#xA;  Q 108.29 172.00 108.82 172.11&#xA;  Q 109.64 172.29 110.08 171.65&#xA;  Q 110.34 171.26 110.80 171.18&#xA;  Q 112.16 170.93 112.77 169.61&#xA;  A 0.88 0.88 0.0 0 1 113.68 169.10&#xA;  Q 114.57 169.21 115.01 168.47&#xA;  Q 115.29 168.00 115.82 168.11&#xA;  Q 116.63 168.29 117.06 167.67&#xA;  Q 117.32 167.30 117.76 167.20&#xA;  Q 119.22 166.87 119.94 165.47&#xA;  A 0.70 0.70 0.0 0 1 120.70 165.10&#xA;  Q 121.42 165.24 121.78 164.72&#xA;  Q 122.08 164.30 122.59 164.21&#xA;  Q 124.04 163.96 125.00 162.78&#xA;  Q 125.21 162.52 125.54 162.45&#xA;  Q 126.47 162.27 127.00 161.48&#xA;  Q 127.28 161.07 127.76 161.12&#xA;  Q 128.47 161.20 128.86 160.65&#xA;  Q 129.11 160.31 129.53 160.22&#xA;  Q 130.87 159.95 131.64 158.86&#xA;  Q 131.93 158.45 132.41 158.27&#xA;  Q 134.32 157.55 136.02 156.48&#xA;  C 136.95 155.89 138.05 155.88 138.81 154.64&#xA;  Q 139.09 154.18 139.62 154.14&#xA;  Q 140.56 154.09 141.26 153.43&#xA;  Q 141.59 153.12 142.04 153.12&#xA;  L 142.47 153.12&#xA;  Q 142.81 153.12 142.93 152.81&#xA;  Q 143.28 151.95 144.10 151.87&#xA;  Q 144.56 151.81 144.93 151.53&#xA;  L 149.03 148.35" stroke="#e4ecf2"/>
<path d="M 221.96 148.01&#xA;  Q 221.93 148.30 222.29 148.38&#xA;  Q 222.53 148.44 222.50 148.69&#xA;  Q 222.44 149.10 222.76 149.23&#xA;  Q 223.42 149.52 222.45 149.81&#xA;  Q 220.86 150.29 219.73 151.48&#xA;  Q 219.39 151.84 218.89 151.85&#xA;  Q 218.25 151.87 217.91 152.34&#xA;  Q 217.67 152.69 217.24 152.76&#xA;  Q 215.94 152.97 215.22 154.06&#xA;  Q 214.92 154.53 214.37 154.61&#xA;  Q 213.37 154.76 212.75 155.49&#xA;  Q 212.44 155.86 211.95 155.86&#xA;  Q 211.32 155.84 210.97 156.27&#xA;  Q 210.70 156.59 210.30 156.69&#xA;  Q 208.81 157.06 207.97 158.34&#xA;  Q 207.64 158.83 207.04 158.88&#xA;  Q 206.38 158.93 206.01 159.50&#xA;  A 0.83 0.82 17.8 0 1 205.26 159.88&#xA;  Q 204.44 159.82 204.01 160.50&#xA;  A 0.83 0.81 16.9 0 1 203.28 160.88&#xA;  Q 203.13 160.88 202.99 160.89&#xA;  Q 202.50 160.92 202.16 161.28&#xA;  L 201.17 162.35&#xA;  Q 200.76 162.80 200.16 162.84&#xA;  Q 199.35 162.90 198.94 163.60&#xA;  Q 198.70 164.03 198.22 163.89&#xA;  Q 197.39 163.64 197.12 164.35&#xA;  A 1.10 1.09 -83.7 0 1 196.28 165.03&#xA;  Q 195.41 165.17 194.75 165.76&#xA;  Q 194.23 166.22 194.06 166.47&#xA;  Q 193.82 166.82 193.39 166.88&#xA;  Q 192.91 166.93 192.56 167.26&#xA;  Q 191.86 167.92 191.08 168.55&#xA;  Q 189.21 170.06 190.74 171.50&#xA;  Q 191.10 171.84 191.59 171.88&#xA;  Q 197.06 172.29 201.65 175.24&#xA;  Q 202.11 175.54 202.29 176.05&#xA;  Q 202.88 177.71 202.88 179.50&#xA;  Q 202.88 201.77 202.88 224.02&#xA;  A 0.35 0.34 -10.5 0 0 203.35 224.34&#xA;  Q 203.57 224.26 203.63 224.00&#xA;  Q 203.67 223.78 203.87 223.88&#xA;  L 204.33 224.12" stroke="#bcd9f3"/>
<path d="M 204.33 224.12&#xA;  C 199.16 246.77 199.32 269.95 200.97 293.00&#xA;  C 201.81 304.85 203.57 318.26 207.54 329.72" stroke="#d8e6f2"/>
<path d="M 207.54 329.72&#xA;  C 209.68 337.41 214.16 345.34 220.85 349.66&#xA;  Q 222.80 350.92 224.82 352.20" stroke="#d1e3f2"/>
<path d="M 138.97 226.55&#xA;  L 139.09 179.44&#xA;  A 0.54 0.54 0.0 0 0 138.39 178.92&#xA;  Q 122.44 183.83 109.38 193.59" stroke="#d1e3f2"/>
<path d="M 109.38 193.59&#xA;  Q 99.38 201.38 90.59 210.59&#xA;  Q 83.03 218.50 75.23 226.43" stroke="#d8e6f2"/>
<path d="M 110.73 226.48&#xA;  L 110.86 194.80&#xA;  Q 110.86 194.32 110.40 194.16&#xA;  Q 109.78 193.96 109.38 193.59" stroke="#e4ecf2"/>
<path d="M 259.88 172.90&#xA;  L 259.88 151.91&#xA;  Q 259.88 150.28 258.33 150.80&#xA;  Q 254.94 151.96 251.84 153.56&#xA;  Q 240.49 159.45 232.90 168.07" stroke="#bcd9f3"/>
<path d="M 232.90 168.07&#xA;  Q 215.13 187.71 207.68 212.47" stroke="#c7def3"/>
<path d="M 207.68 212.47&#xA;  L 204.33 224.12" stroke="#cfe2f3"/>
<path d="M 207.54 329.72&#xA;  Q 208.02 330.17 208.18 330.68&#xA;  Q 208.30 331.07 208.64 330.86&#xA;  Q 208.81 330.75 208.93 330.59&#xA;  Q 209.12 330.34 209.12 329.86&#xA;  Q 209.12 271.31 208.90 212.75&#xA;  Q 208.90 211.86 207.68 212.47" stroke="#e4ecf2"/>
<path d="M 232.92 232.33&#xA;  C 232.40 229.55 233.14 228.37 233.43 225.78&#xA;  C 233.70 223.42 234.48 221.60 233.82 219.11&#xA;  Q 233.13 216.46 233.14 215.25&#xA;  Q 233.30 192.13 232.90 168.07" stroke="#d1e3f2"/>
<path d="M 343.01 148.89&#xA;  Q 318.29 149.03 297.04 158.90" stroke="#71aef4"/>
<path d="M 297.04 158.90&#xA;  Q 275.79 169.15 262.17 187.53" stroke="#7db3f4"/>
<path d="M 262.17 187.53&#xA;  C 235.71 224.34 235.80 274.64 262.40 311.31" stroke="#84b7f4"/>
<path d="M 262.40 311.31&#xA;  Q 277.51 331.44 300.23 342.55" stroke="#7db3f4"/>
<path d="M 300.23 342.55&#xA;  Q 324.19 353.87 351.24 352.45" stroke="#71aef4"/>
<path d="M 351.24 352.45&#xA;  L 423.99 352.45&#xA;  Q 424.46 352.45 424.47 351.98&#xA;  C 425.42 300.92 388.14 274.27 340.86 271.60&#xA;  C 331.65 271.08 326.09 269.71 320.32 263.17" stroke="#68a9f4"/>
<path d="M 320.32 263.17&#xA;  C 310.20 251.36 314.38 232.66 329.36 227.40&#xA;  Q 333.35 226.00 336.50 226.02&#xA;  Q 350.42 226.13 354.35 225.86&#xA;  Q 378.01 224.23 397.11 209.27" stroke="#71aef4"/>
<path d="M 397.11 209.27&#xA;  Q 418.53 191.86 423.49 162.98&#xA;  Q 424.80 155.32 424.44 148.88" stroke="#7db3f4"/>
<path d="M 424.44 148.88&#xA;  L 343.01 148.89" stroke="#68a9f4"/>
<path d="M 424.44 148.88&#xA;  Q 415.39 158.31 407.31 167.06&#xA;  C 394.90 180.50 382.08 190.89 363.24 193.09&#xA;  Q 353.43 194.24 343.75 195.49" stroke="#c7def3"/>
<path d="M 343.75 195.49&#xA;  L 343.06 195.28&#xA;  Q 342.85 195.22 342.85 195.00&#xA;  L 343.01 148.89" stroke="#bcd9f3"/>
<path d="M 343.75 195.49&#xA;  C 330.76 197.42 318.06 200.71 306.87 207.73&#xA;  A 0.61 0.61 0.0 0 0 306.74 208.65&#xA;  C 306.96 208.89 307.45 209.12 307.80 209.12&#xA;  Q 352.00 209.01 397.11 209.27" stroke="#d1e3f2"/>
<path d="M 320.32 263.17&#xA;  Q 319.56 262.84 319.16 262.86&#xA;  Q 318.82 262.88 319.08 263.10&#xA;  Q 319.23 263.24 319.31 263.40&#xA;  Q 319.54 263.88 319.00 263.88&#xA;  L 289.46 263.88&#xA;  Q 288.67 263.88 289.02 264.59&#xA;  Q 289.78 266.07 289.28 266.81" stroke="#bcd9f3"/>
<path d="M 289.28 266.81&#xA;  C 284.58 250.35 286.00 231.56 296.21 217.61&#xA;  C 296.78 216.84 297.11 215.51 297.11 214.56&#xA;  Q 297.18 187.04 297.04 158.90" stroke="#d1e3f2"/>
<path d="M 289.28 266.81&#xA;  Q 293.17 277.58 300.38 284.72" stroke="#c7def3"/>
<path d="M 300.38 284.72&#xA;  L 300.23 342.55" stroke="#d1e3f2"/>
<path d="M 262.40 311.31&#xA;  L 262.75 310.66&#xA;  Q 263.16 309.90 263.05 310.76&#xA;  Q 262.99 311.23 263.08 311.33&#xA;  Q 264.12 312.42 264.12 311.00&#xA;  L 264.12 188.03&#xA;  Q 264.12 187.51 263.62 187.38&#xA;  Q 263.07 187.24 262.17 187.53" stroke="#e4ecf2"/>
<path d="M 351.24 352.45&#xA;  Q 351.10 352.34 351.14 352.19&#xA;  Q 351.21 351.91 351.46 352.04&#xA;  Q 351.92 352.27 351.87 352.08&#xA;  Q 351.84 351.91 351.66 351.88&#xA;  Q 351.28 351.81 351.06 351.55&#xA;  Q 350.88 351.33 350.88 350.89&#xA;  Q 350.87 328.27 350.88 306.86&#xA;  A 2.76 2.75 -85.8 0 0 348.54 304.13&#xA;  C 330.93 301.45 314.33 296.26 300.38 284.72" stroke="#bcd9f3"/>
</g>
<path d="M 242.35 0.00&#xA;  L 257.47 0.00&#xA;  C 390.70 4.80 494.93 109.91 500.00 242.64&#xA;  L 500.00 257.50&#xA;  Q 499.57 263.50 499.11 269.49&#xA;  C 494.01 336.32 461.92 398.98 410.07 441.93&#xA;  Q 344.33 496.39 257.38 500.00&#xA;  L 242.50 500.00&#xA;  Q 238.52 499.62 234.51 499.38&#xA;  C 170.40 495.53 109.39 466.80 65.90 418.98&#xA;  Q 4.18 351.13 0.00 257.65&#xA;  L 0.00 241.98&#xA;  C 3.13 174.35 30.57 112.17 80.25 66.61&#xA;  Q 148.25 4.25 242.35 0.00&#xA;  Z&#xA;  M 149.03 148.35&#xA;  C 123.65 150.65 100.54 161.52 86.72 183.44&#xA;  Q 80.19 194.14 77.47 206.22&#xA;  Q 75.08 215.59 75.23 226.43&#xA;  L 110.73 226.48&#xA;  L 138.97 226.55&#xA;  L 153.12 226.50&#xA;  Q 153.96 226.50 153.95 227.34&#xA;  Q 153.92 248.45 153.98 269.25&#xA;  Q 154.03 282.84 155.06 289.19&#xA;  C 160.76 324.34 189.26 349.38 224.82 352.20&#xA;  L 231.76 352.77&#xA;  A 0.66 0.66 0.0 0 0 232.47 352.10&#xA;  Q 231.73 301.52 231.44 251.00&#xA;  Q 231.39 242.68 232.92 232.33&#xA;  Q 237.31 197.83 259.88 172.90&#xA;  Q 274.91 157.83 292.94 148.92&#xA;  Q 294.70 148.05 292.74 148.05&#xA;  L 221.96 148.01&#xA;  L 177.81 148.05&#xA;  L 149.03 148.35&#xA;  Z&#xA;  M 343.01 148.89&#xA;  Q 318.29 149.03 297.04 158.90&#xA;  Q 275.79 169.15 262.17 187.53&#xA;  C 235.71 224.34 235.80 274.64 262.40 311.31&#xA;  Q 277.51 331.44 300.23 342.55&#xA;  Q 324.19 353.87 351.24 352.45&#xA;  L 423.99 352.45&#xA;  Q 424.46 352.45 424.47 351.98&#xA;  C 425.42 300.92 388.14 274.27 340.86 271.60&#xA;  C 331.65 271.08 326.09 269.71 320.32 263.17&#xA;  C 310.20 251.36 314.38 232.66 329.36 227.40&#xA;  Q 333.35 226.00 336.50 226.02&#xA;  Q 350.42 226.13 354.35 225.86&#xA;  Q 378.01 224.23 397.11 209.27&#xA;  Q 418.53 191.86 423.49 162.98&#xA;  Q 424.80 155.32 424.44 148.88&#xA;  L 343.01 148.89&#xA;  Z" fill="#1d7ef5"/>
<path d="M 177.81 148.05&#xA;  Q 178.75 148.00 178.89 149.39&#xA;  Q 178.96 149.96 178.38 150.00&#xA;  Q 176.98 150.11 176.18 151.34&#xA;  Q 175.88 151.81 175.32 151.85&#xA;  Q 174.26 151.94 173.68 152.87&#xA;  Q 173.53 153.12 173.24 153.12&#xA;  L 172.71 153.12&#xA;  A 0.91 0.88 -72.5 0 0 171.97 153.52&#xA;  Q 171.55 154.17 170.79 154.13&#xA;  Q 170.39 154.11 170.10 154.39&#xA;  L 168.63 155.87&#xA;  Q 168.33 156.16 167.92 156.11&#xA;  Q 167.22 156.03 166.85 156.66&#xA;  A 0.93 0.92 17.1 0 1 165.97 157.12&#xA;  Q 165.21 157.04 164.80 157.68&#xA;  Q 164.52 158.10 164.03 158.21&#xA;  C 162.80 158.47 161.70 160.22 160.77 160.12&#xA;  Q 160.27 160.06 160.00 160.48&#xA;  Q 159.61 161.08 158.88 161.15&#xA;  Q 158.28 161.21 157.86 161.64&#xA;  L 156.99 162.50&#xA;  A 1.18 1.17 -70.0 0 1 156.27 162.84&#xA;  C 155.04 162.98 154.88 164.17 153.77 164.15&#xA;  Q 153.26 164.14 152.95 164.56&#xA;  Q 152.57 165.09 151.88 165.15&#xA;  Q 151.28 165.21 150.86 165.64&#xA;  L 149.99 166.50&#xA;  A 1.23 1.22 -70.8 0 1 149.27 166.85&#xA;  C 148.04 166.98 147.88 168.17 146.77 168.15&#xA;  Q 146.25 168.14 145.95 168.56&#xA;  Q 145.56 169.09 144.86 169.16&#xA;  Q 144.29 169.21 143.88 169.62&#xA;  L 142.63 170.87&#xA;  Q 142.33 171.16 141.92 171.11&#xA;  Q 141.22 171.03 140.85 171.66&#xA;  A 0.93 0.92 17.1 0 1 139.97 172.12&#xA;  Q 139.21 172.04 138.80 172.68&#xA;  Q 138.52 173.10 138.03 173.21&#xA;  C 136.80 173.47 135.70 175.22 134.77 175.12&#xA;  Q 134.27 175.06 134.00 175.49&#xA;  Q 133.61 176.08 132.88 176.15&#xA;  Q 132.28 176.21 131.86 176.64&#xA;  L 131.12 177.37&#xA;  A 1.63 1.63 0.0 0 1 130.33 177.82&#xA;  Q 129.40 178.06 128.73 178.76&#xA;  A 1.04 1.01 21.8 0 1 127.96 179.08&#xA;  Q 127.15 179.08 126.75 179.76&#xA;  Q 126.48 180.24 125.94 180.12&#xA;  Q 125.48 180.01 125.15 180.40&#xA;  Q 123.34 182.48 120.60 183.18&#xA;  Q 120.14 183.29 119.88 183.69&#xA;  Q 119.37 184.47 118.44 184.38&#xA;  A 0.73 0.73 0.0 0 0 117.76 184.71&#xA;  C 116.84 186.16 115.74 185.87 114.64 186.80&#xA;  Q 114.27 187.12 113.79 187.10&#xA;  Q 113.15 187.08 112.86 187.70&#xA;  Q 112.65 188.15 112.17 188.24&#xA;  Q 110.56 188.53 109.62 189.90&#xA;  Q 109.47 190.12 109.20 190.12&#xA;  L 108.76 190.12&#xA;  Q 108.20 190.12 107.90 190.58&#xA;  Q 107.51 191.19 106.75 191.13&#xA;  A 0.79 0.78 -64.7 0 0 106.13 191.36&#xA;  L 105.00 192.50&#xA;  A 1.29 1.25 -69.7 0 1 104.27 192.85&#xA;  C 103.04 192.98 102.88 194.17 101.77 194.15&#xA;  Q 101.25 194.14 100.95 194.56&#xA;  Q 100.56 195.09 99.86 195.16&#xA;  Q 99.29 195.21 98.88 195.62&#xA;  L 97.63 196.87&#xA;  Q 97.33 197.16 96.92 197.11&#xA;  Q 96.22 197.03 95.85 197.66&#xA;  A 0.93 0.92 17.1 0 1 94.97 198.12&#xA;  Q 94.21 198.04 93.80 198.68&#xA;  Q 93.52 199.10 93.03 199.21&#xA;  C 91.80 199.47 90.70 201.22 89.77 201.12&#xA;  Q 89.27 201.06 89.00 201.48&#xA;  Q 88.61 202.08 87.88 202.15&#xA;  Q 87.28 202.21 86.86 202.64&#xA;  L 86.09 203.40&#xA;  A 1.61 1.58 -71.4 0 1 85.21 203.85&#xA;  Q 84.28 203.99 83.73 204.79&#xA;  A 0.79 0.79 0.0 0 1 82.97 205.12&#xA;  Q 82.27 205.01 81.90 205.59&#xA;  Q 81.61 206.03 81.09 206.07&#xA;  Q 79.96 206.17 79.38 207.11&#xA;  Q 78.53 208.51 78.21 206.97&#xA;  Q 78.17 206.76 77.47 206.22&#xA;  Q 80.19 194.14 86.72 183.44&#xA;  Q 88.42 184.60 89.22 183.49&#xA;  Q 89.45 183.17 89.84 183.15&#xA;  Q 90.07 183.14 90.28 183.07&#xA;  C 91.08 182.81 91.18 181.97 92.31 181.81&#xA;  Q 92.75 181.75 93.08 181.44&#xA;  L 94.14 180.45&#xA;  Q 94.46 180.15 94.91 180.13&#xA;  Q 95.59 180.10 95.98 179.52&#xA;  A 0.88 0.88 0.0 0 1 96.72 179.12&#xA;  L 97.26 179.12&#xA;  Q 97.83 179.12 98.07 178.60&#xA;  Q 98.57 177.48 99.81 177.33&#xA;  Q 100.22 177.27 100.52 176.98&#xA;  L 101.11 176.39&#xA;  Q 101.44 176.06 101.91 176.13&#xA;  Q 102.62 176.24 103.02 175.73&#xA;  Q 103.25 175.44 103.60 175.35&#xA;  Q 105.11 174.94 105.84 173.59&#xA;  A 0.92 0.92 0.0 0 1 106.74 173.11&#xA;  Q 107.58 173.19 108.01 172.47&#xA;  Q 108.29 172.00 108.82 172.11&#xA;  Q 109.64 172.29 110.08 171.65&#xA;  Q 110.34 171.26 110.80 171.18&#xA;  Q 112.16 170.93 112.77 169.61&#xA;  A 0.88 0.88 0.0 0 1 113.68 169.10&#xA;  Q 114.57 169.21 115.01 168.47&#xA;  Q 115.29 168.00 115.82 168.11&#xA;  Q 116.63 168.29 117.06 167.67&#xA;  Q 117.32 167.30 117.76 167.20&#xA;  Q 119.22 166.87 119.94 165.47&#xA;  A 0.70 0.70 0.0 0 1 120.70 165.10&#xA;  Q 121.42 165.24 121.78 164.72&#xA;  Q 122.08 164.30 122.59 164.21&#xA;  Q 124.04 163.96 125.00 162.78&#xA;  Q 125.21 162.52 125.54 162.45&#xA;  Q 126.47 162.27 127.00 161.48&#xA;  Q 127.28 161.07 127.76 161.12&#xA;  Q 128.47 161.20 128.86 160.65&#xA;  Q 129.11 160.31 129.53 160.22&#xA;  Q 130.87 159.95 131.64 158.86&#xA;  Q 131.93 158.45 132.41 158.27&#xA;  Q 134.32 157.55 136.02 156.48&#xA;  C 136.95 155.89 138.05 155.88 138.81 154.64&#xA;  Q 139.09 154.18 139.62 154.14&#xA;  Q 140.56 154.09 141.26 153.43&#xA;  Q 141.59 153.12 142.04 153.12&#xA;  L 142.47 153.12&#xA;  Q 142.81 153.12 142.93 152.81&#xA;  Q 143.28 151.95 144.10 151.87&#xA;  Q 144.56 151.81 144.93 151.53&#xA;  L 149.03 148.35&#xA;  L 177.81 148.05&#xA;  Z" fill="#dce8f2"/>
<path d="M 177.81 148.05&#xA;  L 221.96 148.01&#xA;  Q 221.93 148.30 222.29 148.38&#xA;  Q 222.53 148.44 222.50 148.69&#xA;  Q 222.44 149.10 222.76 149.23&#xA;  Q 223.42 149.52 222.45 149.81&#xA;  Q 220.86 150.29 219.73 151.48&#xA;  Q 219.39 151.84 218.89 151.85&#xA;  Q 218.25 151.87 217.91 152.34&#xA;  Q 217.67 152.69 217.24 152.76&#xA;  Q 215.94 152.97 215.22 154.06&#xA;  Q 214.92 154.53 214.37 154.61&#xA;  Q 213.37 154.76 212.75 155.49&#xA;  Q 212.44 155.86 211.95 155.86&#xA;  Q 211.32 155.84 210.97 156.27&#xA;  Q 210.70 156.59 210.30 156.69&#xA;  Q 208.81 157.06 207.97 158.34&#xA;  Q 207.64 158.83 207.04 158.88&#xA;  Q 206.38 158.93 206.01 159.50&#xA;  A 0.83 0.82 17.8 0 1 205.26 159.88&#xA;  Q 204.44 159.82 204.01 160.50&#xA;  A 0.83 0.81 16.9 0 1 203.28 160.88&#xA;  Q 203.13 160.88 202.99 160.89&#xA;  Q 202.50 160.92 202.16 161.28&#xA;  L 201.17 162.35&#xA;  Q 200.76 162.80 200.16 162.84&#xA;  Q 199.35 162.90 198.94 163.60&#xA;  Q 198.70 164.03 198.22 163.89&#xA;  Q 197.39 163.64 197.12 164.35&#xA;  A 1.10 1.09 -83.7 0 1 196.28 165.03&#xA;  Q 195.41 165.17 194.75 165.76&#xA;  Q 194.23 166.22 194.06 166.47&#xA;  Q 193.82 166.82 193.39 166.88&#xA;  Q 192.91 166.93 192.56 167.26&#xA;  Q 191.86 167.92 191.08 168.55&#xA;  Q 189.21 170.06 190.74 171.50&#xA;  Q 191.10 171.84 191.59 171.88&#xA;  Q 197.06 172.29 201.65 175.24&#xA;  Q 202.11 175.54 202.29 176.05&#xA;  Q 202.88 177.71 202.88 179.50&#xA;  Q 202.88 201.77 202.88 224.02&#xA;  A 0.35 0.34 -10.5 0 0 203.35 224.34&#xA;  Q 203.57 224.26 203.63 224.00&#xA;  Q 203.67 223.78 203.87 223.88&#xA;  L 204.33 224.12&#xA;  C 199.16 246.77 199.32 269.95 200.97 293.00&#xA;  C 201.81 304.85 203.57 318.26 207.54 329.72&#xA;  C 209.68 337.41 214.16 345.34 220.85 349.66&#xA;  Q 222.80 350.92 224.82 352.20&#xA;  C 189.26 349.38 160.76 324.34 155.06 289.19&#xA;  Q 154.03 282.84 153.98 269.25&#xA;  Q 153.92 248.45 153.95 227.34&#xA;  Q 153.96 226.50 153.12 226.50&#xA;  L 138.97 226.55&#xA;  L 139.09 179.44&#xA;  A 0.54 0.54 0.0 0 0 138.39 178.92&#xA;  Q 122.44 183.83 109.38 193.59&#xA;  Q 99.38 201.38 90.59 210.59&#xA;  Q 83.03 218.50 75.23 226.43&#xA;  Q 75.08 215.59 77.47 206.22&#xA;  Q 78.17 206.76 78.21 206.97&#xA;  Q 78.53 208.51 79.38 207.11&#xA;  Q 79.96 206.17 81.09 206.07&#xA;  Q 81.61 206.03 81.90 205.59&#xA;  Q 82.27 205.01 82.97 205.12&#xA;  A 0.79 0.79 0.0 0 0 83.73 204.79&#xA;  Q 84.28 203.99 85.21 203.85&#xA;  A 1.61 1.58 -71.4 0 0 86.09 203.40&#xA;  L 86.86 202.64&#xA;  Q 87.28 202.21 87.88 202.15&#xA;  Q 88.61 202.08 89.00 201.48&#xA;  Q 89.27 201.06 89.77 201.12&#xA;  C 90.70 201.22 91.80 199.47 93.03 199.21&#xA;  Q 93.52 199.10 93.80 198.68&#xA;  Q 94.21 198.04 94.97 198.12&#xA;  A 0.93 0.92 17.1 0 0 95.85 197.66&#xA;  Q 96.22 197.03 96.92 197.11&#xA;  Q 97.33 197.16 97.63 196.87&#xA;  L 98.88 195.62&#xA;  Q 99.29 195.21 99.86 195.16&#xA;  Q 100.56 195.09 100.95 194.56&#xA;  Q 101.25 194.14 101.77 194.15&#xA;  C 102.88 194.17 103.04 192.98 104.27 192.85&#xA;  A 1.29 1.25 -69.7 0 0 105.00 192.50&#xA;  L 106.13 191.36&#xA;  A 0.79 0.78 -64.7 0 1 106.75 191.13&#xA;  Q 107.51 191.19 107.90 190.58&#xA;  Q 108.20 190.12 108.76 190.12&#xA;  L 109.20 190.12&#xA;  Q 109.47 190.12 109.62 189.90&#xA;  Q 110.56 188.53 112.17 188.24&#xA;  Q 112.65 188.15 112.86 187.70&#xA;  Q 113.15 187.08 113.79 187.10&#xA;  Q 114.27 187.12 114.64 186.80&#xA;  C 115.74 185.87 116.84 186.16 117.76 184.71&#xA;  A 0.73 0.73 0.0 0 1 118.44 184.38&#xA;  Q 119.37 184.47 119.88 183.69&#xA;  Q 120.14 183.29 120.60 183.18&#xA;  Q 123.34 182.48 125.15 180.40&#xA;  Q 125.48 180.01 125.94 180.12&#xA;  Q 126.48 180.24 126.75 179.76&#xA;  Q 127.15 179.08 127.96 179.08&#xA;  A 1.04 1.01 21.8 0 0 128.73 178.76&#xA;  Q 129.40 178.06 130.33 177.82&#xA;  A 1.63 1.63 0.0 0 0 131.12 177.37&#xA;  L 131.86 176.64&#xA;  Q 132.28 176.21 132.88 176.15&#xA;  Q 133.61 176.08 134.00 175.49&#xA;  Q 134.27 175.06 134.77 175.12&#xA;  C 135.70 175.22 136.80 173.47 138.03 173.21&#xA;  Q 138.52 173.10 138.80 172.68&#xA;  Q 139.21 172.04 139.97 172.12&#xA;  A 0.93 0.92 17.1 0 0 140.85 171.66&#xA;  Q 141.22 171.03 141.92 171.11&#xA;  Q 142.33 171.16 142.63 170.87&#xA;  L 143.88 169.62&#xA;  Q 144.29 169.21 144.86 169.16&#xA;  Q 145.56 169.09 145.95 168.56&#xA;  Q 146.25 168.14 146.77 168.15&#xA;  C 147.88 168.17 148.04 166.98 149.27 166.85&#xA;  A 1.23 1.22 -70.8 0 0 149.99 166.50&#xA;  L 150.86 165.64&#xA;  Q 151.28 165.21 151.88 165.15&#xA;  Q 152.57 165.09 152.95 164.56&#xA;  Q 153.26 164.14 153.77 164.15&#xA;  C 154.88 164.17 155.04 162.98 156.27 162.84&#xA;  A 1.18 1.17 -70.0 0 0 156.99 162.50&#xA;  L 157.86 161.64&#xA;  Q 158.28 161.21 158.88 161.15&#xA;  Q 159.61 161.08 160.00 160.48&#xA;  Q 160.27 160.06 160.77 160.12&#xA;  C 161.70 160.22 162.80 158.47 164.03 158.21&#xA;  Q 164.52 158.10 164.80 157.68&#xA;  Q 165.21 157.04 165.97 157.12&#xA;  A 0.93 0.92 17.1 0 0 166.85 156.66&#xA;  Q 167.22 156.03 167.92 156.11&#xA;  Q 168.33 156.16 168.63 155.87&#xA;  L 170.10 154.39&#xA;  Q 170.39 154.11 170.79 154.13&#xA;  Q 171.55 154.17 171.97 153.52&#xA;  A 0.91 0.88 -72.5 0 1 172.71 153.12&#xA;  L 173.24 153.12&#xA;  Q 173.53 153.12 173.68 152.87&#xA;  Q 174.26 151.94 175.32 151.85&#xA;  Q 175.88 151.81 176.18 151.34&#xA;  Q 176.98 150.11 178.38 150.00&#xA;  Q 178.96 149.96 178.89 149.39&#xA;  Q 178.75 148.00 177.81 148.05&#xA;  Z" fill="#c5ddf2"/>
<path d="M 221.96 148.01&#xA;  L 292.74 148.05&#xA;  Q 294.70 148.05 292.94 148.92&#xA;  Q 274.91 157.83 259.88 172.90&#xA;  L 259.88 151.91&#xA;  Q 259.88 150.28 258.33 150.80&#xA;  Q 254.94 151.96 251.84 153.56&#xA;  Q 240.49 159.45 232.90 168.07&#xA;  Q 215.13 187.71 207.68 212.47&#xA;  L 204.33 224.12&#xA;  L 203.87 223.88&#xA;  Q 203.67 223.78 203.63 224.00&#xA;  Q 203.57 224.26 203.35 224.34&#xA;  A 0.35 0.34 -10.5 0 1 202.88 224.02&#xA;  Q 202.88 201.77 202.88 179.50&#xA;  Q 202.88 177.71 202.29 176.05&#xA;  Q 202.11 175.54 201.65 175.24&#xA;  Q 197.06 172.29 191.59 171.88&#xA;  Q 191.10 171.84 190.74 171.50&#xA;  Q 189.21 170.06 191.08 168.55&#xA;  Q 191.86 167.92 192.56 167.26&#xA;  Q 192.91 166.93 193.39 166.88&#xA;  Q 193.82 166.82 194.06 166.47&#xA;  Q 194.23 166.22 194.75 165.76&#xA;  Q 195.41 165.17 196.28 165.03&#xA;  A 1.10 1.09 -83.7 0 0 197.12 164.35&#xA;  Q 197.39 163.64 198.22 163.89&#xA;  Q 198.70 164.03 198.94 163.60&#xA;  Q 199.35 162.90 200.16 162.84&#xA;  Q 200.76 162.80 201.17 162.35&#xA;  L 202.16 161.28&#xA;  Q 202.50 160.92 202.99 160.89&#xA;  Q 203.13 160.88 203.28 160.88&#xA;  A 0.83 0.81 16.9 0 0 204.01 160.50&#xA;  Q 204.44 159.82 205.26 159.88&#xA;  A 0.83 0.82 17.8 0 0 206.01 159.50&#xA;  Q 206.38 158.93 207.04 158.88&#xA;  Q 207.64 158.83 207.97 158.34&#xA;  Q 208.81 157.06 210.30 156.69&#xA;  Q 210.70 156.59 210.97 156.27&#xA;  Q 211.32 155.84 211.95 155.86&#xA;  Q 212.44 155.86 212.75 155.49&#xA;  Q 213.37 154.76 214.37 154.61&#xA;  Q 214.92 154.53 215.22 154.06&#xA;  Q 215.94 152.97 217.24 152.76&#xA;  Q 217.67 152.69 217.91 152.34&#xA;  Q 218.25 151.87 218.89 151.85&#xA;  Q 219.39 151.84 219.73 151.48&#xA;  Q 220.86 150.29 222.45 149.81&#xA;  Q 223.42 149.52 222.76 149.23&#xA;  Q 222.44 149.10 222.50 148.69&#xA;  Q 222.53 148.44 222.29 148.38&#xA;  Q 221.93 148.30 221.96 148.01&#xA;  Z" fill="#b2d4f3"/>
<path d="M 149.03 148.35&#xA;  L 144.93 151.53&#xA;  Q 144.56 151.81 144.10 151.87&#xA;  Q 143.28 151.95 142.93 152.81&#xA;  Q 142.81 153.12 142.47 153.12&#xA;  L 142.04 153.12&#xA;  Q 141.59 153.12 141.26 153.43&#xA;  Q 140.56 154.09 139.62 154.14&#xA;  Q 139.09 154.18 138.81 154.64&#xA;  C 138.05 155.88 136.95 155.89 136.02 156.48&#xA;  Q 134.32 157.55 132.41 158.27&#xA;  Q 131.93 158.45 131.64 158.86&#xA;  Q 130.87 159.95 129.53 160.22&#xA;  Q 129.11 160.31 128.86 160.65&#xA;  Q 128.47 161.20 127.76 161.12&#xA;  Q 127.28 161.07 127.00 161.48&#xA;  Q 126.47 162.27 125.54 162.45&#xA;  Q 125.21 162.52 125.00 162.78&#xA;  Q 124.04 163.96 122.59 164.21&#xA;  Q 122.08 164.30 121.78 164.72&#xA;  Q 121.42 165.24 120.70 165.10&#xA;  A 0.70 0.70 0.0 0 0 119.94 165.47&#xA;  Q 119.22 166.87 117.76 167.20&#xA;  Q 117.32 167.30 117.06 167.67&#xA;  Q 116.63 168.29 115.82 168.11&#xA;  Q 115.29 168.00 115.01 168.47&#xA;  Q 114.57 169.21 113.68 169.10&#xA;  A 0.88 0.88 0.0 0 0 112.77 169.61&#xA;  Q 112.16 170.93 110.80 171.18&#xA;  Q 110.34 171.26 110.08 171.65&#xA;  Q 109.64 172.29 108.82 172.11&#xA;  Q 108.29 172.00 108.01 172.47&#xA;  Q 107.58 173.19 106.74 173.11&#xA;  A 0.92 0.92 0.0 0 0 105.84 173.59&#xA;  Q 105.11 174.94 103.60 175.35&#xA;  Q 103.25 175.44 103.02 175.73&#xA;  Q 102.62 176.24 101.91 176.13&#xA;  Q 101.44 176.06 101.11 176.39&#xA;  L 100.52 176.98&#xA;  Q 100.22 177.27 99.81 177.33&#xA;  Q 98.57 177.48 98.07 178.60&#xA;  Q 97.83 179.12 97.26 179.12&#xA;  L 96.72 179.12&#xA;  A 0.88 0.88 0.0 0 0 95.98 179.52&#xA;  Q 95.59 180.10 94.91 180.13&#xA;  Q 94.46 180.15 94.14 180.45&#xA;  L 93.08 181.44&#xA;  Q 92.75 181.75 92.31 181.81&#xA;  C 91.18 181.97 91.08 182.81 90.28 183.07&#xA;  Q 90.07 183.14 89.84 183.15&#xA;  Q 89.45 183.17 89.22 183.49&#xA;  Q 88.42 184.60 86.72 183.44&#xA;  C 100.54 161.52 123.65 150.65 149.03 148.35&#xA;  Z" fill="#ebeff2"/>
<path d="M 424.44 148.88&#xA;  Q 415.39 158.31 407.31 167.06&#xA;  C 394.90 180.50 382.08 190.89 363.24 193.09&#xA;  Q 353.43 194.24 343.75 195.49&#xA;  L 343.06 195.28&#xA;  Q 342.85 195.22 342.85 195.00&#xA;  L 343.01 148.89&#xA;  L 424.44 148.88&#xA;  Z" fill="#b2d4f3"/>
<path d="M 343.01 148.89&#xA;  L 342.85 195.00&#xA;  Q 342.85 195.22 343.06 195.28&#xA;  L 343.75 195.49&#xA;  C 330.76 197.42 318.06 200.71 306.87 207.73&#xA;  A 0.61 0.61 0.0 0 0 306.74 208.65&#xA;  C 306.96 208.89 307.45 209.12 307.80 209.12&#xA;  Q 352.00 209.01 397.11 209.27&#xA;  Q 378.01 224.23 354.35 225.86&#xA;  Q 350.42 226.13 336.50 226.02&#xA;  Q 333.35 226.00 329.36 227.40&#xA;  C 314.38 232.66 310.20 251.36 320.32 263.17&#xA;  Q 319.56 262.84 319.16 262.86&#xA;  Q 318.82 262.88 319.08 263.10&#xA;  Q 319.23 263.24 319.31 263.40&#xA;  Q 319.54 263.88 319.00 263.88&#xA;  L 289.46 263.88&#xA;  Q 288.67 263.88 289.02 264.59&#xA;  Q 289.78 266.07 289.28 266.81&#xA;  C 284.58 250.35 286.00 231.56 296.21 217.61&#xA;  C 296.78 216.84 297.11 215.51 297.11 214.56&#xA;  Q 297.18 187.04 297.04 158.90&#xA;  Q 318.29 149.03 343.01 148.89&#xA;  Z" fill="#c5ddf2"/>
<path d="M 424.44 148.88&#xA;  Q 424.80 155.32 423.49 162.98&#xA;  Q 418.53 191.86 397.11 209.27&#xA;  Q 352.00 209.01 307.80 209.12&#xA;  C 307.45 209.12 306.96 208.89 306.74 208.65&#xA;  A 0.61 0.61 0.0 0 1 306.87 207.73&#xA;  C 318.06 200.71 330.76 197.42 343.75 195.49&#xA;  Q 353.43 194.24 363.24 193.09&#xA;  C 382.08 190.89 394.90 180.50 407.31 167.06&#xA;  Q 415.39 158.31 424.44 148.88&#xA;  Z" fill="#dce8f2"/>
<path d="M 259.88 172.90&#xA;  Q 237.31 197.83 232.92 232.33&#xA;  C 232.40 229.55 233.14 228.37 233.43 225.78&#xA;  C 233.70 223.42 234.48 221.60 233.82 219.11&#xA;  Q 233.13 216.46 233.14 215.25&#xA;  Q 233.30 192.13 232.90 168.07&#xA;  Q 240.49 159.45 251.84 153.56&#xA;  Q 254.94 151.96 258.33 150.80&#xA;  Q 259.88 150.28 259.88 151.91&#xA;  L 259.88 172.90&#xA;  Z" fill="#c5ddf2"/>
<path d="M 297.04 158.90&#xA;  Q 297.18 187.04 297.11 214.56&#xA;  C 297.11 215.51 296.78 216.84 296.21 217.61&#xA;  C 286.00 231.56 284.58 250.35 289.28 266.81&#xA;  Q 293.17 277.58 300.38 284.72&#xA;  L 300.23 342.55&#xA;  Q 277.51 331.44 262.40 311.31&#xA;  L 262.75 310.66&#xA;  Q 263.16 309.90 263.05 310.76&#xA;  Q 262.99 311.23 263.08 311.33&#xA;  Q 264.12 312.42 264.12 311.00&#xA;  L 264.12 188.03&#xA;  Q 264.12 187.51 263.62 187.38&#xA;  Q 263.07 187.24 262.17 187.53&#xA;  Q 275.79 169.15 297.04 158.90&#xA;  Z" fill="#dce8f2"/>
<path d="M 232.90 168.07&#xA;  Q 233.30 192.13 233.14 215.25&#xA;  Q 233.13 216.46 233.82 219.11&#xA;  C 234.48 221.60 233.70 223.42 233.43 225.78&#xA;  C 233.14 228.37 232.40 229.55 232.92 232.33&#xA;  Q 231.39 242.68 231.44 251.00&#xA;  Q 231.73 301.52 232.47 352.10&#xA;  A 0.66 0.66 0.0 0 1 231.76 352.77&#xA;  L 224.82 352.20&#xA;  Q 222.80 350.92 220.85 349.66&#xA;  C 214.16 345.34 209.68 337.41 207.54 329.72&#xA;  Q 208.02 330.17 208.18 330.68&#xA;  Q 208.30 331.07 208.64 330.86&#xA;  Q 208.81 330.75 208.93 330.59&#xA;  Q 209.12 330.34 209.12 329.86&#xA;  Q 209.12 271.31 208.90 212.75&#xA;  Q 208.90 211.86 207.68 212.47&#xA;  Q 215.13 187.71 232.90 168.07&#xA;  Z" fill="#dce8f2"/>
<path d="M 138.97 226.55&#xA;  L 110.73 226.48&#xA;  L 110.86 194.80&#xA;  Q 110.86 194.32 110.40 194.16&#xA;  Q 109.78 193.96 109.38 193.59&#xA;  Q 122.44 183.83 138.39 178.92&#xA;  A 0.54 0.54 0.0 0 1 139.09 179.44&#xA;  L 138.97 226.55&#xA;  Z" fill="#dce8f2"/>
<path d="M 262.17 187.53&#xA;  Q 263.07 187.24 263.62 187.38&#xA;  Q 264.12 187.51 264.12 188.03&#xA;  L 264.12 311.00&#xA;  Q 264.12 312.42 263.08 311.33&#xA;  Q 262.99 311.23 263.05 310.76&#xA;  Q 263.16 309.90 262.75 310.66&#xA;  L 262.40 311.31&#xA;  C 235.80 274.64 235.71 224.34 262.17 187.53&#xA;  Z" fill="#ebeff2"/>
<path d="M 109.38 193.59&#xA;  Q 109.78 193.96 110.40 194.16&#xA;  Q 110.86 194.32 110.86 194.80&#xA;  L 110.73 226.48&#xA;  L 75.23 226.43&#xA;  Q 83.03 218.50 90.59 210.59&#xA;  Q 99.38 201.38 109.38 193.59&#xA;  Z" fill="#ebeff2"/>
<path d="M 207.54 329.72&#xA;  C 203.57 318.26 201.81 304.85 200.97 293.00&#xA;  C 199.32 269.95 199.16 246.77 204.33 224.12&#xA;  L 207.68 212.47&#xA;  Q 208.90 211.86 208.90 212.75&#xA;  Q 209.12 271.31 209.12 329.86&#xA;  Q 209.12 330.34 208.93 330.59&#xA;  Q 208.81 330.75 208.64 330.86&#xA;  Q 208.30 331.07 208.18 330.68&#xA;  Q 208.02 330.17 207.54 329.72&#xA;  Z" fill="#ebeff2"/>
<path d="M 320.32 263.17&#xA;  C 326.09 269.71 331.65 271.08 340.86 271.60&#xA;  C 388.14 274.27 425.42 300.92 424.47 351.98&#xA;  Q 424.46 352.45 423.99 352.45&#xA;  L 351.24 352.45&#xA;  Q 351.10 352.34 351.14 352.19&#xA;  Q 351.21 351.91 351.46 352.04&#xA;  Q 351.92 352.27 351.87 352.08&#xA;  Q 351.84 351.91 351.66 351.88&#xA;  Q 351.28 351.81 351.06 351.55&#xA;  Q 350.88 351.33 350.88 350.89&#xA;  Q 350.87 328.27 350.88 306.86&#xA;  A 2.76 2.75 -85.8 0 0 348.54 304.13&#xA;  C 330.93 301.45 314.33 296.26 300.38 284.72&#xA;  Q 293.17 277.58 289.28 266.81&#xA;  Q 289.78 266.07 289.02 264.59&#xA;  Q 288.67 263.88 289.46 263.88&#xA;  L 319.00 263.88&#xA;  Q 319.54 263.88 319.31 263.40&#xA;  Q 319.23 263.24 319.08 263.10&#xA;  Q 318.82 262.88 319.16 262.86&#xA;  Q 319.56 262.84 320.32 263.17&#xA;  Z" fill="#b2d4f3"/>
<path d="M 300.38 284.72&#xA;  C 314.33 296.26 330.93 301.45 348.54 304.13&#xA;  A 2.76 2.75 -85.8 0 1 350.88 306.86&#xA;  Q 350.87 328.27 350.88 350.89&#xA;  Q 350.88 351.33 351.06 351.55&#xA;  Q 351.28 351.81 351.66 351.88&#xA;  Q 351.84 351.91 351.87 352.08&#xA;  Q 351.92 352.27 351.46 352.04&#xA;  Q 351.21 351.91 351.14 352.19&#xA;  Q 351.10 352.34 351.24 352.45&#xA;  Q 324.19 353.87 300.23 342.55&#xA;  L 300.38 284.72&#xA;  Z" fill="#c5ddf2"/>
</svg>