<?xml version="1.0" encoding="utf-8"?>
<svg xmlns="http://www.w3.org/2000/svg" version="1.1" viewBox="0.00 0.00 512.00 512.00">
<g fill="none" stroke-linecap="butt" stroke-width="2.00">
<path d="M 370.8033 221.5289&#xA;  A 27.77 27.47 45.3 0 0 370.7957 182.4677&#xA;  A 27.77 27.47 45.3 0 0 331.7367 182.0511&#xA;  A 27.77 27.47 45.3 0 0 331.7443 221.1123&#xA;  A 27.77 27.47 45.3 0 0 370.8033 221.5289" stroke="#ffe092"/>
<path d="M 325.38 264.00&#xA;  C 323.12 287.51 310.13 307.32 289.75 318.65&#xA;  C 243.09 344.59 184.25 311.90 184.26 257.50&#xA;  Q 184.27 221.22 184.27 184.94&#xA;  C 184.27 181.64 183.15 178.21 179.50 178.20&#xA;  Q 159.75 178.10 139.97 178.20&#xA;  C 135.50 178.22 133.15 179.56 133.14 184.25&#xA;  Q 133.08 221.13 133.26 258.01&#xA;  Q 133.32 272.16 135.60 282.74&#xA;  C 146.61 333.95 189.67 372.78 241.85 378.10&#xA;  C 310.92 385.15 372.39 334.74 376.58 265.12&#xA;  C 376.88 260.22 374.52 258.70 369.76 258.70&#xA;  Q 350.63 258.68 331.50 258.67&#xA;  Q 325.89 258.67 325.38 264.00" stroke="#ffe092"/>
</g>
<path d="M 200.13 0.00&#xA;  L 311.99 0.00&#xA;  Q 338.20 0.82 363.31 7.84&#xA;  C 369.59 9.59 376.33 12.26 382.79 14.62&#xA;  C 395.35 19.19 407.18 26.10 418.47 33.04&#xA;  C 434.47 42.86 448.53 56.17 461.07 70.02&#xA;  C 466.03 75.50 470.24 81.25 474.64 87.16&#xA;  C 481.96 96.98 487.63 108.01 492.95 119.02&#xA;  C 505.17 144.28 511.15 172.49 512.00 200.13&#xA;  L 512.00 311.99&#xA;  Q 511.18 338.26 504.13 363.41&#xA;  C 502.41 369.58 499.81 376.16 497.49 382.47&#xA;  C 493.15 394.29 486.95 405.29 480.45 416.03&#xA;  C 471.72 430.44 460.04 444.58 447.62 455.96&#xA;  C 438.37 464.43 428.53 472.91 417.73 479.43&#xA;  C 411.48 483.20 405.49 486.93 398.91 490.10&#xA;  Q 394.80 492.08 390.70 494.05&#xA;  C 385.42 496.59 379.92 498.42 374.41 500.45&#xA;  C 354.49 507.77 333.09 511.35 311.87 512.00&#xA;  L 200.01 512.00&#xA;  Q 173.05 511.16 147.28 503.76&#xA;  C 142.16 502.29 136.68 500.10 131.41 498.18&#xA;  C 118.78 493.59 107.21 487.29 95.76 480.32&#xA;  C 89.21 476.33 83.38 471.85 77.31 467.25&#xA;  C 66.89 459.33 57.90 449.71 49.16 440.02&#xA;  C 40.60 430.54 33.71 419.60 27.14 408.76&#xA;  C 22.22 400.64 17.55 390.94 14.32 382.02&#xA;  C 11.81 375.08 8.99 367.72 7.23 361.14&#xA;  Q 0.78 337.00 0.00 311.87&#xA;  L 0.00 200.01&#xA;  Q 0.83 173.60 7.94 148.32&#xA;  C 9.58 142.49 12.02 136.30 14.21 130.35&#xA;  C 24.38 102.66 43.39 75.04 65.25 55.25&#xA;  C 69.47 51.42 73.53 47.55 78.10 44.13&#xA;  C 88.47 36.37 99.07 28.69 110.79 23.02&#xA;  C 122.61 17.31 134.51 11.93 147.17 8.28&#xA;  Q 173.04 0.82 200.13 0.00&#xA;  Z&#xA;  M 370.8033 221.5289&#xA;  A 27.77 27.47 45.3 0 0 370.7957 182.4677&#xA;  A 27.77 27.47 45.3 0 0 331.7367 182.0511&#xA;  A 27.77 27.47 45.3 0 0 331.7443 221.1123&#xA;  A 27.77 27.47 45.3 0 0 370.8033 221.5289&#xA;  Z&#xA;  M 325.38 264.00&#xA;  C 323.12 287.51 310.13 307.32 289.75 318.65&#xA;  C 243.09 344.59 184.25 311.90 184.26 257.50&#xA;  Q 184.27 221.22 184.27 184.94&#xA;  C 184.27 181.64 183.15 178.21 179.50 178.20&#xA;  Q 159.75 178.10 139.97 178.20&#xA;  C 135.50 178.22 133.15 179.56 133.14 184.25&#xA;  Q 133.08 221.13 133.26 258.01&#xA;  Q 133.32 272.16 135.60 282.74&#xA;  C 146.61 333.95 189.67 372.78 241.85 378.10&#xA;  C 310.92 385.15 372.39 334.74 376.58 265.12&#xA;  C 376.88 260.22 374.52 258.70 369.76 258.70&#xA;  Q 350.63 258.68 331.50 258.67&#xA;  Q 325.89 258.67 325.38 264.00&#xA;  Z" fill="#ffc125"/>
<ellipse cx="0.00" cy="0.00" fill="#ffffff" rx="27.77" ry="27.47" transform="translate(351.27,201.79) rotate(45.3)"/>
<path d="M 289.75 318.65&#xA;  C 310.13 307.32 323.12 287.51 325.38 264.00&#xA;  Q 325.89 258.67 331.50 258.67&#xA;  Q 350.63 258.68 369.76 258.70&#xA;  C 374.52 258.70 376.88 260.22 376.58 265.12&#xA;  C 372.39 334.74 310.92 385.15 241.85 378.10&#xA;  C 189.67 372.78 146.61 333.95 135.60 282.74&#xA;  Q 133.32 272.16 133.26 258.01&#xA;  Q 133.08 221.13 133.14 184.25&#xA;  C 133.15 179.56 135.50 178.22 139.97 178.20&#xA;  Q 159.75 178.10 179.50 178.20&#xA;  C 183.15 178.21 184.27 181.64 184.27 184.94&#xA;  Q 184.27 221.22 184.26 257.50&#xA;  C 184.25 311.90 243.09 344.59 289.75 318.65&#xA;  Z" fill="#ffffff"/>
</svg>