<?xml version="1.0" encoding="utf-8"?>
<svg xmlns="http://www.w3.org/2000/svg" version="1.1" viewBox="0.00 0.00 128.00 128.00">
<path d="M 51.87 81.43&#xA;  C 55.66 90.02 63.62 105.14 71.84 87.51&#xA;  C 74.98 80.78 77.48 74.12 79.52 66.66&#xA;  Q 86.70 40.46 89.92 13.44&#xA;  A 0.54 0.53 -83.2 0 1 90.52 12.96&#xA;  L 107.48 14.94&#xA;  A 0.60 0.59 -82.9 0 1 108.00 15.61&#xA;  Q 104.56 42.92 97.90 68.24&#xA;  C 94.88 79.75 90.98 91.29 84.78 101.52&#xA;  C 75.23 117.26 58.19 119.85 45.71 105.52&#xA;  C 39.03 97.85 35.08 89.26 31.73 79.94&#xA;  Q 23.68 57.53 19.99 33.94&#xA;  A 0.61 0.61 0.0 0 1 20.50 33.24&#xA;  L 37.22 30.76&#xA;  A 0.67 0.66 80.8 0 1 37.97 31.31&#xA;  C 40.68 48.33 44.88 65.56 51.87 81.43&#xA;  Z" fill="#ff3e97"/>
</svg>