<?xml version="1.0" encoding="utf-8"?>
<svg xmlns="http://www.w3.org/2000/svg" version="1.1" viewBox="0.00 0.00 48.00 48.00">
<g fill="none" stroke-linecap="butt" stroke-width="2.00">
<path d="M 47.90 9.77&#xA;  Q 45.94 10.31 44.04 10.05&#xA;  Q 43.49 9.97 43.22 10.46&#xA;  Q 42.83 11.16 42.02 11.33&#xA;  Q 41.53 11.44 41.31 10.98&#xA;  Q 40.99 10.33 40.25 10.15&#xA;  Q 36.90 9.34 32.24 10.40&#xA;  A 0.49 0.49 0.0 0 0 32.09 11.30&#xA;  Q 32.74 11.71 32.19 13.06" stroke="#6476a8"/>
<path d="M 32.19 13.06&#xA;  Q 29.26 8.83 24.46 9.18" stroke="#b1bbd8"/>
<path d="M 24.46 9.18&#xA;  Q 23.03 9.14 21.83 9.81" stroke="#9dacd8"/>
<path d="M 21.83 9.81&#xA;  L 19.00 10.70" stroke="#91b2d9"/>
<path d="M 19.00 10.70&#xA;  Q 20.15 9.68 18.11 9.48&#xA;  Q 17.70 9.45 17.34 9.66&#xA;  Q 16.70 10.05 15.96 9.80&#xA;  Q 15.56 9.66 15.17 9.83&#xA;  C 14.19 10.25 13.43 9.84 12.63 9.85&#xA;  Q 9.24 9.86 5.86 9.85&#xA;  C 4.46 9.85 3.10 9.10 1.46 9.50&#xA;  A 1.20 1.14 46.6 0 1 0.76 9.46&#xA;  L 0.22 9.26" stroke="#6476a8"/>
<path d="M 16.27 6.82&#xA;  A 0.99 0.99 0.0 0 0 15.28 5.83&#xA;  A 0.99 0.99 0.0 0 0 14.29 6.82&#xA;  A 0.99 0.99 0.0 0 0 15.28 7.81&#xA;  A 0.99 0.99 0.0 0 0 16.27 6.82" stroke="#a491ab"/>
<path d="M 35.49 7.45&#xA;  A 1.29 1.29 0.0 0 0 34.20 6.16&#xA;  A 1.29 1.29 0.0 0 0 32.91 7.45&#xA;  A 1.29 1.29 0.0 0 0 34.20 8.74&#xA;  A 1.29 1.29 0.0 0 0 35.49 7.45" stroke="#869ad0"/>
<path d="M 19.00 10.70&#xA;  C 16.11 11.94 12.43 14.07 12.67 17.35" stroke="#8baacb"/>
<path d="M 12.67 17.35&#xA;  L 12.44 19.70" stroke="#96a4ca"/>
<path d="M 12.44 19.70&#xA;  L 0.00 19.08" stroke="#58668d"/>
<path d="M 10.47 14.80&#xA;  A 0.91 0.91 0.0 0 0 9.56 13.89&#xA;  A 0.91 0.91 0.0 0 0 8.65 14.80&#xA;  A 0.91 0.91 0.0 0 0 9.56 15.71&#xA;  A 0.91 0.91 0.0 0 0 10.47 14.80" stroke="#9e899d"/>
<path d="M 24.46 9.18&#xA;  C 23.16 11.69 25.64 13.56 27.28 15.14&#xA;  A 1.41 1.41 0.0 0 0 29.05 15.28&#xA;  Q 30.07 14.58 31.00 15.39" stroke="#e3e9fb"/>
<path d="M 31.00 15.39&#xA;  Q 28.88 15.31 28.78 16.54" stroke="#d7bfcd"/>
<path d="M 28.78 16.54&#xA;  L 29.32 18.74" stroke="#8a93af"/>
<path d="M 29.32 18.74&#xA;  Q 28.95 19.64 28.11 20.28" stroke="#e6c6d7"/>
<path d="M 28.11 20.28&#xA;  Q 26.77 21.18 24.78 21.27&#xA;  A 0.82 0.81 22.6 0 0 24.26 21.48&#xA;  L 19.03 26.04&#xA;  Q 18.69 26.33 18.62 26.76&#xA;  L 18.48 27.50" stroke="#d2caf8"/>
<path d="M 18.48 27.50&#xA;  L 15.27 27.64" stroke="#8a93af"/>
<path d="M 15.27 27.64&#xA;  Q 12.27 27.97 12.35 25.50&#xA;  Q 12.42 23.23 12.44 19.70" stroke="#919bbd"/>
<path d="M 12.67 17.35&#xA;  Q 14.11 18.11 14.56 21.43&#xA;  Q 14.62 21.83 15.01 21.92&#xA;  Q 15.24 21.97 15.46 22.12&#xA;  A 0.11 0.11 0.0 0 0 15.63 22.03&#xA;  Q 15.64 21.88 15.64 21.73&#xA;  A 0.23 0.22 -68.7 0 1 16.01 21.56&#xA;  L 16.36 21.86&#xA;  Q 16.55 22.02 16.66 21.80&#xA;  Q 16.84 21.44 16.77 21.12&#xA;  Q 16.70 20.74 17.01 20.51&#xA;  Q 19.41 18.76 21.30 16.45&#xA;  Q 21.50 16.21 21.56 15.95&#xA;  Q 21.63 15.69 21.64 15.42&#xA;  Q 21.67 14.95 22.04 14.66&#xA;  Q 22.55 14.26 22.31 13.51&#xA;  Q 21.77 11.79 21.83 9.81" stroke="#c4e0fb"/>
<path d="M 32.19 13.06&#xA;  L 35.93 22.85" stroke="#aab3cb"/>
<path d="M 35.93 22.85&#xA;  L 36.80 26.72" stroke="#9ea2af"/>
<path d="M 36.80 26.72&#xA;  Q 35.66 27.59 34.66 27.22" stroke="#e6daf8"/>
<path d="M 34.66 27.22&#xA;  Q 34.80 23.74 32.93 22.00" stroke="#fad6d8"/>
<path d="M 32.93 22.00&#xA;  L 32.44 20.73" stroke="#9ea2af"/>
<path d="M 32.44 20.73&#xA;  Q 33.63 18.17 31.00 15.39" stroke="#ebcece"/>
<path d="M 48.00 21.44&#xA;  L 39.30 21.35&#xA;  A 1.49 1.44 58.5 0 1 38.60 21.17&#xA;  Q 37.00 20.29 35.93 22.85" stroke="#515d7f"/>
<path d="M 38.75 18.91&#xA;  Q 39.34 19.40 39.93 18.74&#xA;  Q 40.28 18.36 40.04 17.90&#xA;  Q 39.81 17.48 39.15 17.57&#xA;  Q 38.00 17.72 38.34 18.29&#xA;  A 0.82 0.03 58.3 0 0 38.75 18.91" stroke="#85a1b7"/>
<path d="M 32.44 20.73&#xA;  L 30.16 16.44&#xA;  Q 29.89 15.94 29.37 16.15&#xA;  Q 29.08 16.27 28.78 16.54" stroke="#927882"/>
<path d="M 32.93 22.00&#xA;  Q 32.85 22.53 32.68 22.62&#xA;  A 1.38 1.28 63.7 0 1 30.92 21.95&#xA;  L 29.32 18.74" stroke="#a1808c"/>
<path d="M 34.66 27.22&#xA;  C 31.03 27.82 29.02 23.20 28.11 20.28" stroke="#e8b7d5"/>
<path d="M 15.27 27.64&#xA;  L 12.86 27.84&#xA;  Q 12.38 27.88 12.02 27.57&#xA;  Q 11.60 27.20 11.25 27.51&#xA;  Q 10.90 27.81 10.43 27.82&#xA;  L 0.00 28.07" stroke="#4c5571"/>
<path d="M 4.16 23.41&#xA;  Q 4.43 24.26 5.45 23.98&#xA;  Q 5.98 23.84 6.01 23.29&#xA;  Q 6.02 23.11 6.01 22.93&#xA;  Q 5.97 22.37 5.41 22.30&#xA;  Q 4.57 22.20 4.21 22.83&#xA;  Q 4.06 23.11 4.16 23.41" stroke="#8098a9"/>
<path d="M 36.80 26.72&#xA;  C 38.74 30.72 34.96 31.45 32.18 32.50" stroke="#8d84ac"/>
<path d="M 32.18 32.50&#xA;  L 26.75 27.85&#xA;  A 1.32 1.28 63.3 0 0 25.86 27.54&#xA;  L 21.04 27.64" stroke="#baa1dc"/>
<path d="M 21.04 27.64&#xA;  L 19.47 27.76" stroke="#bc9abb"/>
<path d="M 19.47 27.76&#xA;  Q 18.95 27.75 18.48 27.50" stroke="#8d84ac"/>
<path d="M 38.51 47.80&#xA;  C 36.10 43.42 34.32 37.23 28.05 37.56" stroke="#9c9c9d"/>
<path d="M 28.05 37.56&#xA;  Q 25.58 37.27 24.07 37.91&#xA;  A 0.74 0.74 0.0 0 1 23.06 37.06&#xA;  L 23.79 34.00" stroke="#927882"/>
<path d="M 23.79 34.00&#xA;  Q 24.56 32.51 24.31 30.90&#xA;  A 1.13 1.12 -78.3 0 0 23.82 30.14&#xA;  Q 22.45 29.21 21.72 27.79" stroke="#746272"/>
<path d="M 21.72 27.79&#xA;  C 24.80 26.88 27.46 31.18 28.90 32.37&#xA;  Q 30.43 33.63 32.18 32.50" stroke="#726993"/>
<path d="M 44.30 26.13&#xA;  A 0.95 0.95 0.0 0 0 43.35 25.18&#xA;  A 0.95 0.95 0.0 0 0 42.40 26.13&#xA;  A 0.95 0.95 0.0 0 0 43.35 27.08&#xA;  A 0.95 0.95 0.0 0 0 44.30 26.13" stroke="#927882"/>
<path d="M 19.47 27.76&#xA;  L 18.96 28.77" stroke="#746272"/>
<path d="M 18.96 28.77&#xA;  L 17.84 32.10" stroke="#927882"/>
<path d="M 17.84 32.10&#xA;  L 15.44 37.79" stroke="#79909b"/>
<path d="M 15.44 37.79&#xA;  Q 12.97 38.22 11.75 40.47" stroke="#9c9c9d"/>
<path d="M 11.75 40.47&#xA;  L 7.77 47.69" stroke="#748396"/>
<path d="M 6.53 36.33&#xA;  A 1.40 1.40 0.0 0 0 5.13 34.93&#xA;  A 1.40 1.40 0.0 0 0 3.73 36.33&#xA;  A 1.40 1.40 0.0 0 0 5.13 37.73&#xA;  A 1.40 1.40 0.0 0 0 6.53 36.33" stroke="#7381a7"/>
<path d="M 21.72 27.79&#xA;  Q 21.37 27.61 21.04 27.64" stroke="#a17fa2"/>
<path d="M 23.79 34.00&#xA;  Q 21.27 31.84 19.78 29.15&#xA;  A 0.71 0.68 78.4 0 0 19.29 28.81&#xA;  Q 19.14 28.79 18.96 28.77" stroke="#c18e90"/>
<path d="M 28.05 37.56&#xA;  Q 26.84 39.03 24.52 39.50&#xA;  Q 22.54 39.90 22.29 38.98" stroke="#e8c8bc"/>
<path d="M 22.29 38.98&#xA;  Q 21.06 35.19 17.84 32.10" stroke="#c6bcba"/>
<path d="M 22.29 38.98&#xA;  L 18.79 37.77&#xA;  Q 18.32 37.60 17.81 37.63&#xA;  L 15.44 37.79" stroke="#d0dfd5"/>
<path d="M 35.07 48.00&#xA;  Q 32.64 45.80 30.34 43.68&#xA;  Q 28.59 42.06 26.28 43.44&#xA;  Q 25.85 43.70 25.45 43.41&#xA;  L 22.65 41.43&#xA;  Q 22.29 41.17 21.84 41.09&#xA;  L 19.81 40.74" stroke="#e7d2cd"/>
<path d="M 19.81 40.74&#xA;  Q 16.50 38.64 14.08 41.25" stroke="#95928d"/>
<path d="M 14.08 41.25&#xA;  L 12.71 41.64&#xA;  Q 12.24 41.77 12.00 41.35&#xA;  Q 11.81 41.02 11.75 40.47" stroke="#cbd3d0"/>
<path d="M 19.81 40.74&#xA;  Q 20.21 41.46 20.60 41.67" stroke="#8a7983"/>
<path d="M 20.60 41.67&#xA;  L 24.22 48.00" stroke="#6b6874"/>
<path d="M 9.37 48.00&#xA;  Q 9.53 47.75 9.85 47.67&#xA;  Q 10.30 47.55 10.54 47.16&#xA;  L 14.08 41.25" stroke="#6d7986"/>
<path d="M 27.02 48.00&#xA;  C 25.98 46.03 25.21 44.50 23.19 43.28&#xA;  Q 21.94 42.52 20.60 41.67" stroke="#bea8b4"/>
</g>
<path d="M 9.88 0.00&#xA;  L 38.21 0.00&#xA;  Q 46.90 1.34 47.90 9.77&#xA;  Q 45.94 10.31 44.04 10.05&#xA;  Q 43.49 9.97 43.22 10.46&#xA;  Q 42.83 11.16 42.02 11.33&#xA;  Q 41.53 11.44 41.31 10.98&#xA;  Q 40.99 10.33 40.25 10.15&#xA;  Q 36.90 9.34 32.24 10.40&#xA;  A 0.49 0.49 0.0 0 0 32.09 11.30&#xA;  Q 32.74 11.71 32.19 13.06&#xA;  Q 29.26 8.83 24.46 9.18&#xA;  Q 23.03 9.14 21.83 9.81&#xA;  L 19.00 10.70&#xA;  Q 20.15 9.68 18.11 9.48&#xA;  Q 17.70 9.45 17.34 9.66&#xA;  Q 16.70 10.05 15.96 9.80&#xA;  Q 15.56 9.66 15.17 9.83&#xA;  C 14.19 10.25 13.43 9.84 12.63 9.85&#xA;  Q 9.24 9.86 5.86 9.85&#xA;  C 4.46 9.85 3.10 9.10 1.46 9.50&#xA;  A 1.20 1.14 46.6 0 1 0.76 9.46&#xA;  L 0.22 9.26&#xA;  C 0.43 4.14 5.06 0.48 9.88 0.00&#xA;  Z&#xA;  M 16.27 6.82&#xA;  A 0.99 0.99 0.0 0 0 15.28 5.83&#xA;  A 0.99 0.99 0.0 0 0 14.29 6.82&#xA;  A 0.99 0.99 0.0 0 0 15.28 7.81&#xA;  A 0.99 0.99 0.0 0 0 16.27 6.82&#xA;  Z&#xA;  M 35.49 7.45&#xA;  A 1.29 1.29 0.0 0 0 34.20 6.16&#xA;  A 1.29 1.29 0.0 0 0 32.91 7.45&#xA;  A 1.29 1.29 0.0 0 0 34.20 8.74&#xA;  A 1.29 1.29 0.0 0 0 35.49 7.45&#xA;  Z" fill="#6a7eb5"/>
<circle cx="15.28" cy="6.82" fill="#dea4a0" r="0.99"/>
<circle cx="34.20" cy="7.45" fill="#a1b5eb" r="1.29"/>
<path d="M 0.22 9.26&#xA;  L 0.76 9.46&#xA;  A 1.20 1.14 46.6 0 0 1.46 9.50&#xA;  C 3.10 9.10 4.46 9.85 5.86 9.85&#xA;  Q 9.24 9.86 12.63 9.85&#xA;  C 13.43 9.84 14.19 10.25 15.17 9.83&#xA;  Q 15.56 9.66 15.96 9.80&#xA;  Q 16.70 10.05 17.34 9.66&#xA;  Q 17.70 9.45 18.11 9.48&#xA;  Q 20.15 9.68 19.00 10.70&#xA;  C 16.11 11.94 12.43 14.07 12.67 17.35&#xA;  L 12.44 19.70&#xA;  L 0.00 19.08&#xA;  L 0.00 9.50&#xA;  Q 0.65 9.52 0.22 9.26&#xA;  Z&#xA;  M 10.47 14.80&#xA;  A 0.91 0.91 0.0 0 0 9.56 13.89&#xA;  A 0.91 0.91 0.0 0 0 8.65 14.80&#xA;  A 0.91 0.91 0.0 0 0 9.56 15.71&#xA;  A 0.91 0.91 0.0 0 0 10.47 14.80&#xA;  Z" fill="#5d6e9a"/>
<path d="M 24.46 9.18&#xA;  C 23.16 11.69 25.64 13.56 27.28 15.14&#xA;  A 1.41 1.41 0.0 0 0 29.05 15.28&#xA;  Q 30.07 14.58 31.00 15.39&#xA;  Q 28.88 15.31 28.78 16.54&#xA;  L 29.32 18.74&#xA;  Q 28.95 19.64 28.11 20.28&#xA;  Q 26.77 21.18 24.78 21.27&#xA;  A 0.82 0.81 22.6 0 0 24.26 21.48&#xA;  L 19.03 26.04&#xA;  Q 18.69 26.33 18.62 26.76&#xA;  L 18.48 27.50&#xA;  L 15.27 27.64&#xA;  Q 12.27 27.97 12.35 25.50&#xA;  Q 12.42 23.23 12.44 19.70&#xA;  L 12.67 17.35&#xA;  Q 14.11 18.11 14.56 21.43&#xA;  Q 14.62 21.83 15.01 21.92&#xA;  Q 15.24 21.97 15.46 22.12&#xA;  A 0.11 0.11 0.0 0 0 15.63 22.03&#xA;  Q 15.64 21.88 15.64 21.73&#xA;  A 0.23 0.22 -68.7 0 1 16.01 21.56&#xA;  L 16.36 21.86&#xA;  Q 16.55 22.02 16.66 21.80&#xA;  Q 16.84 21.44 16.77 21.12&#xA;  Q 16.70 20.74 17.01 20.51&#xA;  Q 19.41 18.76 21.30 16.45&#xA;  Q 21.50 16.21 21.56 15.95&#xA;  Q 21.63 15.69 21.64 15.42&#xA;  Q 21.67 14.95 22.04 14.66&#xA;  Q 22.55 14.26 22.31 13.51&#xA;  Q 21.77 11.79 21.83 9.81&#xA;  Q 23.03 9.14 24.46 9.18&#xA;  Z" fill="#cfd9fa"/>
<path d="M 24.46 9.18&#xA;  Q 29.26 8.83 32.19 13.06&#xA;  L 35.93 22.85&#xA;  L 36.80 26.72&#xA;  Q 35.66 27.59 34.66 27.22&#xA;  Q 34.80 23.74 32.93 22.00&#xA;  L 32.44 20.73&#xA;  Q 33.63 18.17 31.00 15.39&#xA;  Q 30.07 14.58 29.05 15.28&#xA;  A 1.41 1.41 0.0 0 1 27.28 15.14&#xA;  C 25.64 13.56 23.16 11.69 24.46 9.18&#xA;  Z" fill="#f7f8fb"/>
<path d="M 47.90 9.77&#xA;  Q 47.95 9.82 48.00 9.87&#xA;  L 48.00 21.44&#xA;  L 39.30 21.35&#xA;  A 1.49 1.44 58.5 0 1 38.60 21.17&#xA;  Q 37.00 20.29 35.93 22.85&#xA;  L 32.19 13.06&#xA;  Q 32.74 11.71 32.09 11.30&#xA;  A 0.49 0.49 0.0 0 1 32.24 10.40&#xA;  Q 36.90 9.34 40.25 10.15&#xA;  Q 40.99 10.33 41.31 10.98&#xA;  Q 41.53 11.44 42.02 11.33&#xA;  Q 42.83 11.16 43.22 10.46&#xA;  Q 43.49 9.97 44.04 10.05&#xA;  Q 45.94 10.31 47.90 9.77&#xA;  Z&#xA;  M 38.75 18.91&#xA;  Q 39.34 19.40 39.93 18.74&#xA;  Q 40.28 18.36 40.04 17.90&#xA;  Q 39.81 17.48 39.15 17.57&#xA;  Q 38.00 17.72 38.34 18.29&#xA;  A 0.82 0.03 58.3 0 0 38.75 18.91&#xA;  Z" fill="#5d6e9a"/>
<path d="M 21.83 9.81&#xA;  Q 21.77 11.79 22.31 13.51&#xA;  Q 22.55 14.26 22.04 14.66&#xA;  Q 21.67 14.95 21.64 15.42&#xA;  Q 21.63 15.69 21.56 15.95&#xA;  Q 21.50 16.21 21.30 16.45&#xA;  Q 19.41 18.76 17.01 20.51&#xA;  Q 16.70 20.74 16.77 21.12&#xA;  Q 16.84 21.44 16.66 21.80&#xA;  Q 16.55 22.02 16.36 21.86&#xA;  L 16.01 21.56&#xA;  A 0.23 0.22 -68.7 0 0 15.64 21.73&#xA;  Q 15.64 21.88 15.63 22.03&#xA;  A 0.11 0.11 0.0 0 1 15.46 22.12&#xA;  Q 15.24 21.97 15.01 21.92&#xA;  Q 14.62 21.83 14.56 21.43&#xA;  Q 14.11 18.11 12.67 17.35&#xA;  C 12.43 14.07 16.11 11.94 19.00 10.70&#xA;  L 21.83 9.81&#xA;  Z" fill="#b8e6fc"/>
<circle cx="9.56" cy="14.80" fill="#dea4a0" r="0.91"/>
<path d="M 31.00 15.39&#xA;  Q 33.63 18.17 32.44 20.73&#xA;  L 30.16 16.44&#xA;  Q 29.89 15.94 29.37 16.15&#xA;  Q 29.08 16.27 28.78 16.54&#xA;  Q 28.88 15.31 31.00 15.39&#xA;  Z" fill="#dea4a0"/>
<path d="M 32.44 20.73&#xA;  L 32.93 22.00&#xA;  Q 32.85 22.53 32.68 22.62&#xA;  A 1.38 1.28 63.7 0 1 30.92 21.95&#xA;  L 29.32 18.74&#xA;  L 28.78 16.54&#xA;  Q 29.08 16.27 29.37 16.15&#xA;  Q 29.89 15.94 30.16 16.44&#xA;  L 32.44 20.73&#xA;  Z" fill="#454c63"/>
<path d="M 38.75 18.91&#xA;  A 0.82 0.03 58.3 0 1 38.34 18.29&#xA;  Q 38.00 17.72 39.15 17.57&#xA;  Q 39.81 17.48 40.04 17.90&#xA;  Q 40.28 18.36 39.93 18.74&#xA;  Q 39.34 19.40 38.75 18.91&#xA;  Z" fill="#add3d3"/>
<path d="M 29.32 18.74&#xA;  L 30.92 21.95&#xA;  A 1.38 1.28 63.7 0 0 32.68 22.62&#xA;  Q 32.85 22.53 32.93 22.00&#xA;  Q 34.80 23.74 34.66 27.22&#xA;  C 31.03 27.82 29.02 23.20 28.11 20.28&#xA;  Q 28.95 19.64 29.32 18.74&#xA;  Z" fill="#fcb3b4"/>
<path d="M 0.00 19.08&#xA;  L 12.44 19.70&#xA;  Q 12.42 23.23 12.35 25.50&#xA;  Q 12.27 27.97 15.27 27.64&#xA;  L 12.86 27.84&#xA;  Q 12.38 27.88 12.02 27.57&#xA;  Q 11.60 27.20 11.25 27.51&#xA;  Q 10.90 27.81 10.43 27.82&#xA;  L 0.00 28.07&#xA;  L 0.00 19.08&#xA;  Z&#xA;  M 4.16 23.41&#xA;  Q 4.43 24.26 5.45 23.98&#xA;  Q 5.98 23.84 6.01 23.29&#xA;  Q 6.02 23.11 6.01 22.93&#xA;  Q 5.97 22.37 5.41 22.30&#xA;  Q 4.57 22.20 4.21 22.83&#xA;  Q 4.06 23.11 4.16 23.41&#xA;  Z" fill="#525d7f"/>
<path d="M 28.11 20.28&#xA;  C 29.02 23.20 31.03 27.82 34.66 27.22&#xA;  Q 35.66 27.59 36.80 26.72&#xA;  C 38.74 30.72 34.96 31.45 32.18 32.50&#xA;  L 26.75 27.85&#xA;  A 1.32 1.28 63.3 0 0 25.86 27.54&#xA;  L 21.04 27.64&#xA;  L 19.47 27.76&#xA;  Q 18.95 27.75 18.48 27.50&#xA;  L 18.62 26.76&#xA;  Q 18.69 26.33 19.03 26.04&#xA;  L 24.26 21.48&#xA;  A 0.82 0.81 22.6 0 1 24.78 21.27&#xA;  Q 26.77 21.18 28.11 20.28&#xA;  Z" fill="#d4bbf5"/>
<path d="M 48.00 21.44&#xA;  L 48.00 38.00&#xA;  C 47.61 43.00 43.75 47.72 38.51 47.80&#xA;  C 36.10 43.42 34.32 37.23 28.05 37.56&#xA;  Q 25.58 37.27 24.07 37.91&#xA;  A 0.74 0.74 0.0 0 1 23.06 37.06&#xA;  L 23.79 34.00&#xA;  Q 24.56 32.51 24.31 30.90&#xA;  A 1.13 1.12 -78.3 0 0 23.82 30.14&#xA;  Q 22.45 29.21 21.72 27.79&#xA;  C 24.80 26.88 27.46 31.18 28.90 32.37&#xA;  Q 30.43 33.63 32.18 32.50&#xA;  C 34.96 31.45 38.74 30.72 36.80 26.72&#xA;  L 35.93 22.85&#xA;  Q 37.00 20.29 38.60 21.17&#xA;  A 1.49 1.44 58.5 0 0 39.30 21.35&#xA;  L 48.00 21.44&#xA;  Z&#xA;  M 44.30 26.13&#xA;  A 0.95 0.95 0.0 0 0 43.35 25.18&#xA;  A 0.95 0.95 0.0 0 0 42.40 26.13&#xA;  A 0.95 0.95 0.0 0 0 43.35 27.08&#xA;  A 0.95 0.95 0.0 0 0 44.30 26.13&#xA;  Z" fill="#454c63"/>
<path d="M 4.16 23.41&#xA;  Q 4.06 23.11 4.21 22.83&#xA;  Q 4.57 22.20 5.41 22.30&#xA;  Q 5.97 22.37 6.01 22.93&#xA;  Q 6.02 23.11 6.01 23.29&#xA;  Q 5.98 23.84 5.45 23.98&#xA;  Q 4.43 24.26 4.16 23.41&#xA;  Z" fill="#add3d3"/>
<circle cx="43.35" cy="26.13" fill="#dea4a0" r="0.95"/>
<path d="M 15.27 27.64&#xA;  L 18.48 27.50&#xA;  Q 18.95 27.75 19.47 27.76&#xA;  L 18.96 28.77&#xA;  L 17.84 32.10&#xA;  L 15.44 37.79&#xA;  Q 12.97 38.22 11.75 40.47&#xA;  L 7.77 47.69&#xA;  Q 0.83 45.31 0.00 38.11&#xA;  L 0.00 28.07&#xA;  L 10.43 27.82&#xA;  Q 10.90 27.81 11.25 27.51&#xA;  Q 11.60 27.20 12.02 27.57&#xA;  Q 12.38 27.88 12.86 27.84&#xA;  L 15.27 27.64&#xA;  Z&#xA;  M 6.53 36.33&#xA;  A 1.40 1.40 0.0 0 0 5.13 34.93&#xA;  A 1.40 1.40 0.0 0 0 3.73 36.33&#xA;  A 1.40 1.40 0.0 0 0 5.13 37.73&#xA;  A 1.40 1.40 0.0 0 0 6.53 36.33&#xA;  Z" fill="#454c63"/>
<path d="M 32.18 32.50&#xA;  Q 30.43 33.63 28.90 32.37&#xA;  C 27.46 31.18 24.80 26.88 21.72 27.79&#xA;  Q 21.37 27.61 21.04 27.64&#xA;  L 25.86 27.54&#xA;  A 1.32 1.28 63.3 0 1 26.75 27.85&#xA;  L 32.18 32.50&#xA;  Z" fill="#9f86c3"/>
<path d="M 19.47 27.76&#xA;  L 21.04 27.64&#xA;  Q 21.37 27.61 21.72 27.79&#xA;  Q 22.45 29.21 23.82 30.14&#xA;  A 1.13 1.12 -78.3 0 1 24.31 30.90&#xA;  Q 24.56 32.51 23.79 34.00&#xA;  Q 21.27 31.84 19.78 29.15&#xA;  A 0.71 0.68 78.4 0 0 19.29 28.81&#xA;  Q 19.14 28.79 18.96 28.77&#xA;  L 19.47 27.76&#xA;  Z" fill="#a37880"/>
<path d="M 18.96 28.77&#xA;  Q 19.14 28.79 19.29 28.81&#xA;  A 0.71 0.68 78.4 0 1 19.78 29.15&#xA;  Q 21.27 31.84 23.79 34.00&#xA;  L 23.06 37.06&#xA;  A 0.74 0.74 0.0 0 0 24.07 37.91&#xA;  Q 25.58 37.27 28.05 37.56&#xA;  Q 26.84 39.03 24.52 39.50&#xA;  Q 22.54 39.90 22.29 38.98&#xA;  Q 21.06 35.19 17.84 32.10&#xA;  L 18.96 28.77&#xA;  Z" fill="#dea4a0"/>
<path d="M 17.84 32.10&#xA;  Q 21.06 35.19 22.29 38.98&#xA;  L 18.79 37.77&#xA;  Q 18.32 37.60 17.81 37.63&#xA;  L 15.44 37.79&#xA;  L 17.84 32.10&#xA;  Z" fill="#add3d3"/>
<circle cx="5.13" cy="36.33" fill="#a1b5eb" r="1.40"/>
<path d="M 22.29 38.98&#xA;  Q 22.54 39.90 24.52 39.50&#xA;  Q 26.84 39.03 28.05 37.56&#xA;  C 34.32 37.23 36.10 43.42 38.51 47.80&#xA;  Q 38.46 47.90 38.41 48.00&#xA;  L 35.07 48.00&#xA;  Q 32.64 45.80 30.34 43.68&#xA;  Q 28.59 42.06 26.28 43.44&#xA;  Q 25.85 43.70 25.45 43.41&#xA;  L 22.65 41.43&#xA;  Q 22.29 41.17 21.84 41.09&#xA;  L 19.81 40.74&#xA;  Q 16.50 38.64 14.08 41.25&#xA;  L 12.71 41.64&#xA;  Q 12.24 41.77 12.00 41.35&#xA;  Q 11.81 41.02 11.75 40.47&#xA;  Q 12.97 38.22 15.44 37.79&#xA;  L 17.81 37.63&#xA;  Q 18.32 37.60 18.79 37.77&#xA;  L 22.29 38.98&#xA;  Z" fill="#f2ebd7"/>
<path d="M 19.81 40.74&#xA;  Q 20.21 41.46 20.60 41.67&#xA;  L 24.22 48.00&#xA;  L 9.37 48.00&#xA;  Q 9.53 47.75 9.85 47.67&#xA;  Q 10.30 47.55 10.54 47.16&#xA;  L 14.08 41.25&#xA;  Q 16.50 38.64 19.81 40.74&#xA;  Z" fill="#373843"/>
<path d="M 11.75 40.47&#xA;  Q 11.81 41.02 12.00 41.35&#xA;  Q 12.24 41.77 12.71 41.64&#xA;  L 14.08 41.25&#xA;  L 10.54 47.16&#xA;  Q 10.30 47.55 9.85 47.67&#xA;  Q 9.53 47.75 9.37 48.00&#xA;  L 9.03 48.00&#xA;  Q 8.46 47.63 7.77 47.69&#xA;  L 11.75 40.47&#xA;  Z" fill="#a3bac8"/>
<path d="M 19.81 40.74&#xA;  L 21.84 41.09&#xA;  Q 22.29 41.17 22.65 41.43&#xA;  L 25.45 43.41&#xA;  Q 25.85 43.70 26.28 43.44&#xA;  Q 28.59 42.06 30.34 43.68&#xA;  Q 32.64 45.80 35.07 48.00&#xA;  L 27.02 48.00&#xA;  C 25.98 46.03 25.21 44.50 23.19 43.28&#xA;  Q 21.94 42.52 20.60 41.67&#xA;  Q 20.21 41.46 19.81 40.74&#xA;  Z" fill="#dcb9c3"/>
<path d="M 20.60 41.67&#xA;  Q 21.94 42.52 23.19 43.28&#xA;  C 25.21 44.50 25.98 46.03 27.02 48.00&#xA;  L 24.22 48.00&#xA;  L 20.60 41.67&#xA;  Z" fill="#9f97a5"/>
</svg>