<?xml version="1.0" encoding="utf-8"?>
<svg xmlns="http://www.w3.org/2000/svg" version="1.1" viewBox="0.00 0.00 32.00 32.00">
<g fill="none" stroke-linecap="butt" stroke-width="2.00">
<path d="M 28.14 6.58&#xA;  L 10.83 6.58&#xA;  Q 8.23 6.58 7.68 9.12&#xA;  L 4.04 26.03" stroke="#1d68fd"/>
<path d="M 4.04 26.03&#xA;  Q 4.05 26.24 3.82 26.46" stroke="#80bbf9"/>
<path d="M 28.46 6.70&#xA;  L 24.19 24.48&#xA;  A 2.64 2.63 6.6 0 1 21.64 26.50&#xA;  L 13.60 26.53" stroke="#8d2bea"/>
<path d="M 13.60 26.53&#xA;  Q 8.78 26.54 4.70 26.43&#xA;  Q 4.47 26.43 4.32 26.32&#xA;  Q 4.18 26.20 4.04 26.03" stroke="#9c53fb"/>
<path d="M 21.22 18.26&#xA;  Q 20.50 18.52 19.61 17.76&#xA;  A 0.50 0.50 0.0 0 0 18.85 17.88&#xA;  L 18.66 18.21&#xA;  Q 18.26 18.89 18.93 19.29&#xA;  Q 21.89 21.08 23.92 18.39&#xA;  A 1.36 1.36 0.0 0 0 23.45 16.36&#xA;  L 21.37 15.31&#xA;  A 0.40 0.40 0.0 0 1 21.53 14.56&#xA;  Q 22.59 14.51 23.63 14.79&#xA;  A 0.48 0.48 0.0 0 0 24.24 14.32&#xA;  L 24.23 13.97&#xA;  Q 24.22 13.40 23.68 13.21&#xA;  Q 20.09 11.91 19.13 15.27&#xA;  A 0.77 0.76 24.4 0 0 19.46 16.13&#xA;  L 21.32 17.28&#xA;  Q 22.28 17.87 21.22 18.26" stroke="#9c80ff"/>
<path d="M 14.96 16.25&#xA;  L 14.63 14.36&#xA;  Q 14.18 11.71 12.67 13.90&#xA;  Q 12.28 14.47 11.76 15.86&#xA;  Q 11.05 17.78 10.77 15.76&#xA;  L 10.49 13.76&#xA;  Q 10.38 12.98 9.59 13.02&#xA;  L 9.29 13.03&#xA;  Q 8.38 13.07 8.56 13.96&#xA;  L 9.58 19.23&#xA;  Q 9.68 19.71 10.16 19.75&#xA;  Q 10.75 19.80 11.30 19.58&#xA;  Q 11.78 19.39 11.90 18.88&#xA;  Q 12.19 17.66 13.06 16.77&#xA;  Q 13.65 16.16 13.72 17.01&#xA;  L 13.87 18.77&#xA;  A 1.11 1.09 -72.6 0 0 14.25 19.51&#xA;  Q 15.39 20.47 16.03 19.26&#xA;  Q 17.47 16.48 18.68 13.81&#xA;  A 0.55 0.54 -78.2 0 0 18.18 13.04&#xA;  L 17.85 13.04&#xA;  Q 17.03 13.05 16.70 13.80&#xA;  L 15.58 16.33&#xA;  Q 15.14 17.33 14.96 16.25" stroke="#9c80ff"/>
<path d="M 11.36 30.48&#xA;  L 13.60 26.53" stroke="#f07ee5"/>
</g>
<path d="M 28.14 6.58&#xA;  L 10.83 6.58&#xA;  Q 8.23 6.58 7.68 9.12&#xA;  L 4.04 26.03&#xA;  Q 4.05 26.24 3.82 26.46&#xA;  Q 1.38 26.74 0.00 24.58&#xA;  L 0.00 22.84&#xA;  L 3.88 5.92&#xA;  A 4.76 4.75 6.4 0 1 8.52 2.22&#xA;  Q 16.33 2.22 24.69 2.22&#xA;  C 27.78 2.22 28.85 3.53 28.14 6.58&#xA;  Z" fill="#00d0fb"/>
<path d="M 28.14 6.58&#xA;  Q 28.15 6.28 28.46 6.70&#xA;  L 24.19 24.48&#xA;  A 2.64 2.63 6.6 0 1 21.64 26.50&#xA;  L 13.60 26.53&#xA;  Q 8.78 26.54 4.70 26.43&#xA;  Q 4.47 26.43 4.32 26.32&#xA;  Q 4.18 26.20 4.04 26.03&#xA;  L 7.68 9.12&#xA;  Q 8.23 6.58 10.83 6.58&#xA;  L 28.14 6.58&#xA;  Z&#xA;  M 21.22 18.26&#xA;  Q 20.50 18.52 19.61 17.76&#xA;  A 0.50 0.50 0.0 0 0 18.85 17.88&#xA;  L 18.66 18.21&#xA;  Q 18.26 18.89 18.93 19.29&#xA;  Q 21.89 21.08 23.92 18.39&#xA;  A 1.36 1.36 0.0 0 0 23.45 16.36&#xA;  L 21.37 15.31&#xA;  A 0.40 0.40 0.0 0 1 21.53 14.56&#xA;  Q 22.59 14.51 23.63 14.79&#xA;  A 0.48 0.48 0.0 0 0 24.24 14.32&#xA;  L 24.23 13.97&#xA;  Q 24.22 13.40 23.68 13.21&#xA;  Q 20.09 11.91 19.13 15.27&#xA;  A 0.77 0.76 24.4 0 0 19.46 16.13&#xA;  L 21.32 17.28&#xA;  Q 22.28 17.87 21.22 18.26&#xA;  Z&#xA;  M 14.96 16.25&#xA;  L 14.63 14.36&#xA;  Q 14.18 11.71 12.67 13.90&#xA;  Q 12.28 14.47 11.76 15.86&#xA;  Q 11.05 17.78 10.77 15.76&#xA;  L 10.49 13.76&#xA;  Q 10.38 12.98 9.59 13.02&#xA;  L 9.29 13.03&#xA;  Q 8.38 13.07 8.56 13.96&#xA;  L 9.58 19.23&#xA;  Q 9.68 19.71 10.16 19.75&#xA;  Q 10.75 19.80 11.30 19.58&#xA;  Q 11.78 19.39 11.90 18.88&#xA;  Q 12.19 17.66 13.06 16.77&#xA;  Q 13.65 16.16 13.72 17.01&#xA;  L 13.87 18.77&#xA;  A 1.11 1.09 -72.6 0 0 14.25 19.51&#xA;  Q 15.39 20.47 16.03 19.26&#xA;  Q 17.47 16.48 18.68 13.81&#xA;  A 0.55 0.54 -78.2 0 0 18.18 13.04&#xA;  L 17.85 13.04&#xA;  Q 17.03 13.05 16.70 13.80&#xA;  L 15.58 16.33&#xA;  Q 15.14 17.33 14.96 16.25&#xA;  Z" fill="#3900ff"/>
<path d="M 28.46 6.70&#xA;  Q 31.24 6.46 32.00 9.15&#xA;  L 32.00 9.71&#xA;  L 28.04 27.67&#xA;  A 3.62 3.60 6.2 0 1 24.51 30.50&#xA;  L 11.36 30.48&#xA;  L 13.60 26.53&#xA;  L 21.64 26.50&#xA;  A 2.64 2.63 6.6 0 0 24.19 24.48&#xA;  L 28.46 6.70&#xA;  Z" fill="#e156d4"/>
<path d="M 21.22 18.26&#xA;  Q 22.28 17.87 21.32 17.28&#xA;  L 19.46 16.13&#xA;  A 0.77 0.76 24.4 0 1 19.13 15.27&#xA;  Q 20.09 11.91 23.68 13.21&#xA;  Q 24.22 13.40 24.23 13.97&#xA;  L 24.24 14.32&#xA;  A 0.48 0.48 0.0 0 1 23.63 14.79&#xA;  Q 22.59 14.51 21.53 14.56&#xA;  A 0.40 0.40 0.0 0 0 21.37 15.31&#xA;  L 23.45 16.36&#xA;  A 1.36 1.36 0.0 0 1 23.92 18.39&#xA;  Q 21.89 21.08 18.93 19.29&#xA;  Q 18.26 18.89 18.66 18.21&#xA;  L 18.85 17.88&#xA;  A 0.50 0.50 0.0 0 1 19.61 17.76&#xA;  Q 20.50 18.52 21.22 18.26&#xA;  Z" fill="#fffffe"/>
<path d="M 15.58 16.33&#xA;  L 16.70 13.80&#xA;  Q 17.03 13.05 17.85 13.04&#xA;  L 18.18 13.04&#xA;  A 0.55 0.54 -78.2 0 1 18.68 13.81&#xA;  Q 17.47 16.48 16.03 19.26&#xA;  Q 15.39 20.47 14.25 19.51&#xA;  A 1.11 1.09 -72.6 0 1 13.87 18.77&#xA;  L 13.72 17.01&#xA;  Q 13.65 16.16 13.06 16.77&#xA;  Q 12.19 17.66 11.90 18.88&#xA;  Q 11.78 19.39 11.30 19.58&#xA;  Q 10.75 19.80 10.16 19.75&#xA;  Q 9.68 19.71 9.58 19.23&#xA;  L 8.56 13.96&#xA;  Q 8.38 13.07 9.29 13.03&#xA;  L 9.59 13.02&#xA;  Q 10.38 12.98 10.49 13.76&#xA;  L 10.77 15.76&#xA;  Q 11.05 17.78 11.76 15.86&#xA;  Q 12.28 14.47 12.67 13.90&#xA;  Q 14.18 11.71 14.63 14.36&#xA;  L 14.96 16.25&#xA;  Q 15.14 17.33 15.58 16.33&#xA;  Z" fill="#fffffe"/>
<path d="M 4.04 26.03&#xA;  Q 4.18 26.20 4.32 26.32&#xA;  Q 4.47 26.43 4.70 26.43&#xA;  Q 8.78 26.54 13.60 26.53&#xA;  L 11.36 30.48&#xA;  L 5.75 30.52&#xA;  A 2.10 2.10 0.0 0 1 3.83 27.54&#xA;  Q 4.14 26.87 3.82 26.46&#xA;  Q 4.05 26.24 4.04 26.03&#xA;  Z" fill="#ffa5f6"/>
</svg>