<?xml version="1.0" encoding="utf-8"?>
<svg xmlns="http://www.w3.org/2000/svg" version="1.1" viewBox="0.00 0.00 32.00 32.00">
<path d="M 16.43 10.54&#xA;  A 0.62 0.62 0.0 0 1 15.55 10.54&#xA;  L 9.41 4.45&#xA;  A 0.62 0.62 0.0 0 0 8.53 4.45&#xA;  L 4.46 8.54&#xA;  A 0.62 0.62 0.0 0 0 4.46 9.42&#xA;  L 10.54 15.56&#xA;  A 0.62 0.62 0.0 0 1 10.54 16.44&#xA;  L 4.46 22.56&#xA;  A 0.62 0.62 0.0 0 0 4.47 23.44&#xA;  L 8.55 27.53&#xA;  A 0.62 0.62 0.0 0 0 9.43 27.54&#xA;  L 15.57 21.45&#xA;  A 0.62 0.62 0.0 0 1 16.45 21.45&#xA;  L 22.59 27.54&#xA;  A 0.62 0.62 0.0 0 0 23.47 27.54&#xA;  L 27.54 23.45&#xA;  A 0.62 0.62 0.0 0 0 27.55 22.57&#xA;  L 21.44 16.43&#xA;  A 0.62 0.62 0.0 0 1 21.44 15.55&#xA;  L 27.55 9.42&#xA;  A 0.62 0.62 0.0 0 0 27.55 8.54&#xA;  L 23.44 4.46&#xA;  A 0.62 0.62 0.0 0 0 22.56 4.46&#xA;  L 16.43 10.54" fill="none" stroke="#906b24" stroke-linecap="butt" stroke-width="2.00"/>
<path d="M 0.00 0.00&#xA;  L 32.00 0.00&#xA;  L 32.00 32.00&#xA;  L 0.00 32.00&#xA;  L 0.00 0.00&#xA;  Z&#xA;  M 16.43 10.54&#xA;  A 0.62 0.62 0.0 0 1 15.55 10.54&#xA;  L 9.41 4.45&#xA;  A 0.62 0.62 0.0 0 0 8.53 4.45&#xA;  L 4.46 8.54&#xA;  A 0.62 0.62 0.0 0 0 4.46 9.42&#xA;  L 10.54 15.56&#xA;  A 0.62 0.62 0.0 0 1 10.54 16.44&#xA;  L 4.46 22.56&#xA;  A 0.62 0.62 0.0 0 0 4.47 23.44&#xA;  L 8.55 27.53&#xA;  A 0.62 0.62 0.0 0 0 9.43 27.54&#xA;  L 15.57 21.45&#xA;  A 0.62 0.62 0.0 0 1 16.45 21.45&#xA;  L 22.59 27.54&#xA;  A 0.62 0.62 0.0 0 0 23.47 27.54&#xA;  L 27.54 23.45&#xA;  A 0.62 0.62 0.0 0 0 27.55 22.57&#xA;  L 21.44 16.43&#xA;  A 0.62 0.62 0.0 0 1 21.44 15.55&#xA;  L 27.55 9.42&#xA;  A 0.62 0.62 0.0 0 0 27.55 8.54&#xA;  L 23.44 4.46&#xA;  A 0.62 0.62 0.0 0 0 22.56 4.46&#xA;  L 16.43 10.54&#xA;  Z" fill="#211f1e"/>
<path d="M 16.43 10.54&#xA;  L 22.56 4.46&#xA;  A 0.62 0.62 0.0 0 1 23.44 4.46&#xA;  L 27.55 8.54&#xA;  A 0.62 0.62 0.0 0 1 27.55 9.42&#xA;  L 21.44 15.55&#xA;  A 0.62 0.62 0.0 0 0 21.44 16.43&#xA;  L 27.55 22.57&#xA;  A 0.62 0.62 0.0 0 1 27.54 23.45&#xA;  L 23.47 27.54&#xA;  A 0.62 0.62 0.0 0 1 22.59 27.54&#xA;  L 16.45 21.45&#xA;  A 0.62 0.62 0.0 0 0 15.57 21.45&#xA;  L 9.43 27.54&#xA;  A 0.62 0.62 0.0 0 1 8.55 27.53&#xA;  L 4.47 23.44&#xA;  A 0.62 0.62 0.0 0 1 4.46 22.56&#xA;  L 10.54 16.44&#xA;  A 0.62 0.62 0.0 0 0 10.54 15.56&#xA;  L 4.46 9.42&#xA;  A 0.62 0.62 0.0 0 1 4.46 8.54&#xA;  L 8.53 4.45&#xA;  A 0.62 0.62 0.0 0 1 9.41 4.45&#xA;  L 15.55 10.54&#xA;  A 0.62 0.62 0.0 0 0 16.43 10.54&#xA;  Z" fill="#ffb629"/>
</svg>